<?xml version="1.0" encoding="UTF-8" standalone="no"?>
<!-- Created with Inkscape (http://www.inkscape.org/) -->

<svg
   xmlns:dc="http://purl.org/dc/elements/1.1/"
   xmlns:cc="http://creativecommons.org/ns#"
   xmlns:rdf="http://www.w3.org/1999/02/22-rdf-syntax-ns#"
   xmlns:svg="http://www.w3.org/2000/svg"
   xmlns="http://www.w3.org/2000/svg"
   xmlns:xlink="http://www.w3.org/1999/xlink"
   xmlns:sodipodi="http://sodipodi.sourceforge.net/DTD/sodipodi-0.dtd"
   xmlns:inkscape="http://www.inkscape.org/namespaces/inkscape"
   width="744.09003"
   height="1052.3622"
   id="svg2"
   version="1.1"
   inkscape:version="0.48.3.1 r9886"
   sodipodi:docname="Aushang_A4_sw.svg">
  <defs
     id="defs4">
    <clipPath
       id="clipPath3981"
       clipPathUnits="userSpaceOnUse">
      <path
         id="path3983"
         d="m 0,91.5 229.5,0 L 229.5,0 0,0 0,91.5 z" />
    </clipPath>
    <linearGradient
       id="linearGradient3969"
       spreadMethod="pad"
       gradientTransform="matrix(-32.735172,-4.4841557,-4.4841557,32.735172,44.714844,30.483398)"
       gradientUnits="userSpaceOnUse"
       y2="0"
       x2="1"
       y1="0"
       x1="0">
      <stop
         id="stop3971"
         offset="0"
         style="stop-opacity:1;stop-color:#ff4521" />
      <stop
         id="stop3973"
         offset="1"
         style="stop-opacity:1;stop-color:#8a33db" />
    </linearGradient>
    <linearGradient
       id="linearGradient3949"
       spreadMethod="pad"
       gradientTransform="matrix(-9.4440823,36.438847,36.438847,9.4440823,25.669434,28.09375)"
       gradientUnits="userSpaceOnUse"
       y2="0"
       x2="1"
       y1="0"
       x1="0">
      <stop
         id="stop3951"
         offset="0"
         style="stop-opacity:1;stop-color:#63ffd4" />
      <stop
         id="stop3953"
         offset="1"
         style="stop-opacity:1;stop-color:#064aa2" />
    </linearGradient>
    <linearGradient
       id="linearGradient3929"
       spreadMethod="pad"
       gradientTransform="matrix(15.62476,-26.685089,-26.685089,-15.62476,30.330078,56.37207)"
       gradientUnits="userSpaceOnUse"
       y2="0"
       x2="1"
       y1="0"
       x1="0">
      <stop
         id="stop3931"
         offset="0"
         style="stop-opacity:1;stop-color:#ff177b" />
      <stop
         id="stop3933"
         offset="1"
         style="stop-opacity:1;stop-color:#ffec73" />
    </linearGradient>
    <linearGradient
       id="linearGradient3909"
       spreadMethod="pad"
       gradientTransform="matrix(-6.1052017,26.529026,26.529026,6.1052017,31.091309,38.163086)"
       gradientUnits="userSpaceOnUse"
       y2="0"
       x2="1"
       y1="0"
       x1="0">
      <stop
         id="stop3911"
         offset="0"
         style="stop-opacity:1;stop-color:#d6ffa1" />
      <stop
         id="stop3913"
         offset="1"
         style="stop-opacity:1;stop-color:#00a3b5" />
    </linearGradient>
    <clipPath
       id="clipPath3847"
       clipPathUnits="userSpaceOnUse">
      <path
         id="path3849"
         d="m 0,91.5 229.5,0 L 229.5,0 0,0 0,91.5 z" />
    </clipPath>
    <clipPath
       id="clipPath3837"
       clipPathUnits="userSpaceOnUse">
      <path
         id="path3839"
         d="m 0,91.5 229.5,0 L 229.5,0 0,0 0,91.5 z" />
    </clipPath>
    <linearGradient
       id="linearGradient4364"
       spreadMethod="pad"
       gradientTransform="matrix(-9.15e-6,-209.218,-209.218,9.15e-6,194.257,244.038)"
       gradientUnits="userSpaceOnUse"
       y2="0"
       x2="1"
       y1="0"
       x1="0">
      <stop
         id="stop4366"
         offset="0"
         style="stop-opacity:1;stop-color:#f79328" />
      <stop
         id="stop4368"
         offset="1"
         style="stop-opacity:1;stop-color:#c55c19" />
    </linearGradient>
    <clipPath
       id="clipPath4360"
       clipPathUnits="userSpaceOnUse">
      <path
         id="path4362"
         d="m 3490.54,740.039 c 0,-216.398 -175.42,-391.84 -391.83,-391.84 l -2312.269,0 c -216.402,0 -391.832,175.442 -391.832,391.84 l 0,1700.341 c 0,0 659.101,-114.89 1547.971,-108.38 834.63,6.11 1547.96,108.38 1547.96,108.38 l 0,-1700.341 z" />
    </clipPath>
    <linearGradient
       inkscape:collect="always"
       xlink:href="#linearGradient3909"
       id="linearGradient4197"
       gradientUnits="userSpaceOnUse"
       gradientTransform="matrix(-6.1052017,26.529026,26.529026,6.1052017,31.091309,38.163086)"
       spreadMethod="pad"
       x1="0"
       y1="0"
       x2="1"
       y2="0" />
    <linearGradient
       inkscape:collect="always"
       xlink:href="#linearGradient3929"
       id="linearGradient4199"
       gradientUnits="userSpaceOnUse"
       gradientTransform="matrix(15.62476,-26.685089,-26.685089,-15.62476,30.330078,56.37207)"
       spreadMethod="pad"
       x1="0"
       y1="0"
       x2="1"
       y2="0" />
    <linearGradient
       inkscape:collect="always"
       xlink:href="#linearGradient3949"
       id="linearGradient4201"
       gradientUnits="userSpaceOnUse"
       gradientTransform="matrix(-9.4440823,36.438847,36.438847,9.4440823,25.669434,28.09375)"
       spreadMethod="pad"
       x1="0"
       y1="0"
       x2="1"
       y2="0" />
    <linearGradient
       inkscape:collect="always"
       xlink:href="#linearGradient3969"
       id="linearGradient4203"
       gradientUnits="userSpaceOnUse"
       gradientTransform="matrix(-32.735172,-4.4841557,-4.4841557,32.735172,44.714844,30.483398)"
       spreadMethod="pad"
       x1="0"
       y1="0"
       x2="1"
       y2="0" />
    <linearGradient
       inkscape:collect="always"
       xlink:href="#linearGradient4364"
       id="linearGradient4386"
       gradientUnits="userSpaceOnUse"
       gradientTransform="matrix(-9.15e-6,-209.218,-209.218,9.15e-6,194.257,244.038)"
       spreadMethod="pad"
       x1="0"
       y1="0"
       x2="1"
       y2="0" />
    <linearGradient
       inkscape:collect="always"
       xlink:href="#linearGradient4364"
       id="linearGradient4438"
       gradientUnits="userSpaceOnUse"
       gradientTransform="matrix(-9.15e-6,-209.218,-209.218,9.15e-6,194.257,244.038)"
       spreadMethod="pad"
       x1="0"
       y1="0"
       x2="1"
       y2="0" />
  </defs>
  <sodipodi:namedview
     id="base"
     pagecolor="#ffffff"
     bordercolor="#666666"
     borderopacity="1.0"
     inkscape:pageopacity="0.0"
     inkscape:pageshadow="2"
     inkscape:zoom="0.70710678"
     inkscape:cx="349.15895"
     inkscape:cy="538.77593"
     inkscape:document-units="px"
     inkscape:current-layer="layer1"
     showgrid="true"
     inkscape:window-width="1916"
     inkscape:window-height="1041"
     inkscape:window-x="1680"
     inkscape:window-y="18"
     inkscape:window-maximized="0"
     showguides="true"
     gridtolerance="1">
    <inkscape:grid
       type="xygrid"
       id="grid3780"
       empspacing="5"
       visible="true"
       enabled="false"
       snapvisiblegridlinesonly="false"
       units="cm"
       spacingx="1cm"
       spacingy="1cm"
       dotted="false" />
  </sodipodi:namedview>
  <metadata
     id="metadata7">
    <rdf:RDF>
      <cc:Work
         rdf:about="">
        <dc:format>image/svg+xml</dc:format>
        <dc:type
           rdf:resource="http://purl.org/dc/dcmitype/StillImage" />
        <dc:title />
      </cc:Work>
    </rdf:RDF>
  </metadata>
  <g
     inkscape:label="Ebene 1"
     inkscape:groupmode="layer"
     id="layer1">
    <rect
       style="fill:#d8d8d8;fill-opacity:1;stroke:none"
       id="rect3004"
       width="744.09003"
       height="273.68353"
       x="0"
       y="0.1723464" />
    <text
       xml:space="preserve"
       style="font-size:69.21393585px;font-style:normal;font-variant:normal;font-weight:normal;font-stretch:normal;line-height:87.99999952%;letter-spacing:0px;word-spacing:0px;fill:#000000;fill-opacity:1;stroke:none;font-family:Abyssinica SIL;-inkscape-font-specification:Abyssinica SIL"
       x="709.56818"
       y="112.15068"
       id="text3774"
       sodipodi:linespacing="88%"><tspan
         sodipodi:role="line"
         x="709.56818"
         y="112.15068"
         id="tspan3778"
         style="font-size:80px;font-style:normal;font-variant:normal;font-weight:300;font-stretch:normal;text-align:end;line-height:87.99999952%;writing-mode:lr-tb;text-anchor:end;fill:#000000;font-family:Roboto;-inkscape-font-specification:Roboto Light">Die Bücherei auf</tspan><tspan
         sodipodi:role="line"
         x="709.56818"
         y="182.55067"
         style="font-size:80px;font-style:normal;font-variant:normal;font-weight:300;font-stretch:normal;text-align:end;line-height:87.99999952%;writing-mode:lr-tb;text-anchor:end;fill:#000000;font-family:Roboto;-inkscape-font-specification:Roboto Light"
         id="tspan4501">dem Smartphone</tspan></text>
    <text
       xml:space="preserve"
       style="font-size:43.52587891000000297px;font-style:normal;font-variant:normal;font-weight:normal;font-stretch:normal;line-height:125%;letter-spacing:0px;word-spacing:0px;fill:#000000;fill-opacity:1;stroke:none;font-family:Qlassik Bold;-inkscape-font-specification:Qlassik Bold"
       x="112.2566"
       y="252.12343"
       id="text3782"
       sodipodi:linespacing="125%"><tspan
         sodipodi:role="line"
         id="tspan3784"
         x="112.2566"
         y="252.12343"
         style="font-style:normal;font-variant:normal;font-weight:500;font-stretch:normal;fill:#000000;font-family:Roboto;-inkscape-font-specification:Roboto Medium">Stadtbibliotheken für Android™</tspan></text>
    <g
       id="g4270">
      <path
         inkscape:connector-curvature="0"
         d="m 709.79866,933.81432 c 0,7.54062 -5.6576,12.22897 -13.35321,12.22897 l -226.22738,0 c -7.69915,0 -13.94174,-6.11679 -13.94174,-13.65741 l 0,-57.68749 c 0,-7.54062 6.24259,-13.6551 13.94174,-13.6551 l 226.22738,0 c 7.69561,0 13.35321,6.11448 13.35321,13.6551 l 0,59.11593 z"
         style="fill:#555555;fill-opacity:1;fill-rule:nonzero;stroke:none"
         id="path3853" />
      <g
         transform="matrix(1.179404,0,0,-1.179404,623.88757,911.47991)"
         id="g3859">
        <path
           id="path3861"
           style="fill:#ffffff;fill-opacity:1;fill-rule:nonzero;stroke:none"
           d="m 0,0 c 0.645,0.234 0.979,0.437 0.979,0.906 0,1.348 -1.525,2.905 -3.344,2.905 -1.349,0 -3.879,-1.05 -3.879,-4.696 0,-0.569 0.067,-1.175 0.101,-1.781 L 0,0 z m 4.786,-8.533 -1.614,-1.523 c -0.372,-0.205 -0.743,-0.443 -1.113,-0.612 -1.122,-0.509 -2.261,-0.637 -3.275,-0.637 -1.078,0 -2.767,0.07 -4.491,1.317 -2.396,1.687 -3.442,4.587 -3.442,7.114 0,5.232 4.258,7.798 7.732,7.798 1.215,0 2.462,-0.304 3.476,-0.945 1.685,-1.115 2.122,-2.564 2.364,-3.34 l -7.934,-3.205 -2.597,-0.203 c 0.84,-4.289 3.743,-6.784 6.95,-6.784 1.601,0 2.791,0.523 3.882,1.062 0,0 0.218,0.114 0.062,-0.042"
           inkscape:connector-curvature="0" />
      </g>
      <g
         transform="matrix(1.179404,0,0,-1.179404,609.96966,921.23535)"
         id="g3863">
        <path
           id="path3865"
           style="fill:#ffffff;fill-opacity:1;fill-rule:nonzero;stroke:none"
           d="m 0,0 c 0,-1.312 0.234,-1.516 1.343,-1.618 0.578,-0.069 1.154,-0.099 1.724,-0.166 l -1.248,-0.743 -5.947,0 c 0.78,1.011 0.914,1.112 0.914,1.787 l 0,0.753 -0.013,20.063 -2.626,0 2.528,1.218 4.826,0 C 0.455,20.688 0.143,20.319 0.008,19.139 L 0,0 z"
           inkscape:connector-curvature="0" />
      </g>
      <g
         transform="matrix(1.179404,0,0,-1.179404,597.41655,917.7317)"
         id="g3867">
        <path
           id="path3869"
           style="fill:#ffffff;fill-opacity:1;fill-rule:nonzero;stroke:none"
           d="m 0,0 c 0.78,0.778 0.848,1.854 0.848,2.466 0,2.427 -1.448,6.207 -4.252,6.207 -0.875,0 -1.824,-0.44 -2.362,-1.118 -0.57,-0.703 -0.741,-1.616 -0.741,-2.493 0,-2.259 1.318,-6.007 4.217,-6.007 0.846,0 1.756,0.411 2.29,0.945 m -0.971,-6.412 c -0.276,0.036 -0.442,0.036 -0.776,0.036 -0.306,0 -2.129,-0.066 -3.541,-0.54 -0.747,-0.273 -2.906,-1.08 -2.906,-3.478 0,-2.391 2.331,-4.116 5.937,-4.116 3.239,0 4.96,1.553 4.96,3.644 0,1.72 -1.113,2.629 -3.674,4.454 M 1.421,8.568 C 2.195,7.932 3.813,6.58 3.813,4.016 3.813,1.517 2.403,0.339 0.982,-0.776 0.547,-1.215 0.037,-1.691 0.037,-2.428 c 0,-0.746 0.51,-1.151 0.877,-1.453 l 1.219,-0.941 c 1.482,-1.251 2.833,-2.399 2.833,-4.728 0,-3.175 -3.072,-6.375 -8.877,-6.375 -4.89,0 -7.254,2.328 -7.254,4.825 0,1.216 0.604,2.937 2.601,4.116 2.091,1.279 4.926,1.45 6.444,1.549 -0.474,0.613 -1.015,1.253 -1.015,2.299 0,0.573 0.172,0.913 0.338,1.316 -0.369,-0.035 -0.741,-0.072 -1.079,-0.072 -3.579,0 -5.603,2.67 -5.603,5.302 0,1.552 0.708,3.274 2.163,4.522 1.923,1.584 4.217,1.857 6.041,1.857 l 6.954,0 -2.162,-1.221 -2.096,0 z"
           inkscape:connector-curvature="0" />
      </g>
      <g
         transform="matrix(1.179404,0,0,-1.179404,579.39385,921.51063)"
         id="g3871">
        <path
           id="path3873"
           style="fill:#ffffff;fill-opacity:1;fill-rule:nonzero;stroke:none"
           d="m 0,0 c 0.816,1.08 1.014,2.428 1.014,3.742 0,2.972 -1.416,8.64 -5.601,8.64 -1.113,0 -2.234,-0.435 -3.042,-1.146 -1.318,-1.18 -1.553,-2.664 -1.553,-4.12 0,-3.334 1.648,-8.833 5.738,-8.833 1.32,0 2.667,0.639 3.444,1.717 m -4.22,-2.73 c -5.364,0 -8.234,4.177 -8.234,7.959 0,4.418 3.608,8.2 8.74,8.2 4.961,0 8.068,-3.884 8.068,-7.962 0,-3.983 -3.071,-8.197 -8.574,-8.197"
           inkscape:connector-curvature="0" />
      </g>
      <g
         transform="matrix(1.179404,0,0,-1.179404,558.21411,921.51063)"
         id="g3875">
        <path
           id="path3877"
           style="fill:#ffffff;fill-opacity:1;fill-rule:nonzero;stroke:none"
           d="m 0,0 c 0.81,1.08 1.012,2.428 1.012,3.742 0,2.972 -1.42,8.64 -5.601,8.64 -1.117,0 -2.225,-0.435 -3.036,-1.146 -1.32,-1.18 -1.554,-2.664 -1.554,-4.12 0,-3.334 1.655,-8.833 5.738,-8.833 1.317,0 2.662,0.639 3.441,1.717 m -4.221,-2.73 c -5.365,0 -8.23,4.177 -8.23,7.959 0,4.418 3.609,8.2 8.739,8.2 4.958,0 8.062,-3.884 8.062,-7.962 0,-3.983 -3.067,-8.197 -8.571,-8.197"
           inkscape:connector-curvature="0" />
      </g>
      <g
         transform="matrix(1.179404,0,0,-1.179404,540.99988,923.34991)"
         id="g3879">
        <path
           id="path3881"
           style="fill:#ffffff;fill-opacity:1;fill-rule:nonzero;stroke:none"
           d="m 0,0 -4.524,-1.035 c -1.833,-0.289 -3.479,-0.544 -5.222,-0.544 -8.727,0 -12.051,6.424 -12.051,11.45 0,6.14 4.711,11.831 12.778,11.831 1.707,0 3.35,-0.251 4.846,-0.658 2.371,-0.667 3.48,-1.487 4.173,-1.969 l -2.628,-2.496 -1.108,-0.248 0.79,1.26 c -1.071,1.045 -3.037,2.973 -6.77,2.973 -4.991,0 -8.757,-3.793 -8.757,-9.333 0,-5.949 4.3,-11.544 11.195,-11.544 2.026,0 3.069,0.407 4.015,0.787 l 0,5.099 -4.776,-0.257 2.532,1.361 6.703,0 L 0.377,5.888 C 0.155,5.699 0.126,5.636 0.063,5.384 0.03,5.096 0,4.18 0,3.857 L 0,0 z"
           inkscape:connector-curvature="0" />
      </g>
      <g
         transform="matrix(1.179404,0,0,-1.179404,653.68828,915.37171)"
         id="g3883">
        <path
           id="path3885"
           style="fill:#ffffff;fill-opacity:1;fill-rule:nonzero;stroke:none"
           d="m 0,0 c 0,3.831 -1.997,6.753 -5.538,6.753 -2.199,0 -4.302,-1.729 -5.216,-3.235 l 0,-7.001 c 0.914,-1.51 3.017,-3.301 5.216,-3.301 C -1.997,-6.784 0,-3.837 0,0 m -10.754,-5.377 0,-8.596 -1.707,0 0,21.871 1.707,0 0,-2.49 c 1.111,1.61 3.144,2.886 5.504,2.886 4.232,0 7.084,-3.211 7.084,-8.294 0,-5.049 -2.852,-8.327 -7.084,-8.327 -2.229,0 -4.224,1.148 -5.504,2.95"
           inkscape:connector-curvature="0" />
      </g>
      <path
         id="path3887"
         style="fill:#ffffff;fill-opacity:1;fill-rule:nonzero;stroke:none"
         d="m 658.60026,898.93341 2.01206,0 0,25.79475 -2.01206,0 0,-25.79475 z"
         inkscape:connector-curvature="0" />
      <g
         transform="matrix(1.179404,0,0,-1.179404,683.20322,930.18337)"
         id="g3889">
        <path
           id="path3891"
           style="fill:#ffffff;fill-opacity:1;fill-rule:nonzero;stroke:none"
           d="m 0,0 c 0.364,-0.162 0.987,-0.263 1.383,-0.263 1.044,0 1.77,0.427 2.424,1.936 l 1.245,2.82 -6.725,15.964 1.904,0 L 6,6.623 l 5.712,13.834 1.931,0 L 5.441,1.144 c -0.85,-1.991 -2.189,-2.948 -4.029,-2.948 -0.552,0 -1.279,0.099 -1.706,0.23 L 0,0 z"
           inkscape:connector-curvature="0" />
      </g>
      <g
         transform="matrix(1.179404,0,0,-1.179404,670.178,923.20602)"
         id="g3893">
        <path
           id="path3895"
           style="fill:#ffffff;fill-opacity:1;fill-rule:nonzero;stroke:none"
           d="m 0,0 c 1.45,0 2.492,0.324 3.558,0.965 1.057,0.638 1.777,1.469 2.155,2.474 l 0,3.04 -4,0 c -1.528,0 -2.793,-0.337 -3.788,-1.02 -0.997,-0.68 -1.503,-1.503 -1.503,-2.46 0,-0.902 0.32,-1.625 0.957,-2.172 C -1.983,0.274 -1.111,0 0,0 M 6.058,-1.243 C 5.943,-0.694 5.857,-0.211 5.795,0.193 5.742,0.597 5.713,1.009 5.713,1.428 5.127,0.568 4.298,-0.146 3.239,-0.71 2.18,-1.276 1.173,-1.555 -0.209,-1.555 c -1.663,0 -2.953,0.409 -3.875,1.24 -0.918,0.829 -1.38,1.952 -1.38,3.373 0,1.419 0.669,2.571 2.003,3.452 1.334,0.885 3.059,1.324 5.192,1.324 l 3.982,0 0,1.968 c 0,1.133 -0.387,2.023 -1.157,2.67 -0.775,0.646 -1.861,0.973 -3.269,0.973 -1.287,0 -2.331,-0.299 -3.126,-0.881 -0.788,-0.593 -1.184,-1.33 -1.184,-2.216 l -1.748,0 -0.036,0.085 c -0.063,1.195 0.485,2.245 1.648,3.15 1.157,0.905 2.675,1.36 4.542,1.36 1.86,0 3.366,-0.448 4.502,-1.341 1.134,-0.885 1.703,-2.164 1.703,-3.836 l 0,-7.811 c 0,-0.56 0.026,-1.102 0.097,-1.631 0.072,-0.529 0.186,-1.056 0.339,-1.567 l -1.966,0 z"
           inkscape:connector-curvature="0" />
      </g>
      <g
         transform="matrix(1.179404,0,0,-1.179404,447.98819,957.67245)"
         id="g3897">
        <g
           id="g3899">
          <g
             id="g3905">
            <g
               id="g3907">
              <path
                 id="path3915"
                 style="fill:url(#linearGradient4197);stroke:none"
                 d="M 17.299,54.233 34.776,36.758 40.251,42.234 18.913,53.966 C 18.499,54.193 18.107,54.3 17.756,54.3 l 0,0 c -0.162,0 -0.315,-0.022 -0.457,-0.067"
                 inkscape:connector-curvature="0" />
            </g>
          </g>
        </g>
      </g>
      <g
         transform="matrix(1.179404,0,0,-1.179404,447.98819,957.67245)"
         id="g3917">
        <g
           id="g3919">
          <g
             id="g3925">
            <g
               id="g3927">
              <path
                 id="path3935"
                 style="fill:url(#linearGradient4199);stroke:none"
                 d="m 34.776,36.758 5.503,-5.503 7.283,4.005 c 1.477,0.816 1.477,2.141 0,2.954 l 0,0 -7.31,4.02 -5.476,-5.476 z"
                 inkscape:connector-curvature="0" />
            </g>
          </g>
        </g>
      </g>
      <g
         transform="matrix(1.179404,0,0,-1.179404,447.98819,957.67245)"
         id="g3937">
        <g
           id="g3939">
          <g
             id="g3945">
            <g
               id="g3947">
              <path
                 id="path3955"
                 style="fill:url(#linearGradient4201);stroke:none"
                 d="m 16.229,52.379 0.004,-31.284 c 0,-0.983 0.407,-1.63 1.037,-1.846 l 0,0 17.506,17.506 -17.478,17.478 c -0.649,-0.202 -1.069,-0.86 -1.069,-1.854"
                 inkscape:connector-curvature="0" />
            </g>
          </g>
        </g>
      </g>
      <g
         transform="matrix(1.179404,0,0,-1.179404,447.98819,957.67245)"
         id="g3957">
        <g
           id="g3959">
          <g
             id="g3965">
            <g
               id="g3967">
              <path
                 id="path3975"
                 style="fill:url(#linearGradient4203);stroke:none"
                 d="m 17.27,19.249 c 0.455,-0.155 1.024,-0.082 1.643,0.258 l 0,0 21.364,11.748 -5.501,5.5 L 17.27,19.249 z"
                 inkscape:connector-curvature="0" />
            </g>
          </g>
        </g>
      </g>
      <g
         transform="matrix(1.179404,0,0,-1.179404,447.98819,957.67245)"
         id="g3977">
        <g
           clip-path="url(#clipPath3981)"
           id="g3979">
          <g
             transform="translate(63.332,71.2188)"
             id="g3985">
            <path
               id="path3987"
               style="fill:#ffffff;fill-opacity:1;fill-rule:nonzero;stroke:none"
               d="m 0,0 -1.921,-5.09 3.842,0 L 0,0 z m 3.233,-8.804 -0.785,2.065 -4.897,0 -0.784,-2.065 -2.129,0 4.193,10.677 2.337,0 4.194,-10.677 -2.129,0 z"
               inkscape:connector-curvature="0" />
          </g>
          <g
             transform="translate(77.6846,62.415)"
             id="g3989">
            <path
               id="path3991"
               style="fill:#ffffff;fill-opacity:1;fill-rule:nonzero;stroke:none"
               d="m 0,0 -5.57,7.635 0,-7.635 -1.872,0 0,10.677 1.921,0 5.458,-7.396 0,7.396 1.873,0 L 1.81,0 0,0 z"
               inkscape:connector-curvature="0" />
          </g>
          <g
             transform="translate(89.7959,67.7607)"
             id="g3993">
            <path
               id="path3995"
               style="fill:#ffffff;fill-opacity:1;fill-rule:nonzero;stroke:none"
               d="m 0,0 c 0,2.049 -1.28,3.682 -3.649,3.682 l -2.114,0 0,-7.379 2.098,0 C -1.345,-3.697 0,-2.032 0,0 m -7.635,-5.346 0,10.677 3.97,0 c 3.345,0 5.586,-2.209 5.586,-5.331 0,-3.152 -2.241,-5.346 -5.57,-5.346 l -3.986,0 z"
               inkscape:connector-curvature="0" />
          </g>
          <g
             transform="translate(100.1963,69.7617)"
             id="g3997">
            <path
               id="path3999"
               style="fill:#ffffff;fill-opacity:1;fill-rule:nonzero;stroke:none"
               d="m 0,0 c 0,1.024 -0.769,1.681 -1.825,1.681 l -2.577,0 0,-3.394 2.577,0 C -0.769,-1.713 0,-1.04 0,0 m -0.176,-7.347 -2.353,3.986 -1.873,0 0,-3.986 -1.872,0 0,10.677 4.689,0 c 2.113,0 3.506,-1.361 3.506,-3.346 0,-1.888 -1.249,-2.929 -2.545,-3.137 l 2.625,-4.194 -2.177,0 z"
               inkscape:connector-curvature="0" />
          </g>
          <g
             transform="translate(112.917,67.7451)"
             id="g4001">
            <path
               id="path4003"
               style="fill:#ffffff;fill-opacity:1;fill-rule:nonzero;stroke:none"
               d="m 0,0 c 0,2.209 -1.393,3.857 -3.537,3.857 -2.161,0 -3.538,-1.648 -3.538,-3.857 0,-2.192 1.377,-3.857 3.538,-3.857 C -1.393,-3.857 0,-2.192 0,0 m -8.996,0 c 0,3.186 2.257,5.522 5.459,5.522 3.184,0 5.458,-2.336 5.458,-5.522 0,-3.186 -2.274,-5.522 -5.458,-5.522 -3.202,0 -5.459,2.336 -5.459,5.522"
               inkscape:connector-curvature="0" />
          </g>
          <path
             id="path4005"
             style="fill:#ffffff;fill-opacity:1;fill-rule:nonzero;stroke:none"
             d="m 117.026,73.092 1.872,0 0,-10.677 -1.872,0 0,10.677 z"
             inkscape:connector-curvature="0" />
          <g
             transform="translate(129.2051,67.7607)"
             id="g4007">
            <path
               id="path4009"
               style="fill:#ffffff;fill-opacity:1;fill-rule:nonzero;stroke:none"
               d="m 0,0 c 0,2.049 -1.28,3.682 -3.649,3.682 l -2.114,0 0,-7.379 2.098,0 C -1.345,-3.697 0,-2.032 0,0 m -7.635,-5.346 0,10.677 3.97,0 c 3.345,0 5.586,-2.209 5.586,-5.331 0,-3.152 -2.241,-5.346 -5.57,-5.346 l -3.986,0 z"
               inkscape:connector-curvature="0" />
          </g>
          <g
             transform="translate(142.1162,71.2188)"
             id="g4011">
            <path
               id="path4013"
               style="fill:#ffffff;fill-opacity:1;fill-rule:nonzero;stroke:none"
               d="m 0,0 -1.921,-5.09 3.842,0 L 0,0 z m 3.233,-8.804 -0.785,2.065 -4.897,0 -0.784,-2.065 -2.129,0 4.193,10.677 2.337,0 4.193,-10.677 -2.128,0 z"
               inkscape:connector-curvature="0" />
          </g>
          <g
             transform="translate(155.2832,69.7461)"
             id="g4015">
            <path
               id="path4017"
               style="fill:#ffffff;fill-opacity:1;fill-rule:nonzero;stroke:none"
               d="m 0,0 c 0,1.024 -0.752,1.696 -1.809,1.696 l -2.577,0 0,-3.377 2.577,0 C -0.752,-1.681 0,-1.009 0,0 m -6.258,-7.331 0,10.677 4.706,0 c 2.24,0 3.473,-1.522 3.473,-3.346 0,-1.809 -1.248,-3.329 -3.473,-3.329 l -2.834,0 0,-4.002 -1.872,0 z"
               inkscape:connector-curvature="0" />
          </g>
          <g
             transform="translate(165.4277,69.7461)"
             id="g4019">
            <path
               id="path4021"
               style="fill:#ffffff;fill-opacity:1;fill-rule:nonzero;stroke:none"
               d="m 0,0 c 0,1.024 -0.752,1.696 -1.809,1.696 l -2.577,0 0,-3.377 2.577,0 C -0.752,-1.681 0,-1.009 0,0 m -6.258,-7.331 0,10.677 4.706,0 c 2.24,0 3.473,-1.522 3.473,-3.346 0,-1.809 -1.248,-3.329 -3.473,-3.329 l -2.834,0 0,-4.002 -1.872,0 z"
               inkscape:connector-curvature="0" />
          </g>
          <g
             transform="translate(182.373,67.7451)"
             id="g4023">
            <path
               id="path4025"
               style="fill:#ffffff;fill-opacity:1;fill-rule:nonzero;stroke:none"
               d="m 0,0 c 0,2.209 -1.393,3.857 -3.537,3.857 -2.161,0 -3.538,-1.648 -3.538,-3.857 0,-2.192 1.377,-3.857 3.538,-3.857 C -1.393,-3.857 0,-2.192 0,0 m -8.996,0 c 0,3.186 2.257,5.522 5.459,5.522 3.184,0 5.458,-2.336 5.458,-5.522 0,-3.186 -2.274,-5.522 -5.458,-5.522 -3.202,0 -5.459,2.336 -5.459,5.522"
               inkscape:connector-curvature="0" />
          </g>
          <g
             transform="translate(193.9248,62.415)"
             id="g4027">
            <path
               id="path4029"
               style="fill:#ffffff;fill-opacity:1;fill-rule:nonzero;stroke:none"
               d="m 0,0 -5.57,7.635 0,-7.635 -1.872,0 0,10.677 1.921,0 5.458,-7.396 0,7.396 1.873,0 L 1.81,0 0,0 z"
               inkscape:connector-curvature="0" />
          </g>
        </g>
      </g>
    </g>
    <path
       id="path4352"
       style="fill:#555555;fill-opacity:1;fill-rule:nonzero;stroke:none"
       d="m 444.06304,933.59646 c 0,6.8851 -5.58098,12.46651 -12.4665,12.46651 l -224.39713,0 c -6.88501,0 -12.46651,-5.58141 -12.46651,-12.46651 l 0,-60.10637 c 0,-6.88508 5.5815,-12.46651 12.46651,-12.46651 l 224.39713,0 c 6.88552,0 12.4665,5.58143 12.4665,12.46651 l 0,60.10637"
       inkscape:connector-curvature="0" />
    <path
       id="path4354"
       style="fill:#ffffff;fill-opacity:1;fill-rule:nonzero;stroke:none"
       d="m 272.30329,929.4538 c 0,4.81781 -3.90513,8.72272 -8.72277,8.72272 l -51.47485,0 c -4.81739,0 -8.72275,-3.90491 -8.72275,-8.72272 l 0,-51.47488 c 0,-4.81741 3.90536,-8.72255 8.72275,-8.72255 l 51.47485,0 c 4.81764,0 8.72277,3.90514 8.72277,8.72255 l 0,51.47488"
       inkscape:connector-curvature="0" />
    <path
       id="path4370"
       style="fill:#2f2f2f;fill-opacity:1;fill-rule:nonzero;stroke:none"
       d="m 272.43798,929.5885 c 0,4.81737 -3.90514,8.723 -8.72278,8.723 l -51.47485,0 c -4.81746,0 -8.72281,-3.90563 -8.72281,-8.723 l 0,-37.85234 c 0,0 14.67265,2.55764 34.46034,2.41271 18.58021,-0.13602 34.4601,-2.41271 34.4601,-2.41271 l 0,37.85234"
       inkscape:connector-curvature="0" />
    <path
       id="path4372"
       style="fill:#231f20;fill-opacity:1;fill-rule:nonzero;stroke:none"
       d="m 212.24035,869.3236 c -4.77267,0 -8.65541,3.88265 -8.65541,8.65532 l 0,51.47488 c 0,4.77287 3.88274,8.65576 8.65541,8.65576 l 51.47485,0 c 4.77267,0 8.65554,-3.88289 8.65554,-8.65576 l 0,-51.47488 c 0,-4.77267 -3.88287,-8.65532 -8.65554,-8.65532 l -51.47485,0 z m 51.47485,68.92024 -51.47485,0 c -4.84675,0 -8.78993,-3.94257 -8.78993,-8.79004 l 0,-51.47488 c 0,-4.8468 3.94318,-8.79 8.78993,-8.79 l 51.47485,0 c 4.8468,0 8.79001,3.9432 8.79001,8.79 l 0,51.47488 c 0,4.84747 -3.94321,8.79004 -8.79001,8.79004"
       inkscape:connector-curvature="0" />
    <path
       id="path4374"
       style="fill:#231f20;fill-opacity:1;fill-rule:evenodd;stroke:none"
       d="m 243.8269,887.3504 c -2.81298,2.12887 -6.89176,3.2611 -10.40375,3.2611 -4.92227,0 -9.35478,-1.86575 -12.70916,-4.97146 -0.26313,-0.24399 -0.0283,-0.57703 0.28829,-0.38825 3.61885,2.15938 8.09388,3.4599 12.71628,3.4599 3.11796,0 6.54559,-0.66339 9.69939,-2.03515 0.47573,-0.20681 0.87488,0.32145 0.40895,0.67386"
       inkscape:connector-curvature="0" />
    <path
       id="path4376"
       style="fill:#231f20;fill-opacity:1;fill-rule:evenodd;stroke:none"
       d="m 244.99786,885.97997 c -0.35997,-0.47239 -2.37866,-0.22395 -3.28582,-0.11264 -0.27448,0.0338 -0.31723,-0.21216 -0.0694,-0.39025 1.6104,-1.16005 4.24885,-0.82501 4.55561,-0.43699 0.30899,0.39202 -0.081,3.1046 -1.59014,4.39934 -0.23219,0.19924 -0.45281,0.0928 -0.34996,-0.1703 0.33927,-0.86954 1.0995,-2.81655 0.73976,-3.28916"
       inkscape:connector-curvature="0" />
    <path
       id="path4378"
       style="fill:#231f20;fill-opacity:1;fill-rule:evenodd;stroke:none"
       d="m 241.6417,877.28369 0,-1.12688 c 4.4e-4,-0.17164 0.12666,-0.28606 0.27849,-0.28562 l 4.92583,-4.4e-4 c 0.15739,0 0.28383,0.11754 0.28428,0.2845 l -4.5e-4,0.9666 c -0.001,0.16206 -0.13424,0.37377 -0.37088,0.70948 l -2.5514,3.7355 c 0.94723,-0.0227 1.94923,0.12266 2.80964,0.61865 0.19412,0.11175 0.24599,0.2776 0.26135,0.44011 l 0,1.20235 c 0,0.16585 -0.17653,0.3573 -0.36264,0.25757 -1.51624,-0.81433 -3.52825,-0.90338 -5.20477,0.01 -0.17141,0.0935 -0.35062,-0.0955 -0.35062,-0.26135 l 0,-1.14291 c 0,-0.18299 0.003,-0.49599 0.18321,-0.7747 l 2.95635,-4.34859 -2.57389,-6.7e-4 c -0.15739,0 -0.28384,-0.11487 -0.2845,-0.28361"
       inkscape:connector-curvature="0" />
    <path
       id="path4380"
       style="fill:#231f20;fill-opacity:1;fill-rule:evenodd;stroke:none"
       d="m 223.80769,884.32259 -1.49821,0 c -0.1427,-0.01 -0.25667,-0.11954 -0.26825,-0.26001 l 0.001,-7.88663 c 0,-0.15783 0.12934,-0.28383 0.28918,-0.28383 l 1.39558,-6.7e-4 c 0.14604,0.008 0.26313,0.12133 0.27248,0.26491 l 0,1.02983 0.028,0 c 0.36376,-0.99577 1.04919,-1.46059 1.97238,-1.46059 0.93722,0 1.5247,0.46482 1.94456,1.46059 0.36353,-0.99577 1.18877,-1.46059 2.0701,-1.46059 0.62956,0 1.315,0.2658 1.73463,0.86308 0.47573,0.66385 0.37778,1.62644 0.37778,2.47282 l -0.001,4.97703 c 0,0.15762 -0.12957,0.28406 -0.28896,0.28406 l -1.49687,0 c -0.15049,-0.01 -0.26914,-0.13223 -0.26914,-0.28316 l -4.5e-4,-4.1814 c 0,-0.33193 0.0281,-1.16162 -0.0419,-1.47706 -0.11175,-0.53117 -0.44768,-0.68032 -0.88112,-0.68032 -0.36375,0 -0.74153,0.24911 -0.89536,0.64715 -0.15405,0.39848 -0.1398,1.0621 -0.1398,1.51023 l 0,4.1805 c 0,0.15762 -0.12956,0.28406 -0.28918,0.28406 l -1.49665,0 c -0.15026,-0.01 -0.26914,-0.13223 -0.26914,-0.28316 l -0.002,-4.1814 c 0,-0.87956 0.14003,-2.17407 -0.92319,-2.17407 -1.07724,0 -1.03516,1.26134 -1.03516,2.17407 l -6.7e-4,4.1805 c 2.2e-4,0.15762 -0.12934,0.28406 -0.28918,0.28406"
       inkscape:connector-curvature="0" />
    <path
       id="path4382"
       style="fill:#231f20;fill-opacity:1;fill-rule:evenodd;stroke:none"
       d="m 251.24981,877.33556 c -1.10529,0 -1.17497,1.54318 -1.17497,2.50599 0,0.96259 -0.014,3.02068 1.16117,3.02068 1.16116,0 1.21682,-1.65983 1.21682,-2.67206 0,-0.66407 -0.0276,-1.46059 -0.22373,-2.09126 -0.16785,-0.54763 -0.50356,-0.76335 -0.97929,-0.76335 z m -0.0138,-1.60996 c 2.22416,0 3.42717,1.95836 3.42717,4.44765 0,2.4067 -1.32879,4.31541 -3.42717,4.31541 -2.18209,0 -3.37152,-1.95857 -3.37152,-4.39822 0,-2.45635 1.20324,-4.36484 3.37152,-4.36484"
       inkscape:connector-curvature="0" />
    <path
       id="path4384"
       style="fill:#231f20;fill-opacity:1;fill-rule:evenodd;stroke:none"
       d="m 257.54785,884.32259 -1.49331,0 c -0.15005,-0.01 -0.26892,-0.13223 -0.26892,-0.28316 l -0.002,-7.89019 c 0.0127,-0.14403 0.13713,-0.25712 0.28806,-0.25712 l 1.39002,-6.7e-4 c 0.13067,0.007 0.23886,0.0986 0.26647,0.22106 l 0,1.20635 0.0283,0 c 0.41919,-1.07857 1.00689,-1.59326 2.04206,-1.59326 0.67141,0 1.3288,0.24911 1.74843,0.92942 0.39202,0.63068 0.39202,1.69278 0.39202,2.45613 l 0,4.96278 c -0.0171,0.14003 -0.13935,0.24866 -0.28739,0.24866 l -1.50222,0 c -0.13891,-0.009 -0.25066,-0.11398 -0.26691,-0.24866 l 0,-4.28224 c 0,-0.86286 0.0977,-2.12443 -0.93722,-2.12443 -0.36398,0 -0.69968,0.24911 -0.86731,0.63067 -0.20971,0.48152 -0.23775,0.96282 -0.23775,1.49376 l 0,4.24684 c -0.003,0.15762 -0.13246,0.28406 -0.29185,0.28406"
       inkscape:connector-curvature="0" />
    <path
       id="path4386"
       style="fill:#231f20;fill-opacity:1;fill-rule:evenodd;stroke:none"
       d="m 239.3601,884.30256 c -0.0991,0.0915 -0.2422,0.0975 -0.35396,0.0358 -0.49777,-0.42409 -0.58681,-0.62021 -0.85885,-1.02404 -0.82257,0.8593 -1.40538,1.11709 -2.47082,1.11709 -1.26179,0 -2.24308,-0.7983 -2.24308,-2.39513 0,-1.24731 0.65894,-2.09548 1.59816,-2.51155 0.813,-0.36576 1.94878,-0.43232 2.81788,-0.53205 l 0,-0.19969 c 0,-0.36598 0.028,-0.79853 -0.18232,-1.11442 -0.18233,-0.28272 -0.53273,-0.39915 -0.84105,-0.39915 -0.57168,0 -1.07991,0.30031 -1.20457,0.92275 -0.0258,0.13846 -0.12445,0.27537 -0.26024,0.2825 l -1.45257,-0.16118 c -0.12289,-0.0285 -0.25891,-0.12934 -0.22351,-0.32146 0.3337,-1.80675 1.92518,-2.3526 3.35104,-2.3526 0.72907,0 1.68231,0.19946 2.25711,0.76491 0.72884,0.69856 0.65894,1.63021 0.65894,2.64468 l 0,2.39423 c 0,0.72017 0.29185,1.03584 0.56567,1.42408 0.0957,0.1398 0.11709,0.3061 -0.005,0.40805 -0.3061,0.26314 -0.84995,0.74755 -1.14937,1.0207 l -0.004,-0.004 z m -1.51067,-3.74641 c 0,0.59884 0.014,1.09772 -0.2805,1.63 -0.2382,0.43254 -0.61665,0.69857 -1.03739,0.69857 -0.57457,0 -0.91139,-0.44924 -0.91139,-1.11442 0,-1.30876 1.14514,-1.54696 2.22928,-1.54696 l 0,0.33281"
       inkscape:connector-curvature="0" />
    <path
       id="path4388"
       style="fill:#231f20;fill-opacity:1;fill-rule:evenodd;stroke:none"
       d="m 219.84957,884.30256 c -0.0993,0.0915 -0.24243,0.0975 -0.35396,0.0358 -0.49799,-0.42409 -0.58704,-0.62021 -0.85907,-1.02404 -0.82257,0.8593 -1.40516,1.11709 -2.47075,1.11709 -1.26177,0 -2.24293,-0.7983 -2.24293,-2.39513 0,-1.24731 0.65888,-2.09548 1.59814,-2.51155 0.81306,-0.36576 1.94881,-0.43232 2.81768,-0.53205 l 0,-0.19969 c 0,-0.36598 0.028,-0.79853 -0.1821,-1.11442 -0.1821,-0.28272 -0.53272,-0.39915 -0.84127,-0.39915 -0.57132,0 -1.07978,0.30031 -1.20431,0.92275 -0.0262,0.13846 -0.12451,0.27537 -0.26044,0.2825 l -1.45257,-0.16118 c -0.12262,-0.0285 -0.25897,-0.12934 -0.22348,-0.32146 0.33365,-1.80675 1.92485,-2.3526 3.35117,-2.3526 0.72907,0 1.68231,0.19946 2.25711,0.76491 0.72884,0.69856 0.65894,1.63021 0.65894,2.64468 l 0,2.39423 c 0,0.72017 0.29141,1.03584 0.56545,1.42408 0.0957,0.1398 0.11709,0.3061 -0.005,0.40805 -0.3061,0.26314 -0.84995,0.74755 -1.14915,1.0207 l -0.004,-0.004 z m -1.51089,-3.74641 c 0,0.59884 0.0142,1.09772 -0.28028,1.63 -0.2382,0.43254 -0.61664,0.69857 -1.03739,0.69857 -0.57468,0 -0.91121,-0.44924 -0.91121,-1.11442 0,-1.30876 1.14474,-1.54696 2.22888,-1.54696 l 0,0.33281"
       inkscape:connector-curvature="0" />
    <path
       id="path4390"
       style="fill:#000000;fill-opacity:1;fill-rule:nonzero;stroke:none"
       d="m 230.73372,913.61043 c 0,6.7279 -5.45409,12.1822 -12.18222,12.1822 -6.72811,0 -12.18221,-5.4543 -12.18221,-12.1822 0,-6.72836 5.4541,-12.18223 12.18221,-12.18223 6.72813,0 12.18222,5.45387 12.18222,12.18223"
       inkscape:connector-curvature="0" />
    <path
       id="path4392"
       style="fill:#ffffff;fill-opacity:1;fill-rule:nonzero;stroke:none"
       d="m 219.23248,908.95841 -2.92242,0 0,10.83073 c 0,0 -0.12896,0.21416 -0.38688,-0.13491 -0.12756,-0.17275 -3.56707,-5.28068 -3.56707,-5.28068 0,0 -0.55863,-0.55854 -1.37528,-0.34372 -0.81653,0.21483 -1.11751,0.7736 -0.73062,1.46126 0.3867,0.68766 3.00836,6.91935 6.4036,8.63835 2.41438,1.22239 5.28635,0.7723 6.91946,0 1.4459,-0.68361 3.70501,-2.36392 3.87709,-4.59854 0.17186,-2.23462 -0.003,-4.2119 -0.003,-4.2119 l -1.52136,0 0,2.70769 -0.97706,0 0,-3.95389 -1.71927,0 0,3.23216 -1.02559,0 0,-4.2208 -1.93409,0 0,4.00598 -0.93989,0 -0.0973,-8.13173"
       inkscape:connector-curvature="0" />
    <path
       id="path4394"
       style="fill:#ffffff;fill-opacity:1;fill-rule:nonzero;stroke:none"
       d="m 211.15267,910.46263 2.44982,0 0,-1.50422 -2.44982,0 0,1.50422 z"
       inkscape:connector-curvature="0" />
    <path
       id="path4396"
       style="fill:#ffffff;fill-opacity:1;fill-rule:nonzero;stroke:none"
       d="m 222.0902,910.46263 2.44992,0 0,-1.50422 -2.44992,0 0,1.50422 z"
       inkscape:connector-curvature="0" />
    <path
       id="path4398"
       style="fill:#ffffff;fill-opacity:1;fill-rule:nonzero;stroke:none"
       d="m 216.48199,906.37963 2.53564,0 0,-2.83635 -2.53564,0 0,2.83635 z"
       inkscape:connector-curvature="0" />
    <path
       id="path4400"
       style="fill:#ffffff;fill-opacity:1;fill-rule:nonzero;stroke:none"
       d="m 214.29,907.75495 0.90255,-0.90248 -1.67033,-1.71905 -1.01012,0.90227 1.7779,1.71926"
       inkscape:connector-curvature="0" />
    <path
       id="path4402"
       style="fill:#ffffff;fill-opacity:1;fill-rule:nonzero;stroke:none"
       d="m 221.51786,907.48581 -0.7678,-1.03717 1.80497,-1.4499 0.74086,1.03695 -1.77803,1.45012"
       inkscape:connector-curvature="0" />
    <path
       id="path4404"
       style="fill:#ffffff;fill-opacity:1;fill-rule:nonzero;stroke:none"
       d="m 239.09207,913.12713 -0.20058,0 c -1.93342,0 -3.08256,0.45881 -3.08256,2.0238 0,0.9804 0.56544,1.64825 1.44099,1.64825 1.3495,0 1.84215,-1.14759 1.84215,-3.06698 l 0,-0.60507 z m -4.45054,-4.8615 c 0.63846,-0.33392 1.53227,-0.79296 2.97304,-0.79296 2.9185,0 3.59347,1.62755 3.59347,4.3192 l 0,4.69453 c 0,0.77181 -0.0619,1.48129 -0.007,1.89848 l -2.04295,0 c -0.0456,-0.49243 0.007,-0.939 0.007,-1.46059 l -0.0365,0 c -0.56544,0.87622 -1.27693,1.62732 -2.62665,1.62732 -1.45902,0 -2.80875,-1.14758 -2.80875,-3.15024 0,-2.92094 2.07946,-3.65157 4.94297,-3.65157 l 0.45592,0 0,-0.39626 c 0,-1.0641 -0.45592,-2.04473 -1.7511,-2.04473 -1.13089,0 -2.13377,0.626 -2.57166,1.04318 l -0.12778,-2.08636"
       inkscape:connector-curvature="0" />
    <path
       id="path4406"
       style="fill:#ffffff;fill-opacity:1;fill-rule:nonzero;stroke:none"
       d="m 238.89149,913.19458 c -2.11351,0 -3.01533,0.58481 -3.01533,1.95635 0,0.96059 0.53917,1.5808 1.37376,1.5808 1.21081,0 1.7747,-0.95302 1.7747,-2.99953 l 0,-0.53762 -0.13313,0 z m -1.64157,3.67205 c -0.90204,0 -1.50822,-0.68966 -1.50822,-1.7157 0,-1.46548 0.94189,-2.09103 3.14979,-2.09103 l 0.20058,0 c 0.0372,0 0.0672,0.0301 0.0672,0.0672 l 0,0.60507 c 0,2.13845 -0.60685,3.13443 -1.90938,3.13443 z m 1.38623,-5.04938 c -3.37196,0 -4.87574,1.10551 -4.87574,3.58412 0,2.02381 1.37933,3.08324 2.74152,3.08324 1.35329,0 2.03494,-0.76736 2.57011,-1.59705 0.0122,-0.0191 0.0336,-0.0305 0.0565,-0.0305 l 0.0365,0 c 0.0372,0 0.0672,0.0298 0.0672,0.0672 0,0.18767 -0.007,0.36576 -0.0134,0.53806 -0.0111,0.2903 -0.0216,0.56545 6.7e-4,0.85507 l 1.90582,0 c -0.0243,-0.26113 -0.0136,-0.61041 -0.001,-1.00934 0.008,-0.26335 0.0165,-0.53539 0.0165,-0.82168 l 0,-4.69453 c 0,-2.55229 -0.59973,-4.25197 -3.52602,-4.25197 -1.40983,0 -2.30519,0.45258 -2.90314,0.76514 l 0.11643,1.90359 c 0.46504,-0.3976 1.41651,-0.96705 2.51311,-0.96705 1.1556,0 1.81833,0.76981 1.81833,2.11196 l 0,0.39626 c 0,0.0374 -0.03,0.0674 -0.0672,0.0674 l -0.45592,0 z m -2.13422,6.80182 c -1.42919,0 -2.8762,-1.10529 -2.8762,-3.2177 0,-3.29605 2.67763,-3.71858 5.01042,-3.71858 l 0.38847,0 0,-0.32925 c 0,-0.59461 -0.16385,-1.9775 -1.68365,-1.9775 -1.14491,0 -2.12598,0.64425 -2.52513,1.02493 -0.0189,0.018 -0.047,0.0229 -0.071,0.0138 -0.0245,-0.01 -0.0412,-0.0325 -0.0427,-0.0585 l -0.12756,-2.08658 c -0.002,-0.0265 0.0125,-0.0514 0.0358,-0.0639 0.60975,-0.31856 1.53071,-0.80031 3.00421,-0.80031 3.03804,0 3.66048,1.75355 3.66048,4.38643 l 0,4.69453 c 0,0.28829 -0.008,0.56144 -0.0162,0.82569 -0.0134,0.43321 -0.0247,0.8072 0.009,1.06388 0.002,0.0194 -0.004,0.0387 -0.0162,0.053 -0.0129,0.0147 -0.0314,0.0234 -0.0505,0.0234 l -2.04295,0 c -0.0347,0 -0.0637,-0.0267 -0.067,-0.0614 -0.0298,-0.32079 -0.0183,-0.61865 -0.006,-0.93366 0.004,-0.11732 0.009,-0.23753 0.0116,-0.36153 -0.52248,0.77449 -1.25088,1.52337 -2.59415,1.52337"
       inkscape:connector-curvature="0" />
    <path
       id="path4408"
       style="fill:#ffffff;fill-opacity:1;fill-rule:nonzero;stroke:none"
       d="m 247.35447,916.38378 c 1.25845,0 1.9657,-1.12867 1.9657,-3.2778 0,-2.48262 -0.61598,-3.73439 -1.92919,-3.73439 -1.33147,0 -1.78738,1.51335 -1.78738,3.53715 0,2.08658 0.51045,3.47504 1.75087,3.47504 z m -4.01265,-6.90801 c 0,-0.77203 -0.006,-1.36285 -0.006,-1.81766 l 1.98018,0.005 c 0.018,0.33638 0.007,0.37689 0.007,1.10707 l 0.0548,0 c 0.36509,-0.91807 1.17408,-1.29763 2.63333,-1.29763 2.33457,0 3.43586,2.5454 3.43586,5.52935 0,3.50509 -1.3564,5.28045 -3.38088,5.28045 -1.34994,0 -2.09793,-0.20325 -2.42607,-1.03739 l -0.0363,0 0,5.10793 -2.26178,0 0,-12.87724"
       inkscape:connector-curvature="0" />
    <path
       id="path4410"
       style="fill:#ffffff;fill-opacity:1;fill-rule:nonzero;stroke:none"
       d="m 247.39098,909.4386 c -1.14135,0 -1.72015,1.16784 -1.72015,3.47014 0,1.55475 0.29207,3.40759 1.68364,3.40759 1.22417,0 1.89825,-1.14002 1.89825,-3.21035 0,-2.4677 -0.60908,-3.66738 -1.86174,-3.66738 z m -0.0365,7.01241 c -1.18944,0 -1.81833,-1.22506 -1.81833,-3.54227 0,-2.39179 0.624,-3.6046 1.85484,-3.6046 1.34349,0 1.99642,1.24353 1.99642,3.80184 0,2.15715 -0.72216,3.34503 -2.03293,3.34503 z m -3.94542,5.83477 2.12709,0 0,-5.0407 c 0,-0.0374 0.0301,-0.0679 0.0675,-0.0679 l 0.0363,0 c 0.0278,0 0.0525,0.0174 0.0628,0.043 0.28873,0.73485 0.90716,0.99487 2.36329,0.99487 2.10595,0 3.31365,-1.89981 3.31365,-5.213 0,-2.5198 -0.88201,-5.46212 -3.36863,-5.46212 -1.45213,0 -2.22104,0.37556 -2.57077,1.25556 -0.0102,0.0254 -0.035,0.0421 -0.0626,0.0421 l -0.0548,0 c -0.0372,0 -0.0672,-0.03 -0.0672,-0.0672 0,-0.24955 0.001,-0.41851 0.002,-0.54652 0.002,-0.22061 0.002,-0.317 -0.006,-0.49332 l -1.84883,-0.005 c 2.3e-4,0.18054 0.001,0.38134 0.002,0.60529 0.002,0.32903 0.004,0.70814 0.004,1.14491 l 0,12.81001 z m 2.19455,0.13468 -2.26178,0 c -0.0374,0 -0.0675,-0.0303 -0.0675,-0.0675 l 0,-12.87724 c 0,-0.43655 -0.002,-0.81544 -0.004,-1.14402 -0.001,-0.25267 -0.002,-0.47573 -0.002,-0.67364 0,-0.0178 0.007,-0.0349 0.0198,-0.0474 0.0127,-0.0127 0.0298,-0.0198 0.0476,-0.0198 l 2.3e-4,0 1.97995,0.005 c 0.0358,2.3e-4 0.0652,0.0278 0.067,0.0637 0.0122,0.22329 0.0116,0.31656 0.01,0.56522 -4.5e-4,0.0908 -0.002,0.20281 -0.002,0.35018 0.40182,-0.81745 1.19924,-1.16963 2.62042,-1.16963 2.12821,0 3.50331,2.19678 3.50331,5.59658 0,3.3989 -1.25689,5.3479 -3.44833,5.3479 -1.20346,0 -1.99909,-0.14982 -2.39512,-0.87911 l 0,4.8822 c 0,0.0372 -0.0301,0.0675 -0.0672,0.0675"
       inkscape:connector-curvature="0" />
    <path
       id="path4412"
       style="fill:#ffffff;fill-opacity:1;fill-rule:nonzero;stroke:none"
       d="m 262.45698,915.50378 c 0.38,0.16206 1.34927,0.82368 2.45122,0.82368 0.85507,0 1.52025,-0.22329 1.52025,-1.03339 0,-0.40538 -0.18989,-0.79029 -1.04496,-1.31722 l -1.37287,-0.87688 c -0.9882,-0.62823 -1.6674,-1.08414 -1.6674,-2.53427 0,-1.67452 1.31099,-3.09303 3.38199,-3.09303 1.25444,0 2.22326,0.34439 2.45167,0.42565 l -0.13335,1.94522 c -0.58904,-0.24332 -1.21593,-0.46594 -2.07122,-0.46594 -0.94968,0 -1.34883,0.3849 -1.34883,1.0129 0,0.56745 0.28562,0.78695 0.96971,1.25311 l 1.62399,0.77604 c 1.27826,0.74888 1.62599,1.79028 1.62599,2.73239 0,1.92519 -1.38556,3.21458 -3.51378,3.21458 -1.21593,0 -2.49241,-0.43855 -2.98617,-0.64113 l 0.11376,-2.22171"
       inkscape:connector-curvature="0" />
    <path
       id="path4414"
       style="fill:#ffffff;fill-opacity:1;fill-rule:nonzero;stroke:none"
       d="m 262.4129,917.68096 c 0.34372,0.13758 1.63801,0.61865 2.91649,0.61865 2.09371,0 3.44655,-1.23574 3.44655,-3.14757 0,-1.15538 -0.53606,-2.05519 -1.59282,-2.67406 l -1.61909,-0.77359 c -0.70168,-0.47729 -1.008,-0.71149 -1.008,-1.31389 0,-0.49287 0.24576,-1.08035 1.41628,-1.08035 0.83882,0 1.45591,0.21015 2.01045,0.43544 l 0.12333,-1.80097 c -0.96148,-0.3337 -1.82345,-0.40472 -2.38088,-0.40472 -1.92074,0 -3.31476,1.2727 -3.31476,3.0258 0,1.43744 0.68633,1.87354 1.63623,2.47728 l 1.3731,0.87733 c 0.76379,0.47083 1.0759,0.86887 1.0759,1.37376 0,0.74042 -0.51914,1.10039 -1.58748,1.10039 -0.89291,0 -1.69811,-0.42497 -2.17896,-0.67875 -0.0784,-0.0412 -0.14938,-0.0788 -0.21015,-0.10886 l -0.10619,2.07411 z m 2.91649,0.75311 c -1.3673,0 -2.74864,-0.53828 -3.01177,-0.64625 -0.0263,-0.0109 -0.043,-0.037 -0.0416,-0.0659 l 0.11376,-2.22126 c 0.001,-0.022 0.0129,-0.0423 0.0316,-0.0539 0.0187,-0.0116 0.0416,-0.0134 0.0621,-0.005 0.0801,0.0345 0.18611,0.0899 0.30855,0.15472 0.46994,0.24799 1.25666,0.66317 2.11618,0.66317 0.99131,0 1.4528,-0.30676 1.4528,-0.96571 0,-0.38156 -0.17208,-0.74176 -1.01291,-1.25978 l -1.37376,-0.87778 c -0.94901,-0.60284 -1.69834,-1.07946 -1.69834,-2.59081 0,-1.83124 1.45057,-3.16026 3.44922,-3.16026 0.57746,0 1.47505,0.0746 2.47393,0.42921 0.0285,0.0102 0.0467,0.0381 0.0448,0.0683 l -0.13313,1.94478 c -0.002,0.0218 -0.0134,0.0414 -0.0316,0.0528 -0.0183,0.0113 -0.0414,0.0133 -0.0612,0.005 -0.56455,-0.2333 -1.18766,-0.46082 -2.04562,-0.46082 -0.86241,0 -1.2816,0.30922 -1.2816,0.94567 0,0.53517 0.27137,0.74176 0.94033,1.19768 l 1.61508,0.77092 c 1.10618,0.64781 1.66428,1.58659 1.66428,2.79294 0,1.96281 -1.43899,3.28203 -3.58101,3.28203"
       inkscape:connector-curvature="0" />
    <path
       id="path4416"
       style="fill:#ffffff;fill-opacity:1;fill-rule:nonzero;stroke:none"
       d="m 257.073,916.38378 c 1.25868,0 1.96548,-1.12867 1.96548,-3.2778 0,-2.48262 -0.61575,-3.73439 -1.92897,-3.73439 -1.33169,0 -1.7876,1.51335 -1.7876,3.53715 0,2.08658 0.51068,3.47504 1.75109,3.47504 z m -4.01287,-6.90801 c 0,-0.77203 -0.006,-1.36285 -0.006,-1.81766 l 1.98018,0.005 c 0.0182,0.33638 0.007,0.37689 0.007,1.10707 l 0.0545,0 c 0.36509,-0.91807 1.17452,-1.29763 2.63333,-1.29763 2.3348,0 3.43608,2.5454 3.43608,5.52935 0,3.50509 -1.35662,5.28045 -3.38087,5.28045 -1.34995,0 -2.09772,-0.20325 -2.42585,-1.03739 l -0.0367,0 0,5.10793 -2.26178,0 0,-12.87724"
       inkscape:connector-curvature="0" />
    <path
       id="path4418"
       style="fill:#ffffff;fill-opacity:1;fill-rule:nonzero;stroke:none"
       d="m 257.10951,909.4386 c -1.14135,0 -1.72015,1.16784 -1.72015,3.47014 0,1.55475 0.29207,3.40759 1.68364,3.40759 1.22417,0 1.89825,-1.14002 1.89825,-3.21035 0,-2.4677 -0.60885,-3.66738 -1.86174,-3.66738 z m -0.0365,7.01241 c -1.18966,0 -1.81832,-1.22506 -1.81832,-3.54227 0,-2.39179 0.62399,-3.6046 1.85483,-3.6046 1.34327,0 1.9962,1.24353 1.9962,3.80184 0,2.15715 -0.72194,3.34503 -2.03271,3.34503 z m -3.94542,5.83477 2.1271,0 0,-5.0407 c 0,-0.0374 0.03,-0.0679 0.0672,-0.0679 l 0.0367,0 c 0.0276,0 0.0523,0.0174 0.0625,0.043 0.28896,0.73485 0.90716,0.99487 2.3633,0.99487 2.10572,0 3.31364,-1.89981 3.31364,-5.213 0,-2.5198 -0.88223,-5.46212 -3.36885,-5.46212 -1.45213,0 -2.22082,0.37556 -2.57033,1.25556 -0.0105,0.0254 -0.0352,0.0421 -0.063,0.0421 l -0.0545,0 c -0.0372,0 -0.0672,-0.03 -0.0672,-0.0672 0,-0.24955 0.001,-0.41851 0.002,-0.54652 0.002,-0.22061 0.002,-0.317 -0.006,-0.49332 l -1.84882,-0.005 c 4.4e-4,0.18054 0.001,0.38134 0.002,0.60529 0.002,0.32903 0.004,0.70814 0.004,1.14491 l 0,12.81001 z m 2.19433,0.13468 -2.26178,0 c -0.0372,0 -0.0672,-0.0303 -0.0672,-0.0675 l 0,-12.87724 c 0,-0.43655 -0.002,-0.81544 -0.004,-1.14402 -0.001,-0.25267 -0.002,-0.47573 -0.002,-0.67364 0,-0.0178 0.007,-0.0349 0.0198,-0.0474 0.0125,-0.0127 0.0296,-0.0198 0.0474,-0.0198 l 2.3e-4,0 1.98017,0.005 c 0.0356,2.3e-4 0.0652,0.0278 0.067,0.0637 0.0122,0.22329 0.0113,0.31656 0.01,0.56522 -6.7e-4,0.0908 -0.002,0.20281 -0.002,0.35018 0.40183,-0.81745 1.19924,-1.16963 2.6202,-1.16963 2.12843,0 3.50353,2.19678 3.50353,5.59658 0,3.3989 -1.25689,5.3479 -3.44832,5.3479 -1.20347,0 -1.9991,-0.14982 -2.39513,-0.87911 l 0,4.8822 c 0,0.0372 -0.0303,0.0675 -0.0675,0.0675"
       inkscape:connector-curvature="0" />
    <path
       id="path4420"
       style="fill:#000000;fill-opacity:1;fill-rule:evenodd;stroke:none"
       d="m 371.15757,929.3164 c -7.72478,5.70055 -18.92415,8.7337 -28.56722,8.7337 -13.5157,0 -25.6859,-4.99591 -34.89709,-13.3122 -0.72217,-0.65316 -0.077,-1.54585 0.7914,-1.03984 9.93714,5.78201 22.22511,9.26439 34.91668,9.26439 8.56182,0 17.97381,-1.77712 26.63358,-5.44853 1.30564,-0.55456 2.40025,0.85977 1.12265,1.80248"
       inkscape:connector-curvature="0" />
    <path
       id="path4422"
       style="fill:#000000;fill-opacity:1;fill-rule:evenodd;stroke:none"
       d="m 374.37215,925.64793 c -0.98886,-1.26604 -6.53178,-0.60037 -9.0213,-0.3014 -0.75467,0.0899 -0.87109,-0.56854 -0.19122,-1.0463 4.42138,-3.10505 11.66664,-2.20946 12.50858,-1.16918 0.84839,1.04875 -0.22217,8.31334 -4.3664,11.77929 -0.63735,0.53384 -1.24353,0.24913 -0.96081,-0.45594 0.93187,-2.32651 3.01957,-7.5413 2.03115,-8.80647"
       inkscape:connector-curvature="0" />
    <path
       id="path4424"
       style="fill:#ffffff;fill-opacity:1;fill-rule:evenodd;stroke:none"
       d="m 365.5265,902.36096 0,-3.01823 c 0.002,-0.4597 0.34795,-0.76491 0.76446,-0.76424 l 13.52549,-0.002 c 0.43232,0 0.78005,0.31545 0.7805,0.76268 l -4.5e-4,2.58836 c -0.003,0.43455 -0.36954,1.00133 -1.01891,1.89847 l -7.00574,10.00526 c 2.60061,-0.0619 5.3517,0.32725 7.71521,1.65471 0.53161,0.2992 0.67498,0.74398 0.71638,1.17831 l 0,3.2197 c 0,0.44501 -0.48508,0.95769 -0.99465,0.691 -4.16359,-2.18097 -9.68781,-2.42029 -14.29107,0.0252 -0.47061,0.25089 -0.96303,-0.25423 -0.96303,-0.6979 l 0,-3.06253 c 0,-0.48976 0.009,-1.32635 0.50333,-2.07278 l 8.11726,-11.6455 -7.0674,-0.001 c -0.43254,0 -0.77804,-0.30899 -0.78138,-0.75957"
       inkscape:connector-curvature="0" />
    <path
       id="path4426"
       style="fill:#ffffff;fill-opacity:1;fill-rule:evenodd;stroke:none"
       d="m 316.18851,921.20921 -4.11417,0 c -0.39202,-0.026 -0.7048,-0.31901 -0.73574,-0.69501 l 0.002,-21.11849 c 0,-0.42453 0.35507,-0.76112 0.7934,-0.76112 l 3.83212,-0.001 c 0.40071,0.0214 0.7235,0.32413 0.74932,0.70948 l 0,2.7571 0.0766,0 c 0.99866,-2.66672 2.88043,-3.91136 5.41559,-3.91136 2.57277,0 4.18607,1.24464 5.339,3.91136 0.99843,-2.66672 3.26422,-3.91136 5.68495,-3.91136 1.72884,0 3.61061,0.7117 4.76221,2.3112 1.30564,1.77714 1.03739,4.35593 1.03739,6.62238 l -0.002,13.32648 c 0,0.42341 -0.35641,0.76068 -0.79407,0.76068 l -4.11017,0 c -0.4125,-0.026 -0.73953,-0.35419 -0.73953,-0.75979 l -2.2e-4,-11.19448 c 0,-0.8898 0.0772,-3.11151 -0.11531,-3.95522 -0.30699,-1.42297 -1.2284,-1.82212 -2.4194,-1.82212 -0.9991,0 -2.0356,0.66674 -2.45857,1.73285 -0.42275,1.06767 -0.38357,2.84325 -0.38357,4.04449 l 0,11.19359 c 0,0.42341 -0.35507,0.76068 -0.79385,0.76068 l -4.11016,0 c -0.41295,-0.026 -0.73931,-0.35419 -0.73931,-0.75979 l -0.003,-11.19448 c 0,-2.35506 0.38401,-5.82297 -2.53515,-5.82297 -2.9579,0 -2.84214,3.37864 -2.84214,5.82297 l -0.002,11.19359 c 4.5e-4,0.42341 -0.35551,0.76068 -0.79385,0.76068"
       inkscape:connector-curvature="0" />
    <path
       id="path4428"
       style="fill:#ffffff;fill-opacity:1;fill-rule:evenodd;stroke:none"
       d="m 392.27873,902.49987 c -3.03493,0 -3.2266,4.13265 -3.2266,6.71055 0,2.57767 -0.0378,8.08698 3.18809,8.08698 3.18853,0 3.34191,-4.44298 3.34191,-7.15378 0,-1.77848 -0.0766,-3.91047 -0.61509,-5.59991 -0.46081,-1.46615 -1.38333,-2.04384 -2.68831,-2.04384 z m -0.0385,-4.3114 c 6.10747,0 9.41043,5.2435 9.41043,11.91041 0,6.44429 -3.64801,11.55556 -9.41043,11.55556 -5.99283,0 -9.25727,-5.24484 -9.25727,-11.77662 0,-6.57898 3.30273,-11.68935 9.25727,-11.68935"
       inkscape:connector-curvature="0" />
    <path
       id="path4430"
       style="fill:#ffffff;fill-opacity:1;fill-rule:evenodd;stroke:none"
       d="m 409.57111,921.20921 -4.0997,0 c -0.41251,-0.026 -0.73908,-0.35419 -0.73908,-0.75979 l -0.006,-21.12539 c 0.0356,-0.38713 0.37622,-0.68944 0.79162,-0.68944 l 3.81654,-0.001 c 0.35863,0.0187 0.6556,0.26403 0.73085,0.59149 l 0,3.23017 0.0779,0 c 1.15204,-2.88867 2.76489,-4.26644 5.60637,-4.26644 1.84482,0 3.65024,0.66718 4.80116,2.48951 1.07524,1.68966 1.07524,4.53247 1.07524,6.57675 l 0,13.28841 c -0.0445,0.37555 -0.38068,0.66607 -0.78584,0.66607 l -4.12597,0 c -0.38112,-0.0254 -0.68855,-0.30432 -0.73374,-0.66607 l 0,-11.4654 c 0,-2.31076 0.26981,-5.68807 -2.57344,-5.68807 -0.99866,0 -1.92118,0.66585 -2.38088,1.68788 -0.57636,1.28872 -0.6536,2.57722 -0.6536,4.00019 l 0,11.37079 c -0.007,0.42341 -0.36265,0.76068 -0.80098,0.76068"
       inkscape:connector-curvature="0" />
    <path
       id="path4432"
       style="fill:#ffffff;fill-opacity:1;fill-rule:evenodd;stroke:none"
       d="m 358.89298,921.15578 c -0.27293,0.24443 -0.66518,0.26068 -0.97194,0.0968 -1.36798,-1.13713 -1.61219,-1.66139 -2.35907,-2.74174 -2.25888,2.30073 -3.8586,2.99062 -6.78445,2.99062 -3.46413,0 -6.15957,-2.13912 -6.15957,-6.41468 0,-3.33925 1.80943,-5.61127 4.38888,-6.72435 2.2324,-0.97929 5.35125,-1.15805 7.73747,-1.42652 l 0,-0.53361 c 0,-0.97952 0.0766,-2.13757 -0.50066,-2.98284 -0.49977,-0.75867 -1.46281,-1.06989 -2.30964,-1.06989 -1.56922,0 -2.96414,0.80409 -3.30763,2.47171 -0.0708,0.36909 -0.34083,0.73596 -0.71438,0.75622 l -3.98817,-0.43232 c -0.33704,-0.0761 -0.71103,-0.34639 -0.6142,-0.86019 0.91696,-4.83878 5.28602,-6.30093 9.20162,-6.30093 2.00177,0 4.61884,0.53517 6.19719,2.04985 2.00266,1.87154 1.80965,4.36529 1.80965,7.08165 l 0,6.41068 c 0,1.92741 0.80119,2.77379 1.55319,3.81497 0.26247,0.37333 0.32213,0.81789 -0.014,1.09171 -0.83993,0.70302 -2.33324,2.00243 -3.15492,2.73306 l -0.009,-0.0102 z m -4.14868,-10.03175 c 0,1.60305 0.0385,2.93853 -0.7698,4.36505 -0.65516,1.15739 -1.69411,1.8702 -2.84904,1.8702 -1.57813,0 -2.50199,-1.20346 -2.50199,-2.98461 0,-3.50532 3.14379,-4.14133 6.12083,-4.14133 l 0,0.89069"
       inkscape:connector-curvature="0" />
    <path
       id="path4434"
       style="fill:#ffffff;fill-opacity:1;fill-rule:evenodd;stroke:none"
       d="m 304.95085,921.15578 c -0.27271,0.24443 -0.66562,0.26068 -0.97217,0.0968 -1.36708,-1.13713 -1.61196,-1.66139 -2.35973,-2.74174 -2.25799,2.30073 -3.85838,2.99062 -6.78267,2.99062 -3.46569,0 -6.15934,-2.13912 -6.15934,-6.41468 0,-3.33925 1.80964,-5.61127 4.38798,-6.72435 2.2324,-0.97929 5.35036,-1.15805 7.73703,-1.42652 l 0,-0.53361 c 0,-0.97952 0.0773,-2.13757 -0.49955,-2.98284 -0.50111,-0.75867 -1.46348,-1.06989 -2.31031,-1.06989 -1.56922,0 -2.96547,0.80409 -3.30696,2.47171 -0.0717,0.36909 -0.34194,0.73596 -0.71549,0.75622 l -3.9875,-0.43232 c -0.33749,-0.0761 -0.71171,-0.34639 -0.6142,-0.86019 0.91606,-4.83878 5.28535,-6.30093 9.20139,-6.30093 2.00154,0 4.61951,0.53517 6.19808,2.04985 2.0011,1.87154 1.80854,4.36529 1.80854,7.08165 l 0,6.41068 c 0,1.92741 0.80142,2.77379 1.55319,3.81497 0.26246,0.37333 0.32168,0.81789 -0.0138,1.09171 -0.83993,0.70302 -2.33413,2.00243 -3.15559,2.73306 l -0.009,-0.0102 z m -4.1489,-10.03175 c 0,1.60305 0.0385,2.93853 -0.7707,4.36505 -0.65293,1.15739 -1.69277,1.8702 -2.84815,1.8702 -1.57723,0 -2.50198,-1.20346 -2.50198,-2.98461 0,-3.50532 3.14401,-4.14133 6.12083,-4.14133 l 0,0.89069"
       inkscape:connector-curvature="0" />
    <path
       id="path4436"
       style="fill:#ffffff;fill-opacity:1;fill-rule:nonzero;stroke:none"
       d="m 292.19116,883.6405 4.23104,0 -2.08079,-5.82208 -0.0347,0 -2.11552,5.82208 z m 1.24108,-7.32563 1.83592,0 4.87796,12.48342 -1.83591,0 -1.36375,-3.7591 -5.28001,0 -1.3987,3.7591 -1.71325,0 4.87774,-12.48342"
       inkscape:connector-curvature="0" />
    <path
       id="path4438"
       style="fill:#ffffff;fill-opacity:1;fill-rule:nonzero;stroke:none"
       d="m 303.88719,888.79829 -1.59104,0 -3.35683,-9.03911 1.66094,0 2.53493,7.53534 0.0349,0 2.46525,-7.53534 1.55609,0 -3.30429,9.03911"
       inkscape:connector-curvature="0" />
    <path
       id="path4440"
       style="fill:#ffffff;fill-opacity:1;fill-rule:nonzero;stroke:none"
       d="m 313.27558,884.13003 c -0.57702,0.41963 -1.69611,0.43722 -2.69254,0.61197 -0.97907,0.17498 -1.81833,0.52449 -1.81833,1.62599 0,0.97907 0.83926,1.3288 1.74843,1.3288 1.95813,0 2.76244,-1.22395 2.76244,-2.04562 l 0,-1.52114 z m 2.41249,4.63309 c -0.26202,0.15739 -0.59416,0.24488 -1.06633,0.24488 -0.76936,0 -1.25889,-0.41964 -1.25889,-1.3987 -0.82168,0.9617 -1.92318,1.3987 -3.18186,1.3987 -1.64357,0 -2.98973,-0.73419 -2.98973,-2.53516 0,-2.04562 1.52113,-2.48261 3.05963,-2.77981 1.64336,-0.31477 3.04206,-0.2097 3.04206,-1.32879 0,-1.29385 -1.06656,-1.50355 -2.01067,-1.50355 -1.25868,0 -2.18543,0.38468 -2.25533,1.71348 l -1.48618,0 c 0.0875,-2.23797 1.81832,-3.02469 3.82899,-3.02469 1.62599,0 3.39178,0.36709 3.39178,2.48262 l 0,4.65067 c 0,0.69924 0,1.01402 0.47217,1.01402 0.12222,0 0.26225,-0.0176 0.45436,-0.0875 l 0,1.15382"
       inkscape:connector-curvature="0" />
    <path
       id="path4442"
       style="fill:#ffffff;fill-opacity:1;fill-rule:nonzero;stroke:none"
       d="m 316.71901,879.75918 1.48618,0 0,9.03911 -1.48618,0 0,-9.03911 z m 1.48618,-1.62599 -1.48618,0 0,-1.81832 1.48618,0 0,1.81832"
       inkscape:connector-curvature="0" />
    <path
       id="path4444"
       style="fill:#ffffff;fill-opacity:1;fill-rule:nonzero;stroke:none"
       d="m 320.25037,888.79829 1.48622,0 0,-12.48329 -1.48622,0 0,12.48329 z"
       inkscape:connector-curvature="0" />
    <path
       id="path4446"
       style="fill:#ffffff;fill-opacity:1;fill-rule:nonzero;stroke:none"
       d="m 329.20177,884.13003 c -0.57702,0.41963 -1.69589,0.43722 -2.69255,0.61197 -0.97906,0.17498 -1.81833,0.52449 -1.81833,1.62599 0,0.97907 0.83927,1.3288 1.74843,1.3288 1.95813,0 2.76245,-1.22395 2.76245,-2.04562 l 0,-1.52114 z m 2.41271,4.63309 c -0.26246,0.15739 -0.59461,0.24488 -1.06655,0.24488 -0.76936,0 -1.25868,-0.41964 -1.25868,-1.3987 -0.82189,0.9617 -1.9234,1.3987 -3.18207,1.3987 -1.64358,0 -2.98974,-0.73419 -2.98974,-2.53516 0,-2.04562 1.52092,-2.48261 3.05964,-2.77981 1.64335,-0.31477 3.04205,-0.2097 3.04205,-1.32879 0,-1.29385 -1.06655,-1.50355 -2.01067,-1.50355 -1.25867,0 -2.1852,0.38468 -2.25532,1.71348 l -1.48619,0 c 0.0875,-2.23797 1.81833,-3.02469 3.82922,-3.02469 1.62577,0 3.39156,0.36709 3.39156,2.48262 l 0,4.65067 c 0,0.69924 0,1.01402 0.47217,1.01402 0.12244,0 0.26224,-0.0176 0.45458,-0.0875 l 0,1.15382"
       inkscape:connector-curvature="0" />
    <path
       id="path4448"
       style="fill:#ffffff;fill-opacity:1;fill-rule:nonzero;stroke:none"
       d="m 336.80656,880.86069 c -1.99331,0 -2.76245,1.71348 -2.76245,3.40914 0,1.7836 0.80409,3.42696 2.84994,3.42696 2.02803,0 2.7099,-1.73084 2.7099,-3.49686 0,-1.69589 -0.87421,-3.33924 -2.79739,-3.33924 z m -4.19609,-4.54582 1.48596,0 0,4.66826 0.0352,0 c 0.48954,-0.99666 1.64336,-1.43365 2.88489,-1.43365 2.7798,0 4.16092,2.20279 4.16092,4.75553 0,2.55251 -1.36375,4.70299 -4.1262,4.70299 -0.92652,0 -2.25532,-0.34973 -2.91961,-1.41607 l -0.0352,0 0,1.20636 -1.48596,0 0,-12.48342"
       inkscape:connector-curvature="0" />
    <path
       id="path4450"
       style="fill:#ffffff;fill-opacity:1;fill-rule:nonzero;stroke:none"
       d="m 342.31319,888.79829 1.48597,0 0,-12.48329 -1.48597,0 0,12.48329 z"
       inkscape:connector-curvature="0" />
    <path
       id="path4452"
       style="fill:#ffffff;fill-opacity:1;fill-rule:nonzero;stroke:none"
       d="m 351.94624,883.41321 c -0.0697,-1.41607 -1.13623,-2.55252 -2.60483,-2.55252 -1.55609,0 -2.48284,1.17141 -2.58769,2.55252 l 5.19252,0 z m 1.43365,2.51779 c -0.40205,1.99308 -1.83569,3.077 -3.86373,3.077 -2.88488,0 -4.24863,-1.99309 -4.33612,-4.75553 0,-2.70991 1.78338,-4.70299 4.24863,-4.70299 3.19944,0 4.17873,2.98951 4.09102,5.17494 l -6.76597,0 c -0.0525,1.57367 0.83904,2.97237 2.81476,2.97237 1.22394,0 2.08057,-0.59461 2.34303,-1.76579 l 1.46838,0"
       inkscape:connector-curvature="0" />
    <path
       id="path4454"
       style="fill:#ffffff;fill-opacity:1;fill-rule:nonzero;stroke:none"
       d="m 365.5127,884.13003 c -0.5768,0.41963 -1.69589,0.43722 -2.69233,0.61197 -0.97928,0.17498 -1.81832,0.52449 -1.81832,1.62599 0,0.97907 0.83904,1.3288 1.7482,1.3288 1.95836,0 2.76245,-1.22395 2.76245,-2.04562 l 0,-1.52114 z m 2.41271,4.63309 c -0.26202,0.15739 -0.59439,0.24488 -1.06655,0.24488 -0.76914,0 -1.25868,-0.41964 -1.25868,-1.3987 -0.82167,0.9617 -1.92318,1.3987 -3.18207,1.3987 -1.64336,0 -2.98974,-0.73419 -2.98974,-2.53516 0,-2.04562 1.52114,-2.48261 3.05986,-2.77981 1.64335,-0.31477 3.04205,-0.2097 3.04205,-1.32879 0,-1.29385 -1.06633,-1.50355 -2.01067,-1.50355 -1.25867,0 -2.18542,0.38468 -2.25554,1.71348 l -1.48575,0 c 0.0873,-2.23797 1.81811,-3.02469 3.82878,-3.02469 1.62599,0 3.39178,0.36709 3.39178,2.48262 l 0,4.65067 c 0,0.69924 0,1.01402 0.47195,1.01402 0.12244,0 0.26246,-0.0176 0.45458,-0.0875 l 0,1.15382"
       inkscape:connector-curvature="0" />
    <path
       id="path4456"
       style="fill:#ffffff;fill-opacity:1;fill-rule:nonzero;stroke:none"
       d="m 371.36928,879.75918 1.80074,0 0,1.31121 -1.80074,0 0,5.61238 c 0,0.68187 0.19212,0.80431 1.11887,0.80431 l 0.68187,0 0,1.31121 -1.13645,0 c -1.5385,0 -2.15047,-0.31478 -2.15047,-1.97572 l 0,-5.75218 -1.5385,0 0,-1.31121 1.5385,0 0,-2.7099 1.48618,0 0,2.7099"
       inkscape:connector-curvature="0" />
    <image
       y="258.36218"
       x="21.433071"
       id="image4639"
       xlink:href="file:///daten/proj/opacclient.web/images/screenshot_large.png"
       height="450"
       width="270" />
    <text
       xml:space="preserve"
       style="font-size:40px;font-style:normal;font-variant:normal;font-weight:normal;font-stretch:normal;line-height:125%;letter-spacing:0px;word-spacing:0px;fill:#000000;fill-opacity:1;stroke:none;font-family:Qlassik Bold;-inkscape-font-specification:Qlassik Bold"
       x="372.21835"
       y="977.36218"
       id="text4642"
       sodipodi:linespacing="125%"><tspan
         sodipodi:role="line"
         id="tspan4644"
         x="372.21835"
         y="977.36218"
         style="font-size:10px;font-style:normal;font-variant:normal;font-weight:normal;font-stretch:condensed;text-align:center;line-height:125%;writing-mode:lr-tb;text-anchor:middle;font-family:Roboto;-inkscape-font-specification:Roboto Condensed">„Web Opac Client für Android“ ist ein nicht-kommerzielles Projekt unter Leitung von Raphael Michel · www.raphaelmichel.de</tspan><tspan
         sodipodi:role="line"
         x="372.21835"
         y="989.86218"
         id="tspan4646"
         style="font-size:10px;font-style:normal;font-variant:normal;font-weight:normal;font-stretch:condensed;text-align:center;line-height:125%;writing-mode:lr-tb;text-anchor:middle;font-family:Roboto;-inkscape-font-specification:Roboto Condensed">Die Software ist freie Software und steht unter der MIT-Lizenz · Android is a trademark of Google Inc.</tspan><tspan
         sodipodi:role="line"
         x="372.21835"
         y="1002.3622"
         id="tspan4648"
         style="font-size:10px;font-style:normal;font-variant:normal;font-weight:normal;font-stretch:condensed;text-align:center;line-height:125%;writing-mode:lr-tb;text-anchor:middle;font-family:Roboto;-inkscape-font-specification:Roboto Condensed">Diese App steht in keiner Geschäftsbeziehung zu einer Bibliothek oder einem Bibliothekssoftwarehersteller und existiert aus reiner Menschen- und Bücherliebe.</tspan><tspan
         sodipodi:role="line"
         x="372.21835"
         y="1014.8622"
         id="tspan4650"
         style="font-size:10px;font-style:normal;font-variant:normal;font-weight:normal;font-stretch:condensed;text-align:center;line-height:125%;writing-mode:lr-tb;text-anchor:middle;font-family:Roboto;-inkscape-font-specification:Roboto Condensed">Raphael Michel · Ziethenstraße 68 · 68259 Mannheim · raphael+opac@geeksfactory.de</tspan></text>
    <text
       xml:space="preserve"
       style="font-size:40px;font-style:normal;font-variant:normal;font-weight:normal;font-stretch:normal;line-height:125%;letter-spacing:0px;word-spacing:0px;fill:#000000;fill-opacity:1;stroke:none;font-family:Qlassik Bold;-inkscape-font-specification:Qlassik Bold"
       x="293"
       y="334.07312"
       id="text4652"
       sodipodi:linespacing="125%"><tspan
         sodipodi:role="line"
         id="tspan4654"
         x="293"
         y="334.07312"
         style="font-size:18px;font-style:normal;font-variant:normal;font-weight:300;font-stretch:normal;text-align:start;line-height:125%;writing-mode:lr-tb;text-anchor:start;font-family:Roboto;-inkscape-font-specification:Roboto Light">– Unterwegs den Katalog durchsuchen</tspan><tspan
         sodipodi:role="line"
         x="293"
         y="356.57312"
         style="font-size:18px;font-style:normal;font-variant:normal;font-weight:300;font-stretch:normal;text-align:start;line-height:125%;writing-mode:lr-tb;text-anchor:start;font-family:Roboto;-inkscape-font-specification:Roboto Light"
         id="tspan4658">– Den Strichcode eines Buches scannen und direkt</tspan><tspan
         sodipodi:role="line"
         x="293"
         y="379.07312"
         style="font-size:18px;font-style:normal;font-variant:normal;font-weight:300;font-stretch:normal;text-align:start;line-height:125%;writing-mode:lr-tb;text-anchor:start;font-family:Roboto;-inkscape-font-specification:Roboto Light"
         id="tspan4662">    wissen, ob die Bibliothek das Buch hat</tspan><tspan
         sodipodi:role="line"
         x="293"
         y="401.57312"
         style="font-size:18px;font-style:normal;font-variant:normal;font-weight:300;font-stretch:normal;text-align:start;line-height:125%;writing-mode:lr-tb;text-anchor:start;font-family:Roboto;-inkscape-font-specification:Roboto Light"
         id="tspan4664">– Bücher für später merken</tspan><tspan
         sodipodi:role="line"
         x="293"
         y="424.07312"
         style="font-size:18px;font-style:normal;font-variant:normal;font-weight:300;font-stretch:normal;text-align:start;line-height:125%;writing-mode:lr-tb;text-anchor:start;font-family:Roboto;-inkscape-font-specification:Roboto Light"
         id="tspan4666" /><tspan
         sodipodi:role="line"
         x="293"
         y="446.57312"
         style="font-size:18px;font-style:normal;font-variant:normal;font-weight:300;font-stretch:normal;text-align:start;line-height:125%;writing-mode:lr-tb;text-anchor:start;font-family:Roboto;-inkscape-font-specification:Roboto Light"
         id="tspan4670">– Nachschauen, welche Bücher man ausgeliehen hat</tspan><tspan
         sodipodi:role="line"
         x="293"
         y="469.07312"
         style="font-size:18px;font-style:normal;font-variant:normal;font-weight:300;font-stretch:normal;text-align:start;line-height:125%;writing-mode:lr-tb;text-anchor:start;font-family:Roboto;-inkscape-font-specification:Roboto Light"
         id="tspan4674">    und wann man sie zurückgeben muss</tspan><tspan
         sodipodi:role="line"
         x="293"
         y="491.57312"
         style="font-size:18px;font-style:normal;font-variant:normal;font-weight:300;font-stretch:normal;text-align:start;line-height:125%;writing-mode:lr-tb;text-anchor:start;font-family:Roboto;-inkscape-font-specification:Roboto Light"
         id="tspan4676">– Bücher vorbestellen und verlängern</tspan><tspan
         sodipodi:role="line"
         x="293"
         y="514.07312"
         style="font-size:18px;font-style:normal;font-variant:normal;font-weight:300;font-stretch:normal;text-align:start;line-height:125%;writing-mode:lr-tb;text-anchor:start;font-family:Roboto;-inkscape-font-specification:Roboto Light"
         id="tspan4678">– Benachrichtigung, wenn ein Medium zurück-</tspan><tspan
         sodipodi:role="line"
         x="293"
         y="536.57312"
         style="font-size:18px;font-style:normal;font-variant:normal;font-weight:300;font-stretch:normal;text-align:start;line-height:125%;writing-mode:lr-tb;text-anchor:start;font-family:Roboto;-inkscape-font-specification:Roboto Light"
         id="tspan4680">    gegeben werden muss</tspan><tspan
         sodipodi:role="line"
         x="293"
         y="559.07312"
         style="font-size:18px;font-style:normal;font-variant:normal;font-weight:300;font-stretch:normal;text-align:start;line-height:125%;writing-mode:lr-tb;text-anchor:start;font-family:Roboto;-inkscape-font-specification:Roboto Light"
         id="tspan4843">– Mehrere Mitgliedskonten verwalten</tspan><tspan
         sodipodi:role="line"
         x="293"
         y="581.57312"
         style="font-size:18px;font-style:normal;font-variant:normal;font-weight:300;font-stretch:normal;text-align:start;line-height:125%;writing-mode:lr-tb;text-anchor:start;font-family:Roboto;-inkscape-font-specification:Roboto Light"
         id="tspan4682">– Anzeige von Informationen zur Bibliothek</tspan><tspan
         sodipodi:role="line"
         x="293"
         y="604.07312"
         style="font-size:18px;font-style:normal;font-variant:normal;font-weight:300;font-stretch:normal;text-align:start;line-height:125%;writing-mode:lr-tb;text-anchor:start;font-family:Roboto;-inkscape-font-specification:Roboto Light"
         id="tspan4684">    (Öffnungszeiten, ...)</tspan></text>
    <text
       xml:space="preserve"
       style="font-size:40px;font-style:normal;font-variant:normal;font-weight:normal;font-stretch:normal;line-height:125%;letter-spacing:0px;word-spacing:0px;fill:#000000;fill-opacity:1;stroke:none;font-family:Qlassik Bold;-inkscape-font-specification:Qlassik Bold"
       x="292.24805"
       y="624.50616"
       id="text4652-5"
       sodipodi:linespacing="125%"><tspan
         sodipodi:role="line"
         x="292.24805"
         y="624.50616"
         style="font-size:11px;font-style:normal;font-variant:normal;font-weight:300;font-stretch:normal;text-align:start;line-height:125%;writing-mode:lr-tb;text-anchor:start;font-family:Roboto;-inkscape-font-specification:Roboto Light"
         id="tspan4684-9">(nicht alle Funktionen in jeder Bibliothek verfügbar)</tspan></text>
    <text
       xml:space="preserve"
       style="font-size:40px;font-style:normal;font-variant:normal;font-weight:normal;font-stretch:normal;line-height:125%;letter-spacing:0px;word-spacing:0px;fill:#000000;fill-opacity:1;stroke:none;font-family:Qlassik Bold;-inkscape-font-specification:Qlassik Bold"
       x="492.94922"
       y="754.82703"
       id="text4988"
       sodipodi:linespacing="125%"><tspan
         sodipodi:role="line"
         id="tspan4990"
         x="492.94922"
         y="754.82703"
         style="font-size:40px;font-style:normal;font-variant:normal;font-weight:300;font-stretch:normal;text-align:end;line-height:125%;writing-mode:lr-tb;text-anchor:end;font-family:Roboto;-inkscape-font-specification:Roboto Light">Web Opac App</tspan><tspan
         sodipodi:role="line"
         x="492.94922"
         y="785.03534"
         style="font-size:20px;font-style:normal;font-variant:normal;font-weight:300;font-stretch:normal;text-align:end;line-height:125%;writing-mode:lr-tb;text-anchor:end;font-family:Roboto;-inkscape-font-specification:Roboto Light"
         id="tspan4994">für über 60 Stadtbibliotheken</tspan><tspan
         sodipodi:role="line"
         x="492.94922"
         y="829.82703"
         style="font-size:40px;font-style:normal;font-variant:normal;font-weight:300;font-stretch:normal;text-align:end;line-height:125%;writing-mode:lr-tb;text-anchor:end;font-family:Roboto;-inkscape-font-specification:Roboto Light"
         id="tspan4992">www.opacapp.de</tspan></text>
    <path
       inkscape:connector-curvature="0"
       style="fill:#ffffff;stroke:none"
       d="m 509.68322,637.36218 0,201 201,0 0,-201 -201,0 z"
       id="path4947" />
    <g
       id="g4000">
      <path
         id="path4949"
         d="m 516.16709,643.84605 0,45.3871 45.3871,0 0,-45.3871 -45.3871,0 m 51.87097,0 0,6.48387 6.48387,0 0,6.48387 -6.48387,0 0,6.48387 19.45161,0 0,6.48387 -6.48387,0 0,6.48388 6.48387,0 0,6.48387 -6.48387,0 0,6.48387 -6.48387,0 0,-6.48387 -6.48387,0 0,12.96774 6.48387,0 0,6.48387 6.48387,0 0,12.96774 -6.48387,0 0,-6.48387 -6.48387,0 0,-6.48387 -6.48387,0 0,-6.48387 -12.96774,0 0,6.48387 12.96774,0 0,6.48387 -12.96774,0 0,6.48387 -6.48388,0 0,-12.96774 -12.96774,0 0,19.45161 -6.48387,0 0,12.96774 -6.48387,0 0,12.96775 6.48387,0 0,6.48387 -6.48387,0 0,25.93548 6.48387,0 0,-12.96774 6.48387,0 0,6.48387 12.96774,0 0,6.48387 25.93549,0 0,6.48387 6.48387,0 0,6.48387 -6.48387,0 0,6.48387 12.96774,0 0,-12.96774 -6.48387,0 0,-12.96774 6.48387,0 0,-6.48387 -12.96774,0 0,6.48387 -25.93549,0 0,-6.48387 -6.48387,0 0,-6.48387 -12.96774,0 0,-6.48387 38.90323,0 0,6.48387 -12.96774,0 0,6.48387 12.96774,0 0,-6.48387 12.96774,0 0,-12.96774 -6.48387,0 0,-6.48387 6.48387,0 0,-12.96775 6.48387,0 0,-12.96774 6.48387,0 0,6.48387 6.48387,0 0,6.48387 -6.48387,0 0,12.96775 -6.48387,0 0,6.48387 6.48387,0 0,12.96774 12.96774,0 0,-12.96774 -12.96774,0 0,-6.48387 12.96774,0 0,-19.45162 -6.48387,0 0,-6.48387 6.48387,0 0,-6.48387 6.48387,0 0,19.45161 6.48388,0 0,6.48387 6.48387,0 0,6.48388 -12.96775,0 0,6.48387 12.96775,0 0,-6.48387 6.48387,0 0,6.48387 19.45161,0 0,6.48387 12.96774,0 0,-6.48387 6.48387,0 0,19.45161 -12.96774,0 0,6.48387 -6.48387,0 0,6.48387 -6.48387,0 0,-12.96774 6.48387,0 0,-6.48387 -6.48387,0 0,6.48387 -12.96774,0 0,-6.48387 6.48387,0 0,-6.48387 -12.96774,0 0,12.96774 -12.96775,0 0,6.48387 6.48388,0 0,6.48387 -6.48388,0 0,6.48387 -6.48387,0 0,6.48387 -6.48387,0 0,-6.48387 -6.48387,0 0,6.48387 6.48387,0 0,19.45162 -6.48387,0 0,-6.48387 -6.48387,0 0,6.48387 -6.48387,0 0,12.96774 6.48387,0 0,-12.96774 6.48387,0 0,19.45161 6.48387,0 0,-6.48387 6.48387,0 0,-6.48387 6.48387,0 0,12.96774 12.96775,0 0,-6.48387 6.48387,0 0,-25.93549 6.48387,0 0,6.48388 6.48387,0 0,6.48387 -6.48387,0 0,12.96774 6.48387,0 0,6.48387 25.93548,0 0,-6.48387 -6.48387,0 0,-6.48387 6.48387,0 0,-6.48387 6.48387,0 0,19.45161 6.48388,0 0,-6.48387 12.96774,0 0,-6.48387 6.48387,0 0,6.48387 6.48387,0 0,-6.48387 -6.48387,0 0,-12.96774 6.48387,0 0,-6.48388 -6.48387,0 0,6.48388 -6.48387,0 0,6.48387 -6.48387,0 0,-6.48387 -6.48387,0 0,-6.48388 6.48387,0 0,-6.48387 -6.48387,0 0,-6.48387 12.96774,0 0,6.48387 6.48387,0 0,-6.48387 -6.48387,0 0,-6.48387 6.48387,0 0,-6.48387 6.48387,0 0,-25.93548 -6.48387,0 0,-6.48387 -19.45161,0 0,12.96774 -6.48388,0 0,-6.48387 -6.48387,0 0,-6.48387 -6.48387,0 0,-6.48388 6.48387,0 0,-6.48387 6.48387,0 0,6.48387 12.96775,0 0,-6.48387 12.96774,0 0,-6.48387 -12.96774,0 0,-6.48387 6.48387,0 0,-6.48387 6.48387,0 0,-6.48387 6.48387,0 0,-6.48387 -6.48387,0 0,6.48387 -6.48387,0 0,-6.48387 -6.48387,0 0,6.48387 6.48387,0 0,6.48387 -6.48387,0 0,6.48387 -12.96775,0 0,6.48387 -6.48387,0 0,-12.96774 12.96775,0 0,-12.96774 -6.48388,0 0,6.48387 -6.48387,0 0,-6.48387 -6.48387,0 0,6.48387 -6.48387,0 0,6.48387 6.48387,0 0,6.48387 -12.96774,0 0,-6.48387 -6.48387,0 0,-6.48387 6.48387,0 0,-6.48387 6.48387,0 0,-12.96774 -6.48387,0 0,6.48387 -6.48387,0 0,-6.48387 -6.48387,0 0,-6.48387 19.45161,0 0,-12.96775 -6.48387,0 0,6.48387 -12.96774,0 0,-6.48387 -6.48387,0 0,19.45162 -6.48387,0 0,-6.48387 -12.96775,0 0,-12.96775 6.48388,0 0,6.48387 6.48387,0 0,-6.48387 -6.48387,0 0,-12.96774 -6.48388,0 0,-6.48387 -6.48387,0 0,12.96774 6.48387,0 0,6.48387 -6.48387,0 0,6.48387 -6.48387,0 0,-12.96774 -12.96774,0 0,-6.48387 12.96774,0 0,-6.48387 -12.96774,0 0,6.48387 -6.48387,0 0,-6.48387 -6.48387,0 m 58.35484,0 0,6.48387 -6.48387,0 0,6.48387 12.96774,0 0,-12.96774 -6.48387,0 m 12.96774,0 0,6.48387 6.48387,0 0,6.48387 6.48387,0 0,-12.96774 -12.96774,0 m 19.45161,0 0,45.3871 45.3871,0 0,-45.3871 -45.3871,0 z"
         style="fill:#000000;stroke:none;fill-opacity:1"
         inkscape:connector-curvature="0" />
      <path
         id="path4951"
         d="m 522.65096,650.32992 0,32.41936 32.41936,0 0,-32.41936 -32.41936,0 m 142.64516,0 0,32.41936 32.41936,0 0,-32.41936 -32.41936,0 z"
         style="fill:#ffffff;stroke:none"
         inkscape:connector-curvature="0" />
      <path
         id="path4953"
         d="m 529.13483,656.81379 0,19.45162 19.45162,0 0,-19.45162 -19.45162,0 m 142.64516,0 0,19.45162 19.45162,0 0,-19.45162 -19.45162,0 m -103.74193,12.96774 0,6.48388 6.48387,0 0,-6.48388 -6.48387,0 z"
         style="fill:#000000;stroke:none;fill-opacity:1"
         inkscape:connector-curvature="0" />
      <path
         id="path4955"
         d="m 587.48967,682.74928 0,6.48387 6.48387,0 0,-6.48387 -6.48387,0 m 12.96774,0 0,12.96774 6.48387,0 0,-12.96774 -6.48387,0 m 12.96775,0 0,6.48387 6.48387,0 0,-6.48387 -6.48387,0 m 12.96774,0 0,6.48387 6.48387,0 0,-6.48387 -6.48387,0 m -45.3871,12.96774 0,6.48387 6.48387,0 0,6.48387 12.96774,0 0,-6.48387 -6.48387,0 0,-6.48387 -12.96774,0 m 45.3871,0 0,12.96774 -6.48387,0 0,-6.48387 -12.96775,0 0,6.48387 12.96775,0 0,6.48387 6.48387,0 0,-6.48387 6.48387,0 0,12.96774 6.48387,0 0,6.48387 6.48387,0 0,6.48387 -12.96774,0 0,6.48388 12.96774,0 0,-6.48388 12.96774,0 0,-6.48387 -12.96774,0 0,-6.48387 -6.48387,0 0,-12.96774 -6.48387,0 0,-6.48387 6.48387,0 0,-6.48387 -12.96774,0 m 32.41935,6.48387 0,6.48387 6.48387,0 0,-6.48387 -6.48387,0 m -123.19355,12.96774 0,6.48387 -6.48387,0 0,6.48387 6.48387,0 0,6.48387 -6.48387,0 0,12.96775 12.96774,0 0,-6.48387 -6.48387,0 0,-6.48388 25.93549,0 0,6.48388 -6.48387,0 0,6.48387 6.48387,0 0,6.48387 6.48387,0 0,-6.48387 -6.48387,0 0,-6.48387 6.48387,0 0,-6.48388 -6.48387,0 0,-6.48387 -6.48387,0 0,-6.48387 6.48387,0 0,-6.48387 -6.48387,0 0,6.48387 -12.96775,0 0,-6.48387 -6.48387,0 m 32.41936,6.48387 0,6.48387 6.48387,0 0,-6.48387 -6.48387,0 m 45.3871,0 0,6.48387 6.48387,0 0,6.48387 6.48387,0 0,-12.96774 -12.96774,0 m 58.35483,0 0,6.48387 6.48388,0 0,-6.48387 -6.48388,0 m 19.45162,25.93549 0,6.48387 -6.48387,0 0,25.93548 6.48387,0 0,-12.96774 6.48387,0 0,-19.45161 -6.48387,0 m -19.45162,12.96774 0,12.96774 6.48388,0 0,-12.96774 -6.48388,0 z"
         style="fill:#ffffff;stroke:none"
         inkscape:connector-curvature="0" />
      <path
         id="path4957"
         d="m 587.48967,767.0396 0,12.96774 12.96774,0 0,-6.48387 -6.48387,0 0,-6.48387 -6.48387,0 z"
         style="fill:#000000;stroke:none;fill-opacity:1"
         inkscape:connector-curvature="0" />
      <path
         id="path4959"
         d="m 619.90903,767.0396 0,25.93548 -6.48387,0 0,-6.48387 -6.48388,0 0,6.48387 6.48388,0 0,6.48387 12.96774,0 0,-6.48387 12.96774,0 0,-12.96774 -6.48387,0 0,-6.48387 -6.48387,0 0,-6.48387 -6.48387,0 m 32.41935,12.96774 0,19.45161 19.45161,0 0,-19.45161 -19.45161,0 z"
         style="fill:#ffffff;stroke:none"
         inkscape:connector-curvature="0" />
      <path
         id="path4961"
         d="m 516.16709,786.49121 0,45.3871 45.3871,0 0,-45.3871 -45.3871,0 m 142.64516,0 0,6.48387 6.48387,0 0,-6.48387 -6.48387,0 z"
         style="fill:#000000;stroke:none;fill-opacity:1"
         inkscape:connector-curvature="0" />
      <path
         id="path4963"
         d="m 522.65096,792.97508 0,32.41936 32.41936,0 0,-32.41936 -32.41936,0 z"
         style="fill:#ffffff;stroke:none"
         inkscape:connector-curvature="0" />
      <path
         id="path4965"
         d="m 529.13483,799.45895 0,19.45162 19.45162,0 0,-19.45162 -19.45162,0 z"
         style="fill:#000000;stroke:none;fill-opacity:1"
         inkscape:connector-curvature="0" />
      <path
         id="path4967"
         d="m 600.45741,799.45895 0,6.48388 6.48387,0 0,6.48387 6.48388,0 0,12.96774 6.48387,0 0,-19.45161 -12.96775,0 0,-6.48388 -6.48387,0 m 45.3871,6.48388 0,6.48387 -6.48387,0 0,12.96774 6.48387,0 0,-12.96774 6.48387,0 0,-6.48387 -6.48387,0 m 12.96774,0 0,6.48387 6.48387,0 0,-6.48387 -6.48387,0 m 12.96774,0 0,6.48387 6.48388,0 0,-6.48387 -6.48388,0 m -77.80645,6.48387 0,6.48387 6.48387,0 0,-6.48387 -6.48387,0 z"
         style="fill:#ffffff;stroke:none"
         inkscape:connector-curvature="0" />
    </g>
  </g>
</svg>
