<?xml version="1.0" encoding="UTF-8" standalone="no"?>
<!-- Created with Inkscape (http://www.inkscape.org/) -->

<svg
   xmlns:dc="http://purl.org/dc/elements/1.1/"
   xmlns:cc="http://creativecommons.org/ns#"
   xmlns:rdf="http://www.w3.org/1999/02/22-rdf-syntax-ns#"
   xmlns:svg="http://www.w3.org/2000/svg"
   xmlns="http://www.w3.org/2000/svg"
   xmlns:xlink="http://www.w3.org/1999/xlink"
   xmlns:sodipodi="http://sodipodi.sourceforge.net/DTD/sodipodi-0.dtd"
   xmlns:inkscape="http://www.inkscape.org/namespaces/inkscape"
   width="744.09003"
   height="1052.3622"
   id="svg2"
   version="1.1"
   inkscape:version="0.48.3.1 r9886"
   sodipodi:docname="Aushang_A4.svg">
  <defs
     id="defs4">
    <clipPath
       id="clipPath3981"
       clipPathUnits="userSpaceOnUse">
      <path
         id="path3983"
         d="m 0,91.5 229.5,0 L 229.5,0 0,0 0,91.5 z" />
    </clipPath>
    <linearGradient
       id="linearGradient3969"
       spreadMethod="pad"
       gradientTransform="matrix(-32.735172,-4.4841557,-4.4841557,32.735172,44.714844,30.483398)"
       gradientUnits="userSpaceOnUse"
       y2="0"
       x2="1"
       y1="0"
       x1="0">
      <stop
         id="stop3971"
         offset="0"
         style="stop-opacity:1;stop-color:#ff4521" />
      <stop
         id="stop3973"
         offset="1"
         style="stop-opacity:1;stop-color:#8a33db" />
    </linearGradient>
    <linearGradient
       id="linearGradient3949"
       spreadMethod="pad"
       gradientTransform="matrix(-9.4440823,36.438847,36.438847,9.4440823,25.669434,28.09375)"
       gradientUnits="userSpaceOnUse"
       y2="0"
       x2="1"
       y1="0"
       x1="0">
      <stop
         id="stop3951"
         offset="0"
         style="stop-opacity:1;stop-color:#63ffd4" />
      <stop
         id="stop3953"
         offset="1"
         style="stop-opacity:1;stop-color:#064aa2" />
    </linearGradient>
    <linearGradient
       id="linearGradient3929"
       spreadMethod="pad"
       gradientTransform="matrix(15.62476,-26.685089,-26.685089,-15.62476,30.330078,56.37207)"
       gradientUnits="userSpaceOnUse"
       y2="0"
       x2="1"
       y1="0"
       x1="0">
      <stop
         id="stop3931"
         offset="0"
         style="stop-opacity:1;stop-color:#ff177b" />
      <stop
         id="stop3933"
         offset="1"
         style="stop-opacity:1;stop-color:#ffec73" />
    </linearGradient>
    <linearGradient
       id="linearGradient3909"
       spreadMethod="pad"
       gradientTransform="matrix(-6.1052017,26.529026,26.529026,6.1052017,31.091309,38.163086)"
       gradientUnits="userSpaceOnUse"
       y2="0"
       x2="1"
       y1="0"
       x1="0">
      <stop
         id="stop3911"
         offset="0"
         style="stop-opacity:1;stop-color:#d6ffa1" />
      <stop
         id="stop3913"
         offset="1"
         style="stop-opacity:1;stop-color:#00a3b5" />
    </linearGradient>
    <clipPath
       id="clipPath3847"
       clipPathUnits="userSpaceOnUse">
      <path
         id="path3849"
         d="m 0,91.5 229.5,0 L 229.5,0 0,0 0,91.5 z" />
    </clipPath>
    <clipPath
       id="clipPath3837"
       clipPathUnits="userSpaceOnUse">
      <path
         id="path3839"
         d="m 0,91.5 229.5,0 L 229.5,0 0,0 0,91.5 z" />
    </clipPath>
    <linearGradient
       inkscape:collect="always"
       xlink:href="#linearGradient3909"
       id="linearGradient4278"
       gradientUnits="userSpaceOnUse"
       gradientTransform="matrix(-6.1052017,26.529026,26.529026,6.1052017,31.091309,38.163086)"
       spreadMethod="pad"
       x1="0"
       y1="0"
       x2="1"
       y2="0" />
    <linearGradient
       inkscape:collect="always"
       xlink:href="#linearGradient3929"
       id="linearGradient4280"
       gradientUnits="userSpaceOnUse"
       gradientTransform="matrix(15.62476,-26.685089,-26.685089,-15.62476,30.330078,56.37207)"
       spreadMethod="pad"
       x1="0"
       y1="0"
       x2="1"
       y2="0" />
    <linearGradient
       inkscape:collect="always"
       xlink:href="#linearGradient3949"
       id="linearGradient4282"
       gradientUnits="userSpaceOnUse"
       gradientTransform="matrix(-9.4440823,36.438847,36.438847,9.4440823,25.669434,28.09375)"
       spreadMethod="pad"
       x1="0"
       y1="0"
       x2="1"
       y2="0" />
    <linearGradient
       inkscape:collect="always"
       xlink:href="#linearGradient3969"
       id="linearGradient4284"
       gradientUnits="userSpaceOnUse"
       gradientTransform="matrix(-32.735172,-4.4841557,-4.4841557,32.735172,44.714844,30.483398)"
       spreadMethod="pad"
       x1="0"
       y1="0"
       x2="1"
       y2="0" />
    <linearGradient
       id="linearGradient4364"
       spreadMethod="pad"
       gradientTransform="matrix(-9.15e-6,-209.218,-209.218,9.15e-6,194.257,244.038)"
       gradientUnits="userSpaceOnUse"
       y2="0"
       x2="1"
       y1="0"
       x1="0">
      <stop
         id="stop4366"
         offset="0"
         style="stop-opacity:1;stop-color:#f79328" />
      <stop
         id="stop4368"
         offset="1"
         style="stop-opacity:1;stop-color:#c55c19" />
    </linearGradient>
    <clipPath
       id="clipPath4360"
       clipPathUnits="userSpaceOnUse">
      <path
         id="path4362"
         d="m 3490.54,740.039 c 0,-216.398 -175.42,-391.84 -391.83,-391.84 l -2312.269,0 c -216.402,0 -391.832,175.442 -391.832,391.84 l 0,1700.341 c 0,0 659.101,-114.89 1547.971,-108.38 834.63,6.11 1547.96,108.38 1547.96,108.38 l 0,-1700.341 z" />
    </clipPath>
    <linearGradient
       inkscape:collect="always"
       xlink:href="#linearGradient3909"
       id="linearGradient5531"
       gradientUnits="userSpaceOnUse"
       gradientTransform="matrix(-6.1052017,26.529026,26.529026,6.1052017,31.091309,38.163086)"
       spreadMethod="pad"
       x1="0"
       y1="0"
       x2="1"
       y2="0" />
    <linearGradient
       inkscape:collect="always"
       xlink:href="#linearGradient3929"
       id="linearGradient5533"
       gradientUnits="userSpaceOnUse"
       gradientTransform="matrix(15.62476,-26.685089,-26.685089,-15.62476,30.330078,56.37207)"
       spreadMethod="pad"
       x1="0"
       y1="0"
       x2="1"
       y2="0" />
    <linearGradient
       inkscape:collect="always"
       xlink:href="#linearGradient3949"
       id="linearGradient5535"
       gradientUnits="userSpaceOnUse"
       gradientTransform="matrix(-9.4440823,36.438847,36.438847,9.4440823,25.669434,28.09375)"
       spreadMethod="pad"
       x1="0"
       y1="0"
       x2="1"
       y2="0" />
    <linearGradient
       inkscape:collect="always"
       xlink:href="#linearGradient3969"
       id="linearGradient5537"
       gradientUnits="userSpaceOnUse"
       gradientTransform="matrix(-32.735172,-4.4841557,-4.4841557,32.735172,44.714844,30.483398)"
       spreadMethod="pad"
       x1="0"
       y1="0"
       x2="1"
       y2="0" />
  </defs>
  <sodipodi:namedview
     id="base"
     pagecolor="#ffffff"
     bordercolor="#666666"
     borderopacity="1.0"
     inkscape:pageopacity="0.0"
     inkscape:pageshadow="2"
     inkscape:zoom="2"
     inkscape:cx="534.73586"
     inkscape:cy="245.10918"
     inkscape:document-units="px"
     inkscape:current-layer="layer1"
     showgrid="true"
     inkscape:window-width="1916"
     inkscape:window-height="1023"
     inkscape:window-x="1680"
     inkscape:window-y="36"
     inkscape:window-maximized="0"
     showguides="true"
     gridtolerance="1">
    <inkscape:grid
       type="xygrid"
       id="grid3780"
       empspacing="5"
       visible="true"
       enabled="false"
       snapvisiblegridlinesonly="false"
       units="cm"
       spacingx="1cm"
       spacingy="1cm"
       dotted="false" />
  </sodipodi:namedview>
  <metadata
     id="metadata7">
    <rdf:RDF>
      <cc:Work
         rdf:about="">
        <dc:format>image/svg+xml</dc:format>
        <dc:type
           rdf:resource="http://purl.org/dc/dcmitype/StillImage" />
        <dc:title />
      </cc:Work>
    </rdf:RDF>
  </metadata>
  <g
     inkscape:label="Ebene 1"
     inkscape:groupmode="layer"
     id="layer1">
    <rect
       style="fill:#b50000;fill-opacity:1;stroke:none"
       id="rect3004"
       width="744.09003"
       height="273.68353"
       x="0"
       y="0.1723464" />
    <text
       xml:space="preserve"
       style="font-size:43.52587891px;font-style:normal;font-variant:normal;font-weight:normal;font-stretch:normal;line-height:125%;letter-spacing:0px;word-spacing:0px;fill:#ffffff;fill-opacity:1;stroke:none;font-family:Qlassik Bold;-inkscape-font-specification:Qlassik Bold"
       x="112.2566"
       y="252.12343"
       id="text3782"
       sodipodi:linespacing="125%"><tspan
         sodipodi:role="line"
         id="tspan3784"
         x="112.2566"
         y="252.12343"
         style="font-style:normal;font-variant:normal;font-weight:500;font-stretch:normal;fill:#ffffff;font-family:Roboto;-inkscape-font-specification:Roboto Medium">Stadtbibliotheken für Android™</tspan></text>
    <g
       id="g5463"
       transform="translate(0,-1.135124)">
      <g
         transform="matrix(1.179404,0,0,-1.1547658,709.79866,934.94944)"
         id="g3851">
        <path
           id="path3853"
           style="fill:#000000;fill-opacity:1;fill-rule:nonzero;stroke:none"
           d="m 0,0 c 0,-6.53 -4.797,-10.59 -11.322,-10.59 l -191.815,0 c -6.528,0 -11.821,5.297 -11.821,11.827 l 0,49.956 c 0,6.53 5.293,11.825 11.821,11.825 l 191.815,0 C -4.797,63.018 0,57.723 0,51.193 L 0,0 z"
           inkscape:connector-curvature="0" />
      </g>
      <g
         transform="matrix(1.179404,0,0,-1.179404,623.88757,912.61503)"
         id="g3859">
        <path
           id="path3861"
           style="fill:#ffffff;fill-opacity:1;fill-rule:nonzero;stroke:none"
           d="m 0,0 c 0.645,0.234 0.979,0.437 0.979,0.906 0,1.348 -1.525,2.905 -3.344,2.905 -1.349,0 -3.879,-1.05 -3.879,-4.696 0,-0.569 0.067,-1.175 0.101,-1.781 L 0,0 z m 4.786,-8.533 -1.614,-1.523 c -0.372,-0.205 -0.743,-0.443 -1.113,-0.612 -1.122,-0.509 -2.261,-0.637 -3.275,-0.637 -1.078,0 -2.767,0.07 -4.491,1.317 -2.396,1.687 -3.442,4.587 -3.442,7.114 0,5.232 4.258,7.798 7.732,7.798 1.215,0 2.462,-0.304 3.476,-0.945 1.685,-1.115 2.122,-2.564 2.364,-3.34 l -7.934,-3.205 -2.597,-0.203 c 0.84,-4.289 3.743,-6.784 6.95,-6.784 1.601,0 2.791,0.523 3.882,1.062 0,0 0.218,0.114 0.062,-0.042"
           inkscape:connector-curvature="0" />
      </g>
      <g
         transform="matrix(1.179404,0,0,-1.179404,609.96966,922.37047)"
         id="g3863">
        <path
           id="path3865"
           style="fill:#ffffff;fill-opacity:1;fill-rule:nonzero;stroke:none"
           d="m 0,0 c 0,-1.312 0.234,-1.516 1.343,-1.618 0.578,-0.069 1.154,-0.099 1.724,-0.166 l -1.248,-0.743 -5.947,0 c 0.78,1.011 0.914,1.112 0.914,1.787 l 0,0.753 -0.013,20.063 -2.626,0 2.528,1.218 4.826,0 C 0.455,20.688 0.143,20.319 0.008,19.139 L 0,0 z"
           inkscape:connector-curvature="0" />
      </g>
      <g
         transform="matrix(1.179404,0,0,-1.179404,597.41655,918.86682)"
         id="g3867">
        <path
           id="path3869"
           style="fill:#ffffff;fill-opacity:1;fill-rule:nonzero;stroke:none"
           d="m 0,0 c 0.78,0.778 0.848,1.854 0.848,2.466 0,2.427 -1.448,6.207 -4.252,6.207 -0.875,0 -1.824,-0.44 -2.362,-1.118 -0.57,-0.703 -0.741,-1.616 -0.741,-2.493 0,-2.259 1.318,-6.007 4.217,-6.007 0.846,0 1.756,0.411 2.29,0.945 m -0.971,-6.412 c -0.276,0.036 -0.442,0.036 -0.776,0.036 -0.306,0 -2.129,-0.066 -3.541,-0.54 -0.747,-0.273 -2.906,-1.08 -2.906,-3.478 0,-2.391 2.331,-4.116 5.937,-4.116 3.239,0 4.96,1.553 4.96,3.644 0,1.72 -1.113,2.629 -3.674,4.454 M 1.421,8.568 C 2.195,7.932 3.813,6.58 3.813,4.016 3.813,1.517 2.403,0.339 0.982,-0.776 0.547,-1.215 0.037,-1.691 0.037,-2.428 c 0,-0.746 0.51,-1.151 0.877,-1.453 l 1.219,-0.941 c 1.482,-1.251 2.833,-2.399 2.833,-4.728 0,-3.175 -3.072,-6.375 -8.877,-6.375 -4.89,0 -7.254,2.328 -7.254,4.825 0,1.216 0.604,2.937 2.601,4.116 2.091,1.279 4.926,1.45 6.444,1.549 -0.474,0.613 -1.015,1.253 -1.015,2.299 0,0.573 0.172,0.913 0.338,1.316 -0.369,-0.035 -0.741,-0.072 -1.079,-0.072 -3.579,0 -5.603,2.67 -5.603,5.302 0,1.552 0.708,3.274 2.163,4.522 1.923,1.584 4.217,1.857 6.041,1.857 l 6.954,0 -2.162,-1.221 -2.096,0 z"
           inkscape:connector-curvature="0" />
      </g>
      <g
         transform="matrix(1.179404,0,0,-1.179404,579.39385,922.64575)"
         id="g3871">
        <path
           id="path3873"
           style="fill:#ffffff;fill-opacity:1;fill-rule:nonzero;stroke:none"
           d="m 0,0 c 0.816,1.08 1.014,2.428 1.014,3.742 0,2.972 -1.416,8.64 -5.601,8.64 -1.113,0 -2.234,-0.435 -3.042,-1.146 -1.318,-1.18 -1.553,-2.664 -1.553,-4.12 0,-3.334 1.648,-8.833 5.738,-8.833 1.32,0 2.667,0.639 3.444,1.717 m -4.22,-2.73 c -5.364,0 -8.234,4.177 -8.234,7.959 0,4.418 3.608,8.2 8.74,8.2 4.961,0 8.068,-3.884 8.068,-7.962 0,-3.983 -3.071,-8.197 -8.574,-8.197"
           inkscape:connector-curvature="0" />
      </g>
      <g
         transform="matrix(1.179404,0,0,-1.179404,558.21411,922.64575)"
         id="g3875">
        <path
           id="path3877"
           style="fill:#ffffff;fill-opacity:1;fill-rule:nonzero;stroke:none"
           d="m 0,0 c 0.81,1.08 1.012,2.428 1.012,3.742 0,2.972 -1.42,8.64 -5.601,8.64 -1.117,0 -2.225,-0.435 -3.036,-1.146 -1.32,-1.18 -1.554,-2.664 -1.554,-4.12 0,-3.334 1.655,-8.833 5.738,-8.833 1.317,0 2.662,0.639 3.441,1.717 m -4.221,-2.73 c -5.365,0 -8.23,4.177 -8.23,7.959 0,4.418 3.609,8.2 8.739,8.2 4.958,0 8.062,-3.884 8.062,-7.962 0,-3.983 -3.067,-8.197 -8.571,-8.197"
           inkscape:connector-curvature="0" />
      </g>
      <g
         transform="matrix(1.179404,0,0,-1.179404,540.99988,924.48503)"
         id="g3879">
        <path
           id="path3881"
           style="fill:#ffffff;fill-opacity:1;fill-rule:nonzero;stroke:none"
           d="m 0,0 -4.524,-1.035 c -1.833,-0.289 -3.479,-0.544 -5.222,-0.544 -8.727,0 -12.051,6.424 -12.051,11.45 0,6.14 4.711,11.831 12.778,11.831 1.707,0 3.35,-0.251 4.846,-0.658 2.371,-0.667 3.48,-1.487 4.173,-1.969 l -2.628,-2.496 -1.108,-0.248 0.79,1.26 c -1.071,1.045 -3.037,2.973 -6.77,2.973 -4.991,0 -8.757,-3.793 -8.757,-9.333 0,-5.949 4.3,-11.544 11.195,-11.544 2.026,0 3.069,0.407 4.015,0.787 l 0,5.099 -4.776,-0.257 2.532,1.361 6.703,0 L 0.377,5.888 C 0.155,5.699 0.126,5.636 0.063,5.384 0.03,5.096 0,4.18 0,3.857 L 0,0 z"
           inkscape:connector-curvature="0" />
      </g>
      <g
         transform="matrix(1.179404,0,0,-1.179404,653.68828,916.50683)"
         id="g3883">
        <path
           id="path3885"
           style="fill:#ffffff;fill-opacity:1;fill-rule:nonzero;stroke:none"
           d="m 0,0 c 0,3.831 -1.997,6.753 -5.538,6.753 -2.199,0 -4.302,-1.729 -5.216,-3.235 l 0,-7.001 c 0.914,-1.51 3.017,-3.301 5.216,-3.301 C -1.997,-6.784 0,-3.837 0,0 m -10.754,-5.377 0,-8.596 -1.707,0 0,21.871 1.707,0 0,-2.49 c 1.111,1.61 3.144,2.886 5.504,2.886 4.232,0 7.084,-3.211 7.084,-8.294 0,-5.049 -2.852,-8.327 -7.084,-8.327 -2.229,0 -4.224,1.148 -5.504,2.95"
           inkscape:connector-curvature="0" />
      </g>
      <path
         id="path3887"
         style="fill:#ffffff;fill-opacity:1;fill-rule:nonzero;stroke:none"
         d="m 658.60026,900.06853 2.01206,0 0,25.79475 -2.01206,0 0,-25.79475 z"
         inkscape:connector-curvature="0" />
      <g
         transform="matrix(1.179404,0,0,-1.179404,683.20322,931.31849)"
         id="g3889">
        <path
           id="path3891"
           style="fill:#ffffff;fill-opacity:1;fill-rule:nonzero;stroke:none"
           d="m 0,0 c 0.364,-0.162 0.987,-0.263 1.383,-0.263 1.044,0 1.77,0.427 2.424,1.936 l 1.245,2.82 -6.725,15.964 1.904,0 L 6,6.623 l 5.712,13.834 1.931,0 L 5.441,1.144 c -0.85,-1.991 -2.189,-2.948 -4.029,-2.948 -0.552,0 -1.279,0.099 -1.706,0.23 L 0,0 z"
           inkscape:connector-curvature="0" />
      </g>
      <g
         transform="matrix(1.179404,0,0,-1.179404,670.178,924.34114)"
         id="g3893">
        <path
           id="path3895"
           style="fill:#ffffff;fill-opacity:1;fill-rule:nonzero;stroke:none"
           d="m 0,0 c 1.45,0 2.492,0.324 3.558,0.965 1.057,0.638 1.777,1.469 2.155,2.474 l 0,3.04 -4,0 c -1.528,0 -2.793,-0.337 -3.788,-1.02 -0.997,-0.68 -1.503,-1.503 -1.503,-2.46 0,-0.902 0.32,-1.625 0.957,-2.172 C -1.983,0.274 -1.111,0 0,0 M 6.058,-1.243 C 5.943,-0.694 5.857,-0.211 5.795,0.193 5.742,0.597 5.713,1.009 5.713,1.428 5.127,0.568 4.298,-0.146 3.239,-0.71 2.18,-1.276 1.173,-1.555 -0.209,-1.555 c -1.663,0 -2.953,0.409 -3.875,1.24 -0.918,0.829 -1.38,1.952 -1.38,3.373 0,1.419 0.669,2.571 2.003,3.452 1.334,0.885 3.059,1.324 5.192,1.324 l 3.982,0 0,1.968 c 0,1.133 -0.387,2.023 -1.157,2.67 -0.775,0.646 -1.861,0.973 -3.269,0.973 -1.287,0 -2.331,-0.299 -3.126,-0.881 -0.788,-0.593 -1.184,-1.33 -1.184,-2.216 l -1.748,0 -0.036,0.085 c -0.063,1.195 0.485,2.245 1.648,3.15 1.157,0.905 2.675,1.36 4.542,1.36 1.86,0 3.366,-0.448 4.502,-1.341 1.134,-0.885 1.703,-2.164 1.703,-3.836 l 0,-7.811 c 0,-0.56 0.026,-1.102 0.097,-1.631 0.072,-0.529 0.186,-1.056 0.339,-1.567 l -1.966,0 z"
           inkscape:connector-curvature="0" />
      </g>
      <g
         transform="matrix(1.179404,0,0,-1.179404,447.98819,958.80757)"
         id="g3897">
        <g
           id="g3899">
          <g
             id="g3905">
            <g
               id="g3907">
              <path
                 id="path3915"
                 style="fill:url(#linearGradient5531);stroke:none"
                 d="M 17.299,54.233 34.776,36.758 40.251,42.234 18.913,53.966 C 18.499,54.193 18.107,54.3 17.756,54.3 l 0,0 c -0.162,0 -0.315,-0.022 -0.457,-0.067"
                 inkscape:connector-curvature="0" />
            </g>
          </g>
        </g>
      </g>
      <g
         transform="matrix(1.179404,0,0,-1.179404,447.98819,958.80757)"
         id="g3917">
        <g
           id="g3919">
          <g
             id="g3925">
            <g
               id="g3927">
              <path
                 id="path3935"
                 style="fill:url(#linearGradient5533);stroke:none"
                 d="m 34.776,36.758 5.503,-5.503 7.283,4.005 c 1.477,0.816 1.477,2.141 0,2.954 l 0,0 -7.31,4.02 -5.476,-5.476 z"
                 inkscape:connector-curvature="0" />
            </g>
          </g>
        </g>
      </g>
      <g
         transform="matrix(1.179404,0,0,-1.179404,447.98819,958.80757)"
         id="g3937">
        <g
           id="g3939">
          <g
             id="g3945">
            <g
               id="g3947">
              <path
                 id="path3955"
                 style="fill:url(#linearGradient5535);stroke:none"
                 d="m 16.229,52.379 0.004,-31.284 c 0,-0.983 0.407,-1.63 1.037,-1.846 l 0,0 17.506,17.506 -17.478,17.478 c -0.649,-0.202 -1.069,-0.86 -1.069,-1.854"
                 inkscape:connector-curvature="0" />
            </g>
          </g>
        </g>
      </g>
      <g
         transform="matrix(1.179404,0,0,-1.179404,447.98819,958.80757)"
         id="g3957">
        <g
           id="g3959">
          <g
             id="g3965">
            <g
               id="g3967">
              <path
                 id="path3975"
                 style="fill:url(#linearGradient5537);stroke:none"
                 d="m 17.27,19.249 c 0.455,-0.155 1.024,-0.082 1.643,0.258 l 0,0 21.364,11.748 -5.501,5.5 L 17.27,19.249 z"
                 inkscape:connector-curvature="0" />
            </g>
          </g>
        </g>
      </g>
      <g
         transform="matrix(1.179404,0,0,-1.179404,447.98819,958.80757)"
         id="g3977">
        <g
           clip-path="url(#clipPath3981)"
           id="g3979">
          <g
             transform="translate(63.332,71.2188)"
             id="g3985">
            <path
               id="path3987"
               style="fill:#ffffff;fill-opacity:1;fill-rule:nonzero;stroke:none"
               d="m 0,0 -1.921,-5.09 3.842,0 L 0,0 z m 3.233,-8.804 -0.785,2.065 -4.897,0 -0.784,-2.065 -2.129,0 4.193,10.677 2.337,0 4.194,-10.677 -2.129,0 z"
               inkscape:connector-curvature="0" />
          </g>
          <g
             transform="translate(77.6846,62.415)"
             id="g3989">
            <path
               id="path3991"
               style="fill:#ffffff;fill-opacity:1;fill-rule:nonzero;stroke:none"
               d="m 0,0 -5.57,7.635 0,-7.635 -1.872,0 0,10.677 1.921,0 5.458,-7.396 0,7.396 1.873,0 L 1.81,0 0,0 z"
               inkscape:connector-curvature="0" />
          </g>
          <g
             transform="translate(89.7959,67.7607)"
             id="g3993">
            <path
               id="path3995"
               style="fill:#ffffff;fill-opacity:1;fill-rule:nonzero;stroke:none"
               d="m 0,0 c 0,2.049 -1.28,3.682 -3.649,3.682 l -2.114,0 0,-7.379 2.098,0 C -1.345,-3.697 0,-2.032 0,0 m -7.635,-5.346 0,10.677 3.97,0 c 3.345,0 5.586,-2.209 5.586,-5.331 0,-3.152 -2.241,-5.346 -5.57,-5.346 l -3.986,0 z"
               inkscape:connector-curvature="0" />
          </g>
          <g
             transform="translate(100.1963,69.7617)"
             id="g3997">
            <path
               id="path3999"
               style="fill:#ffffff;fill-opacity:1;fill-rule:nonzero;stroke:none"
               d="m 0,0 c 0,1.024 -0.769,1.681 -1.825,1.681 l -2.577,0 0,-3.394 2.577,0 C -0.769,-1.713 0,-1.04 0,0 m -0.176,-7.347 -2.353,3.986 -1.873,0 0,-3.986 -1.872,0 0,10.677 4.689,0 c 2.113,0 3.506,-1.361 3.506,-3.346 0,-1.888 -1.249,-2.929 -2.545,-3.137 l 2.625,-4.194 -2.177,0 z"
               inkscape:connector-curvature="0" />
          </g>
          <g
             transform="translate(112.917,67.7451)"
             id="g4001">
            <path
               id="path4003"
               style="fill:#ffffff;fill-opacity:1;fill-rule:nonzero;stroke:none"
               d="m 0,0 c 0,2.209 -1.393,3.857 -3.537,3.857 -2.161,0 -3.538,-1.648 -3.538,-3.857 0,-2.192 1.377,-3.857 3.538,-3.857 C -1.393,-3.857 0,-2.192 0,0 m -8.996,0 c 0,3.186 2.257,5.522 5.459,5.522 3.184,0 5.458,-2.336 5.458,-5.522 0,-3.186 -2.274,-5.522 -5.458,-5.522 -3.202,0 -5.459,2.336 -5.459,5.522"
               inkscape:connector-curvature="0" />
          </g>
          <path
             id="path4005"
             style="fill:#ffffff;fill-opacity:1;fill-rule:nonzero;stroke:none"
             d="m 117.026,73.092 1.872,0 0,-10.677 -1.872,0 0,10.677 z"
             inkscape:connector-curvature="0" />
          <g
             transform="translate(129.2051,67.7607)"
             id="g4007">
            <path
               id="path4009"
               style="fill:#ffffff;fill-opacity:1;fill-rule:nonzero;stroke:none"
               d="m 0,0 c 0,2.049 -1.28,3.682 -3.649,3.682 l -2.114,0 0,-7.379 2.098,0 C -1.345,-3.697 0,-2.032 0,0 m -7.635,-5.346 0,10.677 3.97,0 c 3.345,0 5.586,-2.209 5.586,-5.331 0,-3.152 -2.241,-5.346 -5.57,-5.346 l -3.986,0 z"
               inkscape:connector-curvature="0" />
          </g>
          <g
             transform="translate(142.1162,71.2188)"
             id="g4011">
            <path
               id="path4013"
               style="fill:#ffffff;fill-opacity:1;fill-rule:nonzero;stroke:none"
               d="m 0,0 -1.921,-5.09 3.842,0 L 0,0 z m 3.233,-8.804 -0.785,2.065 -4.897,0 -0.784,-2.065 -2.129,0 4.193,10.677 2.337,0 4.193,-10.677 -2.128,0 z"
               inkscape:connector-curvature="0" />
          </g>
          <g
             transform="translate(155.2832,69.7461)"
             id="g4015">
            <path
               id="path4017"
               style="fill:#ffffff;fill-opacity:1;fill-rule:nonzero;stroke:none"
               d="m 0,0 c 0,1.024 -0.752,1.696 -1.809,1.696 l -2.577,0 0,-3.377 2.577,0 C -0.752,-1.681 0,-1.009 0,0 m -6.258,-7.331 0,10.677 4.706,0 c 2.24,0 3.473,-1.522 3.473,-3.346 0,-1.809 -1.248,-3.329 -3.473,-3.329 l -2.834,0 0,-4.002 -1.872,0 z"
               inkscape:connector-curvature="0" />
          </g>
          <g
             transform="translate(165.4277,69.7461)"
             id="g4019">
            <path
               id="path4021"
               style="fill:#ffffff;fill-opacity:1;fill-rule:nonzero;stroke:none"
               d="m 0,0 c 0,1.024 -0.752,1.696 -1.809,1.696 l -2.577,0 0,-3.377 2.577,0 C -0.752,-1.681 0,-1.009 0,0 m -6.258,-7.331 0,10.677 4.706,0 c 2.24,0 3.473,-1.522 3.473,-3.346 0,-1.809 -1.248,-3.329 -3.473,-3.329 l -2.834,0 0,-4.002 -1.872,0 z"
               inkscape:connector-curvature="0" />
          </g>
          <g
             transform="translate(182.373,67.7451)"
             id="g4023">
            <path
               id="path4025"
               style="fill:#ffffff;fill-opacity:1;fill-rule:nonzero;stroke:none"
               d="m 0,0 c 0,2.209 -1.393,3.857 -3.537,3.857 -2.161,0 -3.538,-1.648 -3.538,-3.857 0,-2.192 1.377,-3.857 3.538,-3.857 C -1.393,-3.857 0,-2.192 0,0 m -8.996,0 c 0,3.186 2.257,5.522 5.459,5.522 3.184,0 5.458,-2.336 5.458,-5.522 0,-3.186 -2.274,-5.522 -5.458,-5.522 -3.202,0 -5.459,2.336 -5.459,5.522"
               inkscape:connector-curvature="0" />
          </g>
          <g
             transform="translate(193.9248,62.415)"
             id="g4027">
            <path
               id="path4029"
               style="fill:#ffffff;fill-opacity:1;fill-rule:nonzero;stroke:none"
               d="m 0,0 -5.57,7.635 0,-7.635 -1.872,0 0,10.677 1.921,0 5.458,-7.396 0,7.396 1.873,0 L 1.81,0 0,0 z"
               inkscape:connector-curvature="0" />
          </g>
        </g>
      </g>
    </g>
    <g
       transform="matrix(0.22261615,0,0,-0.22261615,194.7329,946.06297)"
       inkscape:label="ink_ext_XXXXXX"
       id="g4348">
      <g
         transform="scale(0.1,0.1)"
         id="g4350">
        <path
           id="path4352"
           style="fill:#231f20;fill-opacity:1;fill-rule:nonzero;stroke:none"
           d="M 11200,560 C 11200,250.719 10949.3,0 10640,0 L 560,0 C 250.723,0 0,250.719 0,560 l 0,2700 c 0,309.28 250.723,560 560,560 l 10080,0 c 309.3,0 560,-250.72 560,-560 l 0,-2700"
           inkscape:connector-curvature="0" />
        <path
           id="path4354"
           style="fill:#ffffff;fill-opacity:1;fill-rule:nonzero;stroke:none"
           d="m 3484.49,746.09 c 0,-216.418 -175.42,-391.828 -391.83,-391.828 l -2312.269,0 c -216.399,0 -391.829,175.41 -391.829,391.828 l 0,2312.27 c 0,216.4 175.43,391.82 391.829,391.82 l 2312.269,0 c 216.41,0 391.83,-175.42 391.83,-391.82 l 0,-2312.27"
           inkscape:connector-curvature="0" />
        <g
           id="g4356">
          <g
             clip-path="url(#clipPath4360)"
             id="g4358">
            <path
               id="path4370"
               style="fill:url(#linearGradient4364);fill-opacity:1;fill-rule:nonzero;stroke:none"
               d="m 3490.54,740.039 c 0,-216.398 -175.42,-391.84 -391.83,-391.84 l -2312.269,0 c -216.402,0 -391.832,175.442 -391.832,391.84 l 0,1700.341 c 0,0 659.101,-114.89 1547.971,-108.38 834.63,6.11 1547.96,108.38 1547.96,108.38 l 0,-1700.341"
               inkscape:connector-curvature="0" />
          </g>
        </g>
        <path
           id="path4372"
           style="fill:#231f20;fill-opacity:1;fill-rule:nonzero;stroke:none"
           d="m 786.441,3447.16 c -214.39,0 -388.804,-174.41 -388.804,-388.8 l 0,-2312.27 c 0,-214.399 174.414,-388.82 388.804,-388.82 l 2312.269,0 c 214.39,0 388.81,174.421 388.81,388.82 l 0,2312.27 c 0,214.39 -174.42,388.8 -388.81,388.8 l -2312.269,0 z M 3098.71,351.238 l -2312.269,0 c -217.718,0 -394.847,177.102 -394.847,394.852 l 0,2312.27 c 0,217.72 177.129,394.85 394.847,394.85 l 2312.269,0 c 217.72,0 394.85,-177.13 394.85,-394.85 l 0,-2312.27 c 0,-217.75 -177.13,-394.852 -394.85,-394.852"
           inkscape:connector-curvature="0" />
        <path
           id="path4374"
           style="fill:#231f20;fill-opacity:1;fill-rule:evenodd;stroke:none"
           d="m 2205.32,2637.39 c -126.36,-95.63 -309.58,-146.49 -467.34,-146.49 -221.11,0 -420.22,83.81 -570.9,223.32 -11.82,10.96 -1.27,25.92 12.95,17.44 162.56,-97 363.58,-155.42 571.22,-155.42 140.06,0 294.03,29.8 435.7,91.42 21.37,9.29 39.3,-14.44 18.37,-30.27"
           inkscape:connector-curvature="0" />
        <path
           id="path4376"
           style="fill:#231f20;fill-opacity:1;fill-rule:evenodd;stroke:none"
           d="m 2257.92,2698.95 c -16.17,21.22 -106.85,10.06 -147.6,5.06 -12.33,-1.52 -14.25,9.53 -3.12,17.53 72.34,52.11 190.86,37.06 204.64,19.63 13.88,-17.61 -3.64,-139.46 -71.43,-197.62 -10.43,-8.95 -20.34,-4.17 -15.72,7.65 15.24,39.06 49.39,126.52 33.23,147.75"
           inkscape:connector-curvature="0" />
        <path
           id="path4378"
           style="fill:#231f20;fill-opacity:1;fill-rule:evenodd;stroke:none"
           d="m 2107.16,3089.59 0,50.62 c 0.02,7.71 5.69,12.85 12.51,12.83 l 221.27,0.02 c 7.07,0 12.75,-5.28 12.77,-12.78 l -0.02,-43.42 c -0.05,-7.28 -6.03,-16.79 -16.66,-31.87 l -114.61,-167.8 c 42.55,1.02 87.56,-5.51 126.21,-27.79 8.72,-5.02 11.05,-12.47 11.74,-19.77 l 0,-54.01 c 0,-7.45 -7.93,-16.05 -16.29,-11.57 -68.11,36.58 -158.49,40.58 -233.8,-0.45 -7.7,-4.2 -15.75,4.29 -15.75,11.74 l 0,51.34 c 0,8.22 0.15,22.28 8.23,34.8 l 132.8,195.34 -115.62,0.03 c -7.07,0 -12.75,5.16 -12.78,12.74"
           inkscape:connector-curvature="0" />
        <path
           id="path4380"
           style="fill:#231f20;fill-opacity:1;fill-rule:evenodd;stroke:none"
           d="m 1306.05,2773.4 -67.3,0 c -6.41,0.43 -11.53,5.37 -12.05,11.68 l 0.05,354.27 c 0,7.09 5.81,12.75 12.99,12.75 l 62.69,0.03 c 6.56,-0.35 11.82,-5.45 12.24,-11.9 l 0,-46.26 1.26,0 c 16.34,44.73 47.13,65.61 88.6,65.61 42.1,0 68.49,-20.88 87.35,-65.61 16.33,44.73 53.4,65.61 92.99,65.61 28.28,0 59.07,-11.94 77.92,-38.77 21.37,-29.82 16.97,-73.06 16.97,-111.08 l -0.05,-223.57 c 0,-7.08 -5.82,-12.76 -12.98,-12.76 l -67.24,0 c -6.76,0.45 -12.09,5.94 -12.09,12.72 l -0.02,187.83 c 0,14.91 1.26,52.18 -1.88,66.35 -5.02,23.86 -20.11,30.56 -39.58,30.56 -16.34,0 -33.31,-11.19 -40.22,-29.07 -6.92,-17.9 -6.28,-47.71 -6.28,-67.84 l 0,-187.79 c 0,-7.08 -5.82,-12.76 -12.99,-12.76 l -67.23,0 c -6.75,0.45 -12.09,5.94 -12.09,12.72 l -0.07,187.83 c 0,39.51 6.29,97.66 -41.47,97.66 -48.39,0 -46.5,-56.66 -46.5,-97.66 l -0.03,-187.79 c 0.01,-7.08 -5.81,-12.76 -12.99,-12.76"
           inkscape:connector-curvature="0" />
        <path
           id="path4382"
           style="fill:#231f20;fill-opacity:1;fill-rule:evenodd;stroke:none"
           d="m 2538.76,3087.26 c -49.65,0 -52.78,-69.32 -52.78,-112.57 0,-43.24 -0.63,-135.69 52.16,-135.69 52.16,0 54.66,74.56 54.66,120.03 0,29.83 -1.24,65.61 -10.05,93.94 -7.54,24.6 -22.62,34.29 -43.99,34.29 z m -0.62,72.32 c 99.91,0 153.95,-87.97 153.95,-199.79 0,-108.11 -59.69,-193.85 -153.95,-193.85 -98.02,0 -151.45,87.98 -151.45,197.57 0,110.34 54.05,196.07 151.45,196.07"
           inkscape:connector-curvature="0" />
        <path
           id="path4384"
           style="fill:#231f20;fill-opacity:1;fill-rule:evenodd;stroke:none"
           d="m 2821.67,2773.4 -67.08,0 c -6.74,0.45 -12.08,5.94 -12.08,12.72 l -0.11,354.43 c 0.57,6.47 6.16,11.55 12.94,11.55 l 62.44,0.03 c 5.87,-0.31 10.73,-4.43 11.97,-9.93 l 0,-54.19 1.27,0 c 18.83,48.45 45.23,71.57 91.73,71.57 30.16,0 59.69,-11.19 78.54,-41.75 17.61,-28.33 17.61,-76.04 17.61,-110.33 l 0,-222.93 c -0.77,-6.29 -6.26,-11.17 -12.91,-11.17 l -67.48,0 c -6.24,0.42 -11.26,5.12 -11.99,11.17 l 0,192.36 c 0,38.76 4.39,95.43 -42.1,95.43 -16.35,0 -31.43,-11.19 -38.96,-28.33 -9.42,-21.63 -10.68,-43.25 -10.68,-67.1 l 0,-190.77 c -0.14,-7.08 -5.95,-12.76 -13.11,-12.76"
           inkscape:connector-curvature="0" />
        <path
           id="path4386"
           style="fill:#231f20;fill-opacity:1;fill-rule:evenodd;stroke:none"
           d="m 2004.67,2774.3 c -4.45,-4.11 -10.88,-4.38 -15.9,-1.61 -22.36,19.05 -26.36,27.86 -38.58,46 -36.95,-38.6 -63.13,-50.18 -110.99,-50.18 -56.68,0 -100.76,35.86 -100.76,107.59 0,56.03 29.6,94.13 71.79,112.82 36.52,16.43 87.54,19.42 126.58,23.9 l 0,8.97 c 0,16.44 1.26,35.87 -8.19,50.06 -8.19,12.7 -23.93,17.93 -37.78,17.93 -25.68,0 -48.51,-13.49 -54.11,-41.45 -1.16,-6.22 -5.59,-12.37 -11.69,-12.69 l -65.25,7.24 c -5.52,1.28 -11.63,5.81 -10.04,14.44 14.99,81.16 86.48,105.68 150.53,105.68 32.75,0 75.57,-8.96 101.39,-34.36 32.74,-31.38 29.6,-73.23 29.6,-118.8 l 0,-107.55 c 0,-32.35 13.11,-46.53 25.41,-63.97 4.3,-6.28 5.26,-13.75 -0.22,-18.33 -13.75,-11.82 -38.18,-33.58 -51.63,-45.85 l -0.16,0.16 z m -67.86,168.29 c 0,-26.9 0.63,-49.31 -12.6,-73.22 -10.7,-19.43 -27.7,-31.38 -46.6,-31.38 -25.81,0 -40.94,20.18 -40.94,50.06 0,58.79 51.44,69.49 100.14,69.49 l 0,-14.95"
           inkscape:connector-curvature="0" />
        <path
           id="path4388"
           style="fill:#231f20;fill-opacity:1;fill-rule:evenodd;stroke:none"
           d="m 1128.25,2774.3 c -4.46,-4.11 -10.89,-4.38 -15.9,-1.61 -22.37,19.05 -26.37,27.86 -38.59,46 -36.95,-38.6 -63.12,-50.18 -110.987,-50.18 -56.679,0 -100.753,35.86 -100.753,107.59 0,56.03 29.597,94.13 71.789,112.82 36.523,16.43 87.541,19.42 126.571,23.9 l 0,8.97 c 0,16.44 1.26,35.87 -8.18,50.06 -8.18,12.7 -23.93,17.93 -37.79,17.93 -25.664,0 -48.504,-13.49 -54.098,-41.45 -1.175,-6.22 -5.593,-12.37 -11.699,-12.69 l -65.25,7.24 c -5.508,1.28 -11.633,5.81 -10.039,14.44 14.988,81.16 86.465,105.68 150.536,105.68 32.75,0 75.57,-8.96 101.39,-34.36 32.74,-31.38 29.6,-73.23 29.6,-118.8 l 0,-107.55 c 0,-32.35 13.09,-46.53 25.4,-63.97 4.3,-6.28 5.26,-13.75 -0.22,-18.33 -13.75,-11.82 -38.18,-33.58 -51.62,-45.85 l -0.16,0.16 z m -67.87,168.29 c 0,-26.9 0.64,-49.31 -12.59,-73.22 -10.7,-19.43 -27.7,-31.38 -46.6,-31.38 -25.815,0 -40.932,20.18 -40.932,50.06 0,58.79 51.422,69.49 100.122,69.49 l 0,-14.95"
           inkscape:connector-curvature="0" />
        <path
           id="path4390"
           style="fill:#1f2b6a;fill-opacity:1;fill-rule:nonzero;stroke:none"
           d="m 1617.17,1457.78 c 0,-302.22 -245,-547.229 -547.23,-547.229 -302.229,0 -547.229,245.009 -547.229,547.229 0,302.24 245,547.23 547.229,547.23 302.23,0 547.23,-244.99 547.23,-547.23"
           inkscape:connector-curvature="0" />
        <path
           id="path4392"
           style="fill:#ffffff;fill-opacity:1;fill-rule:nonzero;stroke:none"
           d="m 1100.53,1666.75 -131.276,0 0,-486.52 c 0,0 -5.793,-9.62 -17.379,6.06 -5.73,7.76 -160.234,237.21 -160.234,237.21 0,0 -25.094,25.09 -61.778,15.44 -36.679,-9.65 -50.199,-34.75 -32.82,-65.64 17.371,-30.89 135.137,-310.82 287.652,-388.038 108.455,-54.91 237.465,-34.692 310.825,0 64.95,30.708 166.43,106.188 174.16,206.568 7.72,100.38 -0.15,189.2 -0.15,189.2 l -68.34,0 0,-121.63 -43.89,0 0,177.61 -77.23,0 0,-145.19 -46.07,0 0,189.6 -86.88,0 0,-179.95 -42.22,0 -4.37,365.28"
           inkscape:connector-curvature="0" />
        <path
           id="path4394"
           style="fill:#ffffff;fill-opacity:1;fill-rule:nonzero;stroke:none"
           d="m 737.582,1599.18 110.047,0 0,67.5703 -110.047,0 0,-67.5703 z"
           inkscape:connector-curvature="0" />
        <path
           id="path4396"
           style="fill:#ffffff;fill-opacity:1;fill-rule:nonzero;stroke:none"
           d="m 1228.9,1599.18 110.051,0 0,67.5703 -110.051,0 0,-67.5703 z"
           inkscape:connector-curvature="0" />
        <path
           id="path4398"
           style="fill:#ffffff;fill-opacity:1;fill-rule:nonzero;stroke:none"
           d="m 976.977,1782.59 113.902,0 0,127.41 -113.902,0 0,-127.41 z"
           inkscape:connector-curvature="0" />
        <path
           id="path4400"
           style="fill:#ffffff;fill-opacity:1;fill-rule:nonzero;stroke:none"
           d="m 878.512,1720.81 40.543,40.54 -75.032,77.22 -45.375,-40.53 79.864,-77.23"
           inkscape:connector-curvature="0" />
        <path
           id="path4402"
           style="fill:#ffffff;fill-opacity:1;fill-rule:nonzero;stroke:none"
           d="m 1203.19,1732.9 -34.49,46.59 81.08,65.13 33.28,-46.58 -79.87,-65.14"
           inkscape:connector-curvature="0" />
        <path
           id="path4404"
           style="fill:#ffffff;fill-opacity:1;fill-rule:nonzero;stroke:none"
           d="m 1992.63,1479.49 -9.01,0 c -86.85,0 -138.47,-20.61 -138.47,-90.91 0,-44.04 25.4,-74.04 64.73,-74.04 60.62,0 82.75,51.55 82.75,137.77 l 0,27.18 z m -199.92,218.38 c 28.68,15 68.83,35.62 133.55,35.62 131.1,0 161.42,-73.11 161.42,-194.02 l 0,-210.88 c 0,-34.67 -2.78,-66.54 -0.32,-85.28 l -91.77,0 c -2.05,22.12 0.32,42.18 0.32,65.61 l -1.64,0 c -25.4,-39.36 -57.36,-73.1 -117.99,-73.1 -65.54,0 -126.17,51.55 -126.17,141.51 0,131.21 93.41,164.03 222.04,164.03 l 20.48,0 0,17.8 c 0,47.8 -20.48,91.85 -78.66,91.85 -50.8,0 -95.85,-28.12 -115.52,-46.86 l -5.74,93.72"
           inkscape:connector-curvature="0" />
        <path
           id="path4406"
           style="fill:#ffffff;fill-opacity:1;fill-rule:nonzero;stroke:none"
           d="m 1983.62,1476.46 c -94.94,0 -135.45,-26.27 -135.45,-87.88 0,-43.15 24.22,-71.01 61.71,-71.01 54.39,0 79.72,42.81 79.72,134.74 l 0,24.15 -5.98,0 z m -73.74,-164.95 c -40.52,0 -67.75,30.98 -67.75,77.07 0,65.83 42.31,93.93 141.49,93.93 l 9.01,0 c 1.67,0 3.02,-1.35 3.02,-3.02 l 0,-27.18 c 0,-96.06 -27.26,-140.8 -85.77,-140.8 z m 62.27,226.82 c -151.47,0 -219.02,-49.66 -219.02,-161 0,-90.91 61.96,-138.5 123.15,-138.5 60.79,0 91.41,34.47 115.45,71.74 0.55,0.86 1.51,1.37 2.54,1.37 l 1.64,0 c 1.67,0 3.02,-1.34 3.02,-3.02 0,-8.43 -0.31,-16.43 -0.6,-24.17 -0.5,-13.04 -0.97,-25.4 0.03,-38.41 l 85.61,0 c -1.09,11.73 -0.61,27.42 -0.06,45.34 0.36,11.83 0.74,24.05 0.74,36.91 l 0,210.88 c 0,114.65 -26.94,191 -158.39,191 -63.33,0 -103.55,-20.33 -130.41,-34.37 l 5.23,-85.51 c 20.89,17.86 63.63,43.44 112.89,43.44 51.91,0 81.68,-34.58 81.68,-94.87 l 0,-17.8 c 0,-1.68 -1.35,-3.03 -3.02,-3.03 l -20.48,0 z m -95.87,-305.54 c -64.2,0 -129.2,49.65 -129.2,144.54 0,148.06 120.28,167.04 225.07,167.04 l 17.45,0 0,14.79 c 0,26.71 -7.36,88.83 -75.63,88.83 -51.43,0 -95.5,-28.94 -113.43,-46.04 -0.85,-0.81 -2.11,-1.03 -3.19,-0.62 -1.1,0.43 -1.85,1.46 -1.92,2.63 l -5.73,93.73 c -0.08,1.19 0.56,2.31 1.61,2.87 27.39,14.31 68.76,35.95 134.95,35.95 136.47,0 164.43,-78.77 164.43,-197.04 l 0,-210.88 c 0,-12.95 -0.37,-25.22 -0.73,-37.09 -0.6,-19.46 -1.11,-36.26 0.4,-47.79 0.11,-0.87 -0.16,-1.74 -0.73,-2.38 -0.58,-0.66 -1.41,-1.05 -2.27,-1.05 l -91.77,0 c -1.56,0 -2.86,1.2 -3.01,2.76 -1.34,14.41 -0.82,27.79 -0.29,41.94 0.2,5.27 0.41,10.67 0.52,16.24 -23.47,-34.79 -56.19,-68.43 -116.53,-68.43"
           inkscape:connector-curvature="0" />
        <path
           id="path4408"
           style="fill:#ffffff;fill-opacity:1;fill-rule:nonzero;stroke:none"
           d="m 2363.78,1333.2 c 56.53,0 88.3,50.7 88.3,147.24 0,111.52 -27.67,167.75 -86.66,167.75 -59.81,0 -80.29,-67.98 -80.29,-158.89 0,-93.73 22.93,-156.1 78.65,-156.1 z m -180.25,310.31 c 0,34.68 -0.27,61.22 -0.27,81.65 l 88.95,-0.23 c 0.81,-15.11 0.31,-16.93 0.31,-49.73 l 2.46,0 c 16.4,41.24 52.74,58.29 118.29,58.29 104.87,0 154.34,-114.34 154.34,-248.38 0,-157.45 -60.93,-237.2 -151.87,-237.2 -60.64,0 -94.24,9.13 -108.98,46.6 l -1.63,0 0,-229.45 -101.6,0 0,578.45"
           inkscape:connector-curvature="0" />
        <path
           id="path4410"
           style="fill:#ffffff;fill-opacity:1;fill-rule:nonzero;stroke:none"
           d="m 2365.42,1645.18 c -51.27,0 -77.27,-52.46 -77.27,-155.88 0,-69.84 13.12,-153.07 75.63,-153.07 54.99,0 85.27,51.21 85.27,144.21 0,110.85 -27.36,164.74 -83.63,164.74 z m -1.64,-315 c -53.43,0 -81.68,55.03 -81.68,159.12 0,107.44 28.03,161.92 83.32,161.92 60.35,0 89.68,-55.86 89.68,-170.78 0,-96.9 -32.44,-150.26 -91.32,-150.26 z m -177.23,-262.1 95.55,0 0,226.43 c 0,1.68 1.35,3.05 3.03,3.05 l 1.63,0 c 1.25,0 2.36,-0.78 2.82,-1.93 12.97,-33.01 40.75,-44.69 106.16,-44.69 94.6,0 148.85,85.34 148.85,234.17 0,113.19 -39.62,245.36 -151.32,245.36 -65.23,0 -99.77,-16.87 -115.48,-56.4 -0.46,-1.14 -1.57,-1.89 -2.81,-1.89 l -2.46,0 c -1.67,0 -3.02,1.35 -3.02,3.02 0,11.21 0.06,18.8 0.1,24.55 0.08,9.91 0.11,14.24 -0.27,22.16 l -83.05,0.22 c 0.01,-8.11 0.06,-17.13 0.11,-27.19 0.07,-14.78 0.16,-31.81 0.16,-51.43 l 0,-575.43 z m 98.58,-6.05 -101.6,0 c -1.68,0 -3.03,1.36 -3.03,3.03 l 0,578.45 c 0,19.61 -0.08,36.63 -0.16,51.39 -0.06,11.35 -0.11,21.37 -0.11,30.26 0,0.8 0.32,1.57 0.89,2.13 0.57,0.57 1.34,0.89 2.14,0.89 l 0.01,0 88.94,-0.23 c 1.61,-0.01 2.93,-1.25 3.01,-2.86 0.55,-10.03 0.52,-14.22 0.43,-25.39 -0.02,-4.08 -0.07,-9.11 -0.09,-15.73 18.05,36.72 53.87,52.54 117.71,52.54 95.6,0 157.37,-98.68 157.37,-251.4 0,-152.68 -56.46,-240.23 -154.9,-240.23 -54.06,0 -89.8,6.73 -107.59,39.49 l 0,-219.31 c 0,-1.67 -1.35,-3.03 -3.02,-3.03"
           inkscape:connector-curvature="0" />
        <path
           id="path4412"
           style="fill:#ffffff;fill-opacity:1;fill-rule:nonzero;stroke:none"
           d="m 3042.19,1372.73 c 17.07,-7.28 60.61,-37 110.11,-37 38.41,0 68.29,10.03 68.29,46.42 0,18.21 -8.53,35.5 -46.94,59.17 l -61.67,39.39 c -44.39,28.22 -74.9,48.7 -74.9,113.84 0,75.22 58.89,138.94 151.92,138.94 56.35,0 99.87,-15.47 110.13,-19.12 l -5.99,-87.38 c -26.46,10.93 -54.62,20.93 -93.04,20.93 -42.66,0 -60.59,-17.29 -60.59,-45.5 0,-25.49 12.83,-35.35 43.56,-56.29 l 72.95,-34.86 c 57.42,-33.64 73.04,-80.42 73.04,-122.74 0,-86.48 -62.24,-144.4 -157.84,-144.4 -54.62,0 -111.96,19.7 -134.14,28.8 l 5.11,99.8"
           inkscape:connector-curvature="0" />
        <path
           id="path4414"
           style="fill:#ffffff;fill-opacity:1;fill-rule:nonzero;stroke:none"
           d="m 3040.21,1274.93 c 15.44,-6.18 73.58,-27.79 131.01,-27.79 94.05,0 154.82,55.51 154.82,141.39 0,51.9 -24.08,92.32 -71.55,120.12 l -72.73,34.75 c -31.52,21.44 -45.28,31.96 -45.28,59.02 0,22.14 11.04,48.53 63.62,48.53 37.68,0 65.4,-9.44 90.31,-19.56 l 5.54,80.9 c -43.19,14.99 -81.91,18.18 -106.95,18.18 -86.28,0 -148.9,-57.17 -148.9,-135.92 0,-64.57 30.83,-84.16 73.5,-111.28 l 61.68,-39.41 c 34.31,-21.15 48.33,-39.03 48.33,-61.71 0,-33.26 -23.32,-49.43 -71.31,-49.43 -40.11,0 -76.28,19.09 -97.88,30.49 -3.52,1.85 -6.71,3.54 -9.44,4.89 l -4.77,-93.17 z m 131.01,-33.83 c -61.42,0 -123.47,24.18 -135.29,29.03 -1.18,0.49 -1.93,1.66 -1.87,2.96 l 5.11,99.78 c 0.05,0.99 0.58,1.9 1.42,2.42 0.84,0.52 1.87,0.6 2.79,0.22 3.6,-1.55 8.36,-4.04 13.86,-6.95 21.11,-11.14 56.45,-29.79 95.06,-29.79 44.53,0 65.26,13.78 65.26,43.38 0,17.14 -7.73,33.32 -45.5,56.59 l -61.71,39.43 c -42.63,27.08 -76.29,48.49 -76.29,116.38 0,82.26 65.16,141.96 154.94,141.96 25.94,0 66.26,-3.35 111.13,-19.28 1.28,-0.46 2.1,-1.71 2.01,-3.07 l -5.98,-87.36 c -0.07,-0.98 -0.6,-1.86 -1.42,-2.37 -0.82,-0.51 -1.86,-0.6 -2.75,-0.23 -25.36,10.48 -53.35,20.7 -91.89,20.7 -38.74,0 -57.57,-13.89 -57.57,-42.48 0,-24.04 12.19,-33.32 42.24,-53.8 l 72.55,-34.63 c 49.69,-29.1 74.76,-71.27 74.76,-125.46 0,-88.17 -64.64,-147.43 -160.86,-147.43"
           inkscape:connector-curvature="0" />
        <path
           id="path4416"
           style="fill:#ffffff;fill-opacity:1;fill-rule:nonzero;stroke:none"
           d="m 2800.34,1333.2 c 56.54,0 88.29,50.7 88.29,147.24 0,111.52 -27.66,167.75 -86.65,167.75 -59.82,0 -80.3,-67.98 -80.3,-158.89 0,-93.73 22.94,-156.1 78.66,-156.1 z m -180.26,310.31 c 0,34.68 -0.27,61.22 -0.27,81.65 l 88.95,-0.23 c 0.82,-15.11 0.32,-16.93 0.32,-49.73 l 2.45,0 c 16.4,41.24 52.76,58.29 118.29,58.29 104.88,0 154.35,-114.34 154.35,-248.38 0,-157.45 -60.94,-237.2 -151.87,-237.2 -60.64,0 -94.23,9.13 -108.97,46.6 l -1.65,0 0,-229.45 -101.6,0 0,578.45"
           inkscape:connector-curvature="0" />
        <path
           id="path4418"
           style="fill:#ffffff;fill-opacity:1;fill-rule:nonzero;stroke:none"
           d="m 2801.98,1645.18 c -51.27,0 -77.27,-52.46 -77.27,-155.88 0,-69.84 13.12,-153.07 75.63,-153.07 54.99,0 85.27,51.21 85.27,144.21 0,110.85 -27.35,164.74 -83.63,164.74 z m -1.64,-315 c -53.44,0 -81.68,55.03 -81.68,159.12 0,107.44 28.03,161.92 83.32,161.92 60.34,0 89.67,-55.86 89.67,-170.78 0,-96.9 -32.43,-150.26 -91.31,-150.26 z m -177.23,-262.1 95.55,0 0,226.43 c 0,1.68 1.35,3.05 3.02,3.05 l 1.65,0 c 1.24,0 2.35,-0.78 2.81,-1.93 12.98,-33.01 40.75,-44.69 106.16,-44.69 94.59,0 148.85,85.34 148.85,234.17 0,113.19 -39.63,245.36 -151.33,245.36 -65.23,0 -99.76,-16.87 -115.46,-56.4 -0.47,-1.14 -1.58,-1.89 -2.83,-1.89 l -2.45,0 c -1.67,0 -3.02,1.35 -3.02,3.02 0,11.21 0.06,18.8 0.1,24.55 0.08,9.91 0.11,14.24 -0.27,22.16 l -83.05,0.22 c 0.02,-8.11 0.06,-17.13 0.1,-27.19 0.08,-14.78 0.17,-31.81 0.17,-51.43 l 0,-575.43 z m 98.57,-6.05 -101.6,0 c -1.67,0 -3.02,1.36 -3.02,3.03 l 0,578.45 c 0,19.61 -0.08,36.63 -0.16,51.39 -0.06,11.35 -0.11,21.37 -0.11,30.26 0,0.8 0.32,1.57 0.89,2.13 0.56,0.57 1.33,0.89 2.13,0.89 l 0.01,0 88.95,-0.23 c 1.6,-0.01 2.93,-1.25 3.01,-2.86 0.55,-10.03 0.51,-14.22 0.43,-25.39 -0.03,-4.08 -0.08,-9.11 -0.09,-15.73 18.05,36.72 53.87,52.54 117.7,52.54 95.61,0 157.38,-98.68 157.38,-251.4 0,-152.68 -56.46,-240.23 -154.9,-240.23 -54.06,0 -89.8,6.73 -107.59,39.49 l 0,-219.31 c 0,-1.67 -1.36,-3.03 -3.03,-3.03"
           inkscape:connector-curvature="0" />
        <path
           id="path4420"
           style="fill:#f68c14;fill-opacity:1;fill-rule:evenodd;stroke:none"
           d="m 7925.06,752.262 c -347,-256.071 -850.08,-392.321 -1283.25,-392.321 -607.13,0 -1153.82,224.418 -1567.59,597.989 -32.44,29.34 -3.46,69.44 35.55,46.71 446.38,-259.73 998.36,-416.16 1568.47,-416.16 384.6,0 807.39,79.829 1196.39,244.75 58.65,24.911 107.82,-38.621 50.43,-80.968"
           inkscape:connector-curvature="0" />
        <path
           id="path4422"
           style="fill:#f68c14;fill-opacity:1;fill-rule:evenodd;stroke:none"
           d="m 8069.46,917.051 c -44.42,56.871 -293.41,26.969 -405.24,13.539 -33.9,-4.039 -39.13,25.539 -8.59,47 198.61,139.48 524.07,99.25 561.89,52.52 38.11,-47.11 -9.98,-373.438 -196.14,-529.13 -28.63,-23.98 -55.86,-11.191 -43.16,20.481 41.86,104.508 135.64,338.758 91.24,395.59"
           inkscape:connector-curvature="0" />
        <path
           id="path4424"
           style="fill:#ffffff;fill-opacity:1;fill-rule:evenodd;stroke:none"
           d="m 7672.11,1963.11 0,135.58 c 0.11,20.65 15.63,34.36 34.34,34.33 l 607.57,0.08 c 19.42,0 35.04,-14.17 35.06,-34.26 l -0.02,-116.27 c -0.15,-19.52 -16.6,-44.98 -45.77,-85.28 l -314.7,-449.44 c 116.82,2.78 240.4,-14.7 346.57,-74.33 23.88,-13.44 30.32,-33.42 32.18,-52.93 l 0,-144.63 c 0,-19.99 -21.79,-43.02 -44.68,-31.04 -187.03,97.97 -435.18,108.72 -641.96,-1.13 -21.14,-11.27 -43.26,11.42 -43.26,31.35 l 0,137.57 c 0,22 0.42,59.58 22.61,93.11 l 364.63,523.12 -317.47,0.05 c -19.43,0 -34.95,13.88 -35.1,34.12"
           inkscape:connector-curvature="0" />
        <path
           id="path4426"
           style="fill:#ffffff;fill-opacity:1;fill-rule:evenodd;stroke:none"
           d="m 5455.83,1116.44 -184.81,0 c -17.61,1.17 -31.66,14.33 -33.05,31.22 l 0.11,948.65 c 0,19.07 15.95,34.19 35.64,34.19 l 172.14,0.06 c 18,-0.96 32.5,-14.56 33.66,-31.87 l 0,-123.85 3.44,0 c 44.86,119.79 129.39,175.7 243.27,175.7 115.57,0 188.04,-55.91 239.83,-175.7 44.85,119.79 146.63,175.7 255.37,175.7 77.66,0 162.19,-31.97 213.92,-103.82 58.65,-79.83 46.6,-195.67 46.6,-297.48 l -0.11,-598.63 c 0,-19.02 -16.01,-34.17 -35.67,-34.17 l -184.63,0 c -18.53,1.17 -33.22,15.91 -33.22,34.13 l -0.01,502.86 c 0,39.97 3.47,139.77 -5.18,177.67 -13.79,63.92 -55.18,81.85 -108.68,81.85 -44.88,0 -91.44,-29.95 -110.44,-77.84 -18.99,-47.96 -17.23,-127.72 -17.23,-181.68 l 0,-502.82 c 0,-19.02 -15.95,-34.17 -35.66,-34.17 l -184.63,0 c -18.55,1.17 -33.21,15.91 -33.21,34.13 l -0.15,502.86 c 0,105.79 17.25,261.57 -113.88,261.57 -132.87,0 -127.67,-151.77 -127.67,-261.57 l -0.09,-502.82 c 0.02,-19.02 -15.97,-34.17 -35.66,-34.17"
           inkscape:connector-curvature="0" />
        <path
           id="path4428"
           style="fill:#ffffff;fill-opacity:1;fill-rule:evenodd;stroke:none"
           d="m 8873.83,1956.87 c -136.33,0 -144.94,-185.64 -144.94,-301.44 0,-115.79 -1.7,-363.27 143.21,-363.27 143.23,0 150.12,199.58 150.12,321.35 0,79.89 -3.44,175.66 -27.63,251.55 -20.7,65.86 -62.14,91.81 -120.76,91.81 z m -1.73,193.67 c 274.35,0 422.72,-235.54 422.72,-535.02 0,-289.48 -163.87,-519.08 -422.72,-519.08 -269.2,0 -415.84,235.6 -415.84,529.01 0,295.53 148.36,525.09 415.84,525.09"
           inkscape:connector-curvature="0" />
        <path
           id="path4430"
           style="fill:#ffffff;fill-opacity:1;fill-rule:evenodd;stroke:none"
           d="m 9650.61,1116.44 -184.16,0 c -18.53,1.17 -33.2,15.91 -33.2,34.13 l -0.29,948.96 c 1.6,17.39 16.9,30.97 35.56,30.97 l 171.44,0.06 c 16.11,-0.84 29.45,-11.86 32.83,-26.57 l 0,-145.1 3.5,0 c 51.75,129.76 124.2,191.65 251.84,191.65 82.87,0 163.97,-29.97 215.67,-111.83 48.3,-75.9 48.3,-203.6 48.3,-295.43 l 0,-596.92 c -2,-16.87 -17.1,-29.92 -35.3,-29.92 l -185.34,0 c -17.12,1.14 -30.93,13.67 -32.96,29.92 l 0,515.03 c 0,103.8 12.12,255.51 -115.6,255.51 -44.86,0 -86.3,-29.91 -106.95,-75.82 -25.89,-57.89 -29.36,-115.77 -29.36,-179.69 l 0,-510.78 c -0.32,-19.02 -16.29,-34.17 -35.98,-34.17"
           inkscape:connector-curvature="0" />
        <path
           id="path4432"
           style="fill:#ffffff;fill-opacity:1;fill-rule:evenodd;stroke:none"
           d="m 7374.13,1118.84 c -12.26,-10.98 -29.88,-11.71 -43.66,-4.35 -61.45,51.08 -72.42,74.63 -105.97,123.16 -101.47,-103.35 -173.33,-134.34 -304.76,-134.34 -155.61,0 -276.69,96.09 -276.69,288.15 0,150 81.28,252.06 197.15,302.06 100.28,43.99 240.38,52.02 347.57,64.08 l 0,23.97 c 0,44 3.44,96.02 -22.49,133.99 -22.45,34.08 -65.71,48.06 -103.75,48.06 -70.49,0 -133.15,-36.12 -148.58,-111.03 -3.18,-16.58 -15.31,-33.06 -32.09,-33.97 l -179.15,19.42 c -15.14,3.42 -31.94,15.56 -27.59,38.64 41.19,217.36 237.45,283.04 413.34,283.04 89.92,0 207.48,-24.04 278.38,-92.08 89.96,-84.07 81.29,-196.09 81.29,-318.11 l 0,-287.97 c 0,-86.58 35.99,-124.6 69.77,-171.37 11.79,-16.77 14.47,-36.74 -0.63,-49.04 -37.73,-31.58 -104.81,-89.95 -141.72,-122.77 l -0.42,0.46 z m -186.36,450.63 c 0,-72.01 1.73,-132 -34.58,-196.08 -29.43,-51.99 -76.1,-84.01 -127.98,-84.01 -70.89,0 -112.39,54.06 -112.39,134.07 0,157.46 141.22,186.03 274.95,186.03 l 0,-40.01"
           inkscape:connector-curvature="0" />
        <path
           id="path4434"
           style="fill:#ffffff;fill-opacity:1;fill-rule:evenodd;stroke:none"
           d="m 4951.03,1118.84 c -12.25,-10.98 -29.9,-11.71 -43.67,-4.35 -61.41,51.08 -72.41,74.63 -106,123.16 -101.43,-103.35 -173.32,-134.34 -304.68,-134.34 -155.68,0 -276.68,96.09 -276.68,288.15 0,150 81.29,252.06 197.11,302.06 100.28,43.99 240.34,52.02 347.55,64.08 l 0,23.97 c 0,44 3.47,96.02 -22.44,133.99 -22.51,34.08 -65.74,48.06 -103.78,48.06 -70.49,0 -133.21,-36.12 -148.55,-111.03 -3.22,-16.58 -15.36,-33.06 -32.14,-33.97 l -179.12,19.42 c -15.16,3.42 -31.97,15.56 -27.59,38.64 41.15,217.36 237.42,283.04 413.33,283.04 89.91,0 207.51,-24.04 278.42,-92.08 89.89,-84.07 81.24,-196.09 81.24,-318.11 l 0,-287.97 c 0,-86.58 36,-124.6 69.77,-171.37 11.79,-16.77 14.45,-36.74 -0.62,-49.04 -37.73,-31.58 -104.85,-89.95 -141.75,-122.77 l -0.4,0.46 z m -186.37,450.63 c 0,-72.01 1.73,-132 -34.62,-196.08 -29.33,-51.99 -76.04,-84.01 -127.94,-84.01 -70.85,0 -112.39,54.06 -112.39,134.07 0,157.46 141.23,186.03 274.95,186.03 l 0,-40.01"
           inkscape:connector-curvature="0" />
        <path
           id="path4436"
           style="fill:#ffffff;fill-opacity:1;fill-rule:nonzero;stroke:none"
           d="m 4377.86,2804.04 190.06,0 -93.47,261.53 -1.56,0 -95.03,-261.53 z m 55.75,329.07 82.47,0 219.12,-560.76 -82.47,0 -61.26,168.86 -237.18,0 -62.83,-168.86 -76.96,0 219.11,560.76"
           inkscape:connector-curvature="0" />
        <path
           id="path4438"
           style="fill:#ffffff;fill-opacity:1;fill-rule:nonzero;stroke:none"
           d="m 4903.25,2572.35 -71.47,0 -150.79,406.04 74.61,0 113.87,-338.49 1.57,0 110.74,338.49 69.9,0 -148.43,-406.04"
           inkscape:connector-curvature="0" />
        <path
           id="path4440"
           style="fill:#ffffff;fill-opacity:1;fill-rule:nonzero;stroke:none"
           d="m 5324.98,2782.05 c -25.92,-18.85 -76.19,-19.64 -120.95,-27.49 -43.98,-7.86 -81.68,-23.56 -81.68,-73.04 0,-43.98 37.7,-59.69 78.54,-59.69 87.96,0 124.09,54.98 124.09,91.89 l 0,68.33 z m 108.37,-208.12 c -11.77,-7.07 -26.69,-11 -47.9,-11 -34.56,0 -56.55,18.85 -56.55,62.83 -36.91,-43.2 -86.39,-62.83 -142.93,-62.83 -73.83,0 -134.3,32.98 -134.3,113.88 0,91.89 68.33,111.52 137.44,124.87 73.82,14.14 136.65,9.42 136.65,59.69 0,58.12 -47.91,67.54 -90.32,67.54 -56.54,0 -98.17,-17.28 -101.31,-76.97 l -66.76,0 c 3.93,100.53 81.68,135.87 172,135.87 73.04,0 152.36,-16.49 152.36,-111.52 l 0,-208.91 c 0,-31.41 0,-45.55 21.21,-45.55 5.49,0 11.78,0.79 20.41,3.93 l 0,-51.83"
           inkscape:connector-curvature="0" />
        <path
           id="path4442"
           style="fill:#ffffff;fill-opacity:1;fill-rule:nonzero;stroke:none"
           d="m 5479.66,2978.39 66.76,0 0,-406.04 -66.76,0 0,406.04 z m 66.76,73.04 -66.76,0 0,81.68 66.76,0 0,-81.68"
           inkscape:connector-curvature="0" />
        <path
           id="path4444"
           style="fill:#ffffff;fill-opacity:1;fill-rule:nonzero;stroke:none"
           d="m 5638.29,2572.35 66.7617,0 0,560.754 -66.7617,0 0,-560.754 z"
           inkscape:connector-curvature="0" />
        <path
           id="path4446"
           style="fill:#ffffff;fill-opacity:1;fill-rule:nonzero;stroke:none"
           d="m 6040.39,2782.05 c -25.92,-18.85 -76.18,-19.64 -120.95,-27.49 -43.98,-7.86 -81.68,-23.56 -81.68,-73.04 0,-43.98 37.7,-59.69 78.54,-59.69 87.96,0 124.09,54.98 124.09,91.89 l 0,68.33 z m 108.38,-208.12 c -11.79,-7.07 -26.71,-11 -47.91,-11 -34.56,0 -56.54,18.85 -56.54,62.83 -36.92,-43.2 -86.4,-62.83 -142.94,-62.83 -73.83,0 -134.3,32.98 -134.3,113.88 0,91.89 68.32,111.52 137.44,124.87 73.82,14.14 136.65,9.42 136.65,59.69 0,58.12 -47.91,67.54 -90.32,67.54 -56.54,0 -98.16,-17.28 -101.31,-76.97 l -66.76,0 c 3.93,100.53 81.68,135.87 172.01,135.87 73.03,0 152.35,-16.49 152.35,-111.52 l 0,-208.91 c 0,-31.41 0,-45.55 21.21,-45.55 5.5,0 11.78,0.79 20.42,3.93 l 0,-51.83"
           inkscape:connector-curvature="0" />
        <path
           id="path4448"
           style="fill:#ffffff;fill-opacity:1;fill-rule:nonzero;stroke:none"
           d="m 6382,2928.91 c -89.54,0 -124.09,-76.97 -124.09,-153.14 0,-80.12 36.12,-153.94 128.02,-153.94 91.1,0 121.73,77.75 121.73,157.08 0,76.18 -39.27,150 -125.66,150 z m -188.49,204.2 66.75,0 0,-209.7 1.58,0 c 21.99,44.77 73.82,64.4 129.59,64.4 124.87,0 186.91,-98.95 186.91,-213.62 0,-114.66 -61.26,-211.26 -185.35,-211.26 -41.62,0 -101.31,15.71 -131.15,63.61 l -1.58,0 0,-54.19 -66.75,0 0,560.76"
           inkscape:connector-curvature="0" />
        <path
           id="path4450"
           style="fill:#ffffff;fill-opacity:1;fill-rule:nonzero;stroke:none"
           d="m 6629.36,2572.35 66.75,0 0,560.754 -66.75,0 0,-560.754 z"
           inkscape:connector-curvature="0" />
        <path
           id="path4452"
           style="fill:#ffffff;fill-opacity:1;fill-rule:nonzero;stroke:none"
           d="m 7062.08,2814.25 c -3.13,63.61 -51.04,114.66 -117.01,114.66 -69.9,0 -111.53,-52.62 -116.24,-114.66 l 233.25,0 z m 64.4,-113.1 c -18.06,-89.53 -82.46,-138.22 -173.56,-138.22 -129.59,0 -190.85,89.53 -194.78,213.62 0,121.73 80.11,211.26 190.85,211.26 143.72,0 187.71,-134.29 183.77,-232.46 l -303.93,0 c -2.36,-70.69 37.69,-133.52 126.44,-133.52 54.98,0 93.46,26.71 105.25,79.32 l 65.96,0"
           inkscape:connector-curvature="0" />
        <path
           id="path4454"
           style="fill:#ffffff;fill-opacity:1;fill-rule:nonzero;stroke:none"
           d="m 7671.49,2782.05 c -25.91,-18.85 -76.18,-19.64 -120.94,-27.49 -43.99,-7.86 -81.68,-23.56 -81.68,-73.04 0,-43.98 37.69,-59.69 78.53,-59.69 87.97,0 124.09,54.98 124.09,91.89 l 0,68.33 z m 108.38,-208.12 c -11.77,-7.07 -26.7,-11 -47.91,-11 -34.55,0 -56.54,18.85 -56.54,62.83 -36.91,-43.2 -86.39,-62.83 -142.94,-62.83 -73.82,0 -134.3,32.98 -134.3,113.88 0,91.89 68.33,111.52 137.45,124.87 73.82,14.14 136.65,9.42 136.65,59.69 0,58.12 -47.9,67.54 -90.32,67.54 -56.54,0 -98.17,-17.28 -101.32,-76.97 l -66.74,0 c 3.92,100.53 81.67,135.87 171.99,135.87 73.04,0 152.36,-16.49 152.36,-111.52 l 0,-208.91 c 0,-31.41 0,-45.55 21.2,-45.55 5.5,0 11.79,0.79 20.42,3.93 l 0,-51.83"
           inkscape:connector-curvature="0" />
        <path
           id="path4456"
           style="fill:#ffffff;fill-opacity:1;fill-rule:nonzero;stroke:none"
           d="m 7934.57,2978.39 80.89,0 0,-58.9 -80.89,0 0,-252.11 c 0,-30.63 8.63,-36.13 50.26,-36.13 l 30.63,0 0,-58.9 -51.05,0 c -69.11,0 -96.6,14.14 -96.6,88.75 l 0,258.39 -69.11,0 0,58.9 69.11,0 0,121.73 66.76,0 0,-121.73"
           inkscape:connector-curvature="0" />
      </g>
    </g>
    <image
       y="258.36218"
       x="21.433071"
       id="image4639"
       xlink:href="file:///daten/proj/opacclient.web/images/screenshot_large.png"
       height="450"
       width="270" />
    <text
       xml:space="preserve"
       style="font-size:40px;font-style:normal;font-variant:normal;font-weight:normal;font-stretch:normal;line-height:125%;letter-spacing:0px;word-spacing:0px;fill:#000000;fill-opacity:1;stroke:none;font-family:Qlassik Bold;-inkscape-font-specification:Qlassik Bold"
       x="372.21835"
       y="977.36218"
       id="text4642"
       sodipodi:linespacing="125%"><tspan
         sodipodi:role="line"
         id="tspan4644"
         x="372.21835"
         y="977.36218"
         style="font-size:10px;font-style:normal;font-variant:normal;font-weight:normal;font-stretch:condensed;text-align:center;line-height:125%;writing-mode:lr-tb;text-anchor:middle;font-family:Roboto;-inkscape-font-specification:Roboto Condensed">„Web Opac Client für Android“ ist ein nicht-kommerzielles Projekt unter Leitung von Raphael Michel · www.raphaelmichel.de</tspan><tspan
         sodipodi:role="line"
         x="372.21835"
         y="989.86218"
         id="tspan4646"
         style="font-size:10px;font-style:normal;font-variant:normal;font-weight:normal;font-stretch:condensed;text-align:center;line-height:125%;writing-mode:lr-tb;text-anchor:middle;font-family:Roboto;-inkscape-font-specification:Roboto Condensed">Die Software ist freie Software und steht unter der MIT-Lizenz · Android is a trademark of Google Inc.</tspan><tspan
         sodipodi:role="line"
         x="372.21835"
         y="1002.3622"
         id="tspan4648"
         style="font-size:10px;font-style:normal;font-variant:normal;font-weight:normal;font-stretch:condensed;text-align:center;line-height:125%;writing-mode:lr-tb;text-anchor:middle;font-family:Roboto;-inkscape-font-specification:Roboto Condensed">Diese App steht in keiner Geschäftsbeziehung zu einer Bibliothek oder einem Bibliothekssoftwarehersteller und existiert aus reiner Menschen- und Bücherliebe.</tspan><tspan
         sodipodi:role="line"
         x="372.21835"
         y="1014.8622"
         id="tspan4650"
         style="font-size:10px;font-style:normal;font-variant:normal;font-weight:normal;font-stretch:condensed;text-align:center;line-height:125%;writing-mode:lr-tb;text-anchor:middle;font-family:Roboto;-inkscape-font-specification:Roboto Condensed">Raphael Michel · Ziethenstraße 68 · 68259 Mannheim · raphael+opac@geeksfactory.de</tspan></text>
    <text
       xml:space="preserve"
       style="font-size:40px;font-style:normal;font-variant:normal;font-weight:normal;font-stretch:normal;line-height:125%;letter-spacing:0px;word-spacing:0px;fill:#000000;fill-opacity:1;stroke:none;font-family:Qlassik Bold;-inkscape-font-specification:Qlassik Bold"
       x="293"
       y="334.07312"
       id="text4652"
       sodipodi:linespacing="125%"><tspan
         sodipodi:role="line"
         id="tspan4654"
         x="293"
         y="334.07312"
         style="font-size:18px;font-style:normal;font-variant:normal;font-weight:300;font-stretch:normal;text-align:start;line-height:125%;writing-mode:lr-tb;text-anchor:start;font-family:Roboto;-inkscape-font-specification:Roboto Light">– Unterwegs den Katalog durchsuchen</tspan><tspan
         sodipodi:role="line"
         x="293"
         y="356.57312"
         style="font-size:18px;font-style:normal;font-variant:normal;font-weight:300;font-stretch:normal;text-align:start;line-height:125%;writing-mode:lr-tb;text-anchor:start;font-family:Roboto;-inkscape-font-specification:Roboto Light"
         id="tspan4658">– Den Strichcode eines Buches scannen und direkt</tspan><tspan
         sodipodi:role="line"
         x="293"
         y="379.07312"
         style="font-size:18px;font-style:normal;font-variant:normal;font-weight:300;font-stretch:normal;text-align:start;line-height:125%;writing-mode:lr-tb;text-anchor:start;font-family:Roboto;-inkscape-font-specification:Roboto Light"
         id="tspan4662">    wissen, ob die Bibliothek das Buch hat</tspan><tspan
         sodipodi:role="line"
         x="293"
         y="401.57312"
         style="font-size:18px;font-style:normal;font-variant:normal;font-weight:300;font-stretch:normal;text-align:start;line-height:125%;writing-mode:lr-tb;text-anchor:start;font-family:Roboto;-inkscape-font-specification:Roboto Light"
         id="tspan4664">– Bücher für später merken</tspan><tspan
         sodipodi:role="line"
         x="293"
         y="424.07312"
         style="font-size:18px;font-style:normal;font-variant:normal;font-weight:300;font-stretch:normal;text-align:start;line-height:125%;writing-mode:lr-tb;text-anchor:start;font-family:Roboto;-inkscape-font-specification:Roboto Light"
         id="tspan4666" /><tspan
         sodipodi:role="line"
         x="293"
         y="446.57312"
         style="font-size:18px;font-style:normal;font-variant:normal;font-weight:300;font-stretch:normal;text-align:start;line-height:125%;writing-mode:lr-tb;text-anchor:start;font-family:Roboto;-inkscape-font-specification:Roboto Light"
         id="tspan4670">– Nachschauen, welche Bücher man ausgeliehen hat</tspan><tspan
         sodipodi:role="line"
         x="293"
         y="469.07312"
         style="font-size:18px;font-style:normal;font-variant:normal;font-weight:300;font-stretch:normal;text-align:start;line-height:125%;writing-mode:lr-tb;text-anchor:start;font-family:Roboto;-inkscape-font-specification:Roboto Light"
         id="tspan4674">    und wann man sie zurückgeben muss</tspan><tspan
         sodipodi:role="line"
         x="293"
         y="491.57312"
         style="font-size:18px;font-style:normal;font-variant:normal;font-weight:300;font-stretch:normal;text-align:start;line-height:125%;writing-mode:lr-tb;text-anchor:start;font-family:Roboto;-inkscape-font-specification:Roboto Light"
         id="tspan4676">– Bücher vorbestellen und verlängern</tspan><tspan
         sodipodi:role="line"
         x="293"
         y="514.07312"
         style="font-size:18px;font-style:normal;font-variant:normal;font-weight:300;font-stretch:normal;text-align:start;line-height:125%;writing-mode:lr-tb;text-anchor:start;font-family:Roboto;-inkscape-font-specification:Roboto Light"
         id="tspan4678">– Benachrichtigung, wenn ein Medium zurück-</tspan><tspan
         sodipodi:role="line"
         x="293"
         y="536.57312"
         style="font-size:18px;font-style:normal;font-variant:normal;font-weight:300;font-stretch:normal;text-align:start;line-height:125%;writing-mode:lr-tb;text-anchor:start;font-family:Roboto;-inkscape-font-specification:Roboto Light"
         id="tspan4680">    gegeben werden muss</tspan><tspan
         sodipodi:role="line"
         x="293"
         y="559.07312"
         style="font-size:18px;font-style:normal;font-variant:normal;font-weight:300;font-stretch:normal;text-align:start;line-height:125%;writing-mode:lr-tb;text-anchor:start;font-family:Roboto;-inkscape-font-specification:Roboto Light"
         id="tspan4843">– Mehrere Mitgliedskonten verwalten</tspan><tspan
         sodipodi:role="line"
         x="293"
         y="581.57312"
         style="font-size:18px;font-style:normal;font-variant:normal;font-weight:300;font-stretch:normal;text-align:start;line-height:125%;writing-mode:lr-tb;text-anchor:start;font-family:Roboto;-inkscape-font-specification:Roboto Light"
         id="tspan4682">– Anzeige von Informationen zur Bibliothek</tspan><tspan
         sodipodi:role="line"
         x="293"
         y="604.07312"
         style="font-size:18px;font-style:normal;font-variant:normal;font-weight:300;font-stretch:normal;text-align:start;line-height:125%;writing-mode:lr-tb;text-anchor:start;font-family:Roboto;-inkscape-font-specification:Roboto Light"
         id="tspan4684">    (Öffnungszeiten, ...)</tspan></text>
    <text
       xml:space="preserve"
       style="font-size:40px;font-style:normal;font-variant:normal;font-weight:normal;font-stretch:normal;line-height:125%;letter-spacing:0px;word-spacing:0px;fill:#000000;fill-opacity:1;stroke:none;font-family:Qlassik Bold;-inkscape-font-specification:Qlassik Bold"
       x="292.24805"
       y="624.50616"
       id="text4652-5"
       sodipodi:linespacing="125%"><tspan
         sodipodi:role="line"
         x="292.24805"
         y="624.50616"
         style="font-size:11px;font-style:normal;font-variant:normal;font-weight:300;font-stretch:normal;text-align:start;line-height:125%;writing-mode:lr-tb;text-anchor:start;font-family:Roboto;-inkscape-font-specification:Roboto Light"
         id="tspan4684-9">(nicht alle Funktionen in jeder Bibliothek verfügbar)</tspan></text>
    <g
       id="g4975"
       transform="matrix(0.6483871,0,0,0.6483871,509.68322,637.36218)">
      <path
         id="path4947"
         d="M 0,0 0,310 310,310 310,0 0,0 z"
         style="fill:#ffffff;stroke:none"
         inkscape:connector-curvature="0" />
      <path
         id="path4949"
         d="m 10,10 0,70 70,0 0,-70 -70,0 m 80,0 0,10 10,0 0,10 -10,0 0,10 30,0 0,10 -10,0 0,10 10,0 0,10 -10,0 0,10 -10,0 0,-10 -10,0 0,20 10,0 0,10 10,0 0,20 -10,0 0,-10 -10,0 0,-10 -10,0 0,-10 -20,0 0,10 20,0 0,10 -20,0 0,10 -10,0 0,-20 -20,0 0,30 -10,0 0,20 -10,0 0,20 10,0 0,10 -10,0 0,40 10,0 0,-20 10,0 0,10 20,0 0,10 40,0 0,10 10,0 0,10 -10,0 0,10 20,0 0,-20 -10,0 0,-20 10,0 0,-10 -20,0 0,10 -40,0 0,-10 -10,0 0,-10 -20,0 0,-10 60,0 0,10 -20,0 0,10 20,0 0,-10 20,0 0,-20 -10,0 0,-10 10,0 0,-20 10,0 0,-20 10,0 0,10 10,0 0,10 -10,0 0,20 -10,0 0,10 10,0 0,20 20,0 0,-20 -20,0 0,-10 20,0 0,-30 -10,0 0,-10 10,0 0,-10 10,0 0,30 10,0 0,10 10,0 0,10 -20,0 0,10 20,0 0,-10 10,0 0,10 30,0 0,10 20,0 0,-10 10,0 0,30 -20,0 0,10 -10,0 0,10 -10,0 0,-20 10,0 0,-10 -10,0 0,10 -20,0 0,-10 10,0 0,-10 -20,0 0,20 -20,0 0,10 10,0 0,10 -10,0 0,10 -10,0 0,10 -10,0 0,-10 -10,0 0,10 10,0 0,30 -10,0 0,-10 -10,0 0,10 -10,0 0,20 10,0 0,-20 10,0 0,30 10,0 0,-10 10,0 0,-10 10,0 0,20 20,0 0,-10 10,0 0,-40 10,0 0,10 10,0 0,10 -10,0 0,20 10,0 0,10 40,0 0,-10 -10,0 0,-10 10,0 0,-10 10,0 0,30 10,0 0,-10 20,0 0,-10 10,0 0,10 10,0 0,-10 -10,0 0,-20 10,0 0,-10 -10,0 0,10 -10,0 0,10 -10,0 0,-10 -10,0 0,-10 10,0 0,-10 -10,0 0,-10 20,0 0,10 10,0 0,-10 -10,0 0,-10 10,0 0,-10 10,0 0,-40 -10,0 0,-10 -30,0 0,20 -10,0 0,-10 -10,0 0,-10 -10,0 0,-10 10,0 0,-10 10,0 0,10 20,0 0,-10 20,0 0,-10 -20,0 0,-10 10,0 0,-10 10,0 0,-10 10,0 0,-10 -10,0 0,10 -10,0 0,-10 -10,0 0,10 10,0 0,10 -10,0 0,10 -20,0 0,10 -10,0 0,-20 20,0 0,-20 -10,0 0,10 -10,0 0,-10 -10,0 0,10 -10,0 0,10 10,0 0,10 -20,0 0,-10 -10,0 0,-10 10,0 0,-10 10,0 0,-20 -10,0 0,10 -10,0 0,-10 -10,0 0,-10 30,0 0,-20 -10,0 0,10 -20,0 0,-10 -10,0 0,30 -10,0 0,-10 -20,0 0,-20 10,0 0,10 10,0 0,-10 -10,0 0,-20 -10,0 0,-10 -10,0 0,20 10,0 0,10 -10,0 0,10 -10,0 0,-20 -20,0 0,-10 20,0 0,-10 -20,0 0,10 -10,0 0,-10 -10,0 m 90,0 0,10 -10,0 0,10 20,0 0,-20 -10,0 m 20,0 0,10 10,0 0,10 10,0 0,-20 -20,0 m 30,0 0,70 70,0 0,-70 -70,0 z"
         style="fill:#800000;stroke:none"
         inkscape:connector-curvature="0" />
      <path
         id="path4951"
         d="m 20,20 0,50 50,0 0,-50 -50,0 m 220,0 0,50 50,0 0,-50 -50,0 z"
         style="fill:#ffffff;stroke:none"
         inkscape:connector-curvature="0" />
      <path
         id="path4953"
         d="m 30,30 0,30 30,0 0,-30 -30,0 m 220,0 0,30 30,0 0,-30 -30,0 m -160,20 0,10 10,0 0,-10 -10,0 z"
         style="fill:#800000;stroke:none"
         inkscape:connector-curvature="0" />
      <path
         id="path4955"
         d="m 120,70 0,10 10,0 0,-10 -10,0 m 20,0 0,20 10,0 0,-20 -10,0 m 20,0 0,10 10,0 0,-10 -10,0 m 20,0 0,10 10,0 0,-10 -10,0 m -70,20 0,10 10,0 0,10 20,0 0,-10 -10,0 0,-10 -20,0 m 70,0 0,20 -10,0 0,-10 -20,0 0,10 20,0 0,10 10,0 0,-10 10,0 0,20 10,0 0,10 10,0 0,10 -20,0 0,10 20,0 0,-10 20,0 0,-10 -20,0 0,-10 -10,0 0,-20 -10,0 0,-10 10,0 0,-10 -20,0 m 50,10 0,10 10,0 0,-10 -10,0 m -190,20 0,10 -10,0 0,10 10,0 0,10 -10,0 0,20 20,0 0,-10 -10,0 0,-10 40,0 0,10 -10,0 0,10 10,0 0,10 10,0 0,-10 -10,0 0,-10 10,0 0,-10 -10,0 0,-10 -10,0 0,-10 10,0 0,-10 -10,0 0,10 -20,0 0,-10 -10,0 m 50,10 0,10 10,0 0,-10 -10,0 m 70,0 0,10 10,0 0,10 10,0 0,-20 -20,0 m 90,0 0,10 10,0 0,-10 -10,0 m 30,40 0,10 -10,0 0,40 10,0 0,-20 10,0 0,-30 -10,0 m -30,20 0,20 10,0 0,-20 -10,0 z"
         style="fill:#ffffff;stroke:none"
         inkscape:connector-curvature="0" />
      <path
         id="path4957"
         d="m 120,200 0,20 20,0 0,-10 -10,0 0,-10 -10,0 z"
         style="fill:#800000;stroke:none"
         inkscape:connector-curvature="0" />
      <path
         id="path4959"
         d="m 170,200 0,40 -10,0 0,-10 -10,0 0,10 10,0 0,10 20,0 0,-10 20,0 0,-20 -10,0 0,-10 -10,0 0,-10 -10,0 m 50,20 0,30 30,0 0,-30 -30,0 z"
         style="fill:#ffffff;stroke:none"
         inkscape:connector-curvature="0" />
      <path
         id="path4961"
         d="m 10,230 0,70 70,0 0,-70 -70,0 m 220,0 0,10 10,0 0,-10 -10,0 z"
         style="fill:#800000;stroke:none"
         inkscape:connector-curvature="0" />
      <path
         id="path4963"
         d="m 20,240 0,50 50,0 0,-50 -50,0 z"
         style="fill:#ffffff;stroke:none"
         inkscape:connector-curvature="0" />
      <path
         id="path4965"
         d="m 30,250 0,30 30,0 0,-30 -30,0 z"
         style="fill:#800000;stroke:none"
         inkscape:connector-curvature="0" />
      <path
         id="path4967"
         d="m 140,250 0,10 10,0 0,10 10,0 0,20 10,0 0,-30 -20,0 0,-10 -10,0 m 70,10 0,10 -10,0 0,20 10,0 0,-20 10,0 0,-10 -10,0 m 20,0 0,10 10,0 0,-10 -10,0 m 20,0 0,10 10,0 0,-10 -10,0 m -120,10 0,10 10,0 0,-10 -10,0 z"
         style="fill:#ffffff;stroke:none"
         inkscape:connector-curvature="0" />
    </g>
    <text
       xml:space="preserve"
       style="font-size:40px;font-style:normal;font-variant:normal;font-weight:normal;font-stretch:normal;line-height:125%;letter-spacing:0px;word-spacing:0px;fill:#000000;fill-opacity:1;stroke:none;font-family:Qlassik Bold;-inkscape-font-specification:Qlassik Bold"
       x="492.94922"
       y="754.82703"
       id="text4988"
       sodipodi:linespacing="125%"><tspan
         sodipodi:role="line"
         id="tspan4990"
         x="492.94922"
         y="754.82703"
         style="font-size:40px;font-style:normal;font-variant:normal;font-weight:300;font-stretch:normal;text-align:end;line-height:125%;writing-mode:lr-tb;text-anchor:end;font-family:Roboto;-inkscape-font-specification:Roboto Light">Web Opac App</tspan><tspan
         sodipodi:role="line"
         x="492.94922"
         y="785.03534"
         style="font-size:20px;font-style:normal;font-variant:normal;font-weight:300;font-stretch:normal;text-align:end;line-height:125%;writing-mode:lr-tb;text-anchor:end;font-family:Roboto;-inkscape-font-specification:Roboto Light"
         id="tspan4994">für über 60 Stadtbibliotheken</tspan><tspan
         sodipodi:role="line"
         x="492.94922"
         y="829.82703"
         style="font-size:40px;font-style:normal;font-variant:normal;font-weight:300;font-stretch:normal;text-align:end;line-height:125%;writing-mode:lr-tb;text-anchor:end;font-family:Roboto;-inkscape-font-specification:Roboto Light"
         id="tspan4992">www.opacapp.de</tspan></text>
    <text
       xml:space="preserve"
       style="font-size:69.21393585px;font-style:normal;font-variant:normal;font-weight:normal;font-stretch:normal;line-height:87.99999952%;letter-spacing:0px;word-spacing:0px;fill:#ffffff;fill-opacity:1;stroke:none;font-family:Abyssinica SIL;-inkscape-font-specification:Abyssinica SIL"
       x="707.76996"
       y="113.41609"
       id="text3774-9"
       sodipodi:linespacing="88%"><tspan
         sodipodi:role="line"
         x="707.76996"
         y="113.41609"
         id="tspan3778-9"
         style="font-size:80px;font-style:normal;font-variant:normal;font-weight:300;font-stretch:normal;text-align:end;line-height:87.99999952%;writing-mode:lr-tb;text-anchor:end;fill:#ffffff;font-family:Roboto;-inkscape-font-specification:Roboto Light">Die Bücherei auf</tspan><tspan
         sodipodi:role="line"
         x="707.76996"
         y="183.81609"
         style="font-size:80px;font-style:normal;font-variant:normal;font-weight:300;font-stretch:normal;text-align:end;line-height:87.99999952%;writing-mode:lr-tb;text-anchor:end;fill:#ffffff;font-family:Roboto;-inkscape-font-specification:Roboto Light"
         id="tspan4501">dem Smartphone</tspan></text>
  </g>
</svg>
