<?xml version="1.0" encoding="UTF-8" standalone="no"?>
<!-- Created with Inkscape (http://www.inkscape.org/) -->

<svg
   xmlns:dc="http://purl.org/dc/elements/1.1/"
   xmlns:cc="http://creativecommons.org/ns#"
   xmlns:rdf="http://www.w3.org/1999/02/22-rdf-syntax-ns#"
   xmlns:svg="http://www.w3.org/2000/svg"
   xmlns="http://www.w3.org/2000/svg"
   xmlns:sodipodi="http://sodipodi.sourceforge.net/DTD/sodipodi-0.dtd"
   xmlns:inkscape="http://www.inkscape.org/namespaces/inkscape"
   width="1920"
   height="1080"
   id="svg4996"
   version="1.1"
   inkscape:version="0.48.3.1 r9886"
   sodipodi:docname="LightningTalk_FullHD.svg">
  <defs
     id="defs4998">
 <style
   id="style5929"
   type="text/css">
   
    .fil0 {fill:#41ABE1}
   
  </style>

  <clipPath
   id="clipPath6190"
   clipPathUnits="userSpaceOnUse">
  <path
     id="path6192"
     d="M 0,216 216,216 216,0 0,0 0,216 z" />
</clipPath>
<clipPath
   id="clipPath6178"
   clipPathUnits="userSpaceOnUse">
  <path
     id="path6180"
     d="m 121.724,55.661 c 0.343,1.114 0.39,2.832 -3.038,2.054 l 0,0 c 0,0 -9.395,-1.342 -9.843,-12.303 l 0,0 -0.214,-20.989 -2.258,0 -0.213,20.989 c -0.448,10.961 -9.842,12.303 -9.842,12.303 l 0,0 c -3.428,0.778 -3.383,-0.938 -3.04,-2.052 l 0,0 c -3.371,5.738 -12.394,4.996 -12.394,4.996 l 0,0 c -3.133,-1.117 -0.224,-3.131 -0.224,-3.131 l 0,0 c 4.921,-1.788 5.369,-7.158 5.369,-7.158 l 0,0 0,-15.18 0.52,-11.728 c 1.117,-5.224 3.874,-8.312 6.578,-10.129 l 0,0 28.803,0.033 c 3.484,2.365 7.047,6.846 7.047,15.307 l 0,0 0,21.697 c 0,0 0.447,5.37 5.369,7.158 l 0,0 c 0,0 2.906,2.014 -0.225,3.131 l 0,0 c 0,0 -0.382,0.031 -1.017,0.032 l 0,0 c -2.455,0 -8.7,-0.469 -11.378,-5.03 m -27.197,-21.619 0,16.552 c 0,1.617 -0.285,2.977 -0.773,4.12 l 0,0 c 3.239,-2.526 3.457,-8.855 3.457,-8.855 l 0,0 0,-20.663 c -3.225,2.282 -2.684,8.846 -2.684,8.846 m 23.264,11.817 c 0,0 0.217,6.329 3.456,8.855 l 0,0 c -0.487,-1.143 -0.772,-2.503 -0.772,-4.12 l 0,0 0,-16.552 c 0,0 0.539,-6.101 -2.684,-8.612 l 0,0 0,20.429 z" />
</clipPath>
<clipPath
   id="clipPath6166"
   clipPathUnits="userSpaceOnUse">
  <path
     id="path6168"
     d="M 0,216 216,216 216,0 0,0 0,216 z" />
</clipPath>
</defs>
  <sodipodi:namedview
     id="base"
     pagecolor="#ffffff"
     bordercolor="#666666"
     borderopacity="1.0"
     inkscape:pageopacity="0.0"
     inkscape:pageshadow="2"
     inkscape:zoom="0.49497475"
     inkscape:cx="934.48298"
     inkscape:cy="455.26936"
     inkscape:document-units="px"
     inkscape:current-layer="layer1"
     showgrid="false"
     inkscape:window-width="1916"
     inkscape:window-height="1023"
     inkscape:window-x="1680"
     inkscape:window-y="36"
     inkscape:window-maximized="0" />
  <metadata
     id="metadata5001">
    <rdf:RDF>
      <cc:Work
         rdf:about="">
        <dc:format>image/svg+xml</dc:format>
        <dc:type
           rdf:resource="http://purl.org/dc/dcmitype/StillImage" />
        <dc:title></dc:title>
      </cc:Work>
    </rdf:RDF>
  </metadata>
  <g
     inkscape:label="Ebene 1"
     inkscape:groupmode="layer"
     id="layer1"
     transform="translate(0,27.637817)">
    <rect
       style="fill:#b50000;fill-opacity:1;stroke:none"
       id="rect3004"
       width="1920"
       height="448"
       x="0"
       y="-27.637817" />
    <text
       xml:space="preserve"
       style="font-size:135.87466431px;font-style:normal;font-variant:normal;font-weight:300;font-stretch:normal;text-align:start;line-height:125%;letter-spacing:0px;word-spacing:0px;writing-mode:lr-tb;text-anchor:start;fill:#000000;fill-opacity:1;stroke:none;font-family:Roboto;-inkscape-font-specification:Roboto Light"
       x="1831.3943"
       y="117.47869"
       id="text5549"
       sodipodi:linespacing="125%"><tspan
         sodipodi:role="line"
         id="tspan5551"
         x="1831.3943"
         y="117.47869"
         style="font-size:135.87466431px;font-style:normal;font-variant:normal;font-weight:300;font-stretch:normal;text-align:end;line-height:125%;writing-mode:lr-tb;text-anchor:end;fill:#ffffff;font-family:Roboto;-inkscape-font-specification:Roboto Light">Stadtbibliotheken</tspan><tspan
         sodipodi:role="line"
         x="1831.3944"
         y="287.32202"
         style="font-size:135.87466431px;font-style:normal;font-variant:normal;font-weight:300;font-stretch:normal;text-align:end;line-height:125%;writing-mode:lr-tb;text-anchor:end;fill:#ffffff;font-family:Roboto;-inkscape-font-specification:Roboto Light"
         id="tspan5553">to the Smartphone</tspan></text>
    <text
       xml:space="preserve"
       style="font-size:73.22798157px;font-style:normal;font-variant:normal;font-weight:normal;font-stretch:normal;line-height:125%;letter-spacing:0px;word-spacing:0px;fill:#ffffff;fill-opacity:1;stroke:none;font-family:Qlassik Bold;-inkscape-font-specification:Qlassik Bold"
       x="227.92969"
       y="388.96741"
       id="text5555"
       sodipodi:linespacing="125%"><tspan
         sodipodi:role="line"
         id="tspan5557"
         x="227.92969"
         y="388.96741"
         style="font-size:60px;font-style:normal;font-variant:normal;font-weight:500;font-stretch:normal;fill:#ffffff;font-family:Roboto;-inkscape-font-specification:Roboto Medium">Die Web-OPACs von DE/AT/CH für Android aufbereiten</tspan></text>
    <text
       xml:space="preserve"
       style="font-size:152.29592896px;font-style:normal;font-variant:normal;font-weight:300;font-stretch:normal;text-align:start;line-height:125%;letter-spacing:0px;word-spacing:0px;writing-mode:lr-tb;text-anchor:start;fill:#000000;fill-opacity:1;stroke:none;font-family:Roboto;-inkscape-font-specification:Roboto Light"
       x="960.11157"
       y="961.47986"
       id="text5549-5"
       sodipodi:linespacing="125%"><tspan
         sodipodi:role="line"
         x="960.11157"
         y="961.47986"
         style="font-size:152.29592896px;font-style:normal;font-variant:normal;font-weight:300;font-stretch:normal;text-align:center;line-height:125%;writing-mode:lr-tb;text-anchor:middle;fill:#000000;font-family:Roboto;-inkscape-font-specification:Roboto Light"
         id="tspan5553-6">http://is.gd/opacandroid</tspan></text>
    <g
       id="g5719"
       transform="matrix(1.1498936,0,0,1.1498936,1469.2216,458.95597)">
      <path
         id="path5673"
         d="M 0,0 0,310 310,310 310,0 0,0 z"
         style="fill:#ffffff;stroke:none"
         inkscape:connector-curvature="0" />
      <path
         id="path5675"
         d="m 10,10 0,70 70,0 0,-70 -70,0 m 80,0 0,20 10,0 0,-10 10,0 0,10 10,0 0,-10 10,0 0,30 -10,0 0,-10 -30,0 0,40 10,0 0,-30 10,0 0,10 10,0 0,10 -10,0 0,10 10,0 0,-10 10,0 0,10 10,0 0,10 -20,0 0,10 -10,0 0,-10 -10,0 0,30 20,0 0,-10 20,0 0,10 -10,0 0,20 10,0 0,10 -10,0 0,10 -10,0 0,10 -10,0 0,-10 -10,0 0,-10 20,0 0,-10 -40,0 0,-10 -10,0 0,-10 20,0 0,-10 -30,0 0,-10 -10,0 0,-10 -10,0 0,10 -10,0 0,10 -10,0 0,-10 -10,0 0,10 10,0 0,10 -10,0 0,10 30,0 0,10 -30,0 0,10 10,0 0,10 -10,0 0,10 30,0 0,10 -10,0 0,20 10,0 0,-20 10,0 0,-20 -20,0 0,-10 20,0 0,-20 10,0 0,30 20,0 0,-10 10,0 0,20 -20,0 0,10 -10,0 0,10 10,0 0,10 -20,0 0,10 -20,0 0,10 20,0 0,-10 20,0 0,10 20,0 0,10 20,0 0,10 -10,0 0,20 -10,0 0,10 20,0 0,20 -10,0 0,10 10,0 0,-10 10,0 0,-20 -10,0 0,-30 20,0 0,-10 20,0 0,-10 -10,0 0,-10 -10,0 0,10 -10,0 0,-20 30,0 0,10 20,0 0,20 10,0 0,10 10,0 0,-10 10,0 0,-20 -20,0 0,-10 10,0 0,-30 10,0 0,20 20,0 0,10 10,0 0,-20 -20,0 0,-10 -10,0 0,-10 -10,0 0,-10 -10,0 0,-10 -10,0 0,-30 10,0 0,20 10,0 0,10 10,0 0,10 10,0 0,10 10,0 0,10 10,0 0,-10 10,0 0,30 10,0 0,10 10,0 0,10 -50,0 0,50 -10,0 0,10 -10,0 0,-20 -10,0 0,20 -10,0 0,10 10,0 0,10 10,0 0,-10 10,0 0,10 10,0 0,-10 10,0 0,-10 -10,0 0,-10 20,0 0,10 10,0 0,10 -10,0 0,20 10,0 0,-10 10,0 0,10 10,0 0,-10 -10,0 0,-10 10,0 0,-20 10,0 0,20 10,0 0,10 -10,0 0,10 20,0 0,-20 10,0 0,-30 -10,0 0,-10 -10,0 0,-10 20,0 0,-20 -10,0 0,10 -10,0 0,10 -20,0 0,-10 10,0 0,-20 30,0 0,-60 -20,0 0,20 10,0 0,10 -10,0 0,10 -10,0 0,10 -20,0 0,-20 10,0 0,-10 -10,0 0,-20 -10,0 0,-30 -10,0 0,-10 -20,0 0,-10 10,0 0,-30 -20,0 0,-10 10,0 0,-10 -20,0 0,-10 10,0 0,-10 -10,0 0,10 -10,0 0,-10 -10,0 0,-10 -20,0 0,10 -20,0 0,-10 -10,0 0,10 -10,0 0,-10 -20,0 m 120,0 0,20 10,0 0,-20 -10,0 m 20,0 0,70 70,0 0,-70 -70,0 z"
         style="fill:#000000;stroke:none"
         inkscape:connector-curvature="0" />
      <path
         id="path5677"
         d="m 20,20 0,50 50,0 0,-50 -50,0 m 220,0 0,50 50,0 0,-50 -50,0 z"
         style="fill:#ffffff;stroke:none"
         inkscape:connector-curvature="0" />
      <path
         id="path5679"
         d="m 30,30 0,30 30,0 0,-30 -30,0 z"
         style="fill:#000000;stroke:none"
         inkscape:connector-curvature="0" />
      <path
         id="path5681"
         d="m 140,30 0,20 10,0 0,-20 -10,0 z"
         style="fill:#ffffff;stroke:none"
         inkscape:connector-curvature="0" />
      <path
         id="path5683"
         d="m 250,30 0,30 30,0 0,-30 -30,0 z"
         style="fill:#000000;stroke:none"
         inkscape:connector-curvature="0" />
      <path
         id="path5685"
         d="m 160,40 0,10 10,0 0,10 -20,0 0,10 -10,0 0,-10 -10,0 0,10 10,0 0,10 10,0 0,-10 10,0 0,30 -20,0 0,10 10,0 0,20 10,0 0,-30 20,0 0,-10 10,0 0,30 10,0 0,10 20,0 0,10 -10,0 0,10 10,0 0,-10 10,0 0,10 10,0 0,-10 -10,0 0,-20 -20,0 0,-10 -10,0 0,-30 10,0 0,-10 -10,0 0,10 -10,0 0,-10 -10,0 0,-20 10,0 0,-10 -10,0 0,10 -10,0 0,-10 -10,0 z"
         style="fill:#ffffff;stroke:none"
         inkscape:connector-curvature="0" />
      <path
         id="path5687"
         d="m 170,70 0,10 10,0 0,-10 -10,0 m -100,20 0,10 10,0 0,-10 -10,0 m 170,0 0,10 20,0 0,10 -10,0 0,20 10,0 0,20 10,0 0,-20 20,0 0,-20 10,0 0,-20 -20,0 0,10 10,0 0,10 -10,0 0,10 -10,0 0,-30 -30,0 z"
         style="fill:#000000;stroke:none"
         inkscape:connector-curvature="0" />
      <path
         id="path5689"
         d="m 40,100 0,10 -10,0 0,10 30,0 0,-10 -10,0 0,-10 -10,0 m 30,40 0,10 10,0 0,-10 -10,0 m 80,0 0,10 20,0 0,10 -30,0 0,10 -10,0 0,10 10,0 0,-10 10,0 0,30 10,0 0,-30 10,0 0,-10 10,0 0,10 10,0 0,-10 -10,0 0,-10 -10,0 0,-10 -20,0 m -80,40 0,10 20,0 0,-10 -20,0 m 40,0 0,20 -10,0 0,10 10,0 0,-10 10,0 0,-20 -10,0 m 60,0 0,20 10,0 0,-20 -10,0 z"
         style="fill:#ffffff;stroke:none"
         inkscape:connector-curvature="0" />
      <path
         id="path5691"
         d="m 10,190 0,10 10,0 0,-10 -10,0 z"
         style="fill:#000000;stroke:none"
         inkscape:connector-curvature="0" />
      <path
         id="path5693"
         d="m 70,200 0,10 20,0 0,-10 -20,0 z"
         style="fill:#ffffff;stroke:none"
         inkscape:connector-curvature="0" />
      <path
         id="path5695"
         d="m 10,210 0,10 10,0 0,-10 -10,0 z"
         style="fill:#000000;stroke:none"
         inkscape:connector-curvature="0" />
      <path
         id="path5697"
         d="m 220,220 0,30 30,0 0,-30 -30,0 z"
         style="fill:#ffffff;stroke:none"
         inkscape:connector-curvature="0" />
      <path
         id="path5699"
         d="m 10,230 0,70 70,0 0,-70 -70,0 m 220,0 0,10 10,0 0,-10 -10,0 z"
         style="fill:#000000;stroke:none"
         inkscape:connector-curvature="0" />
      <path
         id="path5701"
         d="m 20,240 0,50 50,0 0,-50 -50,0 z"
         style="fill:#ffffff;stroke:none"
         inkscape:connector-curvature="0" />
      <path
         id="path5703"
         d="m 160,240 0,10 10,0 0,-10 -10,0 z"
         style="fill:#000000;stroke:none"
         inkscape:connector-curvature="0" />
      <path
         id="path5705"
         d="m 260,240 0,10 10,0 0,10 10,0 0,20 10,0 0,-20 -10,0 0,-10 -10,0 0,-10 -10,0 z"
         style="fill:#ffffff;stroke:none"
         inkscape:connector-curvature="0" />
      <path
         id="path5707"
         d="m 30,250 0,30 30,0 0,-30 -30,0 m 90,0 0,10 10,0 0,10 10,0 0,30 10,0 0,-20 10,0 0,-10 -10,0 0,-10 -20,0 0,-10 -10,0 z"
         style="fill:#000000;stroke:none"
         inkscape:connector-curvature="0" />
      <path
         id="path5709"
         d="m 240,260 0,10 10,0 0,-10 -10,0 m -40,10 0,10 10,0 0,-10 -10,0 z"
         style="fill:#ffffff;stroke:none"
         inkscape:connector-curvature="0" />
      <path
         id="path5711"
         d="m 160,290 0,10 10,0 0,-10 -10,0 z"
         style="fill:#000000;stroke:none"
         inkscape:connector-curvature="0" />
    </g>
    <text
       xml:space="preserve"
       style="font-size:152.29592896px;font-style:normal;font-variant:normal;font-weight:300;font-stretch:normal;text-align:start;line-height:125%;letter-spacing:0px;word-spacing:0px;writing-mode:lr-tb;text-anchor:start;fill:#000000;fill-opacity:1;stroke:none;font-family:Roboto;-inkscape-font-specification:Roboto Light"
       x="226.54817"
       y="534.15436"
       id="text5549-5-8"
       sodipodi:linespacing="125%"><tspan
         sodipodi:role="line"
         x="226.54817"
         y="534.15436"
         style="font-size:60px;font-style:normal;font-variant:normal;font-weight:300;font-stretch:normal;text-align:start;line-height:125%;writing-mode:lr-tb;text-anchor:start;fill:#000000;font-family:Roboto;-inkscape-font-specification:Roboto Light"
         id="tspan5553-6-2">@_rami_</tspan></text>
    <g
       style="fill-rule:evenodd"
       id="g5940"
       transform="matrix(0.01469238,0,0,0.01469238,101.27152,477.93856)">
      <g
         id="Livello_x0020_1">
  <metadata
   id="CorelCorpID_0Corel-Layer" />

  <path
   id="path5933"
   d="M 6701,645 C 6454,754 6189,828 5911,861 6195,691 6413,421 6515,100 6249,258 5955,372 5642,434 5391,167 5034,0 4638,0 3879,0 3263,616 3263,1375 c 0,108 12,213 36,313 C 2156,1631 1143,1083 465,251 347,454 279,690 279,942 c 0,477 243,898 612,1144 -225,-7 -437,-69 -623,-172 0,6 0,11 0,17 0,666 474,1222 1103,1348 -115,31 -237,48 -362,48 -89,0 -175,-9 -259,-25 175,546 683,944 1284,955 -471,369 -1063,589 -1708,589 -111,0 -220,-7 -328,-19 608,390 1331,618 2108,618 2529,0 3912,-2095 3912,-3912 0,-60 -1,-119 -4,-178 269,-194 502,-436 686,-712 z"
   class="fil0"
   inkscape:connector-curvature="0"
   style="fill:#41abe1" />

 </g>
    </g>
    <g
       id="g6005"
       transform="matrix(0.62884183,0,0,0.62884183,96.119956,592.22365)">
      <path
         id="path5972"
         d="m 136.29,14.189 c 0.077,1.313 -1.786,0.968 -1.786,2.293 0,38.551 -44.72,96.831 -89.847,108.19 v 1.182 c 59.957,-5.51 126.73,-66.8 128.24,-125.85 l -36.6,14.189 z"
         inkscape:connector-curvature="0"
         style="fill:url(#SVGID_1_)" />
      <path
         id="path5974"
         d="m 120.23,17.96 c 0.077,1.313 0.121,2.633 0.121,3.958 0,38.551 -30.7,90.497 -75.827,101.86 v 1.637 c 59.065,-3.823 105.81,-63.023 105.81,-109.2 0,-2.375 -0.125,-4.729 -0.371,-7.056 l -29.73,8.796 z"
         inkscape:connector-curvature="0"
         style="fill:#e96d1f" />
      <path
         id="path5983"
         d="m 36.599,14.189 c -0.077,1.313 1.787,0.968 1.787,2.293 0,38.551 46.558,97.366 91.688,108.73 v 1.639 C 70.121,121.331 1.514,59.051 0.004,0.001 L 36.603,14.19 z"
         inkscape:connector-curvature="0"
         style="fill:url(#SVGID_2_)" />
      <path
         id="path5985"
         d="m 54.731,18.932 c -0.076,1.313 -0.12,2.63 -0.12,3.957 0,38.551 30.699,90.497 75.827,101.86 v 1.639 c -59.044,-2.79 -105.81,-63.024 -105.81,-109.2 0,-2.375 0.128,-4.729 0.371,-7.056 l 29.73,8.798 z"
         inkscape:connector-curvature="0"
         style="fill:#a0ce67" />
      <path
         id="path5987"
         d="m 24.713,9.583 7.617,2.722 c -0.041,0.962 -0.066,2.254 -0.066,3.225 0,41.219 37.271,98.204 87.272,107.12 3.245,1.088 7.538,2.077 10.932,2.931 v 1.638 C 65.214,121.659 19.368,55.353 24.708,9.579 z"
         inkscape:connector-curvature="0"
         style="fill:#439639" />
      <path
         id="path5989"
         d="m 150.34,8.76 -7.833,2.625 c 0.041,0.963 0.191,2.203 0.191,3.173 0,41.219 -37.272,98.205 -87.274,107.12 -3.243,1.089 -7.538,2.077 -10.93,2.932 v 1.639 c 68.344,-8.66 111.18,-71.719 105.84,-117.49 z"
         inkscape:connector-curvature="0"
         style="fill:#d9541e" />
    </g>
    <text
       sodipodi:linespacing="125%"
       id="text6021"
       y="648.44012"
       x="224.93684"
       style="font-size:152.29592896px;font-style:normal;font-variant:normal;font-weight:300;font-stretch:normal;text-align:start;line-height:125%;letter-spacing:0px;word-spacing:0px;writing-mode:lr-tb;text-anchor:start;fill:#000000;fill-opacity:1;stroke:none;font-family:Roboto;-inkscape-font-specification:Roboto Light"
       xml:space="preserve"><tspan
         id="tspan6023"
         style="font-size:60px;font-style:normal;font-variant:normal;font-weight:300;font-stretch:normal;text-align:start;line-height:125%;writing-mode:lr-tb;text-anchor:start;fill:#000000;font-family:Roboto;-inkscape-font-specification:Roboto Light"
         y="648.44012"
         x="224.93684"
         sodipodi:role="line">rami@jabber.ccc.de</tspan></text>
    <g
       id="g6125"
       transform="matrix(0.70175439,0,0,0.70175439,-545.63551,395.05811)">
      <rect
         id="rect6109"
         rx="11"
         height="114"
         width="114"
         x="934.96979"
         y="443.81891" />
      <path
         id="path6111"
         d="m 950.96977,468.8189 h 82.00003 v 60 h -82.00003 z m 0,0 37,37 q 4,3 8,0 l 37.00003,-37 m -82.00003,60 30,-30 m 22.00003,0 30,30"
         inkscape:connector-curvature="0"
         style="stroke:#ffffff;stroke-width:6" />
    </g>
    <text
       sodipodi:linespacing="125%"
       id="text6129"
       y="763.03339"
       x="224.93684"
       style="font-size:152.29592896px;font-style:normal;font-variant:normal;font-weight:300;font-stretch:normal;text-align:start;line-height:125%;letter-spacing:0px;word-spacing:0px;writing-mode:lr-tb;text-anchor:start;fill:#000000;fill-opacity:1;stroke:none;font-family:Roboto;-inkscape-font-specification:Roboto Light"
       xml:space="preserve"><tspan
         id="tspan6131"
         style="font-size:60px;font-style:normal;font-variant:normal;font-weight:300;font-stretch:normal;text-align:start;line-height:125%;writing-mode:lr-tb;text-anchor:start;fill:#000000;font-family:Roboto;-inkscape-font-specification:Roboto Light"
         y="763.03339"
         x="224.93684"
         sodipodi:role="line">raphael@geeksfactory.de</tspan></text>
    <g
       transform="matrix(0.50755205,0,0,-0.50755205,947.00438,805.48182)"
       inkscape:label="octocat"
       id="g6160">
      <g
         id="g6162">
        <g
           clip-path="url(#clipPath6166)"
           id="g6164">
          <g
             transform="translate(158.542,54.9961)"
             id="g6170">
            <path
               id="path6172"
               style="fill:#a0dcf2;fill-opacity:1;fill-rule:nonzero;stroke:none"
               d="m 0,0 c 0,-9.73 -22.538,-17.617 -50.339,-17.617 -27.803,0 -50.34,7.887 -50.34,17.617 0,9.73 22.537,17.619 50.34,17.619 C -22.538,17.619 0,9.73 0,0"
               inkscape:connector-curvature="0" />
          </g>
        </g>
      </g>
      <g
         id="g6174">
        <g
           clip-path="url(#clipPath6178)"
           id="g6176">
          <g
             transform="translate(158.542,54.9961)"
             id="g6182">
            <path
               id="path6184"
               style="fill:#82bde7;fill-opacity:1;fill-rule:nonzero;stroke:none"
               d="m 0,0 c 0,-9.73 -22.538,-17.617 -50.339,-17.617 -27.803,0 -50.34,7.887 -50.34,17.617 0,9.73 22.537,17.619 50.34,17.619 C -22.538,17.619 0,9.73 0,0"
               inkscape:connector-curvature="0" />
          </g>
        </g>
      </g>
      <g
         id="g6186">
        <g
           clip-path="url(#clipPath6190)"
           id="g6188">
          <g
             transform="translate(50.6987,106.8008)"
             id="g6194">
            <path
               id="path6196"
               style="fill:#a0dcf2;fill-opacity:1;fill-rule:nonzero;stroke:none"
               d="m 0,0 -1.453,-5.063 c 0,0 -0.378,-1.83 1.346,-2.154 1.8,0.035 1.653,1.719 1.527,2.266 L 0,0 z"
               inkscape:connector-curvature="0" />
          </g>
          <g
             transform="translate(197.042,128.0273)"
             id="g6198">
            <path
               id="path6200"
               style="fill:#292929;fill-opacity:1;fill-rule:nonzero;stroke:none"
               d="m 0,0 0.133,0.658 c -14.768,2.953 -29.922,2.983 -39.09,2.602 1.506,5.426 1.959,11.67 1.959,18.633 0,9.986 -3.752,17.975 -9.843,24.054 1.065,3.435 2.487,11.066 -1.42,20.833 0,0 -6.89,2.188 -22.476,-8.243 -6.106,1.526 -12.604,2.279 -19.112,2.279 -7.16,0 -14.395,-0.912 -21.143,-2.763 -16.086,10.975 -23.186,8.727 -23.186,8.727 -4.636,-11.59 -1.77,-20.171 -0.899,-22.302 -5.448,-5.879 -8.774,-13.384 -8.774,-22.585 0,-6.947 0.792,-13.178 2.724,-18.594 -9.247,0.336 -23.849,0.207 -38.089,-2.641 L -179.084,0 c 14.325,2.865 29.018,2.965 38.209,2.617 0.425,-1.121 0.899,-2.209 1.43,-3.26 -9.088,-0.293 -24.604,-1.451 -39.475,-5.646 l 0.182,-0.645 c 14.988,4.227 30.641,5.356 39.641,5.631 5.43,-10.121 16.135,-16.658 35.18,-18.711 -2.704,-1.816 -5.46,-4.904 -6.579,-10.129 -3.683,-1.761 -15.343,-6.062 -22.339,5.971 0,0 -3.916,7.16 -11.412,7.721 0,0 -7.271,0.111 -0.503,-4.531 0,0 4.867,-2.293 8.223,-10.909 0,0 4.379,-14.695 25.512,-9.98 l 0,-15.18 c 0,0 -0.447,-5.369 -5.369,-7.158 0,0 -2.908,-2.014 0.224,-3.131 0,0 13.645,-1.119 13.645,10.065 l 0,16.552 c 0,0 -0.54,6.565 2.683,8.846 l 0,-27.187 c 0,0 -0.222,-6.487 -3.578,-8.948 0,0 -2.237,-4.025 2.684,-2.908 0,0 9.394,1.342 9.842,12.303 l 0.214,27.513 2.257,0 0.215,-27.513 c 0.447,-10.961 9.842,-12.303 9.842,-12.303 4.919,-1.117 2.683,2.908 2.683,2.908 -3.355,2.461 -3.578,8.948 -3.578,8.948 l 0,26.953 c 3.223,-2.51 2.684,-8.612 2.684,-8.612 l 0,-16.552 c 0,-11.184 13.644,-10.065 13.644,-10.065 3.131,1.117 0.225,3.131 0.225,3.131 -4.922,1.789 -5.369,7.158 -5.369,7.158 l 0,21.697 c 0,8.461 -3.563,12.942 -7.047,15.307 20.31,2.014 30.056,8.572 34.548,18.762 8.896,-0.244 24.906,-1.328 40.22,-5.649 l 0.182,0.645 c -15.227,4.295 -31.131,5.406 -40.117,5.668 0.426,1.029 0.797,2.1 1.127,3.201 C -30.049,2.969 -14.826,2.965 0,0"
               inkscape:connector-curvature="0" />
          </g>
          <g
             transform="translate(140.1777,150.3906)"
             id="g6202">
            <path
               id="path6204"
               style="fill:#f5cdb5;fill-opacity:1;fill-rule:nonzero;stroke:none"
               d="m 0,0 c 4.375,-3.963 6.934,-8.749 6.934,-13.905 0,-24.075 -17.948,-24.728 -40.085,-24.728 -22.14,0 -40.086,3.334 -40.086,24.728 0,5.122 2.524,9.878 6.845,13.825 7.206,6.578 19.404,3.095 33.241,3.095 C -19.369,3.015 -7.217,6.533 0,0"
               inkscape:connector-curvature="0" />
          </g>
          <g
             transform="translate(93.6968,135.2578)"
             id="g6206">
            <path
               id="path6208"
               style="fill:#ffffff;fill-opacity:1;fill-rule:nonzero;stroke:none"
               d="m 0,0 c 0,-6.631 -3.734,-12.006 -8.34,-12.006 -4.606,0 -8.342,5.375 -8.342,12.006 0,6.631 3.736,12.004 8.342,12.004 C -3.734,12.004 0,6.631 0,0"
               inkscape:connector-curvature="0" />
          </g>
          <g
             transform="translate(91.021,135.1074)"
             id="g6210">
            <path
               id="path6212"
               style="fill:#b1645a;fill-opacity:1;fill-rule:nonzero;stroke:none"
               d="m 0,0 c 0,-4.42 -2.491,-8.002 -5.561,-8.002 -3.072,0 -5.56,3.582 -5.56,8.002 0,4.422 2.488,8.006 5.56,8.006 C -2.491,8.006 0,4.422 0,0"
               inkscape:connector-curvature="0" />
          </g>
          <g
             transform="translate(138.4434,135.2578)"
             id="g6214">
            <path
               id="path6216"
               style="fill:#ffffff;fill-opacity:1;fill-rule:nonzero;stroke:none"
               d="m 0,0 c 0,-6.631 -3.734,-12.006 -8.342,-12.006 -4.605,0 -8.34,5.375 -8.34,12.006 0,6.631 3.735,12.004 8.34,12.004 C -3.734,12.004 0,6.631 0,0"
               inkscape:connector-curvature="0" />
          </g>
          <g
             transform="translate(135.7656,135.1074)"
             id="g6218">
            <path
               id="path6220"
               style="fill:#b1645a;fill-opacity:1;fill-rule:nonzero;stroke:none"
               d="m 0,0 c 0,-4.42 -2.49,-8.002 -5.561,-8.002 -3.07,0 -5.56,3.582 -5.56,8.002 0,4.422 2.49,8.006 5.56,8.006 C -2.49,8.006 0,4.422 0,0"
               inkscape:connector-curvature="0" />
          </g>
          <g
             transform="translate(109.2305,124.5957)"
             id="g6222">
            <path
               id="path6224"
               style="fill:#b1645a;fill-opacity:1;fill-rule:nonzero;stroke:none"
               d="m 0,0 c 0,-1.152 -0.934,-2.086 -2.086,-2.086 -1.153,0 -2.086,0.934 -2.086,2.086 0,1.152 0.933,2.086 2.086,2.086 C -0.934,2.086 0,1.152 0,0"
               inkscape:connector-curvature="0" />
          </g>
          <g
             transform="translate(102.2847,119.3223)"
             id="g6226">
            <path
               id="path6228"
               style="fill:#b1645a;fill-opacity:1;fill-rule:nonzero;stroke:none"
               d="m 0,0 c -0.123,0.35 0.061,0.732 0.409,0.855 0.349,0.124 0.733,-0.06 0.856,-0.408 0.536,-1.515 1.973,-2.533 3.577,-2.533 1.604,0 3.041,1.018 3.578,2.533 0.123,0.35 0.506,0.532 0.856,0.408 C 9.625,0.732 9.807,0.35 9.684,0 8.959,-2.049 7.012,-3.426 4.842,-3.426 2.672,-3.426 0.727,-2.049 0,0"
               inkscape:connector-curvature="0" />
          </g>
          <g
             transform="translate(56.0405,109.7852)"
             id="g6230">
            <path
               id="path6232"
               style="fill:#c5e6da;fill-opacity:1;fill-rule:nonzero;stroke:none"
               d="m 0,0 c 0,-0.557 -0.652,-1.006 -1.455,-1.006 -0.803,0 -1.454,0.449 -1.454,1.006 0,0.557 0.651,1.008 1.454,1.008 C -0.652,1.008 0,0.557 0,0"
               inkscape:connector-curvature="0" />
          </g>
          <g
             transform="translate(60.0679,107.5488)"
             id="g6234">
            <path
               id="path6236"
               style="fill:#c5e6da;fill-opacity:1;fill-rule:nonzero;stroke:none"
               d="m 0,0 c 0,-0.557 -0.652,-1.008 -1.455,-1.008 -0.803,0 -1.454,0.451 -1.454,1.008 0,0.555 0.651,1.006 1.454,1.006 C -0.652,1.006 0,0.555 0,0"
               inkscape:connector-curvature="0" />
          </g>
          <g
             transform="translate(62.5288,104.6387)"
             id="g6238">
            <path
               id="path6240"
               style="fill:#c5e6da;fill-opacity:1;fill-rule:nonzero;stroke:none"
               d="m 0,0 c 0,-0.555 -0.651,-1.006 -1.455,-1.006 -0.803,0 -1.453,0.451 -1.453,1.006 0,0.557 0.65,1.008 1.453,1.008 C -0.651,1.008 0,0.557 0,0"
               inkscape:connector-curvature="0" />
          </g>
          <g
             transform="translate(64.7651,101.2832)"
             id="g6242">
            <path
               id="path6244"
               style="fill:#c5e6da;fill-opacity:1;fill-rule:nonzero;stroke:none"
               d="m 0,0 c 0,-0.557 -0.65,-1.008 -1.453,-1.008 -0.804,0 -1.455,0.451 -1.455,1.008 0,0.557 0.651,1.008 1.455,1.008 C -0.65,1.008 0,0.557 0,0"
               inkscape:connector-curvature="0" />
          </g>
          <g
             transform="translate(67.2271,98.1504)"
             id="g6246">
            <path
               id="path6248"
               style="fill:#c5e6da;fill-opacity:1;fill-rule:nonzero;stroke:none"
               d="m 0,0 c 0,-0.555 -0.651,-1.006 -1.454,-1.006 -0.803,0 -1.455,0.451 -1.455,1.006 0,0.557 0.652,1.008 1.455,1.008 C -0.651,1.008 0,0.557 0,0"
               inkscape:connector-curvature="0" />
          </g>
          <g
             transform="translate(70.5835,95.4668)"
             id="g6250">
            <path
               id="path6252"
               style="fill:#c5e6da;fill-opacity:1;fill-rule:nonzero;stroke:none"
               d="m 0,0 c 0,-0.557 -0.651,-1.008 -1.455,-1.008 -0.803,0 -1.453,0.451 -1.453,1.008 0,0.555 0.65,1.006 1.453,1.006 C -0.651,1.006 0,0.555 0,0"
               inkscape:connector-curvature="0" />
          </g>
          <g
             transform="translate(75.2817,93.6758)"
             id="g6254">
            <path
               id="path6256"
               style="fill:#c5e6da;fill-opacity:1;fill-rule:nonzero;stroke:none"
               d="m 0,0 c 0,-0.555 -0.651,-1.006 -1.454,-1.006 -0.804,0 -1.455,0.451 -1.455,1.006 0,0.557 0.651,1.008 1.455,1.008 C -0.651,1.008 0,0.557 0,0"
               inkscape:connector-curvature="0" />
          </g>
          <g
             transform="translate(79.9575,93.6758)"
             id="g6258">
            <path
               id="path6260"
               style="fill:#c5e6da;fill-opacity:1;fill-rule:nonzero;stroke:none"
               d="m 0,0 c 0,-0.555 -0.651,-1.006 -1.454,-1.006 -0.804,0 -1.455,0.451 -1.455,1.006 0,0.557 0.651,1.008 1.455,1.008 C -0.651,1.008 0,0.557 0,0"
               inkscape:connector-curvature="0" />
          </g>
          <g
             transform="translate(84.7036,94.4551)"
             id="g6262">
            <path
               id="path6264"
               style="fill:#c5e6da;fill-opacity:1;fill-rule:nonzero;stroke:none"
               d="m 0,0 c 0,-0.557 -0.651,-1.008 -1.454,-1.008 -0.804,0 -1.455,0.451 -1.455,1.008 0,0.557 0.651,1.008 1.455,1.008 C -0.651,1.008 0,0.557 0,0"
               inkscape:connector-curvature="0" />
          </g>
        </g>
      </g>
    </g>
    <text
       xml:space="preserve"
       style="font-size:152.29592896px;font-style:normal;font-variant:normal;font-weight:300;font-stretch:normal;text-align:start;line-height:125%;letter-spacing:0px;word-spacing:0px;writing-mode:lr-tb;text-anchor:start;fill:#000000;fill-opacity:1;stroke:none;font-family:Roboto;-inkscape-font-specification:Roboto Light"
       x="1078.5105"
       y="763.26782"
       id="text6319"
       sodipodi:linespacing="125%"><tspan
         sodipodi:role="line"
         x="1078.5105"
         y="763.26782"
         style="font-size:60px;font-style:normal;font-variant:normal;font-weight:300;font-stretch:normal;text-align:start;line-height:125%;writing-mode:lr-tb;text-anchor:start;fill:#000000;font-family:Roboto;-inkscape-font-specification:Roboto Light"
         id="tspan6321">raphaelm</tspan></text>
    <text
       xml:space="preserve"
       style="font-size:152.29592896px;font-style:normal;font-variant:normal;font-weight:300;font-stretch:normal;text-align:start;line-height:125%;letter-spacing:0px;word-spacing:0px;writing-mode:lr-tb;text-anchor:start;fill:#000000;fill-opacity:1;stroke:none;font-family:Roboto;-inkscape-font-specification:Roboto Light"
       x="1324.4285"
       y="534.15436"
       id="text6319-1"
       sodipodi:linespacing="125%"><tspan
         sodipodi:role="line"
         x="1324.4285"
         y="534.15436"
         style="font-size:60px;font-style:normal;font-variant:normal;font-weight:300;font-stretch:normal;text-align:end;line-height:125%;writing-mode:lr-tb;text-anchor:end;fill:#000000;font-family:Roboto;-inkscape-font-specification:Roboto Light"
         id="tspan6321-7">Assembly:</tspan><tspan
         sodipodi:role="line"
         x="1324.4285"
         y="609.15436"
         style="font-size:60px;font-style:normal;font-variant:normal;font-weight:300;font-stretch:normal;text-align:end;line-height:125%;writing-mode:lr-tb;text-anchor:end;fill:#000000;font-family:Roboto;-inkscape-font-specification:Roboto Light"
         id="tspan6344">RaumZeitLabor</tspan></text>
  </g>
</svg>
