<?xml version="1.0" encoding="UTF-8" standalone="no"?>
<!-- Generator: Adobe Illustrator 22.1.0, SVG Export Plug-In . SVG Version: 6.00 Build 0)  -->

<svg
   xmlns:dc="http://purl.org/dc/elements/1.1/"
   xmlns:cc="http://creativecommons.org/ns#"
   xmlns:rdf="http://www.w3.org/1999/02/22-rdf-syntax-ns#"
   xmlns:svg="http://www.w3.org/2000/svg"
   xmlns="http://www.w3.org/2000/svg"
   xmlns:sodipodi="http://sodipodi.sourceforge.net/DTD/sodipodi-0.dtd"
   xmlns:inkscape="http://www.inkscape.org/namespaces/inkscape"
   version="1.1"
   id="svg4601"
   inkscape:export-filename="/home/raphael/proj/opacapp/opensource/img/logo/ic_launcher.png"
   inkscape:export-xdpi="67.73333"
   inkscape:export-ydpi="67.73333"
   inkscape:version="0.48.5 r10040"
   sodipodi:docname="ic_launcher_longshadow.svg"
   x="0px"
   y="0px"
   viewBox="0 0 108 108"
   xml:space="preserve"
   width="100%"
   height="100%"><metadata
   id="metadata23"><rdf:RDF><cc:Work
       rdf:about=""><dc:format>image/svg+xml</dc:format><dc:type
         rdf:resource="http://purl.org/dc/dcmitype/StillImage" /><dc:title></dc:title></cc:Work></rdf:RDF></metadata><defs
   id="defs21" />
<style
   type="text/css"
   id="style3">
	.st0{fill-opacity:0.14;}
	.st1{fill:#F4F4F4;}
	.st2{fill:#C4C4C4;}
	.st3{fill:#D90000;fill-opacity:0.9412;}
	.st4{fill:#3496DC;}
	.st5{fill:#F3854E;}
	.st6{opacity:0.32;fill:#1E1E1E;enable-background:new    ;}
	.st7{fill:#DD2F44;}
	.st8{fill:#C92837;}
</style>
<sodipodi:namedview
   bordercolor="#666666"
   borderopacity="1.0"
   fit-margin-bottom="0"
   fit-margin-left="0"
   fit-margin-right="0"
   fit-margin-top="0"
   id="base"
   inkscape:current-layer="layer1"
   inkscape:cx="5.6659227"
   inkscape:cy="19.110335"
   inkscape:document-units="px"
   inkscape:pageopacity="0.0"
   inkscape:pageshadow="2"
   inkscape:window-height="951"
   inkscape:window-maximized="0"
   inkscape:window-width="1916"
   inkscape:window-x="2894"
   inkscape:window-y="213"
   inkscape:zoom="2.8284271"
   pagecolor="#ffffff"
   showgrid="false"
   units="px">
	</sodipodi:namedview>
<g
   id="layer1"
   transform="translate(0,-358.70008)"
   inkscape:groupmode="layer"
   inkscape:label="Ebene 1">
	<path
   id="path2995"
   inkscape:connector-curvature="0"
   sodipodi:nodetypes="ccccccc"
   class="st0"
   d="m 74.903046,396.54019 33.104394,33.10441 v 37.05548 H 68.440206 l -36.1806,-36.1806 5.78551,-1.07244 36.85793,-32.90685 z"
   style="fill-opacity:0.13999999" />
	<path
   id="XMLID_158_"
   inkscape:connector-curvature="0"
   class="st1"
   d="m 74.13714,425.14949 c 0,-0.16933 0,-0.31044 -0.0282,-0.45155 -0.28222,-0.73377 -1.10066,-2.14487 -3.04797,-2.14487 -2.59643,0 -34.91062,0 -35.44684,0 0.0847,0.33866 0.19756,0.70555 0.22578,1.07243 0.31044,2.00376 0.0282,4.14864 -0.95955,5.8984 H 70.4683 c 2.03199,-0.0282 3.66886,-1.97554 3.66886,-4.37441 l 0,0 z"
   style="fill:#f4f4f4" />
	<path
   id="XMLID_157_"
   inkscape:connector-curvature="0"
   class="st2"
   d="m 74.10892,424.66972 c -0.19755,-2.1731 -1.74976,-3.89464 -3.61241,-3.89464 H 34.93679 c 0.47977,0.98777 0.67732,1.74976 0.67732,1.74976 0,0 0,0 0,0 0.56444,0 32.85041,0 35.44684,0 1.94731,0 2.76575,1.4111 3.04797,2.14488 l 0,0 z"
   style="fill:#c4c4c4" />
	<path
   id="XMLID_156_"
   inkscape:connector-curvature="0"
   class="st3"
   d="M 70.49651,418.82776 H 32.93302 c -0.50799,0 -0.93132,0.47978 -0.93132,0.98777 0,0.508 0.42333,0.98777 0.93132,0.98777 h 2.00377 35.55972 c 1.86265,0 3.41486,1.69332 3.61241,3.86642 0,0.16933 0.0282,0.33866 0.0282,0.47977 0,2.39887 -1.63687,4.34619 -3.64063,4.34619 H 34.88032 32.90478 c -0.50799,0 -0.93132,0.42333 -0.93132,0.93132 0,0.508 0.42333,0.93133 0.93132,0.93133 h 37.56348 c 3.01976,0 5.50329,-2.85042 5.50329,-6.26528 0.0282,-3.41487 -2.45531,-6.26529 -5.47506,-6.26529 z"
   style="fill:#d90000;fill-opacity:0.94120029" />
	<path
   id="XMLID_154_"
   inkscape:connector-curvature="0"
   class="st1"
   d="m 37.02521,410.0225 c -2.45531,0 -3.10442,2.3142 -3.18908,2.62464 0,0 0,0 0,0 0,2.39887 1.63687,4.31797 3.64064,4.31797 h 35.61616 c -0.70555,-1.29821 -1.04421,-2.79398 -1.04421,-4.31797 0,-1.12888 0.16933,-2.25776 0.56444,-3.30197 l -0.31045,0.64911 c -0.0282,0.0282 -32.65285,0.0282 -35.2775,0.0282 l 0,0 z"
   style="fill:#f4f4f4" />
	<path
   id="XMLID_150_"
   inkscape:connector-curvature="0"
   class="st2"
   d="m 37.50499,408.38562 c -2.00376,0 -3.61242,1.89088 -3.64064,4.28975 0.0847,-0.31045 0.73377,-2.65287 3.18909,-2.65287 2.62464,0 35.24927,0 35.24927,0 l 0.31045,-0.62089 0.50799,-1.01599 H 37.50499 z"
   style="fill:#c4c4c4" />
	<path
   id="XMLID_149_"
   inkscape:connector-curvature="0"
   class="st4"
   d="M 75.06847,416.99333 H 73.06471 37.50499 c -2.00376,0 -3.64064,-1.91909 -3.64064,-4.31796 0,0 0,0 0,0 0,-2.37065 1.63688,-4.28975 3.64064,-4.28975 h 35.58794 1.97554 c 0.508,0 0.93133,-0.42333 0.93133,-0.93132 0,-0.508 -0.42333,-0.93133 -0.93133,-0.93133 H 37.50499 c -3.01976,0 -5.50329,2.73753 -5.50329,6.1524 0,3.41486 2.45531,6.15239 5.50329,6.15239 h 37.56348 c 0.508,0 0.93133,-0.42333 0.93133,-0.93132 0,-0.508 -0.42333,-0.90311 -0.93133,-0.90311 z"
   style="fill:#3496dc" />
	<path
   id="XMLID_148_"
   inkscape:connector-curvature="0"
   class="st1"
   d="m 34.93679,396.02439 c 0.0282,0.0564 0.0564,0.0847 0.0847,0.14111 -0.0564,-0.0564 -0.0564,-0.11289 -0.0847,-0.14111 z"
   style="fill:#f4f4f4" />
	<path
   id="XMLID_146_"
   inkscape:connector-curvature="0"
   class="st1"
   d="m 74.13714,400.28591 c 0,-0.11289 0,-0.19756 0,-0.31044 -0.25399,-0.70555 -1.04421,-2.25776 -3.07619,-2.25776 -2.59643,0 -34.99528,0 -35.44684,0 0.0565,0.22577 0.11289,0.3951 0.16934,0.62088 0.42333,2.08843 0.14111,4.37441 -0.84666,6.23706 h 35.55972 c 2.00376,0 3.64063,-1.89087 3.64063,-4.28974 l 0,0 z"
   style="fill:#f4f4f4" />
	<path
   id="XMLID_145_"
   inkscape:connector-curvature="0"
   class="st2"
   d="m 74.13714,399.97547 c -0.14111,-2.22954 -1.72154,-3.97931 -3.64063,-3.97931 H 34.93679 c 0.0282,0.11289 0.0564,0.14111 0.0847,0.16934 0.42333,0.9031 0.59266,1.58043 0.59266,1.58043 l 0,0 c 0.45156,0 32.85041,0 35.44684,0 2.03198,-0.0282 2.8222,1.52399 3.07619,2.22954 l 0,0 z"
   style="fill:#c4c4c4" />
	<path
   id="XMLID_144_"
   inkscape:connector-curvature="0"
   class="st5"
   d="M 70.49651,394.02062 H 32.93302 c -0.50799,0 -0.93132,0.47978 -0.93132,0.98777 0,0.508 0.42333,0.98777 0.93132,0.98777 h 2.00377 0 35.55972 c 1.91909,0 3.49952,1.72155 3.64063,3.97931 0,0.11288 0,0.22577 0,0.33866 0,2.39887 -1.63687,4.28974 -3.64063,4.28974 H 34.93679 32.93302 c -0.50799,0 -0.93132,0.47978 -0.93132,0.98777 0,0.508 0.42333,0.98777 0.93132,0.98777 h 37.56349 c 3.01975,0 5.50329,-2.85042 5.50329,-6.26528 0,-3.47131 -2.48354,-6.29351 -5.50329,-6.29351 l 0,0 z"
   style="fill:#f3854e" />
	<path
   id="XMLID_143_"
   inkscape:connector-curvature="0"
   class="st6"
   d="m 63.89256,407.4543 -0.81844,-6.46284 -6.66039,14.13922 3.33019,-0.98777 3.3302,0.98777 0.81844,-7.67638 z"
   style="opacity:0.31999996;fill:#1e1e1e;enable-background:new" />
	<path
   id="XMLID_142_"
   inkscape:connector-curvature="0"
   class="st7"
   d="m 56.41373,400.93501 h 6.60395 v 11.68391 h -3.27376 -3.33019 v -11.68391 z"
   style="fill:#dd2f44" />
	<path
   id="XMLID_140_"
   inkscape:connector-curvature="0"
   class="st8"
   d="m 56.41373,415.10246 v -6.26529 h 6.60395 v 6.26529 l -3.30198,-1.43932 -3.30197,1.43932 z"
   style="fill:#c92837" />
</g>
</svg>