<?xml version="1.0" encoding="utf-8"?>
<!-- Generator: Adobe Illustrator 19.0.0, SVG Export Plug-In . SVG Version: 6.00 Build 0)  -->
<svg version="1.1" id="Ebene_1" xmlns="http://www.w3.org/2000/svg" xmlns:xlink="http://www.w3.org/1999/xlink" x="0px" y="0px"
	 viewBox="0 0 200 200" enable-background="new 0 0 200 200" xml:space="preserve">
<g id="Ebene_0" transform="translate(0 .000037383)">
	<path id="path6" fill="#B0BEC5" d="M24.1,108.6C59,70.3,121.6,46,163.9,54.6s48.3,46.5,13.3,84.8s-97.6,62.6-139.8,54
		C-5,184.8-10.9,146.9,24.1,108.6z"/>
</g>
<g id="Ebene_1_1_" transform="translate(0 .000037383)">
	<rect id="rect9" x="130.5" y="4.9" fill="#5E4138" width="39.6" height="101.4"/>
	<g id="g11">
		<polygon id="polygon13" fill="#6E4D42" points="168.7,104.3 81.9,157.4 38.4,157 135.4,104.3 		"/>
		<polygon id="polygon15" fill="#8E6F64" points="168.7,104.3 81.9,157.4 81.9,160.9 168.7,105.9 		"/>
	</g>
	<g id="g17">
		<g id="g19">
			<polygon id="polygon21" fill="#F28E1C" points="155.5,109.7 158.6,107.7 158.6,80.5 155.5,82.8 			"/>
			<polygon id="polygon23" fill="#BDBDBC" points="155.5,82.8 158.6,80.5 140.8,80.5 140.8,82.8 			"/>
			<rect id="rect25" x="140.8" y="82.8" fill="#F59E19" width="14.6" height="26.9"/>
		</g>
		<g id="g27">
			<polygon id="polygon29" fill="#3D4C9B" points="149.1,113.5 152.3,111.5 152.3,84.5 149.1,86.8 			"/>
			<polygon id="polygon31" fill="#BDBDBC" points="149.1,86.8 152.3,84.5 134.6,84.5 134.6,86.8 			"/>
			<rect id="rect33" x="134.6" y="86.8" fill="#5C6BB0" width="14.6" height="26.8"/>
		</g>
		<g id="g35">
			<polygon id="polygon37" fill="#C31A5C" points="141.6,119.6 144.8,117.6 144.8,91 141.6,93.3 			"/>
			<polygon id="polygon39" fill="#BDBDBC" points="141.6,93.3 144.8,91 127.4,91 127.4,93.3 			"/>
			<rect id="rect41" x="127.4" y="93.3" fill="#D81D61" width="14.3" height="26.3"/>
		</g>
		<g id="g43">
			<polygon id="polygon45" fill="#3D4C9B" points="133.8,123.4 136.5,121.8 136.5,98.6 133.8,100.5 			"/>
			<polygon id="polygon47" fill="#BDBDBC" points="133.8,100.5 136.5,98.6 121.3,98.6 121.3,100.5 			"/>
			<rect id="rect49" x="121.3" y="100.5" fill="#5C6BB0" width="12.4" height="23"/>
		</g>
		<g id="g51">
			<polygon id="polygon53" fill="#F28E1C" points="126.5,126.6 129.9,124.5 129.9,96.1 126.5,98.5 			"/>
			<polygon id="polygon55" fill="#BDBDBC" points="126.5,98.5 129.9,96.1 111.4,96.1 111.4,98.5 			"/>
			<rect id="rect57" x="111.4" y="98.5" fill="#F59E19" width="15.3" height="28.1"/>
		</g>
		<g id="g59">
			<polygon id="polygon61" fill="#D84417" points="117.6,131.6 120.7,129.6 120.7,102.6 117.6,104.9 			"/>
			<polygon id="polygon63" fill="#BDBDBC" points="117.6,104.9 120.7,102.6 103.1,102.6 103.1,104.9 			"/>
			<rect id="rect65" x="103.1" y="104.9" fill="#E74B1B" width="14.6" height="26.8"/>
		</g>
		<g id="g67">
			<polygon id="polygon69" fill="#568C31" points="112.7,134.8 115.2,133.2 115.2,110.4 112.7,112.3 			"/>
			<polygon id="polygon71" fill="#BDBDBC" points="112.7,112.3 115.2,110.4 100.5,110.4 100.5,112.3 			"/>
			<rect id="rect73" x="100.5" y="112.3" fill="#7DB341" width="12.2" height="22.5"/>
		</g>
		<g id="g75">
			<polygon id="polygon77" fill="#482682" points="104.3,139.9 107.9,137.8 107.9,107.8 104.3,110.3 			"/>
			<polygon id="polygon79" fill="#BDBDBC" points="104.3,110.3 107.9,107.8 88.2,107.8 88.2,110.3 			"/>
			<rect id="rect81" x="88.2" y="110.3" fill="#7B3B8F" width="16.1" height="29.6"/>
		</g>
		<g id="g83">
			<polygon id="polygon85" fill="#568C31" points="97.1,144.4 100.7,142.3 100.7,112.3 97.1,114.8 			"/>
			<polygon id="polygon87" fill="#BDBDBC" points="97.1,114.8 100.7,112.3 81,112.3 81,114.8 			"/>
			<rect id="rect89" x="81" y="114.8" fill="#7DB341" width="16.1" height="29.6"/>
		</g>
		<g id="g91">
			<polygon id="polygon93" fill="#C72928" points="89.1,149.4 92.7,147.3 92.7,117.3 89.1,119.8 			"/>
			<polygon id="polygon95" fill="#BDBDBC" points="89.1,119.8 92.7,117.3 73.1,117.3 73.1,119.8 			"/>
			<rect id="rect97" x="73.1" y="119.8" fill="#E63A36" width="16.1" height="29.6"/>
		</g>
	</g>
	<g id="g99">
		<polygon id="polygon101" fill="#6E4D42" points="168.7,70.2 81.9,123.4 38.4,123.1 135.4,70.2 		"/>
		<polygon id="polygon103" fill="#8E6F64" points="168.7,70.2 81.9,123.4 81.9,127 168.7,72 		"/>
	</g>
	<g id="g105">
		<g id="g107">
			<polygon id="polygon109" fill="#C31A5C" points="153.9,77 157.1,75 157.1,48.4 153.9,50.7 			"/>
			<polygon id="polygon111" fill="#BDBDBC" points="153.9,50.7 157.1,48.4 139.7,48.4 139.7,50.7 			"/>
			<rect id="rect113" x="139.7" y="50.7" fill="#D81D61" width="14.3" height="26.3"/>
		</g>
		<g id="g115">
			<polygon id="polygon117" fill="#3D4C9B" points="146.1,80.8 148.8,79.2 148.8,56 146.1,57.9 			"/>
			<polygon id="polygon119" fill="#BDBDBC" points="146.1,57.9 148.8,56 133.7,56 133.7,57.9 			"/>
			<rect id="rect121" x="133.7" y="57.9" fill="#5C6BB0" width="12.4" height="23"/>
		</g>
		<g id="g123">
			<polygon id="polygon125" fill="#F28E1C" points="140.5,85.4 144,83.4 144,54.9 140.5,57.3 			"/>
			<polygon id="polygon127" fill="#BDBDBC" points="140.5,57.3 144,54.9 125.2,54.9 125.2,57.3 			"/>
			<rect id="rect129" x="125.2" y="57.3" fill="#F59E19" width="15.3" height="28.1"/>
		</g>
		<g id="g131">
			<polygon id="polygon133" fill="#D84417" points="131.5,90.4 134.8,88.5 134.8,61.4 131.5,63.6 			"/>
			<polygon id="polygon135" fill="#BDBDBC" points="131.5,63.6 134.8,61.4 117.1,61.4 117.1,63.6 			"/>
			<rect id="rect137" x="117.1" y="63.6" fill="#E74B1B" width="14.6" height="26.8"/>
		</g>
		<g id="g139">
			<polygon id="polygon141" fill="#568C31" points="124.9,95.3 127.6,93.7 127.6,71 124.9,72.8 			"/>
			<polygon id="polygon143" fill="#BDBDBC" points="124.9,72.8 127.6,71 112.8,71 112.8,72.8 			"/>
			<rect id="rect145" x="112.8" y="72.8" fill="#7DB341" width="12.2" height="22.5"/>
		</g>
		<g id="g147">
			<polygon id="polygon149" fill="#482682" points="116.6,100.5 120.1,98.3 120.1,68.3 116.6,70.9 			"/>
			<polygon id="polygon151" fill="#BDBDBC" points="116.6,70.9 120.1,68.3 100.6,68.3 100.6,70.9 			"/>
			<rect id="rect153" x="100.6" y="70.9" fill="#7B3B8F" width="16.1" height="29.6"/>
		</g>
		<g id="g155">
			<polygon id="polygon157" fill="#F28E1C" points="109.5,104.6 112.8,102.6 112.8,75.4 109.5,77.7 			"/>
			<polygon id="polygon159" fill="#BDBDBC" points="109.5,77.7 112.8,75.4 94.9,75.4 94.9,77.7 			"/>
			<rect id="rect161" x="94.9" y="77.7" fill="#F59E19" width="14.6" height="26.9"/>
		</g>
		<g id="g163">
			<polygon id="polygon165" fill="#21242D" points="122.6,148.2 128.5,148.2 128.6,121.1 129.6,121 129.6,148.2 135.5,148.2 
				135.7,114.1 129.5,114.5 122.7,114.4 			"/>
			<path id="path167" fill="#DFB38B" d="M137.2,79.7c-0.6,5.7-5,10-9.9,9.5c-4.9-0.5-8.4-5.5-7.8-11.2c0.5-5.7,5-10,9.9-9.5
				C134.3,68.9,137.7,74,137.2,79.7z"/>
			<path id="path169" fill="#F6A23E" d="M121,91.7c1.2-0.7,4.4-1.2,5.6-0.9c1.3,0.3,3.1-0.2,4,0c1,0.2,5.4,0,6,2
				c0.3,1,0.7,20-1,22.6c-1.6,2.4-11.3,3.5-13.1,0C120.3,111.2,119.4,92.8,121,91.7z"/>
			<path id="path171" fill="#DFB38B" d="M131.3,91.4c0,0-3.1,6.5-4,6.1s-2-6.1-2-6.1v-5.6h6V91.4z"/>
			<g id="g173">
				<path id="path175" fill="#FAB855" d="M119.5,105l-3.6-1.1c0,0,4.5-9.6,4.8-11.7c0.1-1,1.1,4.5,0.8,6.5
					C121.3,100.2,119.5,105,119.5,105L119.5,105z"/>
				<path id="path177" fill="#FAB855" d="M111.5,107.8l-0.9-2.2c0,0,4.7-1.5,5.6-2.2c1.2-0.9,4,0.2,3.6,1.1
					C118.4,107.3,111.5,107.8,111.5,107.8L111.5,107.8z"/>
				<path id="path179" fill="#DFB38B" d="M108.2,105.5c0,0-1.3-0.5-1.3-0.8c0-0.9,3.7,1,3.7,1l0.8,2.2c0,0-3.1,1.1-4.9,0.8
					c0,0-0.7-0.5,1.2-0.7c0,0-1.8,0.4-2,0c-0.3-0.6,1.8-0.7,1.8-0.7s-2.6,0.3-2.4-0.2c0.2-0.6,2-0.6,2-0.6s-1.6,0.3-2-0.2
					C104.7,105.6,108.2,105.5,108.2,105.5L108.2,105.5z"/>
			</g>
			<g>
				<path id="path181" fill="#231F20" d="M130,76.5c0,0-2.3-1.8-8.5,1.5c-0.6,0.3-2.1,1.5-2.1,1.5s-1.4-0.4-1-3.5
					c0.4-3.2,4.8-6.6,6.5-7.3c5.9-2.3,10.4,1.2,11.1,2.5c0,0,5.2,1.3,1.9,11c-1.8,5.4-5.9,5-6.4,6.6c0,0-1.1-1.4,0.4-3.4
					c2.2-2.8-0.3-4-0.3-4s-1.7,3.8-1.3-0.5C130.5,78.9,129.5,79,130,76.5L130,76.5z"/>
				<path id="path183" fill="#231F20" d="M121,150.2c0,0,0.5-1.9,1.5-2c1-0.2,6,0,6,0s0.3,2,0,2H121z"/>
				<path id="path185" fill="#231F20" d="M128.1,150.2c0,0,0.5-1.9,1.5-2c1-0.2,6,0,6,0s0.3,2,0,2H128.1z"/>
			</g>
			<g id="g187">
				<polygon id="polygon189" fill="#231F20" points="129,111.7 130.9,102.4 129.8,102.4 129.3,101.1 131.2,100.6 131.7,101.7 
					129.6,111.7 				"/>
				<g id="g191">
					<g id="g193">
						<path id="path195" fill="#FAB651" d="M130.8,105.6l-2.5-2.8c0,0,4.9-10.5,5.9-11c1.5-0.8,3.5,3.5,0.9,8.9
							C134.5,102,130.8,105.6,130.8,105.6z"/>
						<path id="path197" fill="#FAB651" d="M122,104.5l0.3-2.3c0,0,4.9,0.9,6,0.8c1.5-0.2,3.5,2.1,2.5,2.8
							C128.4,107.4,122,104.5,122,104.5z"/>
						<path id="path199" fill="#F5A992" d="M120.3,100.7c0,0-0.9-1.1-0.7-1.3c0.5-0.8,2.8,2.6,2.8,2.6l-0.4,2.3c0,0-3.3-0.5-4.7-1.7
							c0,0-0.4-0.8,1.4,0c0,0-1.7-0.5-1.7-1c0-0.7,1.9,0.3,1.9,0.3s-2.4-1-2-1.4s2,0.4,2,0.4s-1.5-0.6-1.6-1.1
							C117.1,99.2,120.3,100.7,120.3,100.7L120.3,100.7z"/>
					</g>
				</g>
				<polygon id="polygon201" fill="#1D5F2B" points="118.3,114 122.3,112.2 122.7,118.3 120.2,120.9 				"/>
				<polygon id="polygon203" fill="#307E33" points="122.7,118.4 122.2,112.2 137,113 134.2,119.4 				"/>
				<polygon id="polygon205" fill="#307E33" points="118.1,112.4 122.3,110.4 122.3,112.2 118.1,114.1 				"/>
				<polygon id="polygon207" fill="#4FB050" points="118.1,114.1 118.1,112.4 133.6,113.6 133.6,115.6 				"/>
				<polygon id="polygon209" fill="#4FB050" points="120.3,121 118.1,114.1 133.6,115.6 131.3,122.2 				"/>
				<polygon id="polygon211" fill="#43A047" points="122.2,112.2 122.3,110.4 137,111.1 137,113 				"/>
				<polygon id="polygon213" fill="#84C384" points="137,111.1 133.6,113.6 133.6,115.6 137,113 				"/>
				<polygon id="polygon215" fill="#68B86B" points="133.6,115.6 137,113 134.2,119.5 131.3,122.2 				"/>
				<path id="path217" fill="#231F20" d="M128.9,101.6l-4.5,1l-0.7,11.3h0.5l1-10.3l3.2-0.7C128.3,103,128.7,101.9,128.9,101.6z"/>
				<circle id="circle219" fill="#231F20" cx="123.9" cy="114" r="0.3"/>
				<path id="path221" fill="#434342" d="M124.6,102.8l0.3,0.4l3.1-0.8c0,0-0.9-0.1-1.3,0C126.1,102.5,124.6,102.8,124.6,102.8z"/>
				<path id="path223" fill="#434342" d="M124.6,104l-0.5,7.7C124.1,111.7,124.8,104.9,124.6,104z"/>
				<path id="path225" fill="#307E33" d="M118.1,114.1l15.5,1.6C133.6,115.6,120.1,114.6,118.1,114.1z"/>
			</g>
			<path id="path227" fill="#231F20" d="M131.9,85.4c0,0-2.1,1.4-0.4,5c1.8,3.6,2.9,0.9,2.9,0.9s3.8-3.4,4.6-9.8
				c0.3-2.6,0-4.9,0-4.9"/>
			<path id="path229" fill="#231F20" d="M133.8,91.1c0,0-2.6,0.1-2.1,2c0.3,1.3,1.5,1.5,1.2,3.4c-0.3,2.1,3.1-0.4,4,3.8
				c0.4,2,2.5,2.6,3.5,1.7c0,0-1.5,0-1.9-1.7c0,0,1.1,1.5,1.9,1.1c0,0-1.8-1.1-2-2.8c-0.2-1.7-0.9-2.1-2.9-1.4c0,0-0.4-1.8-1.1-2.2
				C133.8,94.5,135.7,90.3,133.8,91.1z"/>
			<polygon id="polygon231" fill="#E52629" points="135.2,98 134.5,97.8 135.4,96.8 135.9,97.1 			"/>
			<g id="g233">
				<path id="path235" fill="#DFB38B" d="M131.6,81.4c0,0,1.6-1.1,1.5,1.5c-0.1,2.6-1.8,2.3-2.2,1.2"/>
				<path id="path237" fill="#CF9E76" d="M131.6,81.4l0.2-0.2c0.2-0.1,0.4-0.2,0.8-0.1c0.4,0.2,0.5,0.6,0.6,1v0.6
					c0,0.2,0,0.4-0.1,0.6c0,0.2-0.1,0.4-0.2,0.6l-0.1,0.3l-0.2,0.3c-0.1,0.2-0.4,0.2-0.5,0.3c-0.2,0-0.4,0-0.6-0.1
					c-0.2-0.1-0.3-0.1-0.4-0.3c-0.1-0.1-0.2-0.2-0.2-0.3c-0.1-0.2-0.1-0.3-0.1-0.3L131,84c0,0.1,0.1,0.2,0.2,0.2
					c0.1,0.1,0.2,0.1,0.4,0.2c0.1,0.1,0.3,0,0.5,0c0.1-0.1,0.3-0.1,0.4-0.3l0.2-0.2l0.1-0.3c0.1-0.2,0.1-0.4,0.1-0.6
					s0.1-0.4,0.1-0.6v-0.6c0-0.4-0.1-0.7-0.4-0.9c-0.2-0.1-0.5-0.1-0.7,0C131.7,81.4,131.6,81.4,131.6,81.4L131.6,81.4z"/>
			</g>
			<g>
				<path id="path239" fill="#414142" d="M134.7,70.8c0,0-4.6-3.7-9.4-1.6c0,0,1.6-0.2,2.3,0.1c0.7,0.3-3.6,0.7-3.9,0.9
					c-0.3,0.2,4.2,0.1,3.1,0.2c-1.1,0.1-3.7,0.8-3.7,0.8s3.4-0.4,1.3,0.2c-1.9,0.6-5.7,2.8-5.8,4.9s1.9-4.5,7.3-4.8
					c5.4-0.4,6.3,0.6,6.3,0.6s-2.8-1.3-3.9-1.3c-1.1,0,1.7-0.5,2.4-0.4c0.7,0.1-1.5-0.7-1.5-0.7S132.2,69.5,134.7,70.8"/>
				<path id="path241" fill="#414142" d="M131.1,76.2c0,0,0.7,3,2,3.4c0,0-0.1-2.1-0.1-2.3c0-0.1,0.5,1.6,0.5,1.6l0.4-2.1
					c0,0,0.5,1,0.5,0.8c0-0.2,0.3-1.1,0.3-1.1s0.5,0.8,0.4,0.6c0-0.2,0.2-2.5,0.2-2.5c0.4,0,0.3,1.7,0.4,1.7c0.2,0,0.4-2.3,0.5-2.2
					c0.2,0.1,0.5,1.3,0.5,1.3l-0.2-1.7c0,0-0.1-0.3-0.1-0.6c-0.1-0.5-0.4-0.8-0.7-0.8c0,0,0.2,0.2,0.2,1.2c0,1.8-1-0.7-1-0.7
					s-0.2,0.8-0.1,1c0.1,0.8-0.1,0.8-0.1,1.1c0,0.2-0.4-0.8-0.4-0.8l0.1,1.2c0,0-0.8-1.2-0.6-1c0.2,0.3,0.1,1.4-0.1,1.3
					c-0.1-0.1-0.4-1-0.3-0.3c0.2,1.3,0.1,2,0,1.4c-0.1-0.4-0.7-1.2-0.7-1.2s-0.7,1.3-0.4,1.9C132.8,78,131.3,76.6,131.1,76.2
					L131.1,76.2z"/>
				<path id="path243" fill="#414142" d="M131.9,87.8c0,0,0,2.4,1,3.6c0,0,1.4-0.4,1.8-1.4c0,0-0.2,0.4-0.9,0.6
					c-0.7,0.2,0.3-1.2,0.6-2s-1.1,1.7-1.1,1.7V89l-0.4,1C132.9,89.8,132.1,89.5,131.9,87.8L131.9,87.8z"/>
				<path id="path245" fill="#414142" d="M132.2,91.9c0,0-0.8,0.8,0,1.8l0.9,0.3l-0.6-0.7c0,0,0.6,0.5,0.6,0.4
					c0-0.1-0.3-0.5-0.3-0.5s0.5,0.3,0.4,0.1c-0.1-0.2-0.2-0.5-0.2-0.5l-0.3-1.2l-0.1,0.8l-0.1-0.1l-0.1,0.4l-0.1-0.4
					C132.2,92.6,131.8,93.2,132.2,91.9L132.2,91.9z"/>
				<path id="path247" fill="#414142" d="M133.3,95.7c0,0-0.2,1.3,0.2,1.4c0.5,0.1,0.9,0,0.9,0s-0.5-0.1-0.6-0.2
					c-0.1-0.1,0.7,0,0.5-0.1c-0.2-0.1-0.4-0.1-0.4-0.1s0.8,0.2,0.4,0c-0.4-0.2-0.5-0.3-0.5-0.3s-0.2-0.4-0.2-0.7
					c0-0.4-0.1,0.6-0.1,0.7c0,0.2-0.1,0.1-0.1,0.1S133.3,96.2,133.3,95.7z"/>
				<path id="path249" fill="#414142" d="M132.9,95.1c0,0,1,0.2,1.3,0.9l-0.1-0.3c0,0,0.4,0.5,0.4,0.3c-0.1-0.2-0.1-0.4-0.1-0.4h0.1
					c0,0-0.5-0.8-0.8-0.9c-0.3,0-0.4-0.3-0.4-0.3l0.3,0.6l-0.2-0.1h-0.1l-0.4-0.3l0.2,0.3L132.9,95.1L132.9,95.1z"/>
				<path id="path251" fill="#414142" d="M133.2,92.3c0,0,1.1-0.9,1.1-0.2c0,0.7-0.5,2.3-0.5,2.3s0.1-0.7,0.1-1.2s-0.2,1.1-0.3,1.1
					c-0.1-0.1,0-1.6,0-1.6s0.1,0.5,0,0.4s-0.1-0.5-0.1-0.5l-0.2,0.4v-0.5C133.5,92.6,132.9,92.7,133.2,92.3L133.2,92.3z"/>
				<path id="path253" fill="#414142" d="M136.1,97.1c0,0,1.4-0.3,1.7,0.3c0.3,0.7,0.3,1.6,0.4,1.7c0.1,0.1-0.3-0.8-0.3-1.1v1.1
					l-0.2-1.3l-0.1,0.6l-0.1-0.6c0,0-0.4-0.3-0.8-0.3s0.1-0.1,0.2,0c0.1,0-0.5-0.1-0.6-0.1h0.7c0,0-0.6-0.2-0.8-0.1
					C136.1,97.3,136.3,97.1,136.1,97.1L136.1,97.1z"/>
				<path id="path255" fill="#414142" d="M137.2,99.9c0,0-0.1,1.8,1,2.2c1,0.4,1.6,0.1,1.6,0.1s-0.9,0.1-1.6-0.4
					c0,0,0.2,0.1,0.5,0.2c0,0-0.7-0.4-0.9-1c0,0,0,0.6,0.3,0.9C138.2,101.9,137.3,101.4,137.2,99.9L137.2,99.9z"/>
			</g>
		</g>
		<g id="g257">
			<polygon id="polygon259" fill="#3D4C9B" points="106.5,108.7 109.2,107.4 111.7,86.3 109,87.8 			"/>
			<polygon id="polygon261" fill="#BDBDBC" points="109,87.8 111.7,86.3 97.8,84.6 97.6,86.4 			"/>
			
				<rect id="rect263" x="91.4" y="91.7" transform="matrix(-0.1182 0.993 -0.993 -0.1182 210.7074 7.6346)" fill="#5C6BB0" width="21.1" height="11.4"/>
		</g>
		<g id="g265">
			<polygon id="polygon267" fill="#C72928" points="98.3,111.9 101.9,109.7 101.9,79.7 98.3,82.3 			"/>
			<polygon id="polygon269" fill="#BDBDBC" points="98.3,82.3 101.9,79.7 82.3,79.7 82.3,82.3 			"/>
			<rect id="rect271" x="82.3" y="82.3" fill="#E63A36" width="16.1" height="29.6"/>
		</g>
		<g id="g273">
			<polygon id="polygon275" fill="#568C31" points="90.9,115.7 94.4,113.5 94.4,83.6 90.9,86 			"/>
			<polygon id="polygon277" fill="#BDBDBC" points="90.9,86 94.4,83.6 74.8,83.6 74.8,86 			"/>
			<rect id="rect279" x="74.8" y="86" fill="#7DB341" width="16.1" height="29.6"/>
		</g>
	</g>
	<g id="g281">
		<polygon id="polygon283" fill="#6E4D42" points="168.6,35.8 81.8,89 38.3,88.7 135.3,35.8 		"/>
		<polygon id="polygon285" fill="#8E6F64" points="168.6,35.8 81.8,89 81.8,92.6 168.6,37.5 		"/>
	</g>
	<g id="g287">
		<path id="path289" fill="#DFB38B" d="M42,93.2c0,0,1.1-1,1-1.3c-0.4-0.9-3.1,2.3-3.1,2.3l-0.2,2.5c0,0,3.5,0,5.1-1
			c0,0,0.5-0.7-1.5-0.2c0,0,1.9-0.3,1.9-0.8c0.1-0.7-2,0-2,0s2.6-0.6,2.3-1.1c-0.4-0.5-2.1,0.1-2.1,0.1s1.7-0.3,1.8-0.9
			C45.5,92.1,42,93.2,42,93.2z"/>
		<g id="g291">
			<polygon id="polygon293" fill="#736759" points="29.4,141.7 23.1,141.7 23.1,113.5 22.1,113.5 22.1,141.7 15.9,141.7 15.8,106.2 
				22.1,106.6 29.2,106.6 			"/>
			
				<ellipse id="ellipse295" transform="matrix(-9.687764e-002 -0.9953 0.9953 -9.687764e-002 -43.7319 99.5248)" fill="#DFB38B" cx="23.3" cy="69.6" rx="10.8" ry="9.3"/>
			<path id="path297" fill="#8BA64E" d="M30,82.7c-1.3-0.7-3.5-0.8-4.9-0.5c-1.3,0.3-3.2-0.2-4.2,0c-1,0.2-5.7,0-6.2,2.1
				c-0.3,1.1-0.7,20.7,1,23.5c1.6,2.5,11.8,3.7,13.7,0C31.7,103.3,31.7,83.7,30,82.7L30,82.7z"/>
			<path id="path299" fill="#7E9344" d="M31.2,94.4c0-1.9,0.1-3.9,0-5.8c-0.4,6,1.2,13-4.1,17c-0.3,0.2-0.6,0.4-0.9,0.5
				c-0.1,0.1-0.1,0.2-0.2,0.2c-0.6,0.7-1.8,0.5-2.2-0.3c0-0.1-0.1-0.2-0.1-0.3c-0.5-0.4-0.9-1.1-1.1-1.9c-0.6-2.5-1.3-5.1-1.9-7.7
				c0,0.1-0.1,0.1-0.1,0.2c-0.6,1-1.8,0.9-2.5,0c-1.1-1.5-1.2-3.2-1-5c0.3-3,0.7-5.1-1.3-7.6c-0.1-0.1-0.2-0.3-0.2-0.4
				c-0.3,0.2-0.6,0.6-0.7,0.9c-0.3,1.1-0.7,20.7,1,23.5c1.6,2.5,11.8,3.7,13.7,0c0.6-1.3,1.2-3.9,1.6-6.8
				C31.1,98.8,31.2,96.5,31.2,94.4L31.2,94.4z"/>
			<path id="path301" fill="#DFB38B" d="M20.2,82.7c0,0,0.4,0.5,3.2,0.5c2.6,0,3.2-0.5,3.2-0.5v-5.8h-6.2v5.8H20.2z"/>
			<path id="path303" fill="#8BA64E" d="M30.6,96.4l3.1-2.3c0,0-2.3-11.4-3.7-11.4c-1.1,0.1-2.3,3.7-2.3,7
				C27.6,92.8,30.6,96.4,30.6,96.4L30.6,96.4z"/>
			<path id="path305" fill="#8BA64E" d="M39.8,96.7l0.1-2.4c0,0-5.2,0.2-6.3-0.1c-1.5-0.4-3.9,1.6-3.1,2.3
				C32.8,98.7,39.8,96.7,39.8,96.7z"/>
			<path id="path307" fill="#7E9344" d="M31.2,95c0,0.3,0,0.6-0.1,0.9l0.8-0.6c-0.4-0.4-0.6-1-0.7-1.5C31.3,94.2,31.3,94.6,31.2,95z
				"/>
			<path id="path309" fill="#7E9344" d="M32.6,95.8c-0.5-0.3-0.8-0.7-1-1.2c-0.1,0.1-0.2,0.1-0.3,0.2V95c0,0.5-0.1,0.9-0.1,1.4v0.5
				c2.8,1.4,8.7-0.2,8.7-0.2v-0.9C37.4,96.3,34.5,97,32.6,95.8L32.6,95.8z"/>
			<path id="path311" fill="#8BA64E" d="M10.9,107.2l-3.4-1.1c0,0,5.9-23.3,7.8-22.9c1.2,0.2,1.8,2.1,1.8,4
				C17.2,88.3,10.9,107.2,10.9,107.2L10.9,107.2z"/>
			<path id="path313" fill="#231F20" d="M21.6,67.1c0,0,3.6,2.4,6.1,1.5h4.8c0,0,0.7-0.7,0.5-3c-0.3-2.4-3.9-5.9-5.6-6.6
				c-6.1-2.8-11.3,1.3-12,2.5c0,0-5.4,1.3-2,11.4c1.8,5.6,6.1,5.2,6.7,6.8c0,0,1.2-1.5-0.5-3.5c-2.3-2.9,0.3-4.2,0.3-4.2
				s1.8,3.9,1.3-0.6C21.1,69.6,22.1,69.8,21.6,67.1L21.6,67.1z"/>
			<path id="path315" fill="#414142" d="M31,68.4c0.4,0,0.7-0.1,1.1-0.2c0.7-0.2,0.9-1.1,0.4-1.6c-0.7-0.6-1.3-1.5-2.2-1.7
				c-0.9-0.2-1.9-0.3-2.9-0.5c0.2-0.4,0.2-0.7-0.1-1.2c-0.3-0.5-0.7-0.7-1.2-0.8c0.3-0.1,0.7-0.3,1-0.5c0.7-0.5,0.1-1.6-0.7-1.6
				c-1.3,0-3.1,0.5-4.5,0.2c0.2-0.3,0.3-0.7,0.4-1.1c0-0.3-0.2-0.7-0.5-0.8c-0.1-0.1-0.2-0.1-0.3-0.1c1.8-0.3,3.9-0.2,6.1,0.7
				c1.7,0.8,5.4,4.2,5.6,6.6c0.2,2.2-0.5,3-0.5,3H31C30.9,68.6,30.9,68.5,31,68.4L31,68.4z"/>
			<path id="path317" fill="#414142" d="M14.5,62.1c0.1,0.4,0.2,0.7,0.6,1c0.3,0.3,0.7,0.4,1.1,0.6c0.9,0.3,0.9,1,1.2,1.8
				c0.4,1.2,1.8,1.1,2.6,2c0.7,0.8,0.8,1.9,0.9,3.1c-0.2-0.4-0.5-0.8-0.8-1.2s-1-0.4-1.3,0c-0.2,0.2-0.3,0.4-0.4,0.6
				c-0.1-0.7-0.4-1.1-1-1.5c-0.3-0.2-0.7-0.2-1,0c-0.1-1-1.5-1.1-1.8-0.1c0,0.1-0.1,0.2-0.1,0.3c-0.2-0.7-0.3-1.3-0.7-1.9
				c-0.3-0.5-0.9-0.6-1.3-0.3C12.4,63.9,13.7,62.6,14.5,62.1z"/>
			<g id="g319">
				<path id="path321" fill="#DFB38B" d="M20,72.3c0,0-1.7-1.2-1.6,1.5c0.1,2.8,1.9,2.4,2.3,1.2"/>
				<path id="path323" fill="#CF9E76" d="M20,72.3c0,0-0.1-0.1-0.3-0.1c-0.2-0.1-0.5-0.1-0.7,0c-0.3,0.1-0.4,0.5-0.4,0.9
					c-0.1,0.4,0,0.8,0,1.3c0,0.4,0.2,0.8,0.4,1.1s0.6,0.4,0.9,0.3c0.6-0.2,0.7-0.7,0.8-0.7c0,0,0,0.1-0.1,0.3
					c-0.1,0.2-0.2,0.4-0.6,0.6c-0.3,0.2-0.8,0.1-1.2-0.3c-0.3-0.3-0.5-0.8-0.5-1.3c0-0.4-0.1-0.9,0-1.3c0.1-0.4,0.2-0.9,0.6-1
					c0.4-0.2,0.7,0,0.8,0.1C19.9,72.2,20,72.3,20,72.3z"/>
			</g>
			<path id="path325" fill="#231F20" d="M31,143.8c0,0-0.5-1.9-1.5-2.1c-1-0.2-6.2,0-6.2,0s-0.4,2.1,0,2.1H31z"/>
			<path id="path327" fill="#231F20" d="M23.6,143.8c0,0-0.5-1.9-1.5-2.1c-1-0.2-6.2,0-6.2,0s-0.4,2.1,0,2.1H23.6z"/>
			<g id="g329">
				<polygon id="polygon331" fill="#231F20" points="8.4,119.5 6.3,109.8 7.4,109.8 8,108.4 6,107.8 5.5,109.1 7.6,119.5 				"/>
				<polygon id="polygon333" fill="#293271" points="19.5,121.7 15.4,119.9 14.9,126.3 17.4,128.9 				"/>
				<polygon id="polygon335" fill="#2A398D" points="14.9,126.4 15.4,119.9 0,120.8 3,127.4 				"/>
				<polygon id="polygon337" fill="#2A398D" points="19.7,120.2 15.4,117.9 15.4,120 19.7,121.8 				"/>
				<polygon id="polygon339" fill="#4153A1" points="19.7,121.8 19.7,120.2 3.6,121.5 3.6,123.4 				"/>
				<polygon id="polygon341" fill="#4153A1" points="17.4,129 19.7,121.8 3.6,123.4 5.9,130.4 				"/>
				<polygon id="polygon343" fill="#3D4C9B" points="15.4,120 15.4,117.9 0,118.8 0,120.8 				"/>
				<polygon id="polygon345" fill="#7A86C2" points="0,118.8 3.6,121.5 3.6,123.4 0,120.8 				"/>
				<polygon id="polygon347" fill="#5C6BB0" points="3.6,123.4 0,120.8 3,127.4 5.9,130.4 				"/>
				<path id="path349" fill="#231F20" d="M8.5,108.9l4.7,1l0.7,11.7h-0.5l-1-10.7l-3.3-0.8C9.1,110.3,8.7,109.3,8.5,108.9L8.5,108.9
					z"/>
				<circle id="circle351" fill="#231F20" cx="13.7" cy="121.8" r="0.3"/>
				<path id="path353" fill="#434342" d="M12.9,110.2l-0.3,0.4l-3.3-0.8c0,0,0.9-0.1,1.4,0C11.3,109.9,12.9,110.2,12.9,110.2
					L12.9,110.2z"/>
				<path id="path355" fill="#434342" d="M12.9,111.3l0.5,8C13.5,119.5,12.6,112.3,12.9,111.3z"/>
				<path id="path357" fill="#2A398D" d="M19.7,121.8l-16.1,1.6C3.6,123.4,17.6,122.3,19.7,121.8z"/>
			</g>
			<path id="path359" fill="#DFB38B" d="M10.7,107.1c0,0,0.1,2,0.3,2.3l-1-0.2c0,0,0.1-0.5-0.5-0.4s-1,1.4-0.2,1.5l1.1,0.3
				c0,0-0.7,0.9-2.3,0.7c-2.1-0.3-2.5-2.6-1-3.8c0.9-0.6,1-1.3,1-1.3L10.7,107.1L10.7,107.1z"/>
			<path id="path361" fill="#231F20" d="M20.1,79.9c0,0-1.1,2.9-2.9,3.1c-1.8,0.2-3-2.1-1.4-3c1.6-0.9-2,0.6-1.3-1.5s0-3.1,0-3.1
				S21.3,76.5,20.1,79.9L20.1,79.9z"/>
			<path id="path363" fill="#3CAF73" d="M21.7,69c0,0-3.3-3.3-3.4-2.1C18.2,68,23.4,71.7,21.7,69z"/>
			<path id="path365" fill="#3CAF73" d="M21.7,70.7c0,0-3.3-3.3-3.4-2.1C18.2,69.7,23.4,73.4,21.7,70.7z"/>
		</g>
	</g>
	<g id="g367">
		<path id="path369" fill="#D3302F" d="M145.5,64.3l1.7-1.7c0,0,3.4,3.8,4.4,4.4c1.3,0.8,1.5,3.9,0.4,3.8
			C149,70.7,145.5,64.3,145.5,64.3L145.5,64.3z"/>
		<g id="g371">
			<g id="g373">
				<polygon id="polygon375" fill="#21242D" points="160.4,121.5 166.6,121.5 166.6,93.8 167.6,93.7 167.6,121.5 173.7,121.5 
					173.8,86.5 167.6,87 160.6,87 				"/>
				<path id="path377" fill="#231F20" d="M158.8,123.6c0,0,0.5-1.9,1.5-2.1c1-0.2,6.1,0,6.1,0s0.4,2.1,0,2.1H158.8z"/>
				<path id="path379" fill="#231F20" d="M166.1,123.6c0,0,0.5-1.9,1.5-2.1c1-0.2,6.1,0,6.1,0s0.4,2.1,0,2.1H166.1z"/>
			</g>
			
				<ellipse id="ellipse381" transform="matrix(-9.693114e-002 0.9953 -0.9953 -9.693114e-002 232.6875 -110.1712)" fill="#DFB38B" cx="166.3" cy="50.5" rx="10.6" ry="9.1"/>
			<path id="path383" fill="#B71F1E" d="M158.8,63.8c1.2-0.7,4.5-1.2,5.8-0.9c1.3,0.3,3.1-0.2,4.1,0s5.6,0,6.1,2
				c0.3,1,0.7,20.4-1,23.1c-1.6,2.5-11.6,3.6-13.4,0C158.2,83.7,157.2,64.7,158.8,63.8z"/>
			<path id="path385" fill="#C72928" d="M174.8,64.8c-0.4-1.5-2.9-1.8-4.5-1.9c-0.5,1.4-1.6,2.4-3.5,2.8c-0.1,0-0.3,0-0.4,0.1
				c-0.3,0.6,0,1.6,0.4,2.9c1,0.9,1.8,2.1,1.3,3.5c0.4,2.3-1.1,4.1-3,5.3c0,0-0.1,0-0.1,0.1c0.8,1.4,2.9,2.9,3.5,4
				c1,1.7,1.6,3.9,0.1,5.6c-2.8,3.3-6.9,1.2-9.4-1.6c0.3,1.1,0.6,2,0.9,2.8c1.8,3.6,11.8,2.5,13.4,0C175.6,85.3,175.1,66,174.8,64.8
				L174.8,64.8z"/>
			<path id="path387" fill="#DFB38B" d="M169.4,63.4c0,0-0.4,0.5-3.1,0.5c-2.7,0-3.1-0.5-3.1-0.5v-5.7h6.2V63.4z"/>
			<path id="path389" fill="#D3302F" d="M152,70.8l-0.4-3.8c0,0,6.3-2.1,7.1-3.1c0.7-0.8,0,5.1,0,6.2C158.7,71.5,152,70.8,152,70.8
				L152,70.8z"/>
			<path id="path391" fill="#DFB38B" d="M146.4,60.3c0,0,0-1.5,0.2-1.6c0.9-0.3,0.6,3.9,0.6,3.9l-1.7,1.7c0,0-2.3-2.4-2.9-4.3
				c0,0,0.1-0.9,1.2,0.9c0,0-1.1-1.5-0.8-1.9c0.4-0.5,1.4,1.4,1.4,1.4s-1.4-2.3-0.8-2.4c0.6-0.1,1.4,1.6,1.4,1.6s-0.9-1.4-0.6-1.9
				C144.8,57,146.4,60.3,146.4,60.3L146.4,60.3z"/>
			<path id="path393" fill="#5A4B43" d="M168.1,48c0,0-3.6,2.4-6,1.5h-4.7c0,0-0.7-0.7-0.5-3c0.3-2.4,3.9-5.8,5.6-6.5
				c6-2.6,11.2,1.3,11.8,2.5c0,0,5.3,1.3,2,11.2c-1.8,5.5-6,5.2-6.6,6.7c0,0-1.2-1.4,0.4-3.5c2.3-2.9-0.3-4.1-0.3-4.1
				s-1.8,3.9-1.3-0.6C168.6,50.6,167.6,50.7,168.1,48z"/>
			<path id="path395" fill="#6C5D57" d="M162.4,40.1c-1.7,0.7-5.3,4.1-5.6,6.5c-0.1,0.7-0.1,1.2,0,1.7c1-0.3,2.3,0.1,3.2-0.5
				c0.2-0.8,0.5-2.1,1.3-2.4c0.5-0.2,0.9-0.4,1.5-0.4c1.4-0.1,0.8-0.4,0.8-1.1c0-2,2.2-1.7,3.9-1.8c-0.3-0.4-0.1-1.1,0.4-1.2
				c1.2-0.5,2.3-0.5,3.6-0.3C169.2,39.3,166,38.6,162.4,40.1L162.4,40.1z"/>
			<path id="path397" fill="#6C5D57" d="M170.9,55.9c0.1,0,0.2-0.1,0.3,0c0.1-0.3,0.1-0.5,0.2-0.8c0.2-0.9,1.6-0.9,1.8,0
				c0.1,0.4,0.4,1.1,0,1.3c0.3-0.2,0.7-0.5,1-0.7c0.8-0.7,1.6-1.5,1.4-2.8c-0.1-0.7,0.6-1,1.1-0.8c0.2-0.6,0.3-1.3,0.4-1.8
				c-0.4,0.3-1,0.1-1.2-0.3c-0.2,0.2-0.4,0.4-0.8,0.5c-0.2,0.1-0.5,0.1-0.6,0.1c-0.2,0.1-0.4,0.3-0.6,0.3c-0.4,0.1-0.8,0-1.2-0.3
				c-0.4,0.1-0.9,0.3-1.3,0.5c-0.4,0.6-0.8,1.2-1.2,1.7c-0.1,0.2-0.3,0.3-0.5,0.4c-0.2,0.2-0.3,0.5-0.3,1c0.3-0.4,0.6-1,0.6-1
				S171.6,54.1,170.9,55.9L170.9,55.9z"/>
			<g id="g399">
				<path id="path401" fill="#DFB38B" d="M169.7,53.1c0,0,1.6-1.2,1.6,1.5c-0.1,2.8-1.9,2.4-2.2,1.2"/>
				<path id="path403" fill="#CF9E76" d="M169.7,53.1c0,0,0.1-0.1,0.3-0.2c0.2-0.1,0.5-0.2,0.8-0.1c0.4,0.2,0.5,0.6,0.6,1
					s0.1,0.9,0,1.3c-0.1,0.5-0.2,0.9-0.5,1.2c-0.3,0.4-0.8,0.4-1.1,0.3c-0.3-0.1-0.5-0.4-0.6-0.6s-0.1-0.3-0.1-0.3s0.1,0.5,0.7,0.7
					c0.3,0.1,0.7,0,0.9-0.3c0.2-0.3,0.4-0.7,0.4-1.1c0.1-0.4,0.1-0.9,0-1.2c0-0.4-0.1-0.8-0.4-0.9c-0.3-0.1-0.5-0.1-0.7,0
					C169.8,53,169.7,53.1,169.7,53.1z"/>
			</g>
			<path id="path405" fill="#C72928" d="M178.7,87.6l3.3-1c0,0-5.8-22.9-7.7-22.6c-1.2,0.2-1.7,2.1-1.7,3.9
				C172.5,68.9,178.7,87.6,178.7,87.6z"/>
			<path id="path407" fill="#D3302F" d="M178.9,84.3c0-1.1,0.3-2.6-0.1-3.8c-0.3-1.1-1.2-1.5-1.8-2.3c-2.5-3.4-4.1-8-4.3-12.3
				c-0.2,0.6-0.2,1.3-0.2,2c0,1.1,6.2,19.8,6.2,19.8l0.7-0.2C179,86.4,178.9,85.4,178.9,84.3z"/>
			<path id="path409" fill="#DFB38B" d="M178.8,87.6c0,0-0.6,1.2-1,1.7c-0.4,0.5,1.1,0,1.1,0s0.7-0.2,0.9-0.1
				c0.6,0.2,1.5,1.1,0.8,1.4c-0.6,0.3-1.6,0.5-1.6,0.5s0.8,0.8,2.4,0.6c2-0.3,2.4-2.6,1-3.7c-0.9-0.6-1-1.2-1-1.2L178.8,87.6
				L178.8,87.6z"/>
		</g>
	</g>
	<g id="g411">
		<g id="g413">
			<polygon id="polygon415" fill="#F28E1C" points="158.5,39.5 161.8,37.4 161.8,10.2 158.5,12.5 			"/>
			<polygon id="polygon417" fill="#BDBDBC" points="158.5,12.5 161.8,10.2 144,10.2 144,12.5 			"/>
			<rect id="rect419" x="144" y="12.5" fill="#F59E19" width="14.6" height="26.9"/>
		</g>
		<g id="g421">
			<polygon id="polygon423" fill="#3D4C9B" points="153.1,43.3 156.3,41.3 156.3,14.2 153.1,16.6 			"/>
			<polygon id="polygon425" fill="#BDBDBC" points="153.1,16.6 156.3,14.2 138.6,14.2 138.6,16.6 			"/>
			<rect id="rect427" x="138.6" y="16.6" fill="#5C6BB0" width="14.6" height="26.8"/>
		</g>
		<g id="g429">
			<polygon id="polygon431" fill="#C72928" points="147.4,46.7 151,44.6 151,14.5 147.4,17.1 			"/>
			<polygon id="polygon433" fill="#BDBDBC" points="147.4,17.1 151,14.5 131.3,14.5 131.3,17.1 			"/>
			<rect id="rect435" x="131.3" y="17.1" fill="#E63A36" width="16.1" height="29.6"/>
		</g>
		<g id="g437">
			<polygon id="polygon439" fill="#568C31" points="139.9,50.5 143.4,48.3 143.4,18.4 139.9,20.8 			"/>
			<polygon id="polygon441" fill="#BDBDBC" points="139.9,20.8 143.4,18.4 123.8,18.4 123.8,20.8 			"/>
			<rect id="rect443" x="123.8" y="20.8" fill="#7DB341" width="16.1" height="29.6"/>
		</g>
		<g id="g445">
			<polygon id="polygon447" fill="#3D4C9B" points="134.5,53.4 137.2,51.7 137.2,28.5 134.5,30.4 			"/>
			<polygon id="polygon449" fill="#BDBDBC" points="134.5,30.4 137.2,28.5 122,28.5 122,30.4 			"/>
			<rect id="rect451" x="122" y="30.4" fill="#5C6BB0" width="12.4" height="23"/>
		</g>
		<g id="g453">
			<polygon id="polygon455" fill="#F28E1C" points="128.2,57.9 131.5,55.9 131.5,27.4 128.2,29.7 			"/>
			<polygon id="polygon457" fill="#BDBDBC" points="128.2,29.7 131.5,27.4 113,27.4 113,29.7 			"/>
			<rect id="rect459" x="113" y="29.7" fill="#F59E19" width="15.3" height="28.1"/>
		</g>
		<g id="g461">
			<polygon id="polygon463" fill="#D84417" points="119.2,62.9 122.5,61 122.5,33.9 119.2,36.1 			"/>
			<polygon id="polygon465" fill="#BDBDBC" points="119.2,36.1 122.5,33.9 104.7,33.9 104.7,36.1 			"/>
			<rect id="rect467" x="104.7" y="36.1" fill="#E74B1B" width="14.6" height="26.8"/>
		</g>
		<g id="g469">
			<polygon id="polygon471" fill="#568C31" points="112.6,67.8 115.2,66.2 115.2,43.5 112.6,45.3 			"/>
			<polygon id="polygon473" fill="#BDBDBC" points="112.6,45.3 115.2,43.5 100.4,43.5 100.4,45.3 			"/>
			<rect id="rect475" x="100.4" y="45.3" fill="#7DB341" width="12.2" height="22.5"/>
		</g>
		<g id="g477">
			<polygon id="polygon479" fill="#482682" points="104.2,72.9 107.8,70.8 107.8,40.8 104.2,43.3 			"/>
			<polygon id="polygon481" fill="#BDBDBC" points="104.2,43.3 107.8,40.8 88.2,40.8 88.2,43.3 			"/>
			<rect id="rect483" x="88.2" y="43.3" fill="#7B3B8F" width="16.1" height="29.6"/>
		</g>
		<g id="g485">
			<polygon id="polygon487" fill="#C31A5C" points="95.5,78.2 98.6,76.3 98.6,49.7 95.5,51.9 			"/>
			<polygon id="polygon489" fill="#BDBDBC" points="95.5,51.9 98.6,49.7 81.2,49.7 81.2,51.9 			"/>
			<rect id="rect491" x="81.2" y="51.9" fill="#D81D61" width="14.3" height="26.3"/>
		</g>
		<g id="g493">
			<polygon id="polygon495" fill="#3D4C9B" points="87.6,82.1 90.4,80.4 90.4,57.1 87.6,59.1 			"/>
			<polygon id="polygon497" fill="#BDBDBC" points="87.6,59.1 90.4,57.1 75.1,57.1 75.1,59.1 			"/>
			<rect id="rect499" x="75.1" y="59.1" fill="#5C6BB0" width="12.4" height="23"/>
		</g>
	</g>
	<polygon id="polygon501" fill="#8E6F64" points="130.7,4.9 170.1,4.9 81.9,52 38.4,52 	"/>
	<rect id="rect503" x="38.4" y="52" fill="#8E6F64" width="43.5" height="109.6"/>
</g>
<g id="Ebene_2" transform="translate(0 .000037383)">
	<g id="g506">
		<g id="g508">
			<g id="g510">
				<g id="g512">
					<path id="path514" fill="#53BAD1" d="M68,133.4l-3.8-1.2c0,0,4.7-10,5-12.2c0.2-1.1,1.1,4.8,0.8,6.9
						C69.9,128.3,68,133.4,68,133.4L68,133.4z"/>
					<path id="path516" fill="#53BAD1" d="M59.5,136.4l1.3-2.1c0,0,2.8-1.8,3.7-2.5c1.3-0.9,4.2,0.2,3.8,1.2
						C66.8,135.8,59.5,136.4,59.5,136.4z"/>
					<g id="g518">
						<path id="path520" fill="#434342" d="M60.8,134.2c0,0,0.2-0.1,0.3-0.2c0.1-0.1-0.3-0.9-0.3-0.9l-2.5-5.9c0,0-0.1-0.4-0.3-0.5
							c-0.2-0.2-0.3-0.2-0.7-0.2c-0.1,0-0.9,0-1.6-0.1c-0.7,0-1.9,0.1-2,0.2c-0.2,0.2-0.1,0.2-0.1,0.2L58,133L60.8,134.2L60.8,134.2
							z"/>
						<path id="phone_1_" fill="#E0E0E0" d="M56.4,134l-3.2-7c-0.1-0.2,0-0.3,0.2-0.3c0.4,0,1.1-0.1,1.9-0.1c0.2,0,1.7,0.1,2,0.1
							c0.2,0,0.4,0.2,0.5,0.3l3.2,7c0,0.1,0,0.2-0.1,0.3c-0.3,0.1-0.9,0.2-1.9,0.2c-1,0-1.7-0.1-2.1-0.2
							C56.7,134.2,56.4,134.1,56.4,134L56.4,134z"/>
						<path id="path523" fill="#1F1F1F" d="M54.9,127.3c0.1,0.2,0,0.4-0.3,0.4c-0.2,0-0.5-0.2-0.6-0.4c-0.1-0.2,0-0.4,0.3-0.4
							C54.5,127,54.8,127.1,54.9,127.3z"/>
					</g>
					<path id="path525" fill="#DFB38B" d="M59.5,132.4c0,0-0.3-1.3-0.1-1.5c0.7-0.5,1.3,3.5,1.3,3.5l-1.2,2c0,0-2.6-1.7-3.5-3.3
						c0,0-0.1-0.8,1.2,0.5c0,0-1.3-1.1-1.1-1.5c0.3-0.6,1.5,1,1.5,1s-1.7-1.8-1.2-2c0.5-0.2,1.6,1.2,1.6,1.2s-1.1-1.1-1-1.6
						C57.4,129.7,59.5,132.4,59.5,132.4L59.5,132.4z"/>
				</g>
				<polygon id="polygon527" fill="#E6E7E9" points="71.1,178.5 77.4,178.5 77.4,150.2 78.6,150.1 78.6,178.5 84.8,178.5 
					84.9,142.8 78.5,143.3 71.2,143.2 				"/>
				<path id="path529" fill="#D1D3D4" d="M71.1,178.5l0.1-35.5l7.2,0.1l6.4-0.4l-0.1,31.8c-0.7-3.5-0.4-7.1-0.3-10.6
					c0.1-3.1,0.5-6.2,0.2-9.3c-0.1-1.8-0.5-3.7-2.2-4.5c-0.5-0.2-1.1-0.2-1.5,0c-0.7,0-1.3,0.5-1.3,1.4c0.1,4.1-0.8,8.1-0.7,12.3
					c0,3.4,0.1,6.6-0.2,10c-0.1,0.8-0.1,1.7,0,2.6c-0.1-0.1-0.1-0.3-0.2-0.4v-26l-1.1,0.1v22.7c-0.5-1.8-0.8-3.7-0.9-5.5
					c-0.1-4.8,0.3-9.5,0.4-14.3c0-0.6-0.3-0.9-0.6-1.2c-0.1-0.3-0.3-0.6-0.5-0.9c-0.6-0.7-1.8-0.4-2.3,0.3
					c-2.8,4.6-1.3,10.3-1.4,15.4c-0.1,2.6-0.2,5.1-0.6,7.6c-0.2,1.4-0.4,2.9,0.2,4.2h-0.4v0.1L71.1,178.5L71.1,178.5z"/>
				
					<ellipse id="ellipse531" transform="matrix(-9.692419e-002 0.9953 -0.9953 -9.692419e-002 190.0073 39.3964)" fill="#DFB38B" cx="77.1" cy="105.9" rx="10.9" ry="9.3"/>
				<path id="path533" fill="#40ADC7" d="M69.6,119.5c1.3-0.7,4.6-1.2,5.9-0.9s3.2-0.2,4.2,0c1,0.2,5.7,0,6.2,2.1
					c0.3,1.1,0.7,20.9-1,23.7c-1.6,2.6-11.9,3.7-13.8,0C68.9,139.8,67.9,120.5,69.6,119.5L69.6,119.5z"/>
				<path id="path535" fill="#3EA7B7" d="M70.6,129.4c1.2,1.5,4.1,1.2,5.7,1.7c2.1,0.7,4.6-2.1,5.8-3.4c1.1-1.2,2-2.4,2.9-3.8
					c0,1.5-0.3,3.1-0.5,4.7c-0.3,2.1,0.1,4.8-0.7,6.9c-1.4,4.1-7.3,6-11.1,4.1c-0.5-0.2-0.9-0.2-1.3,0c-0.2-0.5-0.4-1.1-0.6-1.7
					c-0.9-3.4-1.1-6.8-1.1-10.3C69.8,128.2,70.1,128.8,70.6,129.4L70.6,129.4z"/>
				<path id="path537" fill="#3EA7B7" d="M72.4,145.5c0.7,0.3,1.3,0.6,2,0.8C73.6,146.1,72.9,145.8,72.4,145.5z"/>
				<path id="path539" fill="#DFB38B" d="M80.4,119c0,0-3.6,7.3-4.5,6.8c-1-0.4-1.8-6.8-1.8-6.8v-5.9h6.3V119z"/>
				<path id="path541" fill="#BCBEC0" d="M69.6,180.6c0,0,0.5-1.9,1.5-2.1c1-0.2,6.3,0,6.3,0s0.4,2.1,0,2.1H69.6z"/>
				<path id="path543" fill="#BCBEC0" d="M76.9,180.6c0,0,0.5-1.9,1.5-2.1c1-0.2,6.3,0,6.3,0s0.4,2.1,0,2.1H76.9z"/>
				<g id="g545">
					<path id="path547" fill="#DFB38B" d="M80.7,108.6c0,0,1.7-1.2,1.6,1.6s-1.9,2.4-2.3,1.3"/>
					<path id="path549" fill="#CF9E76" d="M80.7,108.6c0,0,0.1-0.1,0.3-0.1c0.2-0.1,0.5-0.1,0.7,0c0.3,0.1,0.4,0.5,0.4,0.9
						c0.1,0.4,0,0.8,0,1.3c0,0.4-0.2,0.9-0.4,1.1c-0.2,0.3-0.6,0.4-0.9,0.3c-0.6-0.2-0.7-0.8-0.8-0.7c0,0,0,0.1,0.1,0.3
						c0.1,0.2,0.3,0.4,0.6,0.6c0.3,0.2,0.9,0.1,1.2-0.3c0.3-0.3,0.5-0.8,0.5-1.3c0-0.4,0.1-0.9,0-1.3c-0.1-0.4-0.2-0.9-0.6-1
						c-0.4-0.2-0.7,0-0.8,0.1C80.8,108.6,80.7,108.6,80.7,108.6L80.7,108.6z"/>
				</g>
				<path id="path551" fill="#5A4B43" d="M72,100.5c0,0,0.6,1,3.3,3.2c2.4,1.9,2.5,17.1,1.4,20.2c0,0,1,0.7,2,0
					c1.5-1,2.2-1.8,2.9-2.4c1-1.2,2-1.9,3.6-1.9c1.4,0,2.4-4.7,1.8-7.2s0.4-5.7-0.7-11.2c-1.1-5.5-9.1-8.7-14.5-4.1
					c0,0-7.6,4.8-2.8,14.6c0,0-0.7-1-1-3.2c-0.3-2.1-0.2-5.2,1.2-5.8C71.6,101.7,72,100.5,72,100.5z"/>
				<path id="path553" fill="#5A4B43" d="M67.7,107.4c0,0,0.4,7,1.5,9.4c1.2,2.3,1.8,5.7,1.8,5.7s0.8-1.2,1.5-2.1
					c0.8-1,1.5-0.6,1.5-1.5v-2.4c0,0-5.1-1.5-6.2-8.9h-0.2L67.7,107.4L67.7,107.4z"/>
				<g>
					<path id="path555" fill="#695952" d="M71.9,99.9c0,0,2.5-4.1,5.3-4.7c0,0-3.3,0.6-4.4,1.8h0.5c0,0-1.4,0.2-1.8,0.8
						c0,0,1.3-0.5,1.9-0.5c0,0-1.6,0.5-2.2,1.1c0,0,0.8-0.4,1.4-0.3c0,0-1.9,1-2.5,1.9c0,0,0.6-0.7,1.4-0.6c0,0-1.4,1.5-2.4,2.1
						C69.1,101.4,71.6,100.4,71.9,99.9L71.9,99.9z"/>
					<path id="path557" fill="#695952" d="M72.6,99.6c0,0,3-4.8,5.8-4.5c2.8,0.3,4.5,1.8,4.5,1.8s-2.5-1.5-4.8-1.4c0,0,1.7,0,2.8,1
						c0,0-1.9-0.8-3.7-0.7l1.8,0.5c0,0-2.4-0.5-3.4-0.1c-0.8,0.4,1.2-0.4,4,0.8c0,0-3.2-0.5-4.2-0.4c0,0,1.5,0.2,1.7,0.4
						c0.2,0.3-1.4-0.3-2.2,0c-0.8,0.3,1.6,0.1,2.2,1.1c0,0-1-0.4-2-0.5s3,1.2,3.6,1.9c0,0-3.3-1.6-4.7-1.5c0,0,3,1.1,3.5,1.9
						c0,0-2.6-1.4-3.5-1.4l2.6,1.7c0,0-2.6-1.3-2.8-1.3c-0.1,0,1.1,1.6,1.1,1.6s-1.6-1.1-1.9-0.9c-0.3,0.2,0.6,1.9,1.4,2.2
						C74.6,102,73.2,101.4,72.6,99.6z"/>
					<path id="path559" fill="#695952" d="M76.3,103.2c0,0,2.1,4.5,2,7.5s-0.2,6.5-0.2,6.5s0.5-3.2,0.5-4.1c0-1,0-5-0.5-6.2
						C77.5,105.7,76.3,103.2,76.3,103.2L76.3,103.2z"/>
					<path id="path561" fill="#695952" d="M79.8,107.4c0,0-0.6,7.9-0.3,9.2c0.3,1.2,0.3-5.3,0.9-7c0.7-1.8,1,3.1,1.1,4.1
						c0.1,1,0.5-2.5,0.6-2.2c0.2,0.3,0.5,1.8,0.5,1.8s0.3-3.5,0.5-3c0.2,0.6,0.2,2.3,0.4,1.7c0.1-0.5,0.3-2.2,0.5-1.5
						c0.2,0.7,0.4,1.9,0.5,1.5s0.1-3.1,0.5-1.4s0.5,3.2,0.6,1.6c0.1-1.5,0.7-6.9,0-9.5c-0.7-2.4,0.4,2.1,0,4.9s-0.8-1.6-0.9-2.4
						c-0.2-0.9,0.3,2.8-0.4,3.8c-0.8,1,0-4.8-0.1-5.7c-0.1-0.9-0.3,6.6-0.7,6.7c-0.3,0.1-1.2-4.3-1.2-4.3s-0.2,5.1-0.6,5.2
						c-0.4,0.1-0.4-3.2-0.5-3.4c-0.1-0.1-1.1,1.2-1.1,1.3C80,109.2,79.8,107.4,79.8,107.4L79.8,107.4z"/>
					<path id="path563" fill="#695952" d="M86.6,114.1c0,0,0.3,4.1-1.1,4.8c-1.3,0.7,0.5-1.3,0.5-1.7c0-0.5-1.3,1.2-1.3,1.2l0.3-1
						l-1.1,1.6c0,0,0-0.9-0.2-0.6c-0.2,0.3-1,1.3-1,1.3s0.3-1.5-0.1-1c-0.3,0.5-0.7,1.3-0.9,1.5c0,0-1.1,2.4-2.6,3.1l0.6-1.2
						c0,0-0.3,1.1-1.3,1.6c-1,0.5,1.1-2,1.1-2s-1,2.4-2.8,2.2c0,0,1.3-0.2,1.9-1.9c0.6-1.7,0.9-0.7,1.1-1.2c0.2-0.5,0.4,0,0.4,0.3
						c0,0.3,0.3,0.5,1.3-2.1v0.7c0,0,1.4-1.7,1.7-2.2c0.3-0.5-0.4,1.3-0.4,1.3s1.1-1.5,1.1-1.3c0,0.1-0.3,0.9-0.1,0.9
						c0.2,0,1-1.5,1.1-1.7c0.1-0.2,0,0.5,0,0.5S86.6,116.7,86.6,114.1L86.6,114.1z"/>
					<path id="path565" fill="#695952" d="M68.6,111.9c0,0,0.4,4.3,1.5,5.7c0.5,0.6,0.7,1.4,0.9,2.2c0.2,1,0.1,1.8,0.1,1.8l0.3-1.2
						c0.1-0.4,0.3,0,0.3,0l0.2-0.7l0.3,0.2v-0.5c0,0-0.4-1.9-0.8-2.3c-0.4-0.5,0.6,2.2,0.4,2.3c-0.2,0.1-0.7-1.1-0.7-1.1
						S69.6,116.9,68.6,111.9z"/>
				</g>
				<g id="g567">
					<polygon id="polygon569" fill="#231F20" points="78.5,140.3 80.5,130.7 79.4,130.7 78.9,129.2 80.8,128.7 81.3,129.9 
						79.2,140.3 					"/>
					<g id="g571">
						<g id="g573">
							<path id="path575" fill="#53BAD1" d="M80.4,134l-2.6-2.9c0,0,5.1-11,6.2-11.5c1.6-0.8,3.7,3.7,0.9,9.3
								C84.3,130.3,80.4,134,80.4,134z"/>
							<path id="path577" fill="#53BAD1" d="M71.1,132.8l0.3-2.4c0,0,5.1,1,6.3,0.8c1.6-0.2,3.6,2.2,2.6,2.9
								C77.8,135.9,71.1,132.8,71.1,132.8z"/>
							<path id="path579" fill="#DFB38B" d="M69.4,128.9c0,0-0.9-1.2-0.8-1.4c0.5-0.8,2.9,2.9,2.9,2.9l-0.4,2.4c0,0-3.4-0.5-5-1.7
								c0,0-0.4-0.8,1.5,0c0,0-1.8-0.5-1.8-1c0-0.7,2,0.3,2,0.3s-2.5-1-2.1-1.5c0.5-0.5,2.1,0.5,2.1,0.5s-1.6-0.6-1.7-1.2
								C66,127.2,69.4,128.9,69.4,128.9L69.4,128.9z"/>
						</g>
					</g>
					<polygon id="polygon581" fill="#82171D" points="67.2,142.7 71.4,140.8 71.8,147.4 69.3,149.9 					"/>
					<polygon id="polygon583" fill="#A41923" points="71.8,147.4 71.3,140.8 86.9,141.8 84,148.5 					"/>
					<polygon id="polygon585" fill="#A41923" points="67,141.2 71.4,138.9 71.4,140.8 67,142.8 					"/>
					<polygon id="polygon587" fill="#E52629" points="67,142.8 67,141.2 83.2,142.5 83.2,144.5 					"/>
					<polygon id="polygon589" fill="#E52629" points="69.4,150.1 67,142.8 83.2,144.5 81,151.4 					"/>
					<polygon id="polygon591" fill="#B9181F" points="71.3,140.8 71.4,138.9 86.9,139.8 86.9,141.8 					"/>
					<polygon id="polygon593" fill="#EA525E" points="86.9,139.8 83.2,142.5 83.2,144.5 86.9,141.8 					"/>
					<polygon id="polygon595" fill="#DB4A55" points="83.2,144.5 86.9,141.8 84,148.5 81,151.4 					"/>
					<path id="path597" fill="#231F20" d="M78.3,129.7l-4.7,1l-0.7,11.8h0.5l1-10.8l3.3-0.8C77.7,131.2,78.1,130.2,78.3,129.7z"/>
					<circle id="circle599" fill="#231F20" cx="73.2" cy="142.8" r="0.3"/>
					<path id="path601" fill="#414142" d="M73.9,131.2l0.3,0.4l3.3-0.9c0,0-0.9-0.1-1.4,0C75.5,130.8,73.9,131.2,73.9,131.2z"/>
					<path id="path603" fill="#414142" d="M73.9,132.3l-0.6,8.1C73.4,140.3,74.2,133.2,73.9,132.3z"/>
					<path id="path605" fill="#A41923" d="M67,142.8l16.2,1.6C83.2,144.5,69.2,143.3,67,142.8z"/>
				</g>
				<polygon id="polygon607" fill="#D1D3D4" points="84.8,178.5 78.6,178.5 78.2,176.7 85.1,176.7 				"/>
				<polygon id="polygon609" fill="#D1D3D4" points="77.4,178.5 71.1,178.5 70.8,176.7 77.7,176.7 				"/>
			</g>
		</g>
	</g>
</g>
</svg>
