<?xml version="1.0" encoding="utf-8"?>
<!-- Generator: Adobe Illustrator 19.0.0, SVG Export Plug-In . SVG Version: 6.00 Build 0)  -->
<svg version="1.1" id="Ebene_1" xmlns="http://www.w3.org/2000/svg" xmlns:xlink="http://www.w3.org/1999/xlink" x="0px" y="0px"
	 viewBox="0 0 200 200" enable-background="new 0 0 200 200" xml:space="preserve">
<g id="Ebene_2_1_">
	<g>
		<path fill="#E63B37" d="M20.1,60.7c-2.2-0.5-4.3,0.9-4.8,3.1c-0.6,3,2.4,8.2,2.4,8.2s4.9-3.6,5.5-6.5
			C23.7,63.3,22.3,61.2,20.1,60.7z M19,66.1c-0.8-0.2-1.3-0.9-1.1-1.7c0.2-0.8,0.9-1.3,1.7-1.1c0.8,0.2,1.3,0.9,1.1,1.7
			C20.5,65.8,19.8,66.3,19,66.1z"/>
		<path fill="#FFFFFF" d="M19,66.1c-0.8-0.2-1.3-0.9-1.1-1.7c0.2-0.8,0.9-1.3,1.7-1.1c0.8,0.2,1.3,0.9,1.1,1.7
			C20.5,65.8,19.8,66.3,19,66.1z"/>
	</g>
	<g>
		<path fill="#E63B37" d="M39.1,62.5c-2.4-0.3-4.6,1.5-4.8,3.9c-0.4,3.3,3.4,8.6,3.4,8.6s4.9-4.3,5.3-7.6
			C43.2,64.9,41.5,62.8,39.1,62.5z M38.4,68.4c-0.9-0.1-1.5-0.9-1.4-1.7c0.1-0.9,0.9-1.5,1.7-1.4c0.9,0.1,1.5,0.9,1.4,1.7
			C40.1,67.9,39.3,68.5,38.4,68.4z"/>
		<path fill="#FFFFFF" d="M38.4,68.4c-0.9-0.1-1.5-0.9-1.4-1.7c0.1-0.9,0.9-1.5,1.7-1.4c0.9,0.1,1.5,0.9,1.4,1.7
			C40.1,67.9,39.3,68.5,38.4,68.4z"/>
	</g>
	<g>
		<path fill="#E63B37" d="M40.9,75.1c-2,0.5-3.1,2.6-2.6,4.5c0.7,2.7,5.4,5.6,5.4,5.6s2.5-4.9,1.7-7.6
			C44.9,75.7,42.8,74.5,40.9,75.1z M42.2,79.9c-0.7,0.2-1.4-0.2-1.6-0.9s0.2-1.4,0.9-1.6s1.4,0.2,1.6,0.9
			C43.3,79,42.9,79.7,42.2,79.9z"/>
		<path fill="#FFFFFF" d="M42.2,79.9c-0.7,0.2-1.4-0.2-1.6-0.9s0.2-1.4,0.9-1.6s1.4,0.2,1.6,0.9C43.3,79,42.9,79.7,42.2,79.9z"/>
	</g>
	<g>
		<path fill="#E63B37" d="M177.7,116c-2.2,0.4-3.6,2.5-3.1,4.7c0.6,3,5.4,6.5,5.4,6.5s3.1-5.2,2.5-8.1
			C182,116.9,179.9,115.5,177.7,116z M178.7,121.3c-0.8,0.2-1.5-0.3-1.7-1.1c-0.2-0.8,0.3-1.5,1.1-1.7c0.8-0.2,1.5,0.3,1.7,1.1
			S179.5,121.2,178.7,121.3z"/>
		<path fill="#FFFFFF" d="M178.7,121.3c-0.8,0.2-1.5-0.3-1.7-1.1c-0.2-0.8,0.3-1.5,1.1-1.7c0.8-0.2,1.5,0.3,1.7,1.1
			S179.5,121.2,178.7,121.3z"/>
	</g>
	<g>
		<path fill="#E63B37" d="M98.4,49.7c-2.4,0-4.4,2-4.4,4.4c0,3.3,4.4,8.2,4.4,8.2s4.4-4.9,4.4-8.2C102.8,51.7,100.8,49.7,98.4,49.7z
			 M98.4,55.7c-0.9,0-1.6-0.7-1.6-1.6s0.7-1.6,1.6-1.6s1.6,0.7,1.6,1.6S99.3,55.7,98.4,55.7z"/>
		<path fill="#FFFFFF" d="M98.4,55.7c-0.9,0-1.6-0.7-1.6-1.6s0.7-1.6,1.6-1.6s1.6,0.7,1.6,1.6S99.3,55.7,98.4,55.7z"/>
	</g>
	<g>
		<path fill="#E63B37" d="M107.7,57c-1.8-0.5-3.7,0.5-4.2,2.3c-0.7,2.4,1.6,7,1.6,7s4.3-2.7,5-5.2C110.5,59.4,109.5,57.5,107.7,57z
			 M106.4,61.5c-0.6-0.2-1-0.8-0.8-1.5c0.2-0.6,0.8-1,1.5-0.8c0.6,0.2,1,0.8,0.8,1.5C107.7,61.3,107.1,61.6,106.4,61.5z"/>
		<path fill="#FFFFFF" d="M106.4,61.5c-0.6-0.2-1-0.8-0.8-1.5c0.2-0.6,0.8-1,1.5-0.8c0.6,0.2,1,0.8,0.8,1.5
			C107.7,61.3,107.1,61.6,106.4,61.5z"/>
	</g>
	<g>
		<path fill="#E63B37" d="M86.8,51.7c-1.7,0.6-2.6,2.4-2.1,4.2c0.8,2.3,5,4.7,5,4.7s2-4.5,1.2-6.8C90.4,52,88.5,51.1,86.8,51.7z
			 M88.2,55.9c-0.6,0.2-1.3-0.1-1.5-0.7s0.1-1.3,0.7-1.5s1.3,0.1,1.5,0.7C89.1,55.1,88.8,55.7,88.2,55.9z"/>
		<path fill="#FFFFFF" d="M88.2,55.9c-0.6,0.2-1.3-0.1-1.5-0.7s0.1-1.3,0.7-1.5s1.3,0.1,1.5,0.7C89.1,55.1,88.8,55.7,88.2,55.9z"/>
	</g>
</g>
</svg>
