<?xml version="1.0" encoding="utf-8"?>
<!-- Generator: Adobe Illustrator 19.0.0, SVG Export Plug-In . SVG Version: 6.00 Build 0)  -->
<svg version="1.1" id="Ebene_1" xmlns="http://www.w3.org/2000/svg" xmlns:xlink="http://www.w3.org/1999/xlink" x="0px" y="0px"
	 viewBox="0 0 200 200" enable-background="new 0 0 200 200" xml:space="preserve">
<g id="Ebene_2">
	<rect id="XMLID_396_" x="60.3" y="79.9" fill="#F5F5F5" width="79.4" height="29.4"/>
	<circle id="XMLID_397_" fill="#C82928" cx="70.8" cy="89.7" r="6.5"/>
	<rect id="XMLID_399_" x="83.3" y="83.2" opacity="0.63" fill="#202021" enable-background="new    " width="45.8" height="4.8"/>
	<rect id="XMLID_400_" x="85.7" y="90.9" opacity="0.63" fill="#202021" enable-background="new    " width="43.3" height="2.4"/>
	<rect id="XMLID_401_" x="85.6" y="94.7" opacity="0.63" fill="#202021" enable-background="new    " width="43.3" height="2.4"/>
	<rect id="XMLID_402_" x="85.6" y="98.6" opacity="0.63" fill="#202021" enable-background="new    " width="43.3" height="2.4"/>
	<rect id="XMLID_403_" x="85.6" y="102.4" opacity="0.63" fill="#202021" enable-background="new    " width="43.3" height="2.4"/>
	<g id="XMLID_404_">
		<path id="XMLID_416_" fill="#FFFFFF" d="M67.2,89.5c0-0.1,0-0.2,0-0.3c0.1-0.1,0.1-0.2,0.2-0.3s0.2-0.1,0.3-0.2
			c-0.3-0.3-0.3-0.6-0.2-1c0-0.1,0.2-0.1,0.3-0.2c0.8-0.3,1.5-0.6,2.3-0.9c0.3-0.1,0.7-0.3,1-0.4c0.3,0.1,0.3,0,0.5,0.2
			c0.3,0.3,0.7,0.7,1,1.1c0.5,0.6,1.1,1.2,1.6,1.7c0.1,0.1,0.1,0.2,0.2,0.3c0,0.2-0.1,0.3-0.3,0.5c0,0.1,0,0.1,0.1,0.2
			c0,0.2,0,0.4-0.1,0.5c-0.2,0.1-0.3,0.2-0.4,0.4c0,0.1-0.1,0.1-0.2,0.2c-0.4,0.3-0.7,0.7-1.1,1c-0.3,0.2-0.6,0.5-0.9,0.8
			c-0.1,0-0.2,0.1-0.3,0.1c-0.1,0-0.2-0.1-0.2-0.1c-0.3-0.2-0.6-0.5-0.9-0.7c-0.5-0.4-1-0.9-1.5-1.4c-0.1-0.1-0.3-0.3-0.5-0.4
			C67.7,90.3,67.3,90,67.2,89.5L67.2,89.5z"/>
	</g>
</g>
</svg>
