<?xml version="1.0" encoding="utf-8"?>
<!-- Generator: Adobe Illustrator 19.0.0, SVG Export Plug-In . SVG Version: 6.00 Build 0)  -->
<svg version="1.1" id="Ebene_1" xmlns="http://www.w3.org/2000/svg" xmlns:xlink="http://www.w3.org/1999/xlink" x="0px" y="0px"
	 viewBox="0 0 200 200" enable-background="new 0 0 200 200" xml:space="preserve">
<g id="Ebene_1_1_">
	<g id="XMLID_391_">
		<path id="phone" fill="#1F2020" stroke="#B3B2B2" stroke-width="2" stroke-miterlimit="10" d="M50.8,188.2V12.1
			c0-4,3.2-7.7,7.2-8.3C66.9,2.6,83,1,99.9,1c17,0,33.1,1.7,42,2.8c4,0.5,7.2,4.2,7.2,8.3v176.1c0,2.7-2,6-4.6,6.7
			c-6.8,1.7-21.3,4-44.5,4s-37.7-2.3-44.5-4C52.9,194.2,50.8,190.8,50.8,188.2z"/>
		<polygon id="XMLID_392_" fill="#0B0D0D" points="55.1,17.8 55.1,176.5 69.8,176.5 133.7,17.8 		"/>
		<polygon id="XMLID_393_" fill="#090B0C" points="144.9,17.8 133.7,17.8 69.8,176.5 144.9,176.5 		"/>
		<circle id="Camera" fill="#7A7B7C" stroke="#111111" stroke-miterlimit="10" cx="99.9" cy="10.8" r="2.4"/>
		
			<circle id="Mic" fill="none" stroke="#565656" stroke-width="2" stroke-linecap="round" stroke-miterlimit="10" cx="67" cy="11.1" r="0.9"/>
		
			<line id="Left" fill="none" stroke="#565656" stroke-width="2" stroke-linecap="round" stroke-miterlimit="10" x1="49.9" y1="39.3" x2="49.9" y2="70.2"/>
		
			<line id="Right" fill="none" stroke="#565656" stroke-width="2" stroke-linecap="round" stroke-miterlimit="10" x1="150.1" y1="26.5" x2="150.1" y2="39.3"/>
	</g>
	<g id="XMLID_394_">
		<rect id="XMLID_449_" x="55.1" y="17.8" fill="#608ECA" width="89.8" height="71"/>
		<path id="XMLID_456_" fill="#D3E0C0" d="M143.5,121.2c0,5.6-4.5,10.1-10.1,10.1c-2.2,0-4.3-0.7-6-2c-1.1,2.6-3.6,4.4-6.6,4.4
			s-5.6-1.8-6.6-4.4c-2.3,3-6,5-10.1,5c-4.9,0-9.1-2.8-11.2-6.8c-6.9,1.4-12.9,4.7,2.1,7.8c20.4,4.2,23.1,5.5,23.1,5.5
			s15.4,9.6-23.7,10.6c-30.8,0.8-37.5,1.8-39.3,2.2v9.1c1.2,0.4,2.6,0.8,4.2,1.2c18.1,4.3,9.3,9.2,4.2,10.2c-2,0.4-4.4,1.4-6.7,2.4
			H145v-55.9c-0.4,0-0.9,0-1.4-0.1C143.5,120.7,143.5,121,143.5,121.2z"/>
		<path id="XMLID_457_" fill="#4279BC" d="M59.3,163.9c-1.6-0.4-3-0.8-4.2-1.2v13.8h1.5c2.3-1.1,4.7-2,6.7-2.4
			C68.6,173.1,77.3,168.2,59.3,163.9z"/>
		<path id="XMLID_458_" fill="#4279BC" d="M55.1,153.6c1.8-0.4,8.5-1.4,39.3-2.2c39.1-1,23.7-10.6,23.7-10.6s-2.7-1.4-23.1-5.5
			c-15-3-8.9-6.4-2.1-7.8c-0.9-1.7-1.4-3.7-1.4-5.8c0-7,5.6-12.6,12.6-12.6c6.7,0,12.2,5.2,12.6,11.8c1.2-0.8,2.6-1.3,4.1-1.3
			c0.9,0,1.7,0.1,2.5,0.4c0.6-5.1,4.9-9,10.1-9c5.4,0,9.7,4.2,10.1,9.4c0.5,0,1,0,1.4,0.1V88.7H55.1V153.6L55.1,153.6z"/>
		<path id="XMLID_459_" fill="#296274" d="M104.2,134.4c4.1,0,7.8-2,10.1-5c-0.3-0.8-0.5-1.7-0.5-2.6c0-2.4,1.2-4.5,3-5.8
			c-0.4-6.6-5.9-11.8-12.6-11.8c-7,0-12.6,5.6-12.6,12.6c0,2.1,0.5,4.1,1.4,5.8C95.1,131.6,99.3,134.4,104.2,134.4z"/>
		<path id="XMLID_461_" fill="#296274" d="M127.9,126.7c0,1-0.2,1.9-0.5,2.7c1.7,1.2,3.8,2,6,2c5.6,0,10.1-4.5,10.1-10.1
			c0-0.2,0-0.5,0-0.7c-0.4-5.3-4.8-9.4-10.1-9.4c-5.2,0-9.5,4-10.1,9C126,121.1,127.9,123.6,127.9,126.7z"/>
		<path id="XMLID_462_" fill="#327484" d="M113.8,126.7c0,0.9,0.2,1.8,0.5,2.6c1.1,2.6,3.6,4.4,6.6,4.4c2.9,0,5.5-1.8,6.6-4.4
			c0.3-0.8,0.5-1.7,0.5-2.7c0-3-1.9-5.6-4.6-6.6c-0.8-0.3-1.6-0.4-2.5-0.4c-1.5,0-2.9,0.5-4.1,1.3
			C115,122.2,113.8,124.3,113.8,126.7z"/>
	</g>
	<rect id="XMLID_469_" x="55.1" y="17.8" opacity="0.37" fill="#020304" enable-background="new    " width="89.8" height="158.7"/>
	<g id="XMLID_450_">
		<path id="XMLID_451_" fill="#FFFFFF" d="M84.5,56.3c0,2-0.4,3.5-1.3,4.6s-2.1,1.6-3.6,1.6S76.8,62,76,60.9
			c-0.9-1.1-1.3-2.6-1.3-4.6v-3.4c0-2,0.4-3.5,1.3-4.6s2.1-1.6,3.6-1.6s2.8,0.5,3.6,1.6c0.9,1.1,1.3,2.6,1.3,4.6V56.3z M83.3,52.6
			c0-1.6-0.3-2.8-0.9-3.7s-1.5-1.3-2.7-1.3S77.6,48,77,48.9s-0.9,2.1-0.9,3.7v3.9c0,1.5,0.3,2.8,0.9,3.7s1.5,1.3,2.7,1.3
			s2.1-0.4,2.7-1.3s0.9-2.1,0.9-3.7V52.6z"/>
		<path id="XMLID_454_" fill="#FFFFFF" d="M96.9,47.9c-1.7,2-2.9,4-3.8,6s-1.5,4.4-1.8,7l-0.1,1.3h-1.3l0.1-1.3
			c0.3-2.6,0.9-5,1.8-7.1s2.2-4.1,3.7-6h-8.8v-1.1h10.1v1.2H96.9z"/>
		<path id="XMLID_466_" fill="#FFFFFF" d="M101.1,52.5h-1.4v-1.7h1.4V52.5z M101.1,62.2h-1.4v-1.7h1.4V62.2z"/>
		<path id="XMLID_493_" fill="#FFFFFF" d="M111.9,57.3h2.4v1.1h-2.4v3.9h-1.3v-3.9h-7.2v-0.7l7.1-10.8h1.4V57.3z M104.9,57.3h5.7
			v-8.8l0,0l-0.5,1.2L104.9,57.3z"/>
		<path id="XMLID_497_" fill="#FFFFFF" d="M125.7,62.2h-9.6v-1l5.1-5.7c0.9-1.1,1.6-1.9,2-2.7c0.4-0.7,0.6-1.4,0.6-2
			c0-1-0.3-1.7-0.8-2.3c-0.5-0.6-1.3-0.9-2.3-0.9c-1.2,0-2.1,0.3-2.7,1c-0.6,0.6-0.9,1.5-0.9,2.6h-1.2l0,0c0-1.3,0.4-2.4,1.3-3.3
			s2-1.4,3.5-1.4c1.4,0,2.4,0.4,3.2,1.2c0.8,0.8,1.2,1.8,1.2,3.1c0,0.9-0.3,1.7-0.8,2.6s-1.3,1.8-2.2,2.9l-4.2,4.8l0,0h8v1.1H125.7z
			"/>
	</g>
	<rect id="XMLID_395_" x="77.3" y="68.3" opacity="0.62" fill="#FFFFFF" enable-background="new    " width="45.4" height="3.4"/>
</g>
<g id="Ebene_2">
	<rect id="XMLID_396_" x="60.3" y="79.9" fill="#F5F5F5" width="79.4" height="29.4"/>
	<circle id="XMLID_397_" fill="#C82928" cx="70.8" cy="89.7" r="6.5"/>
	<rect id="XMLID_399_" x="83.3" y="83.2" opacity="0.63" fill="#202021" enable-background="new    " width="45.8" height="4.8"/>
	<rect id="XMLID_400_" x="85.7" y="90.9" opacity="0.63" fill="#202021" enable-background="new    " width="43.3" height="2.4"/>
	<rect id="XMLID_401_" x="85.6" y="94.7" opacity="0.63" fill="#202021" enable-background="new    " width="43.3" height="2.4"/>
	<rect id="XMLID_402_" x="85.6" y="98.6" opacity="0.63" fill="#202021" enable-background="new    " width="43.3" height="2.4"/>
	<rect id="XMLID_403_" x="85.6" y="102.4" opacity="0.63" fill="#202021" enable-background="new    " width="43.3" height="2.4"/>
	<g id="XMLID_404_">
		<path id="XMLID_416_" fill="#FFFFFF" d="M67.2,89.5c0-0.1,0-0.2,0-0.3c0.1-0.1,0.1-0.2,0.2-0.3s0.2-0.1,0.3-0.2
			c-0.3-0.3-0.3-0.6-0.2-1c0-0.1,0.2-0.1,0.3-0.2c0.8-0.3,1.5-0.6,2.3-0.9c0.3-0.1,0.7-0.3,1-0.4c0.3,0.1,0.3,0,0.5,0.2
			c0.3,0.3,0.7,0.7,1,1.1c0.5,0.6,1.1,1.2,1.6,1.7c0.1,0.1,0.1,0.2,0.2,0.3c0,0.2-0.1,0.3-0.3,0.5c0,0.1,0,0.1,0.1,0.2
			c0,0.2,0,0.4-0.1,0.5c-0.2,0.1-0.3,0.2-0.4,0.4c0,0.1-0.1,0.1-0.2,0.2c-0.4,0.3-0.7,0.7-1.1,1c-0.3,0.2-0.6,0.5-0.9,0.8
			c-0.1,0-0.2,0.1-0.3,0.1c-0.1,0-0.2-0.1-0.2-0.1c-0.3-0.2-0.6-0.5-0.9-0.7c-0.5-0.4-1-0.9-1.5-1.4c-0.1-0.1-0.3-0.3-0.5-0.4
			C67.7,90.3,67.3,90,67.2,89.5L67.2,89.5z"/>
	</g>
</g>
</svg>
