<?xml version="1.0" encoding="utf-8"?>
<!-- Generator: Adobe Illustrator 19.0.0, SVG Export Plug-In . SVG Version: 6.00 Build 0)  -->
<svg version="1.1" id="Ebene_1" xmlns="http://www.w3.org/2000/svg" xmlns:xlink="http://www.w3.org/1999/xlink" x="0px" y="0px"
	 viewBox="0 0 200 200" enable-background="new 0 0 200 200" xml:space="preserve">
<g id="Ebene_2" transform="translate(0 .000037383)">
	<g id="g506">
		<g id="g508">
			<g id="g510">
				<g id="g512">
					<path id="path514" fill="#53BAD1" d="M68,133.4l-3.8-1.2c0,0,4.7-10,5-12.2c0.2-1.1,1.1,4.8,0.8,6.9
						C69.9,128.3,68,133.4,68,133.4L68,133.4z"/>
					<path id="path516" fill="#53BAD1" d="M59.5,136.4l1.3-2.1c0,0,2.8-1.8,3.7-2.5c1.3-0.9,4.2,0.2,3.8,1.2
						C66.8,135.8,59.5,136.4,59.5,136.4z"/>
					<g id="g518">
						<path id="path520" fill="#434342" d="M60.8,134.2c0,0,0.2-0.1,0.3-0.2c0.1-0.1-0.3-0.9-0.3-0.9l-2.5-5.9c0,0-0.1-0.4-0.3-0.5
							c-0.2-0.2-0.3-0.2-0.7-0.2c-0.1,0-0.9,0-1.6-0.1c-0.7,0-1.9,0.1-2,0.2c-0.2,0.2-0.1,0.2-0.1,0.2L58,133L60.8,134.2L60.8,134.2
							z"/>
						<path id="phone_1_" fill="#E0E0E0" d="M56.4,134l-3.2-7c-0.1-0.2,0-0.3,0.2-0.3c0.4,0,1.1-0.1,1.9-0.1c0.2,0,1.7,0.1,2,0.1
							c0.2,0,0.4,0.2,0.5,0.3l3.2,7c0,0.1,0,0.2-0.1,0.3c-0.3,0.1-0.9,0.2-1.9,0.2c-1,0-1.7-0.1-2.1-0.2
							C56.7,134.2,56.4,134.1,56.4,134L56.4,134z"/>
						<path id="path523" fill="#1F1F1F" d="M54.9,127.3c0.1,0.2,0,0.4-0.3,0.4c-0.2,0-0.5-0.2-0.6-0.4c-0.1-0.2,0-0.4,0.3-0.4
							C54.5,127,54.8,127.1,54.9,127.3z"/>
					</g>
					<path id="path525" fill="#DFB38B" d="M59.5,132.4c0,0-0.3-1.3-0.1-1.5c0.7-0.5,1.3,3.5,1.3,3.5l-1.2,2c0,0-2.6-1.7-3.5-3.3
						c0,0-0.1-0.8,1.2,0.5c0,0-1.3-1.1-1.1-1.5c0.3-0.6,1.5,1,1.5,1s-1.7-1.8-1.2-2c0.5-0.2,1.6,1.2,1.6,1.2s-1.1-1.1-1-1.6
						C57.4,129.7,59.5,132.4,59.5,132.4L59.5,132.4z"/>
				</g>
				<polygon id="polygon527" fill="#E6E7E9" points="71.1,178.5 77.4,178.5 77.4,150.2 78.6,150.1 78.6,178.5 84.8,178.5 
					84.9,142.8 78.5,143.3 71.2,143.2 				"/>
				<path id="path529" fill="#D1D3D4" d="M71.1,178.5l0.1-35.5l7.2,0.1l6.4-0.4l-0.1,31.8c-0.7-3.5-0.4-7.1-0.3-10.6
					c0.1-3.1,0.5-6.2,0.2-9.3c-0.1-1.8-0.5-3.7-2.2-4.5c-0.5-0.2-1.1-0.2-1.5,0c-0.7,0-1.3,0.5-1.3,1.4c0.1,4.1-0.8,8.1-0.7,12.3
					c0,3.4,0.1,6.6-0.2,10c-0.1,0.8-0.1,1.7,0,2.6c-0.1-0.1-0.1-0.3-0.2-0.4v-26l-1.1,0.1v22.7c-0.5-1.8-0.8-3.7-0.9-5.5
					c-0.1-4.8,0.3-9.5,0.4-14.3c0-0.6-0.3-0.9-0.6-1.2c-0.1-0.3-0.3-0.6-0.5-0.9c-0.6-0.7-1.8-0.4-2.3,0.3
					c-2.8,4.6-1.3,10.3-1.4,15.4c-0.1,2.6-0.2,5.1-0.6,7.6c-0.2,1.4-0.4,2.9,0.2,4.2h-0.4v0.1L71.1,178.5L71.1,178.5z"/>
				
					<ellipse id="ellipse531" transform="matrix(-9.692419e-002 0.9953 -0.9953 -9.692419e-002 190.0073 39.3964)" fill="#DFB38B" cx="77.1" cy="105.9" rx="10.9" ry="9.3"/>
				<path id="path533" fill="#40ADC7" d="M69.6,119.5c1.3-0.7,4.6-1.2,5.9-0.9s3.2-0.2,4.2,0c1,0.2,5.7,0,6.2,2.1
					c0.3,1.1,0.7,20.9-1,23.7c-1.6,2.6-11.9,3.7-13.8,0C68.9,139.8,67.9,120.5,69.6,119.5L69.6,119.5z"/>
				<path id="path535" fill="#3EA7B7" d="M70.6,129.4c1.2,1.5,4.1,1.2,5.7,1.7c2.1,0.7,4.6-2.1,5.8-3.4c1.1-1.2,2-2.4,2.9-3.8
					c0,1.5-0.3,3.1-0.5,4.7c-0.3,2.1,0.1,4.8-0.7,6.9c-1.4,4.1-7.3,6-11.1,4.1c-0.5-0.2-0.9-0.2-1.3,0c-0.2-0.5-0.4-1.1-0.6-1.7
					c-0.9-3.4-1.1-6.8-1.1-10.3C69.8,128.2,70.1,128.8,70.6,129.4L70.6,129.4z"/>
				<path id="path537" fill="#3EA7B7" d="M72.4,145.5c0.7,0.3,1.3,0.6,2,0.8C73.6,146.1,72.9,145.8,72.4,145.5z"/>
				<path id="path539" fill="#DFB38B" d="M80.4,119c0,0-3.6,7.3-4.5,6.8c-1-0.4-1.8-6.8-1.8-6.8v-5.9h6.3V119z"/>
				<path id="path541" fill="#BCBEC0" d="M69.6,180.6c0,0,0.5-1.9,1.5-2.1c1-0.2,6.3,0,6.3,0s0.4,2.1,0,2.1H69.6z"/>
				<path id="path543" fill="#BCBEC0" d="M76.9,180.6c0,0,0.5-1.9,1.5-2.1c1-0.2,6.3,0,6.3,0s0.4,2.1,0,2.1H76.9z"/>
				<g id="g545">
					<path id="path547" fill="#DFB38B" d="M80.7,108.6c0,0,1.7-1.2,1.6,1.6s-1.9,2.4-2.3,1.3"/>
					<path id="path549" fill="#CF9E76" d="M80.7,108.6c0,0,0.1-0.1,0.3-0.1c0.2-0.1,0.5-0.1,0.7,0c0.3,0.1,0.4,0.5,0.4,0.9
						c0.1,0.4,0,0.8,0,1.3c0,0.4-0.2,0.9-0.4,1.1c-0.2,0.3-0.6,0.4-0.9,0.3c-0.6-0.2-0.7-0.8-0.8-0.7c0,0,0,0.1,0.1,0.3
						c0.1,0.2,0.3,0.4,0.6,0.6c0.3,0.2,0.9,0.1,1.2-0.3c0.3-0.3,0.5-0.8,0.5-1.3c0-0.4,0.1-0.9,0-1.3c-0.1-0.4-0.2-0.9-0.6-1
						c-0.4-0.2-0.7,0-0.8,0.1C80.8,108.6,80.7,108.6,80.7,108.6L80.7,108.6z"/>
				</g>
				<path id="path551" fill="#5A4B43" d="M72,100.5c0,0,0.6,1,3.3,3.2c2.4,1.9,2.5,17.1,1.4,20.2c0,0,1,0.7,2,0
					c1.5-1,2.2-1.8,2.9-2.4c1-1.2,2-1.9,3.6-1.9c1.4,0,2.4-4.7,1.8-7.2s0.4-5.7-0.7-11.2c-1.1-5.5-9.1-8.7-14.5-4.1
					c0,0-7.6,4.8-2.8,14.6c0,0-0.7-1-1-3.2c-0.3-2.1-0.2-5.2,1.2-5.8C71.6,101.7,72,100.5,72,100.5z"/>
				<path id="path553" fill="#5A4B43" d="M67.7,107.4c0,0,0.4,7,1.5,9.4c1.2,2.3,1.8,5.7,1.8,5.7s0.8-1.2,1.5-2.1
					c0.8-1,1.5-0.6,1.5-1.5v-2.4c0,0-5.1-1.5-6.2-8.9h-0.2L67.7,107.4L67.7,107.4z"/>
				<g>
					<path id="path555" fill="#695952" d="M71.9,99.9c0,0,2.5-4.1,5.3-4.7c0,0-3.3,0.6-4.4,1.8h0.5c0,0-1.4,0.2-1.8,0.8
						c0,0,1.3-0.5,1.9-0.5c0,0-1.6,0.5-2.2,1.1c0,0,0.8-0.4,1.4-0.3c0,0-1.9,1-2.5,1.9c0,0,0.6-0.7,1.4-0.6c0,0-1.4,1.5-2.4,2.1
						C69.1,101.4,71.6,100.4,71.9,99.9L71.9,99.9z"/>
					<path id="path557" fill="#695952" d="M72.6,99.6c0,0,3-4.8,5.8-4.5c2.8,0.3,4.5,1.8,4.5,1.8s-2.5-1.5-4.8-1.4c0,0,1.7,0,2.8,1
						c0,0-1.9-0.8-3.7-0.7l1.8,0.5c0,0-2.4-0.5-3.4-0.1c-0.8,0.4,1.2-0.4,4,0.8c0,0-3.2-0.5-4.2-0.4c0,0,1.5,0.2,1.7,0.4
						c0.2,0.3-1.4-0.3-2.2,0c-0.8,0.3,1.6,0.1,2.2,1.1c0,0-1-0.4-2-0.5s3,1.2,3.6,1.9c0,0-3.3-1.6-4.7-1.5c0,0,3,1.1,3.5,1.9
						c0,0-2.6-1.4-3.5-1.4l2.6,1.7c0,0-2.6-1.3-2.8-1.3c-0.1,0,1.1,1.6,1.1,1.6s-1.6-1.1-1.9-0.9c-0.3,0.2,0.6,1.9,1.4,2.2
						C74.6,102,73.2,101.4,72.6,99.6z"/>
					<path id="path559" fill="#695952" d="M76.3,103.2c0,0,2.1,4.5,2,7.5s-0.2,6.5-0.2,6.5s0.5-3.2,0.5-4.1c0-1,0-5-0.5-6.2
						C77.5,105.7,76.3,103.2,76.3,103.2L76.3,103.2z"/>
					<path id="path561" fill="#695952" d="M79.8,107.4c0,0-0.6,7.9-0.3,9.2c0.3,1.2,0.3-5.3,0.9-7c0.7-1.8,1,3.1,1.1,4.1
						c0.1,1,0.5-2.5,0.6-2.2c0.2,0.3,0.5,1.8,0.5,1.8s0.3-3.5,0.5-3c0.2,0.6,0.2,2.3,0.4,1.7c0.1-0.5,0.3-2.2,0.5-1.5
						c0.2,0.7,0.4,1.9,0.5,1.5s0.1-3.1,0.5-1.4s0.5,3.2,0.6,1.6c0.1-1.5,0.7-6.9,0-9.5c-0.7-2.4,0.4,2.1,0,4.9s-0.8-1.6-0.9-2.4
						c-0.2-0.9,0.3,2.8-0.4,3.8c-0.8,1,0-4.8-0.1-5.7c-0.1-0.9-0.3,6.6-0.7,6.7c-0.3,0.1-1.2-4.3-1.2-4.3s-0.2,5.1-0.6,5.2
						c-0.4,0.1-0.4-3.2-0.5-3.4c-0.1-0.1-1.1,1.2-1.1,1.3C80,109.2,79.8,107.4,79.8,107.4L79.8,107.4z"/>
					<path id="path563" fill="#695952" d="M86.6,114.1c0,0,0.3,4.1-1.1,4.8c-1.3,0.7,0.5-1.3,0.5-1.7c0-0.5-1.3,1.2-1.3,1.2l0.3-1
						l-1.1,1.6c0,0,0-0.9-0.2-0.6c-0.2,0.3-1,1.3-1,1.3s0.3-1.5-0.1-1c-0.3,0.5-0.7,1.3-0.9,1.5c0,0-1.1,2.4-2.6,3.1l0.6-1.2
						c0,0-0.3,1.1-1.3,1.6c-1,0.5,1.1-2,1.1-2s-1,2.4-2.8,2.2c0,0,1.3-0.2,1.9-1.9c0.6-1.7,0.9-0.7,1.1-1.2c0.2-0.5,0.4,0,0.4,0.3
						c0,0.3,0.3,0.5,1.3-2.1v0.7c0,0,1.4-1.7,1.7-2.2c0.3-0.5-0.4,1.3-0.4,1.3s1.1-1.5,1.1-1.3c0,0.1-0.3,0.9-0.1,0.9
						c0.2,0,1-1.5,1.1-1.7c0.1-0.2,0,0.5,0,0.5S86.6,116.7,86.6,114.1L86.6,114.1z"/>
					<path id="path565" fill="#695952" d="M68.6,111.9c0,0,0.4,4.3,1.5,5.7c0.5,0.6,0.7,1.4,0.9,2.2c0.2,1,0.1,1.8,0.1,1.8l0.3-1.2
						c0.1-0.4,0.3,0,0.3,0l0.2-0.7l0.3,0.2v-0.5c0,0-0.4-1.9-0.8-2.3c-0.4-0.5,0.6,2.2,0.4,2.3c-0.2,0.1-0.7-1.1-0.7-1.1
						S69.6,116.9,68.6,111.9z"/>
				</g>
				<g id="g567">
					<polygon id="polygon569" fill="#231F20" points="78.5,140.3 80.5,130.7 79.4,130.7 78.9,129.2 80.8,128.7 81.3,129.9 
						79.2,140.3 					"/>
					<g id="g571">
						<g id="g573">
							<path id="path575" fill="#53BAD1" d="M80.4,134l-2.6-2.9c0,0,5.1-11,6.2-11.5c1.6-0.8,3.7,3.7,0.9,9.3
								C84.3,130.3,80.4,134,80.4,134z"/>
							<path id="path577" fill="#53BAD1" d="M71.1,132.8l0.3-2.4c0,0,5.1,1,6.3,0.8c1.6-0.2,3.6,2.2,2.6,2.9
								C77.8,135.9,71.1,132.8,71.1,132.8z"/>
							<path id="path579" fill="#DFB38B" d="M69.4,128.9c0,0-0.9-1.2-0.8-1.4c0.5-0.8,2.9,2.9,2.9,2.9l-0.4,2.4c0,0-3.4-0.5-5-1.7
								c0,0-0.4-0.8,1.5,0c0,0-1.8-0.5-1.8-1c0-0.7,2,0.3,2,0.3s-2.5-1-2.1-1.5c0.5-0.5,2.1,0.5,2.1,0.5s-1.6-0.6-1.7-1.2
								C66,127.2,69.4,128.9,69.4,128.9L69.4,128.9z"/>
						</g>
					</g>
					<polygon id="polygon581" fill="#82171D" points="67.2,142.7 71.4,140.8 71.8,147.4 69.3,149.9 					"/>
					<polygon id="polygon583" fill="#A41923" points="71.8,147.4 71.3,140.8 86.9,141.8 84,148.5 					"/>
					<polygon id="polygon585" fill="#A41923" points="67,141.2 71.4,138.9 71.4,140.8 67,142.8 					"/>
					<polygon id="polygon587" fill="#E52629" points="67,142.8 67,141.2 83.2,142.5 83.2,144.5 					"/>
					<polygon id="polygon589" fill="#E52629" points="69.4,150.1 67,142.8 83.2,144.5 81,151.4 					"/>
					<polygon id="polygon591" fill="#B9181F" points="71.3,140.8 71.4,138.9 86.9,139.8 86.9,141.8 					"/>
					<polygon id="polygon593" fill="#EA525E" points="86.9,139.8 83.2,142.5 83.2,144.5 86.9,141.8 					"/>
					<polygon id="polygon595" fill="#DB4A55" points="83.2,144.5 86.9,141.8 84,148.5 81,151.4 					"/>
					<path id="path597" fill="#231F20" d="M78.3,129.7l-4.7,1l-0.7,11.8h0.5l1-10.8l3.3-0.8C77.7,131.2,78.1,130.2,78.3,129.7z"/>
					<circle id="circle599" fill="#231F20" cx="73.2" cy="142.8" r="0.3"/>
					<path id="path601" fill="#414142" d="M73.9,131.2l0.3,0.4l3.3-0.9c0,0-0.9-0.1-1.4,0C75.5,130.8,73.9,131.2,73.9,131.2z"/>
					<path id="path603" fill="#414142" d="M73.9,132.3l-0.6,8.1C73.4,140.3,74.2,133.2,73.9,132.3z"/>
					<path id="path605" fill="#A41923" d="M67,142.8l16.2,1.6C83.2,144.5,69.2,143.3,67,142.8z"/>
				</g>
				<polygon id="polygon607" fill="#D1D3D4" points="84.8,178.5 78.6,178.5 78.2,176.7 85.1,176.7 				"/>
				<polygon id="polygon609" fill="#D1D3D4" points="77.4,178.5 71.1,178.5 70.8,176.7 77.7,176.7 				"/>
			</g>
		</g>
	</g>
</g>
</svg>
