<?xml version="1.0" encoding="utf-8"?>
<!-- Generator: Adobe Illustrator 19.0.0, SVG Export Plug-In . SVG Version: 6.00 Build 0)  -->
<svg version="1.1" xmlns="http://www.w3.org/2000/svg" xmlns:xlink="http://www.w3.org/1999/xlink" x="0px" y="0px"
	 viewBox="0 0 196.4 186.6" enable-background="new 0 0 196.4 186.6" xml:space="preserve">
<g id="Ebene_0">
	<path opacity="0.43" fill="#757575" d="M23.6,101.7c34.3-37.6,95.8-61.4,137.3-53s47.4,45.6,13.1,83.2s-95.8,61.4-137.3,53
		C-4.9,176.6-10.7,139.3,23.6,101.7z"/>
</g>
<g id="Ebene_1">
	<rect x="128.2" y="0" fill="#5D4037" width="38.9" height="99.5"/>
	<g>
		<polygon fill="#6D4C41" points="80.4,149.6 37.7,149.3 133,97.5 165.7,97.5 		"/>
		<polygon fill="#8D6E63" points="80.4,149.6 80.4,153.1 165.7,99.1 165.7,97.5 		"/>
	</g>
	<g>
		<g>
			<polygon fill="#FF8F00" points="155.8,100.9 155.8,74.2 152.7,76.4 152.7,102.8 			"/>
			<polygon fill="#BDBDBD" points="155.8,74.2 138.3,74.2 138.3,76.4 152.7,76.4 			"/>
			<rect x="138.3" y="76.4" fill="#FFA000" width="14.3" height="26.4"/>
		</g>
		<g>
			<polygon fill="#3949AB" points="149.6,104.6 149.6,78.1 146.4,80.3 146.4,106.6 			"/>
			<polygon fill="#BDBDBD" points="149.6,78.1 132.2,78.1 132.2,80.3 146.4,80.3 			"/>
			<rect x="132.2" y="80.3" fill="#5C6BC0" width="14.3" height="26.3"/>
		</g>
		<g>
			<polygon fill="#C2185B" points="142.2,110.6 142.2,84.5 139.1,86.7 139.1,112.5 			"/>
			<polygon fill="#BDBDBD" points="142.2,84.5 125.1,84.5 125.1,86.7 139.1,86.7 			"/>
			<rect x="125.1" y="86.7" fill="#D81B60" width="14" height="25.8"/>
		</g>
		<g>
			<polygon fill="#3949AB" points="134.1,114.7 134.1,91.9 131.4,93.8 131.4,116.3 			"/>
			<polygon fill="#BDBDBD" points="134.1,91.9 119.2,91.9 119.2,93.8 131.4,93.8 			"/>
			<rect x="119.2" y="93.8" fill="#5C6BC0" width="12.2" height="22.6"/>
		</g>
		<g>
			<polygon fill="#FF8F00" points="127.6,117.4 127.6,89.5 124.3,91.8 124.3,119.4 			"/>
			<polygon fill="#BDBDBD" points="127.6,89.5 109.3,89.5 109.3,91.8 124.3,91.8 			"/>
			<rect x="109.3" y="91.8" fill="#FFA000" width="15" height="27.6"/>
		</g>
		<g>
			<polygon fill="#D84315" points="118.6,122.4 118.6,95.9 115.5,98.1 115.5,124.3 			"/>
			<polygon fill="#BDBDBD" points="118.6,95.9 101.2,95.9 101.2,98.1 115.5,98.1 			"/>
			<rect x="101.2" y="98.1" fill="#E64A19" width="14.3" height="26.3"/>
		</g>
		<g>
			<polygon fill="#558B2F" points="113.2,125.9 113.2,103.5 110.6,105.4 110.6,127.5 			"/>
			<polygon fill="#BDBDBD" points="113.2,103.5 98.6,103.5 98.6,105.4 110.6,105.4 			"/>
			<rect x="98.6" y="105.4" fill="#7CB342" width="12" height="22.1"/>
		</g>
		<g>
			<polygon fill="#4A148C" points="105.9,130.4 105.9,101 102.4,103.4 102.4,132.5 			"/>
			<polygon fill="#BDBDBD" points="105.9,101 86.6,101 86.6,103.4 102.4,103.4 			"/>
			<rect x="86.6" y="103.4" fill="#8E24AA" width="15.8" height="29.1"/>
		</g>
		<g>
			<polygon fill="#558B2F" points="98.8,134.8 98.8,105.4 95.3,107.8 95.3,136.9 			"/>
			<polygon fill="#BDBDBD" points="98.8,105.4 79.5,105.4 79.5,107.8 95.3,107.8 			"/>
			<rect x="79.5" y="107.8" fill="#7CB342" width="15.8" height="29.1"/>
		</g>
		<g>
			<polygon fill="#C62828" points="91,139.7 91,110.3 87.5,112.7 87.5,141.8 			"/>
			<polygon fill="#BDBDBD" points="91,110.3 71.7,110.3 71.7,112.7 87.5,112.7 			"/>
			<rect x="71.7" y="112.7" fill="#E53935" width="15.8" height="29.1"/>
		</g>
	</g>
	<g>
		<polygon fill="#6D4C41" points="80.4,116.3 37.7,116 133,64.1 165.7,64.1 		"/>
		<polygon fill="#8D6E63" points="80.4,116.3 80.4,119.8 165.7,65.8 165.7,64.1 		"/>
	</g>
	<g>
		<g>
			<polygon fill="#C2185B" points="154.3,68.8 154.3,42.7 151.2,44.9 151.2,70.7 			"/>
			<polygon fill="#BDBDBD" points="154.3,42.7 137.2,42.7 137.2,44.9 151.2,44.9 			"/>
			<rect x="137.2" y="44.9" fill="#D81B60" width="14" height="25.8"/>
		</g>
		<g>
			<polygon fill="#3949AB" points="146.2,72.9 146.2,50.1 143.5,52 143.5,74.5 			"/>
			<polygon fill="#BDBDBD" points="146.2,50.1 131.3,50.1 131.3,52 143.5,52 			"/>
			<rect x="131.3" y="52" fill="#5C6BC0" width="12.2" height="22.6"/>
		</g>
		<g>
			<polygon fill="#FF8F00" points="141.4,77 141.4,49 138,51.4 138,79 			"/>
			<polygon fill="#BDBDBD" points="141.4,49 123,49 123,51.4 138,51.4 			"/>
			<rect x="123" y="51.4" fill="#FFA000" width="15" height="27.6"/>
		</g>
		<g>
			<polygon fill="#D84315" points="132.4,82 132.4,55.4 129.2,57.6 129.2,83.9 			"/>
			<polygon fill="#BDBDBD" points="132.4,55.4 115,55.4 115,57.6 129.2,57.6 			"/>
			<rect x="115" y="57.6" fill="#E64A19" width="14.3" height="26.3"/>
		</g>
		<g>
			<polygon fill="#558B2F" points="125.3,87.1 125.3,64.8 122.7,66.6 122.7,88.7 			"/>
			<polygon fill="#BDBDBD" points="125.3,64.8 110.7,64.8 110.7,66.6 122.7,66.6 			"/>
			<rect x="110.7" y="66.6" fill="#7CB342" width="12" height="22.1"/>
		</g>
		<g>
			<polygon fill="#4A148C" points="118,91.6 118,62.2 114.5,64.7 114.5,93.8 			"/>
			<polygon fill="#BDBDBD" points="118,62.2 98.7,62.2 98.7,64.7 114.5,64.7 			"/>
			<rect x="98.7" y="64.7" fill="#8E24AA" width="15.8" height="29.1"/>
		</g>
		<g>
			<polygon fill="#FF8F00" points="110.7,95.9 110.7,69.2 107.5,71.4 107.5,97.8 			"/>
			<polygon fill="#BDBDBD" points="110.7,69.2 93.1,69.2 93.1,71.4 107.5,71.4 			"/>
			<rect x="93.1" y="71.4" fill="#FFA000" width="14.3" height="26.4"/>
		</g>
		<g>
			<polygon fill="#21242D" points="127.2,107.5 120.5,107.4 120.4,140.6 126.2,140.6 126.3,114 127.3,113.9 127.3,140.6 
				133.1,140.6 133.3,107.1 			"/>
			<path fill="#DFB28B" d="M134.8,73.4c-0.6,5.6-4.9,9.8-9.7,9.3c-4.8-0.5-8.2-5.4-7.7-11c0.5-5.6,4.9-9.8,9.7-9.3
				C131.9,62.8,135.3,67.8,134.8,73.4z"/>
			<path fill="#F7A23C" d="M118.9,85.2c1.2-0.7,4.3-1.2,5.5-0.9c1.3,0.3,3-0.2,3.9,0c1,0.2,5.3,0,5.9,2c0.3,1,0.7,19.6-1,22.2
				c-1.6,2.4-11.1,3.4-12.9,0C118.2,104.3,117.3,86.2,118.9,85.2z"/>
			<path fill="#DFB28B" d="M129,84.9c0,0-3,6.4-3.9,6c-0.9-0.4-2-6-2-6v-5.5h5.9V84.9z"/>
			<g>
				<path fill="#FFB952" d="M117.4,98.2l-3.5-1.1c0,0,4.4-9.4,4.7-11.5c0.1-1,1.1,4.4,0.8,6.4C119.2,93.5,117.4,98.2,117.4,98.2z"/>
				<path fill="#FFB952" d="M109.4,101l-0.9-2.2c0,0,4.6-1.5,5.5-2.2c1.2-0.9,3.9,0.2,3.5,1.1C116.3,100.5,109.4,101,109.4,101z"/>
				<path fill="#DFB28B" d="M106.2,98.7c0,0-1.3-0.5-1.3-0.8c0-0.9,3.6,1,3.6,1l0.8,2.2c0,0-3,1.1-4.8,0.8c0,0-0.7-0.5,1.2-0.7
					c0,0-1.8,0.4-2,0c-0.3-0.6,1.8-0.7,1.8-0.7s-2.6,0.3-2.4-0.2c0.2-0.6,2-0.6,2-0.6s-1.6,0.3-2-0.2
					C102.8,98.8,106.2,98.7,106.2,98.7z"/>
			</g>
			<path fill="#231F20" d="M127.7,70.2c0,0-2.3-1.8-8.3,1.5c-0.6,0.3-2.1,1.5-2.1,1.5s-1.4-0.4-1-3.4c0.4-3.1,4.7-6.5,6.4-7.2
				c5.8-2.3,10.2,1.2,10.9,2.5c0,0,5.1,1.3,1.9,10.8c-1.8,5.3-5.8,4.9-6.3,6.5c0,0-1.1-1.4,0.4-3.3c2.2-2.7-0.3-3.9-0.3-3.9
				s-1.7,3.7-1.3-0.5C128.2,72.6,127.2,72.7,127.7,70.2z"/>
			<path fill="#231F20" d="M118.9,142.6c0,0,0.5-1.9,1.5-2c1-0.2,5.9,0,5.9,0s0.3,2,0,2S118.9,142.6,118.9,142.6z"/>
			<path fill="#231F20" d="M125.8,142.6c0,0,0.5-1.9,1.5-2c1-0.2,5.9,0,5.9,0s0.3,2,0,2S125.8,142.6,125.8,142.6z"/>
			<g>
				<polygon fill="#231F20" points="127,94.4 128.9,93.9 129.4,95 127.3,104.8 126.7,104.8 128.6,95.7 127.5,95.7 				"/>
				<g>
					<g>
						<path fill="#FFB952" d="M128.5,98.8l-2.5-2.7c0,0,4.8-10.3,5.8-10.8c1.5-0.8,3.4,3.4,0.9,8.7
							C132.1,95.3,128.5,98.8,128.5,98.8z"/>
						<path fill="#FFB952" d="M119.8,97.7l0.3-2.3c0,0,4.8,0.9,5.9,0.8c1.5-0.2,3.4,2.1,2.5,2.7C126.1,100.6,119.8,97.7,119.8,97.7z
							"/>
						<path fill="#DFB28B" d="M118.2,94c0,0-0.9-1.1-0.7-1.3c0.5-0.8,2.7,2.6,2.7,2.6l-0.4,2.3c0,0-3.2-0.5-4.6-1.7
							c0,0-0.4-0.8,1.4,0c0,0-1.7-0.5-1.7-1c0-0.7,1.9,0.3,1.9,0.3s-2.4-1-2-1.4c0.4-0.4,2,0.4,2,0.4s-1.5-0.6-1.6-1.1
							C115,92.5,118.2,94,118.2,94z"/>
					</g>
				</g>
				<polygon fill="#82121B" points="120.1,105.3 120.5,111.3 118.1,113.8 116.2,107 				"/>
				<polygon fill="#A31722" points="120,105.3 134.6,106.1 131.8,112.3 120.5,111.4 				"/>
				<polygon fill="#A31722" points="120.1,103.5 120.1,105.3 116,107.1 116,105.5 				"/>
				<polygon fill="#ED1C24" points="116,105.5 131.2,106.7 131.2,108.6 116,107.1 				"/>
				<polygon fill="#ED1C24" points="116,107.1 131.2,108.6 129,115.1 118.2,113.9 				"/>
				<polygon fill="#B9161C" points="120.1,103.5 134.6,104.2 134.6,106.1 120,105.3 				"/>
				<polygon fill="#ED515D" points="131.2,106.7 131.2,108.6 134.6,106.1 134.6,104.2 				"/>
				<polygon fill="#DB4954" points="134.6,106.1 131.8,112.4 129,115.1 131.2,108.6 				"/>
				<path fill="#231F20" d="M126.6,94.9l-4.4,1l-0.7,11.1h0.5l1-10.1l3.1-0.7C126,96.2,126.4,95.2,126.6,94.9z"/>
				<circle fill="#231F20" cx="121.7" cy="107" r="0.3"/>
				<path fill="#414042" d="M122.4,96.1l0.3,0.4l3-0.8c0,0-0.9-0.1-1.3,0C123.9,95.8,122.4,96.1,122.4,96.1z"/>
				<path fill="#414042" d="M122.4,97.2l-0.5,7.6C121.9,104.8,122.6,98.1,122.4,97.2z"/>
				<path fill="#A31722" d="M116,107.1l15.2,1.6C131.2,108.6,118,107.6,116,107.1z"/>
			</g>
			<path fill="#231F20" d="M129.6,79c0,0-2.1,1.4-0.4,4.9c1.8,3.5,2.8,0.9,2.8,0.9s3.7-3.3,4.5-9.6c0.3-2.6,0-4.8,0-4.8"/>
			<path fill="#231F20" d="M131.4,84.6c0,0-2.6,0.1-2.1,2c0.3,1.3,1.5,1.5,1.2,3.3c-0.3,2.1,3-0.4,3.9,3.7c0.4,2,2.5,2.6,3.4,1.7
				c0,0-1.5,0-1.9-1.7c0,0,1.1,1.5,1.9,1.1c0,0-1.8-1.1-2-2.7c-0.2-1.7-0.9-2.1-2.8-1.4c0,0-0.4-1.8-1.1-2.2
				C131.4,87.9,133.3,83.8,131.4,84.6z"/>
			<polygon fill="#ED1C24" points="132.1,91.1 133,90.2 133.5,90.5 132.8,91.3 			"/>
			<g>
				<path fill="#DFB28B" d="M129.3,75c0,0,1.6-1.1,1.5,1.5c-0.1,2.6-1.8,2.3-2.2,1.2"/>
				<path fill="#CF9E76" d="M129.3,75c0,0,0.1-0.1,0.2-0.2c0.2-0.1,0.4-0.2,0.8-0.1c0.4,0.2,0.5,0.6,0.6,1c0,0.2,0,0.4,0,0.6
					c0,0.2,0,0.4-0.1,0.6c0,0.2-0.1,0.4-0.2,0.6l-0.1,0.3l-0.2,0.3c-0.1,0.2-0.4,0.2-0.5,0.3c-0.2,0-0.4,0-0.6-0.1
					c-0.2-0.1-0.3-0.1-0.4-0.3c-0.1-0.1-0.2-0.2-0.2-0.3c-0.1-0.2-0.1-0.3-0.1-0.3s0.1,0.1,0.2,0.2c0,0.1,0.1,0.2,0.2,0.2
					c0.1,0.1,0.2,0.1,0.4,0.2c0.1,0.1,0.3,0,0.5,0c0.1-0.1,0.3-0.1,0.4-0.3l0.2-0.2l0.1-0.3c0.1-0.2,0.1-0.4,0.1-0.6
					c0-0.2,0.1-0.4,0.1-0.6c0-0.2,0-0.4,0-0.6c0-0.4-0.1-0.7-0.4-0.9c-0.2-0.1-0.5-0.1-0.7,0C129.4,75,129.3,75,129.3,75z"/>
			</g>
			<path fill="#414042" d="M132.3,64.6c0,0-4.5-3.6-9.2-1.6c0,0,1.6-0.2,2.3,0.1c0.7,0.3-3.5,0.7-3.8,0.9c-0.3,0.2,4.1,0.1,3,0.2
				c-1.1,0.1-3.6,0.8-3.6,0.8s3.3-0.4,1.3,0.2c-1.9,0.6-5.6,2.7-5.7,4.8c-0.1,2.1,1.9-4.4,7.2-4.7c5.3-0.4,6.2,0.6,6.2,0.6
				s-2.7-1.3-3.8-1.3c-1.1,0,1.7-0.5,2.4-0.4c0.7,0.1-1.5-0.7-1.5-0.7s2.9-0.2,5.5,1.1"/>
			<path fill="#414042" d="M128.8,69.9c0,0,0.7,2.9,2,3.3c0,0-0.1-2.1-0.1-2.3c0-0.1,0.5,1.6,0.5,1.6l0.4-2.1c0,0,0.5,1,0.5,0.8
				c0-0.2,0.3-1.1,0.3-1.1s0.5,0.8,0.4,0.6c0-0.2,0.2-2.5,0.2-2.5c0.4,0,0.3,1.7,0.4,1.7c0.2,0,0.4-2.3,0.5-2.2
				c0.2,0.1,0.5,1.3,0.5,1.3l-0.2-1.7c0,0-0.1-0.3-0.1-0.6c-0.1-0.5-0.4-0.8-0.7-0.8c0,0,0.2,0.2,0.2,1.2c0,1.8-1-0.7-1-0.7
				s-0.2,0.8-0.1,1c0.1,0.8-0.1,0.8-0.1,1.1c0,0.2-0.4-0.8-0.4-0.8l0.1,1.2c0,0-0.8-1.2-0.6-1c0.2,0.3,0.1,1.4-0.1,1.3
				c-0.1-0.1-0.4-1-0.3-0.3c0.2,1.3,0.1,2,0,1.4c-0.1-0.4-0.7-1.2-0.7-1.2s-0.7,1.3-0.4,1.9C130.4,71.7,129,70.3,128.8,69.9z"/>
			<path fill="#414042" d="M129.6,81.3c0,0,0,2.4,1,3.5c0,0,1.4-0.4,1.8-1.4c0,0-0.2,0.4-0.9,0.6c-0.7,0.2,0.3-1.2,0.6-2
				c0.3-0.8-1.1,1.7-1.1,1.7v-1.3l-0.4,1C130.5,83.3,129.8,83,129.6,81.3z"/>
			<path fill="#414042" d="M129.9,85.4c0,0-0.8,0.8,0,1.8c0,0,0.9,0.3,0.9,0.3c0,0-0.6-0.7-0.6-0.7s0.6,0.5,0.6,0.4
				c0-0.1-0.3-0.5-0.3-0.5s0.5,0.3,0.4,0.1c-0.1-0.2-0.2-0.5-0.2-0.5l-0.3-1.2l-0.1,0.8l-0.1-0.1l-0.1,0.4c0,0-0.1-0.4-0.1-0.4
				C129.9,86,129.5,86.6,129.9,85.4z"/>
			<path fill="#414042" d="M130.9,89.1c0,0-0.2,1.3,0.2,1.4c0.5,0.1,0.9,0,0.9,0s-0.5-0.1-0.6-0.2c-0.1-0.1,0.7,0,0.5-0.1
				c-0.2-0.1-0.4-0.1-0.4-0.1s0.8,0.2,0.4,0c-0.4-0.2-0.5-0.3-0.5-0.3s-0.2-0.4-0.2-0.7c0-0.4-0.1,0.6-0.1,0.7
				c0,0.2-0.1,0.1-0.1,0.1S130.9,89.6,130.9,89.1z"/>
			<path fill="#414042" d="M130.5,88.5c0,0,1,0.2,1.3,0.9l-0.1-0.3c0,0,0.4,0.5,0.4,0.3c-0.1-0.2-0.1-0.4-0.1-0.4h0.1
				c0,0-0.5-0.8-0.8-0.9c-0.3,0-0.4-0.3-0.4-0.3l0.3,0.6l-0.2-0.1l-0.1,0l-0.4-0.3l0.2,0.3L130.5,88.5z"/>
			<path fill="#414042" d="M130.8,85.7c0,0,1.1-0.9,1.1-0.2s-0.5,2.3-0.5,2.3s0.1-0.7,0.1-1.2c0-0.5-0.2,1.1-0.3,1.1
				c-0.1-0.1,0-1.6,0-1.6s0.1,0.5,0,0.4c-0.1-0.1-0.1-0.5-0.1-0.5l-0.2,0.4l0-0.5C131.1,86,130.5,86.1,130.8,85.7z"/>
			<path fill="#414042" d="M133.7,90.5c0,0,1.4-0.3,1.7,0.3c0.3,0.7,0.3,1.6,0.4,1.7c0.1,0.1-0.3-0.8-0.3-1.1c0-0.3,0,1.1,0,1.1
				c0,0-0.2-1.3-0.2-1.3l-0.1,0.6l-0.1-0.6c0,0-0.4-0.3-0.8-0.3c-0.4,0,0.1-0.1,0.2,0c0.1,0-0.5-0.1-0.6-0.1c-0.1,0,0.7,0,0.7,0
				s-0.6-0.2-0.8-0.1C133.7,90.7,133.9,90.5,133.7,90.5z"/>
			<path fill="#414042" d="M134.8,93.2c0,0-0.1,1.8,1,2.2c1,0.4,1.6,0.1,1.6,0.1s-0.9,0.1-1.6-0.4c0,0,0.2,0.1,0.5,0.2
				c0,0-0.7-0.4-0.9-1c0,0,0,0.6,0.3,0.9C135.7,95.2,134.9,94.7,134.8,93.2z"/>
		</g>
		<g>
			<polygon fill="#3949AB" points="107.2,100.6 109.6,79.9 107,81.3 104.5,101.8 			"/>
			<polygon fill="#BDBDBD" points="109.6,79.9 96,78.2 95.8,80 107,81.3 			"/>
			
				<rect x="89.9" y="85.3" transform="matrix(0.1182 -0.993 0.993 0.1182 -1.9149 179.6323)" fill="#5C6BC0" width="20.7" height="11.2"/>
		</g>
		<g>
			<polygon fill="#C62828" points="100,102.8 100,73.4 96.5,75.9 96.5,105 			"/>
			<polygon fill="#BDBDBD" points="100,73.4 80.8,73.4 80.8,75.9 96.5,75.9 			"/>
			<rect x="80.8" y="75.9" fill="#E53935" width="15.8" height="29.1"/>
		</g>
		<g>
			<polygon fill="#558B2F" points="92.7,106.6 92.7,77.2 89.2,79.6 89.2,108.7 			"/>
			<polygon fill="#BDBDBD" points="92.7,77.2 73.4,77.2 73.4,79.6 89.2,79.6 			"/>
			<rect x="73.4" y="79.6" fill="#7CB342" width="15.8" height="29.1"/>
		</g>
	</g>
	<g>
		<polygon fill="#6D4C41" points="80.3,82.5 37.6,82.2 132.9,30.3 165.6,30.3 		"/>
		<polygon fill="#8D6E63" points="80.3,82.5 80.3,86 165.6,32 165.6,30.3 		"/>
	</g>
	<g>
		<path fill="#DFB28B" d="M41.2,86.6c0,0,1.1-1,1-1.3c-0.4-0.9-3,2.3-3,2.3L39,90.1c0,0,3.4,0,5-1c0,0,0.5-0.7-1.5-0.2
			c0,0,1.9-0.3,1.9-0.8c0.1-0.7-2,0-2,0s2.6-0.6,2.3-1.1c-0.4-0.5-2.1,0.1-2.1,0.1s1.7-0.3,1.8-0.9C44.7,85.5,41.2,86.6,41.2,86.6z"
			/>
		<g>
			<polygon fill="#726658" points="21.7,99.8 28.7,99.8 28.9,134.2 22.7,134.2 22.7,106.6 21.7,106.6 21.7,134.2 15.6,134.2 
				15.5,99.4 			"/>
			
				<ellipse transform="matrix(-0.9953 9.687912e-002 -9.687912e-002 -0.9953 51.8768 124.4557)" fill="#DFB28B" cx="22.9" cy="63.5" rx="9.1" ry="10.6"/>
			<path fill="#8AA54E" d="M29.4,76.3c-1.3-0.7-3.4-0.8-4.8-0.5c-1.3,0.3-3.1-0.2-4.1,0c-1,0.2-5.6,0-6.1,2.1
				c-0.3,1.1-0.7,20.3,1,23.1c1.6,2.5,11.6,3.6,13.4,0C31.1,96.5,31.1,77.3,29.4,76.3z"/>
			<path fill="#7E9345" d="M30.6,87.8c0-1.9,0.1-3.8,0-5.7c-0.4,5.9,1.2,12.8-4,16.7c-0.3,0.2-0.6,0.4-0.9,0.5
				c-0.1,0.1-0.1,0.2-0.2,0.2c-0.6,0.7-1.8,0.5-2.2-0.3c0-0.1-0.1-0.2-0.1-0.3c-0.5-0.4-0.9-1.1-1.1-1.9c-0.6-2.5-1.3-5-1.9-7.6
				c0,0.1-0.1,0.1-0.1,0.2c-0.6,1-1.8,0.9-2.5,0c-1.1-1.5-1.2-3.1-1-4.9c0.3-2.9,0.7-5-1.3-7.5c-0.1-0.1-0.2-0.3-0.2-0.4
				c-0.3,0.2-0.6,0.6-0.7,0.9c-0.3,1.1-0.7,20.3,1,23.1c1.6,2.5,11.6,3.6,13.4,0c0.6-1.3,1.2-3.8,1.6-6.7
				C30.5,92.1,30.6,89.9,30.6,87.8z"/>
			<path fill="#DFB28B" d="M19.8,76.3c0,0,0.4,0.5,3.1,0.5c2.6,0,3.1-0.5,3.1-0.5v-5.7h-6.1V76.3z"/>
			<path fill="#8AA54E" d="M30,89.8l3-2.3c0,0-2.3-11.2-3.6-11.2c-1.1,0.1-2.3,3.6-2.3,6.9C27.1,86.2,30,89.8,30,89.8z"/>
			<path fill="#8AA54E" d="M39.1,90.1l0.1-2.4c0,0-5.1,0.2-6.2-0.1c-1.5-0.4-3.8,1.6-3,2.3C32.2,92,39.1,90.1,39.1,90.1z"/>
			<path fill="#7E9345" d="M30.6,88.4c0,0.3,0,0.6-0.1,0.9l0.8-0.6c-0.4-0.4-0.6-1-0.7-1.5C30.7,87.6,30.7,88,30.6,88.4z"/>
			<path fill="#7E9345" d="M32,89.2c-0.5-0.3-0.8-0.7-1-1.2c-0.1,0.1-0.2,0.1-0.3,0.2c0,0.1,0,0.2,0,0.2c0,0.5-0.1,0.9-0.1,1.4
				c0,0.2,0,0.3,0,0.5c2.7,1.4,8.5-0.2,8.5-0.2l0-0.9C36.7,89.7,33.9,90.4,32,89.2z"/>
			<path fill="#8AA54E" d="M10.7,100.4l-3.3-1.1c0,0,5.8-22.9,7.7-22.5c1.2,0.2,1.8,2.1,1.8,3.9C16.9,81.8,10.7,100.4,10.7,100.4z"
				/>
			<path fill="#231F20" d="M21.2,61c0,0,3.5,2.4,6,1.5l4.7,0c0,0,0.7-0.7,0.5-2.9c-0.3-2.4-3.8-5.8-5.5-6.5
				c-6-2.7-11.1,1.3-11.8,2.5c0,0-5.3,1.3-2,11.2c1.8,5.5,6,5.1,6.6,6.7c0,0,1.2-1.5-0.5-3.4c-2.3-2.8,0.3-4.1,0.3-4.1
				s1.8,3.8,1.3-0.6C20.7,63.5,21.7,63.7,21.2,61z"/>
			<path fill="#414042" d="M30.4,62.3c0.4,0,0.7-0.1,1.1-0.2c0.7-0.2,0.9-1.1,0.4-1.6c-0.7-0.6-1.3-1.5-2.2-1.7
				c-0.9-0.2-1.9-0.3-2.8-0.5c0.2-0.4,0.2-0.7-0.1-1.2c-0.3-0.5-0.7-0.7-1.2-0.8c0.3-0.1,0.7-0.3,1-0.5c0.7-0.5,0.1-1.6-0.7-1.6
				c-1.3,0-3,0.5-4.4,0.2c0.2-0.3,0.3-0.7,0.4-1.1c0-0.3-0.2-0.7-0.5-0.8c-0.1-0.1-0.2-0.1-0.3-0.1c1.8-0.3,3.8-0.2,6,0.7
				c1.7,0.8,5.3,4.1,5.5,6.5c0.2,2.2-0.5,2.9-0.5,2.9l-1.7,0C30.3,62.5,30.3,62.4,30.4,62.3z"/>
			<path fill="#414042" d="M14.2,56.1c0.1,0.4,0.2,0.7,0.6,1c0.3,0.3,0.7,0.4,1.1,0.6c0.9,0.3,0.9,1,1.2,1.8c0.4,1.2,1.8,1.1,2.6,2
				c0.7,0.8,0.8,1.9,0.9,3c-0.2-0.4-0.5-0.8-0.8-1.2c-0.3-0.4-1-0.4-1.3,0c-0.2,0.2-0.3,0.4-0.4,0.6c-0.1-0.7-0.4-1.1-1-1.5
				c-0.3-0.2-0.7-0.2-1,0c-0.1-1-1.5-1.1-1.8-0.1c0,0.1-0.1,0.2-0.1,0.3c-0.2-0.7-0.3-1.3-0.7-1.9c-0.3-0.5-0.9-0.6-1.3-0.3
				C12.2,57.9,13.4,56.6,14.2,56.1z"/>
			<g>
				<path fill="#DFB28B" d="M19.6,66.1c0,0-1.7-1.2-1.6,1.5c0.1,2.7,1.9,2.4,2.3,1.2"/>
				<path fill="#CF9E76" d="M19.6,66.1c0,0-0.1-0.1-0.3-0.1c-0.2-0.1-0.5-0.1-0.7,0c-0.3,0.1-0.4,0.5-0.4,0.9c-0.1,0.4,0,0.8,0,1.3
					c0,0.4,0.2,0.8,0.4,1.1c0.2,0.3,0.6,0.4,0.9,0.3c0.6-0.2,0.7-0.7,0.8-0.7c0,0,0,0.1-0.1,0.3c-0.1,0.2-0.2,0.4-0.6,0.6
					c-0.3,0.2-0.8,0.1-1.2-0.3c-0.3-0.3-0.5-0.8-0.5-1.3c0-0.4-0.1-0.9,0-1.3c0.1-0.4,0.2-0.9,0.6-1c0.4-0.2,0.7,0,0.8,0.1
					C19.5,66,19.6,66.1,19.6,66.1z"/>
			</g>
			<path fill="#231F20" d="M30.4,136.3c0,0-0.5-1.9-1.5-2.1c-1-0.2-6.1,0-6.1,0s-0.4,2.1,0,2.1C23.1,136.3,30.4,136.3,30.4,136.3z"
				/>
			<path fill="#231F20" d="M23.2,136.3c0,0-0.5-1.9-1.5-2.1c-1-0.2-6.1,0-6.1,0s-0.4,2.1,0,2.1C15.9,136.3,23.2,136.3,23.2,136.3z"
				/>
			<g>
				<polygon fill="#231F20" points="7.8,101.5 5.9,101 5.4,102.2 7.5,112.4 8.2,112.4 6.2,102.9 7.3,102.9 				"/>
				<polygon fill="#82121B" points="15.1,112.8 14.6,119.1 17.1,121.7 19.1,114.6 				"/>
				<polygon fill="#A31722" points="15.1,112.8 0,113.7 2.9,120.2 14.6,119.2 				"/>
				<polygon fill="#A31722" points="15.1,110.9 15.1,112.9 19.3,114.7 19.3,113.1 				"/>
				<polygon fill="#ED1C24" points="19.3,113.1 3.5,114.4 3.5,116.3 19.3,114.7 				"/>
				<polygon fill="#ED1C24" points="19.3,114.7 3.5,116.3 5.8,123.1 17.1,121.8 				"/>
				<polygon fill="#B9161C" points="15.1,110.9 0,111.8 0,113.7 15.1,112.9 				"/>
				<polygon fill="#ED515D" points="3.5,114.4 3.5,116.3 0,113.7 0,111.8 				"/>
				<polygon fill="#DB4954" points="0,113.7 2.9,120.2 5.8,123.1 3.5,116.3 				"/>
				<path fill="#231F20" d="M8.3,102l4.6,1l0.7,11.5h-0.5l-1-10.5l-3.2-0.8C8.9,103.4,8.5,102.4,8.3,102z"/>
				<circle fill="#231F20" cx="13.4" cy="114.7" r="0.3"/>
				<path fill="#414042" d="M12.7,103.3l-0.3,0.4l-3.2-0.8c0,0,0.9-0.1,1.4,0C11.1,103,12.7,103.3,12.7,103.3z"/>
				<path fill="#414042" d="M12.7,104.4l0.5,7.9C13.2,112.4,12.4,105.4,12.7,104.4z"/>
				<path fill="#A31722" d="M19.3,114.7l-15.8,1.6C3.5,116.3,17.3,115.2,19.3,114.7z"/>
			</g>
			<path fill="#DFB28B" d="M10.5,100.3c0,0,0.1,2,0.3,2.3l-1-0.2c0,0,0.1-0.5-0.5-0.4c-0.6,0.1-1,1.4-0.2,1.5l1.1,0.3
				c0,0-0.7,0.9-2.3,0.7c-2.1-0.3-2.5-2.6-1-3.7c0.9-0.6,1-1.3,1-1.3L10.5,100.3z"/>
			<path fill="#231F20" d="M19.7,73.6c0,0-1.1,2.8-2.8,3c-1.8,0.2-2.9-2.1-1.4-2.9c1.5-0.8-2,0.6-1.3-1.5c0.7-2.1,0-3,0-3
				S20.9,70.2,19.7,73.6z"/>
			<path fill="#2BB673" d="M21.3,62.9c0,0-3.2-3.2-3.3-2.1C17.9,61.9,23,65.5,21.3,62.9z"/>
			<path fill="#2BB673" d="M21.3,64.5c0,0-3.2-3.2-3.3-2.1C17.9,63.6,23,67.2,21.3,64.5z"/>
		</g>
	</g>
	<g>
		<path fill="#D32F2F" d="M142.9,58.3l1.7-1.7c0,0,3.3,3.7,4.3,4.3c1.3,0.8,1.5,3.8,0.4,3.7C146.3,64.5,142.9,58.3,142.9,58.3z"/>
		<g>
			<g>
				<polygon fill="#21242D" points="164.6,80.5 157.7,80.5 157.5,114.4 163.6,114.4 163.6,87.2 164.6,87.1 164.6,114.4 170.6,114.4 
					170.7,80.1 				"/>
				<path fill="#231F20" d="M156,116.5c0,0,0.5-1.9,1.5-2.1c1-0.2,6,0,6,0s0.4,2.1,0,2.1C163.2,116.5,156,116.5,156,116.5z"/>
				<path fill="#231F20" d="M163.1,116.5c0,0,0.5-1.9,1.5-2.1c1-0.2,6,0,6,0s0.4,2.1,0,2.1C170.3,116.5,163.1,116.5,163.1,116.5z"/>
			</g>
			
				<ellipse transform="matrix(0.9953 9.693412e-002 -9.693412e-002 0.9953 5.1054 -15.6282)" fill="#DFB28B" cx="163.4" cy="44.7" rx="8.9" ry="10.4"/>
			<path fill="#B71C1C" d="M156,57.8c1.2-0.7,4.4-1.2,5.7-0.9c1.3,0.3,3-0.2,4,0c1,0.2,5.5,0,6,2c0.3,1,0.7,20-1,22.7
				c-1.6,2.5-11.4,3.5-13.2,0C155.4,77.3,154.4,58.7,156,57.8z"/>
			<path fill="#C62828" d="M171.7,58.8c-0.4-1.5-2.8-1.8-4.4-1.9c-0.5,1.4-1.6,2.4-3.4,2.7c-0.1,0-0.3,0-0.4,0.1
				c-0.3,0.6,0,1.6,0.4,2.8c1,0.9,1.8,2.1,1.3,3.4c0.4,2.3-1.1,4-2.9,5.2c0,0-0.1,0-0.1,0.1c0.8,1.4,2.8,2.8,3.4,3.9
				c1,1.7,1.6,3.8,0.1,5.5c-2.7,3.2-6.8,1.2-9.2-1.6c0.3,1.1,0.6,2,0.9,2.7c1.8,3.5,11.6,2.5,13.2,0C172.5,78.9,172,59.9,171.7,58.8
				z"/>
			<path fill="#DFB28B" d="M166.4,57.4c0,0-0.4,0.5-3,0.5c-2.6,0-3-0.5-3-0.5v-5.6h6.1V57.4z"/>
			<path fill="#D32F2F" d="M149.3,64.6l-0.4-3.7c0,0,6.2-2.1,7-3c0.7-0.8,0,5,0,6.1C155.9,65.3,149.3,64.6,149.3,64.6z"/>
			<path fill="#DFB28B" d="M143.8,54.3c0,0,0-1.5,0.2-1.6c0.9-0.3,0.6,3.8,0.6,3.8l-1.7,1.7c0,0-2.3-2.4-2.8-4.2
				c0,0,0.1-0.9,1.2,0.9c0,0-1.1-1.5-0.8-1.9c0.4-0.5,1.4,1.4,1.4,1.4s-1.4-2.3-0.8-2.4c0.6-0.1,1.4,1.6,1.4,1.6s-0.9-1.4-0.6-1.9
				C142.2,51.1,143.8,54.3,143.8,54.3z"/>
			<path fill="#594A42" d="M165.1,42.3c0,0-3.5,2.4-5.9,1.5l-4.6,0c0,0-0.7-0.7-0.5-2.9c0.3-2.4,3.8-5.7,5.5-6.4
				c5.9-2.6,11,1.3,11.6,2.5c0,0,5.2,1.3,2,11c-1.8,5.4-5.9,5.1-6.5,6.6c0,0-1.2-1.4,0.4-3.4c2.3-2.8-0.3-4-0.3-4s-1.8,3.8-1.3-0.6
				C165.6,44.8,164.6,44.9,165.1,42.3z"/>
			<path fill="#6B5C56" d="M159.5,34.5c-1.7,0.7-5.2,4-5.5,6.4c-0.1,0.7-0.1,1.2,0,1.7c1-0.3,2.3,0.1,3.1-0.5
				c0.2-0.8,0.5-2.1,1.3-2.4c0.5-0.2,0.9-0.4,1.5-0.4c1.4-0.1,0.8-0.4,0.8-1.1c0-2,2.2-1.7,3.8-1.8c-0.3-0.4-0.1-1.1,0.4-1.2
				c1.2-0.5,2.3-0.5,3.5-0.3C166.2,33.7,163,33,159.5,34.5z"/>
			<path fill="#6B5C56" d="M167.8,50c0.1,0,0.2-0.1,0.3,0c0.1-0.3,0.1-0.5,0.2-0.8c0.2-0.9,1.6-0.9,1.8,0c0.1,0.4,0.4,1.1,0,1.3
				c0.3-0.2,0.7-0.5,1-0.7c0.8-0.7,1.6-1.5,1.4-2.7c-0.1-0.7,0.6-1,1.1-0.8c0.2-0.6,0.3-1.3,0.4-1.8c-0.4,0.3-1,0.1-1.2-0.3
				c-0.2,0.2-0.4,0.4-0.8,0.5c-0.2,0.1-0.5,0.1-0.6,0.1c-0.2,0.1-0.4,0.3-0.6,0.3c-0.4,0.1-0.8,0-1.2-0.3c-0.4,0.1-0.9,0.3-1.3,0.5
				c-0.4,0.6-0.8,1.2-1.2,1.7c-0.1,0.2-0.3,0.3-0.5,0.4c-0.2,0.2-0.3,0.5-0.3,1c0.3-0.4,0.6-1,0.6-1S168.5,48.2,167.8,50z"/>
			<g>
				<path fill="#DFB28B" d="M166.7,47.3c0,0,1.6-1.2,1.6,1.5c-0.1,2.7-1.9,2.4-2.2,1.2"/>
				<path fill="#CF9E76" d="M166.7,47.3c0,0,0.1-0.1,0.3-0.2c0.2-0.1,0.5-0.2,0.8-0.1c0.4,0.2,0.5,0.6,0.6,1c0.1,0.4,0.1,0.9,0,1.3
					c-0.1,0.5-0.2,0.9-0.5,1.2c-0.3,0.4-0.8,0.4-1.1,0.3c-0.3-0.1-0.5-0.4-0.6-0.6c-0.1-0.2-0.1-0.3-0.1-0.3c0,0,0.1,0.5,0.7,0.7
					c0.3,0.1,0.7,0,0.9-0.3c0.2-0.3,0.4-0.7,0.4-1.1c0.1-0.4,0.1-0.9,0-1.2c0-0.4-0.1-0.8-0.4-0.9c-0.3-0.1-0.5-0.1-0.7,0
					C166.8,47.2,166.7,47.3,166.7,47.3z"/>
			</g>
			<path fill="#C62828" d="M175.5,81.1l3.2-1c0,0-5.7-22.5-7.6-22.2c-1.2,0.2-1.7,2.1-1.7,3.8C169.4,62.8,175.5,81.1,175.5,81.1z"/>
			<path fill="#D32F2F" d="M175.7,77.9c0-1.1,0.3-2.6-0.1-3.7c-0.3-1.1-1.2-1.5-1.8-2.3c-2.5-3.3-4-7.9-4.2-12.1
				c-0.2,0.6-0.2,1.3-0.2,2c0,1.1,6.1,19.4,6.1,19.4l0.7-0.2C175.8,80,175.7,79,175.7,77.9z"/>
			<path fill="#DFB28B" d="M175.6,81.1c0,0-0.6,1.2-1,1.7c-0.4,0.5,1.1,0,1.1,0s0.7-0.2,0.9-0.1c0.6,0.2,1.5,1.1,0.8,1.4
				c-0.6,0.3-1.6,0.5-1.6,0.5s0.8,0.8,2.4,0.6c2-0.3,2.4-2.6,1-3.6c-0.9-0.6-1-1.2-1-1.2L175.6,81.1z"/>
		</g>
	</g>
	<g>
		<g>
			<polygon fill="#FF8F00" points="158.9,31.9 158.9,5.2 155.7,7.4 155.7,33.9 			"/>
			<polygon fill="#BDBDBD" points="158.9,5.2 141.4,5.2 141.4,7.4 155.7,7.4 			"/>
			<rect x="141.4" y="7.4" fill="#FFA000" width="14.3" height="26.4"/>
		</g>
		<g>
			<polygon fill="#3949AB" points="153.5,35.7 153.5,9.1 150.4,11.4 150.4,37.6 			"/>
			<polygon fill="#BDBDBD" points="153.5,9.1 136.1,9.1 136.1,11.4 150.4,11.4 			"/>
			<rect x="136.1" y="11.4" fill="#5C6BC0" width="14.3" height="26.3"/>
		</g>
		<g>
			<polygon fill="#C62828" points="148.3,38.9 148.3,9.4 144.8,11.9 144.8,41 			"/>
			<polygon fill="#BDBDBD" points="148.3,9.4 129,9.4 129,11.9 144.8,11.9 			"/>
			<rect x="129" y="11.9" fill="#E53935" width="15.8" height="29.1"/>
		</g>
		<g>
			<polygon fill="#558B2F" points="140.9,42.6 140.9,13.2 137.4,15.6 137.4,44.7 			"/>
			<polygon fill="#BDBDBD" points="140.9,13.2 121.6,13.2 121.6,15.6 137.4,15.6 			"/>
			<rect x="121.6" y="15.6" fill="#7CB342" width="15.8" height="29.1"/>
		</g>
		<g>
			<polygon fill="#3949AB" points="134.8,45.9 134.8,23.1 132.1,25 132.1,47.6 			"/>
			<polygon fill="#BDBDBD" points="134.8,23.1 119.8,23.1 119.8,25 132.1,25 			"/>
			<rect x="119.8" y="25" fill="#5C6BC0" width="12.2" height="22.6"/>
		</g>
		<g>
			<polygon fill="#FF8F00" points="129.2,50 129.2,22 125.9,24.3 125.9,52 			"/>
			<polygon fill="#BDBDBD" points="129.2,22 110.9,22 110.9,24.3 125.9,24.3 			"/>
			<rect x="110.9" y="24.3" fill="#FFA000" width="15" height="27.6"/>
		</g>
		<g>
			<polygon fill="#D84315" points="120.3,55 120.3,28.4 117.1,30.6 117.1,56.9 			"/>
			<polygon fill="#BDBDBD" points="120.3,28.4 102.8,28.4 102.8,30.6 117.1,30.6 			"/>
			<rect x="102.8" y="30.6" fill="#E64A19" width="14.3" height="26.3"/>
		</g>
		<g>
			<polygon fill="#558B2F" points="113.2,60.1 113.2,37.8 110.5,39.6 110.5,61.7 			"/>
			<polygon fill="#BDBDBD" points="113.2,37.8 98.5,37.8 98.5,39.6 110.5,39.6 			"/>
			<rect x="98.5" y="39.6" fill="#7CB342" width="12" height="22.1"/>
		</g>
		<g>
			<polygon fill="#4A148C" points="105.8,64.6 105.8,35.2 102.3,37.6 102.3,66.7 			"/>
			<polygon fill="#BDBDBD" points="105.8,35.2 86.6,35.2 86.6,37.6 102.3,37.6 			"/>
			<rect x="86.6" y="37.6" fill="#8E24AA" width="15.8" height="29.1"/>
		</g>
		<g>
			<polygon fill="#C2185B" points="96.8,70 96.8,43.9 93.7,46.1 93.7,71.9 			"/>
			<polygon fill="#BDBDBD" points="96.8,43.9 79.7,43.9 79.7,46.1 93.7,46.1 			"/>
			<rect x="79.7" y="46.1" fill="#D81B60" width="14" height="25.8"/>
		</g>
		<g>
			<polygon fill="#3949AB" points="88.7,74.1 88.7,51.2 86,53.2 86,75.7 			"/>
			<polygon fill="#BDBDBD" points="88.7,51.2 73.7,51.2 73.7,53.2 86,53.2 			"/>
			<rect x="73.7" y="53.2" fill="#5C6BC0" width="12.2" height="22.6"/>
		</g>
	</g>
	<polygon fill="#8D6E63" points="167.1,0 80.4,46.2 37.7,46.2 128.4,0 	"/>
	<rect x="37.7" y="46.2" fill="#8D6E63" width="42.7" height="107.6"/>
</g>
<g id="Ebene_2">
	<g>
		<g>
			<g>
				<g>
					<path fill="#52B9D1" d="M66.7,126.1l-3.7-1.2c0,0,4.6-9.8,4.9-12c0.2-1.1,1.1,4.7,0.8,6.8C68.6,121.1,66.7,126.1,66.7,126.1z"
						/>
					<path fill="#52B9D1" d="M58.4,129l1.3-2.1c0,0,2.7-1.8,3.6-2.5c1.3-0.9,4.1,0.2,3.7,1.2C65.6,128.4,58.4,129,58.4,129z"/>
					<g>
						<path fill="#424242" d="M59.7,126.9c0,0,0.2-0.1,0.3-0.2s-0.3-0.9-0.3-0.9l-2.5-5.8c0,0-0.1-0.4-0.3-0.5
							c-0.2-0.2-0.3-0.2-0.7-0.2c-0.1,0-0.9,0-1.6-0.1c-0.7,0-1.9,0.1-2,0.2c-0.2,0.2-0.1,0.2-0.1,0.2l4.3,6.1L59.7,126.9z"/>
						<path id="phone_1_" fill="#E0E0E0" d="M55.4,126.7l-3.1-6.9c-0.1-0.2,0-0.3,0.2-0.3c0.4,0,1.1-0.1,1.9-0.1
							c0.2,0,1.7,0.1,2,0.1c0.2,0,0.4,0.2,0.5,0.3l3.1,6.9c0,0.1,0,0.2-0.1,0.3c-0.3,0.1-0.9,0.2-1.9,0.2s-1.7-0.1-2.1-0.2
							C55.6,126.9,55.4,126.8,55.4,126.7z"/>
						<path fill="#1E1E1E" d="M53.9,120.1c0.1,0.2,0,0.4-0.3,0.4c-0.2,0-0.5-0.2-0.6-0.4c-0.1-0.2,0-0.4,0.3-0.4
							C53.5,119.8,53.8,119.9,53.9,120.1z"/>
					</g>
					<path fill="#DFB28B" d="M58.4,125.1c0,0-0.3-1.3-0.1-1.5c0.7-0.5,1.3,3.4,1.3,3.4l-1.2,2c0,0-2.6-1.7-3.4-3.2
						c0,0-0.1-0.8,1.2,0.5c0,0-1.3-1.1-1.1-1.5c0.3-0.6,1.5,1,1.5,1s-1.7-1.8-1.2-2c0.5-0.2,1.6,1.2,1.6,1.2s-1.1-1.1-1-1.6
						C56.3,122.5,58.4,125.1,58.4,125.1z"/>
				</g>
				<polygon fill="#E6E7E8" points="77,135.8 69.9,135.7 69.8,170.4 76,170.4 76,142.6 77.1,142.5 77.1,170.4 83.2,170.4 
					83.3,135.3 				"/>
				<path fill="#D1D3D4" d="M69.8,170.4l0.1-34.8l7.1,0.1l6.3-0.4l-0.1,31.2c-0.7-3.4-0.4-7-0.3-10.4c0.1-3,0.5-6.1,0.2-9.1
					c-0.1-1.8-0.5-3.6-2.2-4.4c-0.5-0.2-1.1-0.2-1.5,0c-0.7,0-1.3,0.5-1.3,1.4c0.1,4-0.8,8-0.7,12.1c0,3.3,0.1,6.5-0.2,9.8
					c-0.1,0.8-0.1,1.7,0,2.6c-0.1-0.1-0.1-0.3-0.2-0.4l0-25.5l-1.1,0.1l0,22.3c-0.5-1.8-0.8-3.6-0.9-5.4c-0.1-4.7,0.3-9.3,0.4-14
					c0-0.6-0.3-0.9-0.6-1.2c-0.1-0.3-0.3-0.6-0.5-0.9c-0.6-0.7-1.8-0.4-2.3,0.3c-2.7,4.5-1.3,10.1-1.4,15.1c-0.1,2.6-0.2,5-0.6,7.5
					c-0.2,1.4-0.4,2.8,0.2,4.1H69.8z"/>
				
					<ellipse transform="matrix(0.9953 9.692696e-002 -9.692696e-002 0.9953 9.9634 -6.8828)" fill="#DFB28B" cx="75.8" cy="99.1" rx="9.1" ry="10.7"/>
				<path fill="#3FACC6" d="M68.3,112.4c1.3-0.7,4.5-1.2,5.8-0.9c1.3,0.3,3.1-0.2,4.1,0c1,0.2,5.6,0,6.1,2.1
					c0.3,1.1,0.7,20.5-1,23.3c-1.6,2.6-11.7,3.6-13.5,0C67.6,132.4,66.6,113.4,68.3,112.4z"/>
				<path fill="#3DA6B7" d="M69.3,122.2c1.2,1.5,4,1.2,5.6,1.7c2.1,0.7,4.5-2.1,5.7-3.3c1.1-1.2,2-2.4,2.8-3.7c0,1.5-0.3,3-0.5,4.6
					c-0.3,2.1,0.1,4.7-0.7,6.8c-1.4,4-7.2,5.9-10.9,4c-0.5-0.2-0.9-0.2-1.3,0c-0.2-0.5-0.4-1.1-0.6-1.7c-0.9-3.3-1.1-6.7-1.1-10.1
					C68.5,121,68.8,121.6,69.3,122.2z"/>
				<path fill="#3DA6B7" d="M71.1,138c0.7,0.3,1.3,0.6,2,0.8c-0.8-0.2-1.5-0.5-2.1-0.8C71,138,71.1,138,71.1,138z"/>
				<path fill="#DFB28B" d="M78.9,112c0,0-3.5,7.2-4.4,6.7c-1-0.4-1.8-6.7-1.8-6.7v-5.8h6.2V112z"/>
				<path fill="#BCBEC0" d="M68.3,172.5c0,0,0.5-1.9,1.5-2.1c1-0.2,6.2,0,6.2,0s0.4,2.1,0,2.1C75.6,172.5,68.3,172.5,68.3,172.5z"/>
				<path fill="#BCBEC0" d="M75.5,172.5c0,0,0.5-1.9,1.5-2.1c1-0.2,6.2,0,6.2,0s0.4,2.1,0,2.1C82.9,172.5,75.5,172.5,75.5,172.5z"/>
				<g>
					<path fill="#DFB28B" d="M79.2,101.7c0,0,1.7-1.2,1.6,1.6c-0.1,2.7-1.9,2.4-2.3,1.3"/>
					<path fill="#CF9E76" d="M79.2,101.7c0,0,0.1-0.1,0.3-0.1c0.2-0.1,0.5-0.1,0.7,0c0.3,0.1,0.4,0.5,0.4,0.9c0.1,0.4,0,0.8,0,1.3
						c0,0.4-0.2,0.9-0.4,1.1c-0.2,0.3-0.6,0.4-0.9,0.3c-0.6-0.2-0.7-0.8-0.8-0.7c0,0,0,0.1,0.1,0.3c0.1,0.2,0.3,0.4,0.6,0.6
						c0.3,0.2,0.9,0.1,1.2-0.3c0.3-0.3,0.5-0.8,0.5-1.3c0-0.4,0.1-0.9,0-1.3c-0.1-0.4-0.2-0.9-0.6-1c-0.4-0.2-0.7,0-0.8,0.1
						C79.3,101.7,79.2,101.7,79.2,101.7z"/>
				</g>
				<path fill="#594A42" d="M70.7,93.8c0,0,0.6,1,3.2,3.1c2.4,1.9,2.5,16.8,1.4,19.8c0,0,1,0.7,2,0c1.5-1,2.2-1.8,2.8-2.4
					c1-1.2,2-1.9,3.5-1.9c1.4,0,2.4-4.6,1.8-7.1c-0.6-2.5,0.4-5.6-0.7-11c-1.1-5.4-8.9-8.5-14.2-4c0,0-7.5,4.7-2.7,14.3
					c0,0-0.7-1-1-3.1c-0.3-2.1-0.2-5.1,1.2-5.7C70.3,95,70.7,93.8,70.7,93.8z"/>
				<path fill="#594A42" d="M66.4,100.6c0,0,0.4,6.9,1.5,9.2c1.2,2.3,1.8,5.6,1.8,5.6s0.8-1.2,1.5-2.1c0.8-1,1.5-0.6,1.5-1.5
					c0-0.9,0-2.4,0-2.4s-5-1.5-6.1-8.7H66.4z"/>
				<path fill="#685851" d="M70.6,93.2c0,0,2.5-4,5.2-4.6c0,0-3.2,0.6-4.3,1.8H72c0,0-1.4,0.2-1.8,0.8c0,0,1.3-0.5,1.9-0.5
					c0,0-1.6,0.5-2.2,1.1c0,0,0.8-0.4,1.4-0.3c0,0-1.9,1-2.5,1.9c0,0,0.6-0.7,1.4-0.6c0,0-1.4,1.5-2.4,2.1
					C67.8,94.7,70.3,93.7,70.6,93.2z"/>
				<path fill="#685851" d="M71.3,92.9c0,0,2.9-4.7,5.7-4.4c2.7,0.3,4.4,1.8,4.4,1.8s-2.5-1.5-4.7-1.4c0,0,1.7,0,2.7,1
					c0,0-1.9-0.8-3.6-0.7l1.8,0.5c0,0-2.4-0.5-3.3-0.1c-0.8,0.4,1.2-0.4,3.9,0.8c0,0-3.1-0.5-4.1-0.4c0,0,1.5,0.2,1.7,0.4
					c0.2,0.3-1.4-0.3-2.2,0c-0.8,0.3,1.6,0.1,2.2,1.1c0,0-1-0.4-2-0.5c-1-0.1,2.9,1.2,3.5,1.9c0,0-3.2-1.6-4.6-1.5
					c0,0,2.9,1.1,3.4,1.9c0,0-2.6-1.4-3.4-1.4l2.6,1.7c0,0-2.6-1.3-2.7-1.3c-0.1,0,1.1,1.6,1.1,1.6s-1.6-1.1-1.9-0.9
					c-0.3,0.2,0.6,1.9,1.4,2.2C73.2,95.3,71.8,94.7,71.3,92.9z"/>
				<path fill="#685851" d="M74.9,96.4c0,0,2.1,4.4,2,7.4c-0.1,3-0.2,6.4-0.2,6.4s0.5-3.1,0.5-4c0-1,0-4.9-0.5-6.1
					C76.1,98.9,74.9,96.4,74.9,96.4z"/>
				<path fill="#685851" d="M78.3,100.6c0,0-0.6,7.8-0.3,9c0.3,1.2,0.3-5.2,0.9-6.9c0.7-1.8,1,3,1.1,4c0.1,1,0.5-2.5,0.6-2.2
					c0.2,0.3,0.5,1.8,0.5,1.8s0.3-3.4,0.5-2.9c0.2,0.6,0.2,2.3,0.4,1.7c0.1-0.5,0.3-2.2,0.5-1.5c0.2,0.7,0.4,1.9,0.5,1.5
					c0.1-0.4,0.1-3,0.5-1.4c0.4,1.7,0.5,3.1,0.6,1.6c0.1-1.5,0.7-6.8,0-9.3c-0.7-2.4,0.4,2.1,0,4.8c-0.4,2.7-0.8-1.6-0.9-2.4
					c-0.2-0.9,0.3,2.7-0.4,3.7c-0.8,1,0-4.7-0.1-5.6c-0.1-0.9-0.3,6.5-0.7,6.6c-0.3,0.1-1.2-4.2-1.2-4.2s-0.2,5-0.6,5.1
					c-0.4,0.1-0.4-3.1-0.5-3.3c-0.1-0.1-1.1,1.2-1.1,1.3C78.5,102.3,78.3,100.6,78.3,100.6z"/>
				<path fill="#685851" d="M85,107.1c0,0,0.3,4-1.1,4.7c-1.3,0.7,0.5-1.3,0.5-1.7c0-0.5-1.3,1.2-1.3,1.2l0.3-1l-1.1,1.6
					c0,0,0-0.9-0.2-0.6c-0.2,0.3-1,1.3-1,1.3s0.3-1.5-0.1-1c-0.3,0.5-0.7,1.3-0.9,1.5c0,0-1.1,2.4-2.6,3l0.6-1.2
					c0,0-0.3,1.1-1.3,1.6c-1,0.5,1.1-2,1.1-2s-1,2.4-2.7,2.2c0,0,1.3-0.2,1.9-1.9c0.6-1.7,0.9-0.7,1.1-1.2c0.2-0.5,0.4,0,0.4,0.3
					c0,0.3,0.3,0.5,1.3-2.1v0.7c0,0,1.4-1.7,1.7-2.2c0.3-0.5-0.4,1.3-0.4,1.3s1.1-1.5,1.1-1.3c0,0.1-0.3,0.9-0.1,0.9
					c0.2,0,1-1.5,1.1-1.7c0.1-0.2,0,0.5,0,0.5S85,109.7,85,107.1z"/>
				<path fill="#685851" d="M67.3,105c0,0,0.4,4.2,1.5,5.6c0.5,0.6,0.7,1.4,0.9,2.2c0.2,1,0.1,1.8,0.1,1.8c0,0,0.2-0.8,0.3-1.2
					c0.1-0.4,0.3,0,0.3,0l0.2-0.7l0.3,0.2v-0.5c0,0-0.4-1.9-0.8-2.3c-0.4-0.5,0.6,2.2,0.4,2.3c-0.2,0.1-0.7-1.1-0.7-1.1
					S68.3,109.9,67.3,105z"/>
				<g>
					<polygon fill="#231F20" points="77.4,122 79.3,121.5 79.8,122.7 77.7,132.9 77,132.9 79,123.4 77.9,123.4 					"/>
					<g>
						<g>
							<path fill="#52B9D1" d="M78.9,126.7l-2.6-2.8c0,0,5-10.8,6.1-11.3c1.6-0.8,3.6,3.6,0.9,9.1C82.7,123,78.9,126.7,78.9,126.7z"
								/>
							<path fill="#52B9D1" d="M69.8,125.5l0.3-2.4c0,0,5,1,6.2,0.8c1.6-0.2,3.5,2.2,2.6,2.8C76.4,128.5,69.8,125.5,69.8,125.5z"/>
							<path fill="#DFB28B" d="M68.1,121.7c0,0-0.9-1.2-0.8-1.4c0.5-0.8,2.8,2.8,2.8,2.8l-0.4,2.4c0,0-3.3-0.5-4.9-1.7
								c0,0-0.4-0.8,1.5,0c0,0-1.8-0.5-1.8-1c0-0.7,2,0.3,2,0.3s-2.5-1-2.1-1.5c0.5-0.5,2.1,0.5,2.1,0.5s-1.6-0.6-1.7-1.2
								C64.8,120,68.1,121.7,68.1,121.7z"/>
						</g>
					</g>
					<polygon fill="#82121B" points="70.1,133.4 70.5,139.8 68,142.3 66,135.2 					"/>
					<polygon fill="#A31722" points="70,133.4 85.3,134.3 82.4,140.9 70.5,139.8 					"/>
					<polygon fill="#A31722" points="70.1,131.5 70.1,133.4 65.8,135.3 65.8,133.7 					"/>
					<polygon fill="#ED1C24" points="65.8,133.7 81.7,135 81.7,137 65.8,135.3 					"/>
					<polygon fill="#ED1C24" points="65.8,135.3 81.7,137 79.5,143.8 68.1,142.5 					"/>
					<polygon fill="#B9161C" points="70.1,131.5 85.3,132.4 85.3,134.3 70,133.4 					"/>
					<polygon fill="#ED515D" points="81.7,135 81.7,137 85.3,134.3 85.3,132.4 					"/>
					<polygon fill="#DB4954" points="85.3,134.3 82.4,140.9 79.5,143.8 81.7,137 					"/>
					<path fill="#231F20" d="M76.9,122.5l-4.6,1l-0.7,11.6h0.5l1-10.6l3.2-0.8C76.3,123.9,76.7,122.9,76.9,122.5z"/>
					<circle fill="#231F20" cx="71.8" cy="135.3" r="0.3"/>
					<path fill="#414042" d="M72.5,123.9l0.3,0.4l3.2-0.9c0,0-0.9-0.1-1.4,0C74.1,123.5,72.5,123.9,72.5,123.9z"/>
					<path fill="#414042" d="M72.5,125l-0.6,8C72,132.9,72.8,125.9,72.5,125z"/>
					<path fill="#A31722" d="M65.8,135.3l15.9,1.6C81.7,137,67.9,135.8,65.8,135.3z"/>
				</g>
				<polygon fill="#D1D3D4" points="77.1,170.4 76.8,168.6 83.5,168.6 83.2,170.4 				"/>
				<polygon fill="#D1D3D4" points="69.8,170.4 69.5,168.6 76.3,168.6 76,170.4 				"/>
			</g>
		</g>
	</g>
</g>
</svg>
