<?xml version="1.0" encoding="UTF-8" standalone="no"?>
<!-- Created with Inkscape (http://www.inkscape.org/) -->

<svg
   xmlns:dc="http://purl.org/dc/elements/1.1/"
   xmlns:cc="http://creativecommons.org/ns#"
   xmlns:rdf="http://www.w3.org/1999/02/22-rdf-syntax-ns#"
   xmlns:svg="http://www.w3.org/2000/svg"
   xmlns="http://www.w3.org/2000/svg"
   version="1.1"
   width="24"
   height="24"
   viewBox="0 0 24 24"
   id="svg2"
   xml:space="preserve"><metadata
   id="metadata10"><rdf:RDF><cc:Work
       rdf:about=""><dc:format>image/svg+xml</dc:format><dc:type
         rdf:resource="http://purl.org/dc/dcmitype/StillImage" /><dc:title></dc:title></cc:Work></rdf:RDF></metadata><defs
   id="defs8" />

<path
   d="m 19,3 c 1.047,0 2,0.953 2,2 v 14 c 0,1.047 -0.953,2 -2,2 H 5 C 3.953,21 3,20.047 3,19 V 5 C 3,3.953 3.953,3 5,3 H 19 M 5,5 V 19 H 19 V 5 H 5 z"
   id="path4"
   style="fill:#333333;fill-opacity:0.6" />
<path
   d="M 10.5,17 H 7 v -1.999 h 3.5 m 2.594,-2.002 H 7 V 11 h 6.094 M 17,9 H 7 V 7 h 10"
   id="path2989"
   style="fill:#333333;fill-opacity:0.6" />
<path
   d="m 18,12.25 h -2.25 v 4.125 c 0,0.981 -0.894,1.875 -1.875,1.875 C 12.894,18.25 12,17.356 12,16.375 12,15.394 12.894,14.5 13.875,14.5 c 0.428,0 0.81,0.143 1.125,0.375 V 10.75 h 3 v 1.5"
   id="path6"
   style="fill:#333333;fill-opacity:0.6" />
</svg>