<?xml version="1.0" encoding="UTF-8" standalone="no"?>
<!-- Created with Inkscape (http://www.inkscape.org/) -->

<svg
   xmlns:dc="http://purl.org/dc/elements/1.1/"
   xmlns:cc="http://creativecommons.org/ns#"
   xmlns:rdf="http://www.w3.org/1999/02/22-rdf-syntax-ns#"
   xmlns:svg="http://www.w3.org/2000/svg"
   xmlns="http://www.w3.org/2000/svg"
   version="1.1"
   width="24"
   height="24"
   viewBox="0 0 24 24"
   id="svg2">
  <metadata
     id="metadata10">
    <rdf:RDF>
      <cc:Work
         rdf:about="">
        <dc:format>image/svg+xml</dc:format>
        <dc:type
           rdf:resource="http://purl.org/dc/dcmitype/StillImage" />
        <dc:title></dc:title>
      </cc:Work>
    </rdf:RDF>
  </metadata>
  <defs
     id="defs8" />
  <path
     d="m 5,6.375 c -1.11,0 -2,0.8899996 -2,2 l 0,7.25 c 0,1.047198 0.9528024,2 2,2 l 14,0 c 1.047198,0 2,-0.952802 2,-2 l 0,-7.25 c 0,-1.1100004 -0.9,-2 -2,-2 l -14,0 z m 3.71875,3.15625 6.5625,0 c 1.356617,0 2.46875,1.112134 2.46875,2.46875 0,1.356616 -1.112133,2.46875 -2.46875,2.46875 -1.356616,0 -2.46875,-1.112134 -2.46875,-2.46875 0,-0.642958 0.281355,-1.216598 0.6875,-1.65625 -0.953829,0.003 -1.986874,0.0053 -3,0 0.406145,0.439652 0.6875,1.013292 0.6875,1.65625 0,1.356616 -1.112134,2.46875 -2.46875,2.46875 C 7.3621342,14.46875 6.25,13.356616 6.25,12 6.25,10.643384 7.3621341,9.53125 8.71875,9.53125 z m 0,0.8125 c -0.9138581,0 -1.65625,0.742392 -1.65625,1.65625 0,0.913858 0.7423918,1.65625 1.65625,1.65625 0.9138583,0 1.625,-0.742392 1.625,-1.65625 0,-0.913858 -0.7111418,-1.65625 -1.625,-1.65625 z m 6.5625,0 c -0.913858,0 -1.625,0.742392 -1.625,1.65625 0,0.913858 0.711142,1.65625 1.625,1.65625 0.913859,0 1.65625,-0.742392 1.65625,-1.65625 0,-0.913858 -0.742391,-1.65625 -1.65625,-1.65625 z"
     id="path4" fill="#333333" fill-opacity=".6"/>
</svg>
