<?xml version="1.0" encoding="UTF-8"?><!DOCTYPE svg PUBLIC "-//W3C//DTD SVG 1.1//EN" "http://www.w3.org/Graphics/SVG/1.1/DTD/svg11.dtd"><svg xmlns="http://www.w3.org/2000/svg" xmlns:xlink="http://www.w3.org/1999/xlink" version="1.1" width="24" height="24" viewBox="0 0 24 24"><path d="M21,16.5C21,16.88 20.79,17.21 20.47,17.38L12.57,21.82C12.41,21.94 12.21,22 12,22C11.79,22 11.59,21.94 11.43,21.82L3.53,17.38C3.21,17.21 3,16.88 3,16.5V7.5C3,7.12 3.21,6.79 3.53,6.62L11.43,2.18C11.59,2.06 11.79,2 12,2C12.21,2 12.41,2.06 12.57,2.18L20.47,6.62C20.79,6.79 21,7.12 21,7.5V16.5M5.5,14.32C4.95,14 4.5,14.2 4.5,14.75C4.5,15.3 4.95,16 5.5,16.32C6.05,16.63 6.5,16.43 6.5,15.88C6.5,15.33 6.05,14.63 5.5,14.32M5.5,10.32C4.95,10 4.5,10.2 4.5,10.75C4.5,11.3 4.95,12 5.5,12.32C6.05,12.63 6.5,12.43 6.5,11.88C6.5,11.33 6.05,10.63 5.5,10.32M9.5,16.58C8.95,16.27 8.5,16.46 8.5,17C8.5,17.57 8.95,18.27 9.5,18.58C10.05,18.89 10.5,18.7 10.5,18.15C10.5,17.59 10.05,16.89 9.5,16.58M7.5,13.45C6.95,13.14 6.5,13.33 6.5,13.88C6.5,14.43 6.95,15.14 7.5,15.45C8.05,15.76 8.5,15.57 8.5,15C8.5,14.46 8.05,13.76 7.5,13.45M9.5,12.58C8.95,12.27 8.5,12.46 8.5,13C8.5,13.57 8.95,14.27 9.5,14.58C10.05,14.89 10.5,14.7 10.5,14.15C10.5,13.59 10.05,12.89 9.5,12.58M18.5,14.32C17.95,14.63 17.5,15.33 17.5,15.88C17.5,16.43 17.95,16.63 18.5,16.32C19.05,16 19.5,15.3 19.5,14.75C19.5,14.2 19.05,14 18.5,14.32M18.5,10.32C17.95,10.63 17.5,11.33 17.5,11.88C17.5,12.43 17.95,12.63 18.5,12.32C19.05,12 19.5,11.3 19.5,10.75C19.5,10.2 19.05,10 18.5,10.32M14.5,16.58C13.95,16.89 13.5,17.59 13.5,18.15C13.5,18.7 13.95,18.89 14.5,18.58C15.05,18.27 15.5,17.57 15.5,17C15.5,16.46 15.05,16.27 14.5,16.58M14.5,12.58C13.95,12.89 13.5,13.59 13.5,14.15C13.5,14.7 13.95,14.89 14.5,14.58C15.05,14.27 15.5,13.57 15.5,13C15.5,12.46 15.05,12.27 14.5,12.58M16.5,7.77C17.04,7.45 17.09,6.96 16.62,6.69C16.14,6.41 15.31,6.45 14.76,6.77C14.21,7.09 14.16,7.58 14.64,7.85C15.11,8.13 15.95,8.09 16.5,7.77M9.07,8.1C9.61,7.78 9.67,7.3 9.19,7C8.71,6.74 7.88,6.78 7.34,7.1C6.79,7.43 6.73,7.91 7.21,8.19C7.69,8.46 8.5,8.43 9.07,8.1M12.78,7.94C13.33,7.61 13.38,7.13 12.9,6.85C12.43,6.58 11.59,6.61 11.05,6.94C10.5,7.26 10.45,7.74 10.92,8C11.4,8.3 12.23,8.26 12.78,7.94Z" fill="#333333" fill-opacity=".6"/></svg>