<?xml version="1.0" encoding="UTF-8" standalone="no"?>
<!-- Created with Inkscape (http://www.inkscape.org/) -->

<svg
   xmlns:dc="http://purl.org/dc/elements/1.1/"
   xmlns:cc="http://creativecommons.org/ns#"
   xmlns:rdf="http://www.w3.org/1999/02/22-rdf-syntax-ns#"
   xmlns:svg="http://www.w3.org/2000/svg"
   xmlns="http://www.w3.org/2000/svg"
   version="1.1"
   width="24"
   height="24"
   viewBox="0 0 24 24"
   id="svg2">
  <metadata
     id="metadata10">
    <rdf:RDF>
      <cc:Work
         rdf:about="">
        <dc:format>image/svg+xml</dc:format>
        <dc:type
           rdf:resource="http://purl.org/dc/dcmitype/StillImage" />
        <dc:title></dc:title>
      </cc:Work>
    </rdf:RDF>
  </metadata>
  <defs
     id="defs8" />
  <path
     d="m 18.54589,16.112982 -2.438237,2.438236 -2.438236,-2.438236 h 1.462942 v -1.950588 h 1.95059 v 1.950588 m 2.608912,-1.448313 c -0.331601,-1.677505 -1.809171,-2.940513 -3.584208,-2.940513 -1.4093,0 -2.633295,0.799742 -3.242853,1.965219 -1.467818,0.16093 -2.608913,1.399547 -2.608913,2.911254 a 2.9258831,2.9258831 0 0 0 2.925883,2.925883 h 6.339414 a 2.438236,2.438236 0 0 0 2.438236,-2.438236 c 0,-1.287388 -0.999677,-2.330953 -2.267559,-2.423607 z"
     id="path3084" fill="#333333" fill-opacity=".6"/>
  <path
     d="m 4.0625,3.96875 a 1,1 0 0 0 -1,1 l 0,10 a 1,1 0 0 0 1,1 l 5.84375,0 c 0.273703,-1.332965 1.293166,-2.52166 2.6875,-2.71875 0.771546,-1.058684 1.87738,-2.0555 3.28125,-1.96875 0.722535,-0.126956 1.417972,0.121683 2.09375,0.34375 1.001766,0.524967 1.838473,1.44279 2.125,2.5625 0.352016,0.0703 0.671144,0.222214 0.96875,0.40625 l 0,-10.125 -4,4 0,-3.5 a 1,1 0 0 0 -1,-1 l -12,0 z"
     id="path3137" fill="#333333" fill-opacity=".6"/>
</svg>
