<?xml version="1.0" encoding="UTF-8" standalone="no"?>
<!-- Created with Inkscape (http://www.inkscape.org/) -->

<svg
   xmlns:dc="http://purl.org/dc/elements/1.1/"
   xmlns:cc="http://creativecommons.org/ns#"
   xmlns:rdf="http://www.w3.org/1999/02/22-rdf-syntax-ns#"
   xmlns:svg="http://www.w3.org/2000/svg"
   xmlns="http://www.w3.org/2000/svg"
   version="1.1"
   width="24"
   height="24"
   viewBox="0 0 24 24"
   id="svg2">
  <metadata
     id="metadata10">
    <rdf:RDF>
      <cc:Work
         rdf:about="">
        <dc:format>image/svg+xml</dc:format>
        <dc:type
           rdf:resource="http://purl.org/dc/dcmitype/StillImage" />
        <dc:title></dc:title>
      </cc:Work>
    </rdf:RDF>
  </metadata>
  <defs
     id="defs8" />
  <path
     d="m 18.54589,18.58647 -2.438237,2.438236 -2.438236,-2.438236 h 1.462942 v -1.950588 h 1.95059 v 1.950588 m 2.608912,-1.448313 c -0.331601,-1.677505 -1.809171,-2.940513 -3.584208,-2.940513 -1.4093,0 -2.633295,0.799742 -3.242853,1.965219 -1.467818,0.16093 -2.608913,1.399547 -2.608913,2.911254 A 2.9258831,2.9258831 0 0 0 13.18177,22 h 6.339414 a 2.438236,2.438236 0 0 0 2.438236,-2.438236 c 0,-1.287388 -0.999677,-2.330953 -2.267559,-2.423607 z"
     id="path3084" fill="#333333" fill-opacity=".6"/>
  <path
     d="M 6,2 C 4.89,2 4,2.89 4,4 l 0,16 c 0,1.1 0.89,2 2,2 l 5.5625,0 C 11.001359,21.712309 10.536063,21.306606 10.25,20.71875 9.7449844,19.881292 9.7268073,18.888598 10.03125,18 L 6,18 l 0,-2 5.6875,0 c 0.279695,-0.142052 0.582752,-0.235523 0.90625,-0.28125 0.516304,-0.708451 1.195169,-1.371872 2,-1.71875 L 6,14 l 0,-2 12,0 0,2 -0.34375,0 c 0.103231,0.03344 0.210196,0.06013 0.3125,0.09375 0.905651,0.474599 1.679974,1.274334 2.03125,2.25 L 20,8 14,2 6,2 z M 13,3.5 18.5,9 13,9 13,3.5 z"
     id="path3125" fill="#333333" fill-opacity=".6"/>
</svg>
