<?xml version="1.0" encoding="UTF-8" standalone="no"?>
<!-- Created with Inkscape (http://www.inkscape.org/) -->

<svg
   xmlns:dc="http://purl.org/dc/elements/1.1/"
   xmlns:cc="http://creativecommons.org/ns#"
   xmlns:rdf="http://www.w3.org/1999/02/22-rdf-syntax-ns#"
   xmlns:svg="http://www.w3.org/2000/svg"
   xmlns="http://www.w3.org/2000/svg"
   version="1.1"
   width="24"
   height="24"
   viewBox="0 0 24 24"
   id="svg2">
  <metadata
     id="metadata10">
    <rdf:RDF>
      <cc:Work
         rdf:about="">
        <dc:format>image/svg+xml</dc:format>
        <dc:type
           rdf:resource="http://purl.org/dc/dcmitype/StillImage" />
        <dc:title></dc:title>
      </cc:Work>
    </rdf:RDF>
  </metadata>
  <defs
     id="defs8" />
  <path
     d="M 12,2 C 6.764012,2 2,6.764012 2,12 c 0,5.235989 4.764012,10 10,10 0.200419,0 0.394955,-0.01753 0.59375,-0.03125 8.2e-5,1.54e-4 -7.5e-5,-0.03141 0,-0.03125 7.5e-5,1.58e-4 -0.03132,-0.06266 -0.03125,-0.0625 6.7e-5,1.61e-4 -5.9e-5,-0.03141 0,-0.03125 5.9e-5,1.64e-4 -0.0313,-0.06267 -0.03125,-0.0625 5.1e-5,1.67e-4 -4.2e-5,-0.03142 0,-0.03125 4.2e-5,1.69e-4 -0.03128,-0.06267 -0.03125,-0.0625 3.4e-5,1.71e-4 -2.6e-5,-0.03142 0,-0.03125 2.6e-5,1.73e-4 -1.7e-5,-0.06267 0,-0.0625 1.7e-5,1.74e-4 -9e-6,-0.03142 0,-0.03125 l 0,-0.0625 0,-5 0,-0.03125 c -4e-6,1.56e-4 1.1e-5,-0.06265 0,-0.0625 -1.1e-5,1.55e-4 1.8e-5,-0.0314 0,-0.03125 -1.8e-5,1.55e-4 2.4e-5,-0.0314 0,-0.03125 -2.4e-5,1.54e-4 3.1e-5,-0.06265 0,-0.0625 -3.1e-5,1.52e-4 0.03129,-0.0314 0.03125,-0.03125 -3.8e-5,1.51e-4 4.4e-5,-0.0314 0,-0.03125 -4.4e-5,1.49e-4 5.1e-5,-0.06265 0,-0.0625 -5.1e-5,1.47e-4 0.03131,-0.03139 0.03125,-0.03125 -5.7e-5,1.45e-4 6.3e-5,-0.03139 0,-0.03125 l 0.03125,-0.0625 c -7e-5,1.39e-4 0.03133,-0.03139 0.03125,-0.03125 -7.6e-5,1.36e-4 8.1e-5,-0.03138 0,-0.03125 -8.1e-5,1.33e-4 0.03134,-0.03138 0.03125,-0.03125 -8.7e-5,1.29e-4 0.03134,-0.06263 0.03125,-0.0625 -9.3e-5,1.25e-4 0.03135,-0.03137 0.03125,-0.03125 -9.8e-5,1.21e-4 0.03135,-0.03137 0.03125,-0.03125 L 12.78125,15.78125 12.8125,15.75 c -1.13e-4,1.07e-4 0.03137,-0.03135 0.03125,-0.03125 -1.18e-4,1.02e-4 0.03137,-0.03135 0.03125,-0.03125 -1.22e-4,9.7e-5 0.03138,-9.1e-5 0.03125,0 -1.26e-4,9.1e-5 0.03138,-0.03134 0.03125,-0.03125 -1.3e-4,8.6e-5 0.03138,-0.03133 0.03125,-0.03125 -1.34e-4,8e-5 0.06264,-0.03132 0.0625,-0.03125 -1.37e-4,7.4e-5 0.03139,-6.8e-5 0.03125,0 -1.4e-4,6.8e-5 0.03139,-0.03131 0.03125,-0.03125 -1.43e-4,6.2e-5 0.03139,-0.0313 0.03125,-0.03125 -1.45e-4,5.5e-5 0.06265,-4.9e-5 0.0625,0 -1.48e-4,4.9e-5 0.0314,-4.2e-5 0.03125,0 -1.5e-4,4.2e-5 0.06265,-0.03129 0.0625,-0.03125 -1.51e-4,3.6e-5 0.0314,-2.9e-5 0.03125,0 a 0.51071839,0.51071839 0 0 1 0.03125,0 c -1.66e-4,1.6e-5 0.06267,-8e-6 0.0625,0 l 0.03125,0 0.0625,0 0.0625,0 5.9375,0 0.0625,0 c -1.74e-4,-9e-6 0.03142,1.7e-5 0.03125,0 -1.74e-4,-1.7e-5 0.06267,2.6e-5 0.0625,0 -1.73e-4,-2.6e-5 0.03142,3.4e-5 0.03125,0 -1.71e-4,-3.4e-5 0.06267,0.03129 0.0625,0.03125 -1.69e-4,-4.2e-5 0.03142,5.1e-5 0.03125,0 -1.67e-4,-5.1e-5 0.06266,0.03131 0.0625,0.03125 -1.64e-4,-5.9e-5 0.03141,6.7e-5 0.03125,0 -1.61e-4,-6.7e-5 0.06266,0.03133 0.0625,0.03125 -1.58e-4,-7.5e-5 0.0314,8.2e-5 0.03125,0 -1.54e-4,-8.2e-5 0.06265,0.03134 0.0625,0.03125 -1.5e-4,-9e-5 0.03139,0.03135 0.03125,0.03125 -1.45e-4,-9.7e-5 0.03139,0.03135 0.03125,0.03125 -1.4e-4,-1.04e-4 0.06264,0.03136 0.0625,0.03125 -1.35e-4,-1.11e-4 0.03138,0.03137 0.03125,0.03125 l 0.03125,0.03125 0.03125,0.03125 c -1.17e-4,-1.29e-4 0.03136,0.03139 0.03125,0.03125 -1.11e-4,-1.35e-4 0.03135,0.06264 0.03125,0.0625 -1.04e-4,-1.4e-4 0.03135,0.03139 0.03125,0.03125 -9.7e-5,-1.45e-4 0.03134,0.0314 0.03125,0.03125 -9e-5,-1.5e-4 0.03133,0.06265 0.03125,0.0625 -8.2e-5,-1.54e-4 7.5e-5,0.03141 0,0.03125 -7.5e-5,-1.58e-4 0.03132,0.06266 0.03125,0.0625 -6.7e-5,-1.61e-4 5.9e-5,0.03141 0,0.03125 -5.9e-5,-1.64e-4 0.0313,0.06267 0.03125,0.0625 -5.1e-5,-1.67e-4 4.2e-5,0.03142 0,0.03125 -4.2e-5,-1.69e-4 0.03128,0.06267 0.03125,0.0625 -3.4e-5,-1.71e-4 2.6e-5,0.03142 0,0.03125 -2.6e-5,-1.73e-4 1.7e-5,0.06267 0,0.0625 -1.7e-5,-1.74e-4 9e-6,0.03142 0,0.03125 l 0,0.0625 0,0.5 0.03125,-0.03125 C 21.454235,15.472436 22,13.769975 22,12 22,6.764012 17.235989,2 12,2 z m 0,7.5 c 1.308998,0 2.5,1.191004 2.5,2.5 0,1.308999 -1.191002,2.5 -2.5,2.5 -1.3875,0 -2.5,-1.124998 -2.5,-2.5 0,-1.387499 1.1125,-2.5 2.5,-2.5 z"
     id="path4"
     style="fill:#333333;fill-opacity:0.6" />
  <path
     d="M 13.40625,16 A 0.50000001,0.50000001 0 0 0 13,16.5 l 0,5 a 0.50000001,0.50000001 0 0 0 0.5,0.5 l 6,0 A 0.50000001,0.50000001 0 0 0 20,21.5 l 0,-1.75 2,2 0,-5.5 -2,2 0,-1.75 A 0.50000001,0.50000001 0 0 0 19.5,16 l -6,0 a 0.50000001,0.50000001 0 0 0 -0.09375,0 z"
     id="path3004"
     style="fill:#333333;fill-opacity:0.6" />
</svg>
