<?xml version="1.0" encoding="UTF-8" standalone="no"?>
<!-- Created with Inkscape (http://www.inkscape.org/) -->

<svg
   xmlns:dc="http://purl.org/dc/elements/1.1/"
   xmlns:cc="http://creativecommons.org/ns#"
   xmlns:rdf="http://www.w3.org/1999/02/22-rdf-syntax-ns#"
   xmlns:svg="http://www.w3.org/2000/svg"
   xmlns="http://www.w3.org/2000/svg"
   version="1.1"
   width="24"
   height="24"
   viewBox="0 0 24 24"
   id="svg2">
  <metadata
     id="metadata10">
    <rdf:RDF>
      <cc:Work
         rdf:about="">
        <dc:format>image/svg+xml</dc:format>
        <dc:type
           rdf:resource="http://purl.org/dc/dcmitype/StillImage" />
        <dc:title></dc:title>
      </cc:Work>
    </rdf:RDF>
  </metadata>
  <defs
     id="defs8" />
  <path
     d="M 12,2 C 6.764013,2 2,6.764013 2,12 c 0,5.23599 4.764013,10 10,10 0.971564,0 1.932108,-0.168115 2.84375,-0.46875 -0.429758,-0.485012 -0.708918,-1.079015 -0.71875,-1.75 -0.186643,-1.90124 1.933789,-3.354295 3.6875,-2.75 0.05823,-1.551359 0.02048,-3.104172 0.03125,-4.65625 l 0,-0.09375 4.125,0 C 21.97188,12.186296 22,12.095292 22,12 22,6.764013 17.23599,2 12,2 z m 0,7.5 c 1.309,0 2.5,1.191004 2.5,2.5 0,1.309 -1.191,2.5 -2.5,2.5 -1.387499,0 -2.5,-1.124997 -2.5,-2.5 0,-1.387497 1.112501,-2.5 2.5,-2.5 z m 7.6875,5.5625 0,2.15625 c -0.01748,0.298626 -0.01239,0.620748 0,0.9375 0.760588,-0.92845 1.381848,-1.972021 1.78125,-3.09375 l -1.78125,0 z"
     id="path4"
     style="fill:#333333;fill-opacity:0.6" />
  <path
     d="m 22,14.60339 -2.773729,0 0,5.08517 c 0,1.210267 -1.101173,2.31144 -2.311441,2.31144 -1.210267,0 -2.31144,-1.101173 -2.31144,-2.31144 0,-1.210268 1.101173,-2.311441 2.31144,-2.311441 0.52701,0 0.998543,0.175669 1.386865,0.462288 l 0,-5.085169 3.698305,0"
     id="path2991"
     style="fill:#333333;fill-opacity:0.6" />
</svg>
