<?xml version="1.0" encoding="UTF-8" standalone="no"?>
<!-- Created with Inkscape (http://www.inkscape.org/) -->

<svg
   xmlns:dc="http://purl.org/dc/elements/1.1/"
   xmlns:cc="http://creativecommons.org/ns#"
   xmlns:rdf="http://www.w3.org/1999/02/22-rdf-syntax-ns#"
   xmlns:svg="http://www.w3.org/2000/svg"
   xmlns="http://www.w3.org/2000/svg"
   version="1.1"
   width="24"
   height="24"
   viewBox="0 0 24 24"
   id="svg2">
  <metadata
     id="metadata10">
    <rdf:RDF>
      <cc:Work
         rdf:about="">
        <dc:format>image/svg+xml</dc:format>
        <dc:type
           rdf:resource="http://purl.org/dc/dcmitype/StillImage" />
        <dc:title></dc:title>
      </cc:Work>
    </rdf:RDF>
  </metadata>
  <defs
     id="defs8" />
  <path
     d="M 12,2 C 6.764012,2 2,6.764012 2,12 c 0,4.929765 4.2297857,9.426671 9.09375,9.9375 -0.281101,-0.678297 0.211519,-1.44992 0.96875,-1.3125 -0.14564,-1.328881 -0.07436,-2.692785 -0.09375,-4.03125 -0.07035,-0.81714 0.07659,-2.04092 1.125,-2 1.724461,-0.05423 3.462483,-0.02315 5.1875,-0.03125 1.851066,0 2.920942,-0.113679 3.09375,0.53125 0.0116,0.04042 0.02083,0.08375 0.03125,0.125 C 21.790417,14.195944 22,13.105232 22,12 22,6.764012 17.235989,2 12,2 z m 0,7.5 c 1.308998,0 2.5,1.191004 2.5,2.5 0,1.308999 -1.191002,2.5 -2.5,2.5 -1.3875,0 -2.5,-1.124998 -2.5,-2.5 0,-1.387499 1.1125,-2.5 2.5,-2.5 z m 1.75,6.875 0,3.40625 4.28125,0 c 0.64976,-0.517007 1.232993,-1.10024 1.75,-1.75 l 0,-1.65625 z"
     id="path4"
     style="fill:#333333;fill-opacity:0.6" />
  <path
     d="m 13.294849,15.906395 h 6.964121 v 4.352575 h -6.964121 m 6.964121,0.870516 a 0.87051508,0.87051508 0 0 0 0.870514,-0.870516 v -4.352575 c 0,-0.483136 -0.391732,-0.870515 -0.870514,-0.870515 h -6.964121 c -0.483136,0 -0.870515,0.387379 -0.870515,0.870515 v 4.352575 a 0.87051508,0.87051508 0 0 0 0.870515,0.870516 h -1.74103 V 22 H 22 v -0.870514 h -1.74103 z"
     id="path3062"
     style="fill:#333333;fill-opacity:0.6" />
</svg>
